<?xml version="1.0" encoding="UTF-8"?>
<svg id="bg_landing" data-name="bg landing" xmlns="http://www.w3.org/2000/svg" viewBox="0 0 620 275.26">
  <defs>
    <style>
      .cls-1 {
        fill: #e8db84;
      }
    </style>
  </defs>
  <path class="cls-1" d="M565.89,155.96c-18.96-27.97-37.93-55.93-57.13-84.26,1.08-.12,1.67-.25,2.27-.25,9.35-.01,18.7-.26,28.04,.07,9.13,.33,16.4,4.64,21.83,11.95,3.79,5.1,5.54,10.88,5.52,17.26-.05,17.65-.02,35.3-.02,52.95,0,.69,0,1.38,0,2.07-.17,.07-.34,.14-.5,.22Z"/>
  <circle class="cls-1" cx="66.47" cy="262.74" r="12.89"/>
  <path class="cls-1" d="M509.3,127.86c-11.58-16.76-22.93-33.69-34.35-50.55-1.04-1.54-1.92-3.19-3.06-4.65-.46-.59-1.36-.94-2.13-1.16-.64-.19-1.38-.05-2.08-.05-128.01,0-256.02,.07-384.03-.1-14.4-.02-27.22,10-29.75,24.21-.06,.34-.21,.66-.31,.99V242.49c3.85-2.67,8.52-4.25,13.57-4.25,13.15,0,23.81,10.66,23.81,23.81,0,4.88-1.47,9.42-3.99,13.2h221.61c-16.83-24.84-33.67-49.69-50.5-74.53-5.4-7.98-10.95-15.86-16.15-23.97-4.43-6.9-2.22-16.2,4.56-20.79,6.85-4.64,16.33-3.18,21.13,3.57,5.68,7.99,11.08,16.19,16.59,24.31,8.97,13.21,17.93,26.41,26.88,39.63,4.84,7.15,15.07,8.95,21.98,3.7,5.4-4.11,7.48-9.62,6.11-16.28-.29-1.43-1.01-2.86-1.83-4.09-5.9-8.84-11.85-17.63-17.82-26.42-5.69-8.37-2.27-21.55,9.73-23.97,6.08-1.23,11.52,.5,15.3,5.63,3.92,5.32,7.53,10.88,11.25,16.36,10.91,16.1,21.79,32.21,32.7,48.31,3.71,5.48,7.46,10.93,11.16,16.41,5.58,8.25,18.14,8.81,24.63,1.24,4.63-5.4,4.76-13.81,1.04-19.2-13.36-19.34-26.43-38.89-39.61-58.35-6.7-9.9-13.47-19.76-20.12-29.7-5.54-8.29-2.49-18.88,6.51-23.03,6.45-2.98,14.94-.68,18.95,5.21,7.35,10.79,14.66,21.62,21.99,32.43,4.2,6.2,8.44,12.37,12.61,18.59,1.48,2.2,3.73,3.11,6.08,3.75,6.41,1.75,13.06-.71,16.91-6.13,3.83-5.39,3.95-12.3,.28-17.81-2.74-4.1-5.6-8.13-8.27-12.28-4.45-6.91-2.78-15.77,3.82-20.85,6.15-4.73,15.41-3.9,20.73,1.96,1.28,1.41,2.31,3.05,3.38,4.63,4.96,7.29,10.01,14.53,14.82,21.93,5.61,8.63,18.95,9.4,25.66,.27,3.75-5.1,3.81-12.73,.21-17.93Z"/>
</svg>