<svg xmlns="http://www.w3.org/2000/svg" viewBox="0 0 144.5 202.15"><defs><style>.cls-1{fill:#455a64;}.cls-2{fill:#263238;}.cls-3{fill:#20c997;}.cls-4{fill:#fff;}.cls-5{fill:#7e57c2;}.cls-6{opacity:0.3;}.cls-7{fill:#f5f5f5;}.cls-8{fill:#ffbe9d;}.cls-9{fill:#eb996e;}.cls-10{fill:#e0e0e0;}.cls-11{opacity:0.6;}</style></defs><title>courselist0</title><g id="course"><g id="freepik--light-bulb--inject-203"><path class="cls-1" d="M106.88,161.25,48,161.11a4.15,4.15,0,0,1-4.41-3.84h0c0-2.1,2-3.79,4.43-3.79l58.84.14a4.14,4.14,0,0,1,4.41,3.83h0C111.3,159.54,109.32,161.25,106.88,161.25Z"/><path class="cls-1" d="M106.88,152,48,151.83A4.15,4.15,0,0,1,43.63,148h0c0-2.11,2-3.8,4.43-3.8l58.84.13a4.16,4.16,0,0,1,4.41,3.84h0C111.3,150.27,109.32,152,106.88,152Z"/><path class="cls-1" d="M104.52,162.63l-53.87-.12a4,4,0,0,0,0,8.07h5.92l7.81,15A5.23,5.23,0,0,0,69,188.35l19.26,0a5.2,5.2,0,0,0,4.63-2.82l7.66-14.86h4a4,4,0,0,0,0-8.07Z"/><path class="cls-2" d="M123,100h0l-.44.65-1.28,1.9-.93,1.4c-.34.52-.68,1.11-1.07,1.74l-1.23,2c-.45.72-.84,1.54-1.31,2.37-.23.43-.47.86-.7,1.31-.12.23-.24.48-.36.68s-.22.48-.34.72c-.47,1-1,2-1.42,3.06l-1.4,3.41c-.44,1.2-.87,2.46-1.32,3.77a74.59,74.59,0,0,0-2.24,8.58,49.46,49.46,0,0,0-1,9.94v.08H108l-62.81,0h-.1v-.1a64.44,64.44,0,0,0-5.66-21.23A83.71,83.71,0,0,0,33.8,110c-1.06-1.68-2.19-3.32-3.39-4.94s-2.51-3.16-3.8-4.75l-.15-.19h.25l-.09.19A60.91,60.91,0,0,1,14.9,74.52c-.25-1.2-.41-2.42-.6-3.65-.08-.62-.13-1.23-.2-1.85l-.09-1-.07-.95c0-.62-.09-1.24-.1-1.87s0-1.25,0-1.9,0-1.25,0-1.89,0-1.27,0-1.9a62.71,62.71,0,0,1,2.71-15A61.32,61.32,0,0,1,51.35,6.64,59,59,0,0,1,61,3.57,61.3,61.3,0,0,1,80.39,2.26a65,65,0,0,1,9.28,1.58,63.9,63.9,0,0,1,8.7,2.91,66.36,66.36,0,0,1,7.92,4.05,65.69,65.69,0,0,1,7,5,61.59,61.59,0,0,1,11.13,12A60.22,60.22,0,0,1,131.58,41c.47,1.11.8,2.25,1.19,3.36s.64,2.24.95,3.33.52,2.21.74,3.32c.1.55.2,1.09.29,1.63s.2,1.08.26,1.62a61.35,61.35,0,0,1,.54,12.19,60.59,60.59,0,0,1-4.27,19,64.41,64.41,0,0,1-3,6.46c-1,1.81-1.93,3.32-2.72,4.48l-1,1.54-.8,1.08L123,100l.63-.88.8-1.1,1-1.55c.78-1.18,1.69-2.67,2.69-4.49a63.24,63.24,0,0,0,3-6.46,61.19,61.19,0,0,0,3.67-31.2c-.06-.54-.16-1.07-.26-1.61s-.19-1.08-.29-1.63c-.21-1.09-.47-2.18-.75-3.32s-.6-2.22-.94-3.32-.73-2.25-1.2-3.35a59.42,59.42,0,0,0-7.11-13.23A61.13,61.13,0,0,0,113.2,15.93a67.19,67.19,0,0,0-7-5,66.09,66.09,0,0,0-7.91-4,64.68,64.68,0,0,0-8.66-2.89,63.29,63.29,0,0,0-9.26-1.57A60.82,60.82,0,0,0,61,3.79a59.54,59.54,0,0,0-9.57,3.06,62.78,62.78,0,0,0-9.09,4.74A61,61,0,0,0,16.8,44.74a62.21,62.21,0,0,0-2.7,14.94c0,.63,0,1.25-.06,1.9s0,1.25,0,1.87,0,1.25,0,1.87.07,1.25.11,1.86l.05.95.1,1c.07.61.13,1.23.2,1.84.19,1.22.35,2.44.6,3.64a60.59,60.59,0,0,0,11.66,25.72l.15.2h-.24l.09-.2c1.3,1.57,2.63,3.11,3.8,4.75s2.33,3.28,3.39,5a82.25,82.25,0,0,1,5.6,10.32,64.63,64.63,0,0,1,5.69,21.31l-.1-.1,62.8,0-.08.08a50.43,50.43,0,0,1,1-10,75,75,0,0,1,2.22-8.61c.48-1.31.9-2.57,1.35-3.77s.94-2.32,1.42-3.42,1-2.08,1.42-3l.34-.71.36-.69c.25-.44.48-.88.71-1.31.48-.84.87-1.66,1.32-2.37l1.24-2c.39-.63.73-1.22,1.08-1.74s.67-1,1-1.39l1.3-1.89L123,100h0Z"/><path class="cls-2" d="M22.49,83.32a.58.58,0,0,1,0-.14c0-.1-.08-.23-.14-.4l-.5-1.55-.36-1.12c-.12-.41-.23-.86-.35-1.35-.24-1-.55-2.08-.76-3.32q-.16-.93-.36-2c-.13-.68-.18-1.39-.28-2.14-.23-1.47-.3-3-.41-4.74a65.68,65.68,0,0,1,.48-10.86,66.26,66.26,0,0,1,2.41-10.59c.55-1.58,1-3.09,1.65-4.45.3-.69.55-1.36.85-2l.87-1.79c.52-1.15,1.13-2.12,1.61-3,.25-.43.47-.85.7-1.21l.64-1,.9-1.35.24-.35c.05-.08.08-.12.09-.11s0,0-.07.12l-.22.36-.86,1.38-.62,1c-.22.37-.43.78-.68,1.22-.47.88-1.06,1.86-1.58,3l-.85,1.79c-.29.62-.54,1.29-.83,2-.59,1.35-1.08,2.84-1.62,4.44A68,68,0,0,0,20,55.79a67.33,67.33,0,0,0-.51,10.81c.11,1.66.17,3.25.38,4.71.1.74.15,1.45.27,2.13s.23,1.33.35,2a31.55,31.55,0,0,0,.71,3.32c.12.47.22,1,.33,1.36s.24.78.34,1.12c.19.67.35,1.19.47,1.56l.12.41A.81.81,0,0,1,22.49,83.32Z"/><path class="cls-2" d="M40.62,19.45a41.84,41.84,0,0,1-3.27,3,38.3,38.3,0,0,1-3.43,2.79,41.84,41.84,0,0,1,3.27-3A38.3,38.3,0,0,1,40.62,19.45Z"/><path class="cls-2" d="M123.69,90.2a.25.25,0,0,1,0-.11l.15-.31.56-1.16.41-.84c.15-.31.29-.66.48-1,.31-.74.7-1.56,1-2.5l.57-1.48c.19-.51.36-1.06.55-1.62.4-1.11.73-2.33,1.09-3.61a66.26,66.26,0,0,0,1.64-8.49,67.24,67.24,0,0,0,.44-8.63c-.06-1.33-.08-2.6-.2-3.8-.06-.59-.09-1.16-.16-1.7s-.13-1.07-.2-1.57c-.1-1-.29-1.9-.42-2.68-.07-.39-.13-.76-.19-1.1s-.14-.64-.21-.91L129,47.4c0-.14,0-.25-.06-.34V47a.49.49,0,0,1,0,.11c0,.09.05.19.09.33.08.31.18.72.31,1.25l.23.92c.07.33.13.7.21,1.09.14.79.34,1.69.47,2.69l.22,1.56c.07.55.11,1.12.17,1.72.13,1.17.16,2.44.22,3.79a59.39,59.39,0,0,1-2.08,17.19c-.37,1.28-.71,2.5-1.12,3.62-.2.56-.36,1.11-.57,1.62l-.58,1.47c-.36,1-.76,1.76-1.09,2.49-.17.37-.31.71-.47,1l-.44.83L124,89.8l-.17.29A.38.38,0,0,1,123.69,90.2Z"/></g><g id="freepik--Robot--inject-203"><path class="cls-3" d="M104,32.11a37.42,37.42,0,0,0-10.29-4.36,4.33,4.33,0,0,0-1.56-.13,1.66,1.66,0,0,0-1.26.83,2.17,2.17,0,0,0,.39,2,11.85,11.85,0,0,0,3.51,3.17A110.17,110.17,0,0,0,106.18,40,77.81,77.81,0,0,0,104,32.11"/><path class="cls-3" d="M128.88,39.26a37.2,37.2,0,0,0,4.42,10.27,4.15,4.15,0,0,0,1,1.17,1.64,1.64,0,0,0,1.48.27,2.13,2.13,0,0,0,1.12-1.73,12,12,0,0,0-.34-4.72,105.72,105.72,0,0,0-3.88-12.46c-1.56,2.34-2.51,4.75-3.84,7.2"/><path class="cls-3" d="M104,32s.25,24.84,14.19,25.33S132.67,32.22,132.67,32c0,0-1.65-3.7-14.36-3.56S104,32,104,32Z"/><path class="cls-2" d="M122.47,41.9A4.81,4.81,0,1,1,118,36.76h0A4.81,4.81,0,0,1,122.47,41.9Z"/><path class="cls-4" d="M121.17,41.81a3.5,3.5,0,1,1-3.24-3.75h0A3.51,3.51,0,0,1,121.17,41.81Z"/><path class="cls-5" d="M119.48,42.45a3.77,3.77,0,0,1,0-.58V40.36l0,.07-1.82-1h.1l-1.81,1,0-.09h0v2.08l0-.09,1.77,1.08h-.08l1.34-.7a3.48,3.48,0,0,1,.52-.24,3.76,3.76,0,0,1-.47.3c-.3.18-.76.47-1.33.78l0,0,0,0-1.81-1.05,0,0V40.33h0s.1-.18,0-.1l1.83-1,0,0,.05,0,1.78,1.09h0v0c0,.66,0,1.19-.06,1.55A2.55,2.55,0,0,1,119.48,42.45Z"/><path class="cls-2" d="M103.89,32H104l.21.07.81.28.58.21.71.22a17.79,17.79,0,0,0,1.72.48l1,.25c.35.09.73.16,1.11.24.76.17,1.59.29,2.45.44a40.24,40.24,0,0,0,11.39,0c.87-.14,1.69-.26,2.45-.44l1.11-.23,1-.26c.65-.16,1.22-.35,1.73-.48l.7-.21.58-.21.81-.29.21-.07.08,0a.18.18,0,0,0-.08,0l-.2.08-.81.3-.58.22c-.21.08-.47.14-.7.23-.5.15-1.07.35-1.72.51l-1,.26c-.35.09-.72.16-1.11.25-.76.17-1.59.3-2.45.44a39.09,39.09,0,0,1-11.43,0c-.87-.14-1.7-.27-2.46-.45-.38-.08-.75-.15-1.1-.24l-1-.26c-.65-.16-1.21-.36-1.72-.52l-.7-.22-.58-.22-.8-.3L104,32Z"/><g class="cls-6"><path d="M104,32s1.65-3.42,14.36-3.56S132.67,32,132.67,32A37.66,37.66,0,0,1,104,32Z"/></g><path class="cls-4" d="M108.32,49.72l0,0-.06-.11-.24-.44-.16-.31-.18-.38c-.13-.28-.27-.59-.41-.95l-.23-.56-.22-.61c-.17-.41-.31-.87-.48-1.35-.3-.95-.59-2-.84-3.18s-.44-2.23-.59-3.23-.26-1.9-.31-2.66c0-.38-.07-.72-.08-1s0-.56,0-.77v-.48a2.16,2.16,0,0,0,0,.47c0,.19,0,.48.06.77s0,.65.09,1c.07.76.19,1.66.33,2.66s.35,2.08.6,3.22.54,2.2.83,3.16c.16.48.3,1,.48,1.36l.22.61.22.56c.13.35.27.67.4.95l.17.39.16.31.21.45,0,.11Z"/><path class="cls-4" d="M115,55.69a.78.78,0,0,1-.22,0,4.34,4.34,0,0,1-.6-.14,6.06,6.06,0,0,1-.84-.32,7,7,0,0,1-.95-.56,7.27,7.27,0,0,1-.85-.71,7.68,7.68,0,0,1-.59-.69,2.78,2.78,0,0,1-.33-.51.78.78,0,0,1-.11-.2s.18.27.48.67a7.32,7.32,0,0,0,.59.66,8.1,8.1,0,0,0,.85.7,6.9,6.9,0,0,0,1,.55,5.9,5.9,0,0,0,.82.34C114.73,55.62,115,55.67,115,55.69Z"/><path class="cls-4" d="M117.94,46.93h-.51A5.06,5.06,0,0,1,116,46.7a5.47,5.47,0,0,1-1.85-1,5.12,5.12,0,0,1-2-4.53,5.19,5.19,0,0,1,.2-1.1,5.89,5.89,0,0,1,.35-.91,5.08,5.08,0,0,1,.78-1.17l.27-.27.1-.09a4.38,4.38,0,0,1-.34.39,5.3,5.3,0,0,0-.75,1.17,5.7,5.7,0,0,0-.33.9,5.79,5.79,0,0,0-.19,1.09,5.08,5.08,0,0,0,1.93,4.45,7,7,0,0,0,.92.61,7.6,7.6,0,0,0,.89.37,5.8,5.8,0,0,0,1.37.25C117.76,46.93,117.94,46.92,117.94,46.93Z"/><path class="cls-3" d="M117.34,6.21s-12.16-.15-14,10.39,8.35,10.72,11.31,10.91c1.34.09,4.21.1,6.74.06,5.6-.1,9.56-1.18,10.91-6.38a9.85,9.85,0,0,0,.3-1.87C132.88,13.63,129,5.93,117.34,6.21Z"/><path class="cls-2" d="M126.16,22.24l-17.66.28a3.35,3.35,0,0,1-3.4-3.3v0h0a3.36,3.36,0,0,1,3.3-3.41l17.66-.25a3.35,3.35,0,0,1,3.41,3.31h0A3.35,3.35,0,0,1,126.16,22.24Z"/><path class="cls-4" d="M112.16,18.85a1.08,1.08,0,0,1-1.26.86,1.08,1.08,0,0,1,.41-2.12h0A1.07,1.07,0,0,1,112.16,18.85Z"/><path class="cls-4" d="M124.5,18.66a1.08,1.08,0,1,1-.85-1.27h0A1.09,1.09,0,0,1,124.5,18.66Z"/><path class="cls-4" d="M115.26,18.36c.08,0,0,.38.27.88a2.23,2.23,0,0,0,.57.75,1.86,1.86,0,0,0,1,.45,1.78,1.78,0,0,0,1.08-.26,2.34,2.34,0,0,0,.7-.63c.32-.45.35-.83.43-.82s.06.09.06.27a1.84,1.84,0,0,1-.19.73,2.27,2.27,0,0,1-.76.84,2,2,0,0,1-2.63-.24,2.15,2.15,0,0,1-.59-.95,1.75,1.75,0,0,1-.07-.75Q115.2,18.35,115.26,18.36Z"/><path class="cls-4" d="M115.8,7h-.17a2.93,2.93,0,0,0-.47,0,13.16,13.16,0,0,0-4.34,1.19A12.87,12.87,0,0,0,108,10a13.21,13.21,0,0,0-3.59,4.75,12.84,12.84,0,0,0-.63,1.7c-.07.21-.1.37-.13.47l0,.13v0l0-.13a3.68,3.68,0,0,1,.11-.47,11.72,11.72,0,0,1,.58-1.73,12.72,12.72,0,0,1,9-7.42A12.46,12.46,0,0,1,115.15,7h.64Z"/><path class="cls-4" d="M103.91,21.58a1.43,1.43,0,0,1-.17-.38,5.32,5.32,0,0,1-.25-.95,5.6,5.6,0,0,1-.06-1,1.4,1.4,0,0,1,0-.41s0,.63.11,1.42A10.44,10.44,0,0,0,103.91,21.58Z"/><path class="cls-4" d="M123.24,14.92s-2.33.05-5.19.05-5.2,0-5.2-.05,2.33-.05,5.2-.05S123.24,14.9,123.24,14.92Z"/><path class="cls-4" d="M114.38,26.76H113.1a13,13,0,0,1-1.39-.08,15.76,15.76,0,0,1-1.67-.29,15.19,15.19,0,0,1-1.63-.47,13,13,0,0,1-1.28-.55c-.18-.08-.33-.17-.47-.24l-.35-.2-.22-.13-.07-.05a.18.18,0,0,1,.08,0l.23.12.35.18.48.23c.35.16.79.34,1.27.52a15.89,15.89,0,0,0,1.63.47,15.61,15.61,0,0,0,1.66.3c.52.06,1,.09,1.38.1h1.27Z"/><path class="cls-4" d="M129.24,33.56h-.05l-.13,0-.53.19-.84.27c-.33.1-.71.23-1.12.33l-.66.18-.73.16c-.47.12-1,.21-1.59.32a35.61,35.61,0,0,1-3.72.44c-1.24.06-2.49.06-3.73,0-.58,0-1.12-.07-1.63-.12l-.74-.08-.68-.09c-.43-.06-.81-.13-1.15-.19l-.87-.17-.55-.12-.14,0h0l.15,0,.55.1A8.51,8.51,0,0,0,112,35c.34.05.72.13,1.15.18l.68.08.73.08c.51,0,1.06.08,1.63.11a36.06,36.06,0,0,0,3.73,0,33,33,0,0,0,3.7-.43c.56-.1,1.1-.19,1.6-.31l.72-.16.66-.17c.42-.1.79-.21,1.12-.31s.62-.18.85-.26l.53-.17.14,0Z"/></g><g id="freepik--Rocket--inject-203"><path class="cls-3" d="M13.78,115.23l0,6.58s10.92-6.16,7.72-12.07Z"/><path class="cls-3" d="M14.84,100S7,97.15,1,102.49L7.13,106Z"/><path class="cls-7" d="M7.13,106c.25.32,6.64,9.26,6.64,9.26l16.72-11.86a6.1,6.1,0,0,0,1.45-8.51l-.31-.39h0a6.1,6.1,0,0,0-8.38-.9Z"/><path class="cls-2" d="M7.13,106a1.42,1.42,0,0,1,.13-.12l.42-.33,1.63-1.28,6.06-4.72,4.2-3.25,2.34-1.82,1.23-.94a6.51,6.51,0,0,1,1.39-.82,7.08,7.08,0,0,1,.77-.28,7.91,7.91,0,0,1,.82-.16,6,6,0,0,1,1.69,0A6.21,6.21,0,0,1,31,93.65,6.61,6.61,0,0,1,32.16,95a6.54,6.54,0,0,1,.77,1.65,6.32,6.32,0,0,1,0,3.68,6.11,6.11,0,0,1-2,2.91c-.94.71-1.86,1.33-2.77,2L22.84,109l-9,6.36-.08,0-.05-.07c-2-2.88-3.69-5.22-4.84-6.83l-1.3-1.85-.33-.48a.86.86,0,0,1-.1-.16l.12.17.36.47L9,108.45l4.89,6.73h-.13l9-6.4L28,105c.91-.65,1.86-1.29,2.76-2a6,6,0,0,0,1.94-6.33,6.22,6.22,0,0,0-.74-1.59,6,6,0,0,0-4.17-2.64,6.35,6.35,0,0,0-1.63,0,7.2,7.2,0,0,0-.78.16,6,6,0,0,0-.75.26A12.2,12.2,0,0,0,22,94.64L19.7,96.42l-4.2,3.19-6.11,4.65-1.68,1.26-.44.33Z"/><path class="cls-3" d="M15.14,105.45,4.7,113s.48,1.15.74,1,8.11-5.45,10.65-7.19a.82.82,0,0,0,.22-1.15l-.08-.09h0A.82.82,0,0,0,15.14,105.45Z"/><path class="cls-4" d="M26,100.74a3.49,3.49,0,1,1-3.71-3.26h0A3.48,3.48,0,0,1,26,100.74Z"/><path class="cls-2" d="M26,100.74a4,4,0,0,0-.21-.83,3.45,3.45,0,0,0-1.39-1.78,3.4,3.4,0,0,0-5.25,3.06,3.52,3.52,0,0,0,.78,2,3.41,3.41,0,0,0,3.43,1.12,3.37,3.37,0,0,0,1.39-.72,3.41,3.41,0,0,0,1.15-1.94,8.53,8.53,0,0,0,.1-.85.53.53,0,0,1,0,.22,2.28,2.28,0,0,1,0,.64,3.51,3.51,0,0,1-2.58,2.85,3.58,3.58,0,0,1-3.65-1.16,3.53,3.53,0,0,1-.84-2.08,3.61,3.61,0,0,1,2.16-3.53,3.75,3.75,0,0,1,1.87-.27,3.55,3.55,0,0,1,2.93,2.49,2.2,2.2,0,0,1,.12.63A.67.67,0,0,1,26,100.74Z"/><path class="cls-3" d="M31.27,102.73c5.61-5.25,4.61-11.33,4.61-11.33a14.89,14.89,0,0,0-12.64,2.17C28.26,94.28,31,97.32,31.27,102.73Z"/></g><g id="freepik--Character--inject-203"><path class="cls-8" d="M90.9,80.38l1.95,17.93,11.54,3.85.47,5.58-16.28-1.1s-5,.13-6.12-6.49L82.2,82.77Z"/><path class="cls-8" d="M114.85,107.64a.8.8,0,0,1-.86.24.66.66,0,0,1-.19-.09c-.41-.26-.13-1.16-.13-1.16l-2-.9a23.41,23.41,0,0,0-4.53,2c-1.3.92-3.56-.7-3.56-.7l.33-4.74,4.85-2.51s-.3.15.15-.44,1.61,0,1.61,0c.27-.28,1.11-.18,1.11-.18l3.32,1.3a2.39,2.39,0,0,1,1.42,1.54l.85,2.68a6.84,6.84,0,0,1,.11,2.21.71.71,0,0,1-.92.24s-.48,1-.76,1a2.36,2.36,0,0,1-.79-.44Z"/><path class="cls-9" d="M108,107.17l.25-.1.7-.31a22.89,22.89,0,0,1,2.67-1h-.06l2,.92-.06-.1a2.27,2.27,0,0,0-.09.52,1.05,1.05,0,0,0,.1.58.64.64,0,0,0,.25.21.75.75,0,0,0,.29.09.93.93,0,0,0,.61-.15.69.69,0,0,0,.13-.11l0,0h-.14l.06,0,.25.17a1.82,1.82,0,0,0,.27.15,1,1,0,0,0,.16.06.34.34,0,0,0,.2,0,.66.66,0,0,0,.29-.23,1.51,1.51,0,0,0,.18-.26,5.12,5.12,0,0,0,.3-.57l-.15.06a.83.83,0,0,0,.86-.07.67.67,0,0,0,.26-.38,1.64,1.64,0,0,0,.09-.44,12,12,0,0,0-.18-1.68h0c-.14-.48-.29-.95-.45-1.42-.09-.31-.19-.61-.28-.92a5.13,5.13,0,0,0-.35-.89,2.26,2.26,0,0,0-.63-.71,2.6,2.6,0,0,0-.83-.42L111.66,99h0a3.11,3.11,0,0,0-.61,0,1,1,0,0,0-.58.22h.12a1.25,1.25,0,0,0-1.12-.23,1.48,1.48,0,0,0-.77.73l0,0-3.32,1.72-.9.47a1.57,1.57,0,0,0-.31.18,2.33,2.33,0,0,0,.33-.14l.92-.43,3.37-1.65h0v0a1.27,1.27,0,0,1,.68-.63,1.05,1.05,0,0,1,.95.21l.07,0,.06-.06a.87.87,0,0,1,.47-.15,2.71,2.71,0,0,1,.57,0h0l3.14,1.24a2.94,2.94,0,0,1,.77.39,2.06,2.06,0,0,1,.57.64,4.49,4.49,0,0,1,.33.86c.09.3.19.6.28.91.15.47.31.94.45,1.42h0a12.81,12.81,0,0,1,.19,1.65,2.53,2.53,0,0,1,0,.38.5.5,0,0,1-.18.27.62.62,0,0,1-.63,0l-.11,0,0,.1a4.58,4.58,0,0,1-.28.54,1.1,1.1,0,0,1-.34.4.14.14,0,0,1-.09,0l-.13,0-.25-.13a1.88,1.88,0,0,1-.23-.16l-.06,0h-.14l0,0a.39.39,0,0,1-.1.08.65.65,0,0,1-.47.12.62.62,0,0,1-.23-.07.33.33,0,0,1-.17-.14,1.27,1.27,0,0,1,0-.94v-.08l-.08,0-2-.9h0a21.43,21.43,0,0,0-2.66,1l-.68.35A1.31,1.31,0,0,0,108,107.17Z"/><path class="cls-9" d="M110.75,100.64a4.41,4.41,0,0,0,1,.62,11.71,11.71,0,0,0,2.78.95l-.1-.11c0,.18,0,.38,0,.58a8.66,8.66,0,0,0,1,3.16,6.38,6.38,0,0,0,.55.84c.15.19.24.29.25.28s-.28-.45-.66-1.2a9.75,9.75,0,0,1-1-3.11c0-.2,0-.39,0-.56V102h-.09a13.41,13.41,0,0,1-2.76-.87A6.9,6.9,0,0,0,110.75,100.64Z"/><path class="cls-9" d="M113.48,103.5a5.6,5.6,0,0,0,1.47,4c.06,0-.51-.83-.91-1.94S113.55,103.49,113.48,103.5Z"/><path class="cls-9" d="M103.24,105.44l.09.1.31.22a3.83,3.83,0,0,0,1.31.52,3.79,3.79,0,0,0,2.13-.19,4.06,4.06,0,0,0,2-1.77l-.14.05a9.1,9.1,0,0,0,3.4.88,3,3,0,0,0,1-.06.69.69,0,0,0,.43-.29.59.59,0,0,0,.08-.5.71.71,0,0,0-.31-.41l-.37-.2c-1-.53-1.9-1-2.65-1.3s-1.42-.58-1.84-.74a3.35,3.35,0,0,0-.7-.22,4.43,4.43,0,0,0,.67.3c.43.19,1,.48,1.81.81s1.64.8,2.61,1.34l.36.2a.45.45,0,0,1,.2.27.43.43,0,0,1-.05.33.46.46,0,0,1-.3.19,2.83,2.83,0,0,1-.87,0,9.1,9.1,0,0,1-3.32-.85l-.1,0,0,.09a3.84,3.84,0,0,1-1.9,1.7,3.75,3.75,0,0,1-2,.24,4.37,4.37,0,0,1-1.3-.45C103.39,105.54,103.25,105.43,103.24,105.44Z"/><path class="cls-2" d="M117.16,172.42a1.14,1.14,0,0,0,0-.45,3,3,0,0,0-.45-1.14,1.7,1.7,0,0,0-.27-.33.51.51,0,0,0-.5-.11.37.37,0,0,0-.23.23.51.51,0,0,0,0,.3,4.16,4.16,0,0,0,.24.47c.17.3.32.59.54.92a.65.65,0,0,0,.6.27,1.21,1.21,0,0,0,.58-.25,4.92,4.92,0,0,0,.85-.79,4.7,4.7,0,0,0,.34-.44,1.57,1.57,0,0,0,.25-.5.47.47,0,0,0-.26-.55.6.6,0,0,0-.54.13,3.43,3.43,0,0,0-.56.64,4.11,4.11,0,0,0-.56,1.08,1.13,1.13,0,0,0-.1.44,9.57,9.57,0,0,1,.81-1.43,3.35,3.35,0,0,1,.55-.58.32.32,0,0,1,.31-.08.25.25,0,0,1,.11.28,1.25,1.25,0,0,1-.22.41c-.1.14-.21.28-.32.41a6.29,6.29,0,0,1-.81.74,1.09,1.09,0,0,1-.48.21.38.38,0,0,1-.36-.17c-.19-.27-.36-.61-.54-.88a3.23,3.23,0,0,1-.22-.41.19.19,0,0,1,.06-.25c.21-.08.41.15.54.35A4,4,0,0,1,117.16,172.42Z"/><polygon class="cls-8" points="105.58 172.81 99.83 185.28 90.55 180.99 96.49 165.56 105.58 172.81"/><path class="cls-3" d="M100.91,184.45l-3.36,6.41s8.58,8.9,7.8,10.88L85.12,192l5.56-12.85Z"/><path class="cls-10" d="M91.72,187a.92.92,0,0,0-1,.67.86.86,0,0,0,.65,1,1,1,0,0,0,1.08-.71.92.92,0,0,0-.8-1"/><g class="cls-11"><path class="cls-4" d="M85.12,192l.85-1.61,19.07,9.9s.71.82.31,1.43Z"/></g><path class="cls-2" d="M97.93,190.91c-.05.1-.57-.1-1.21,0s-1.09.37-1.16.29.35-.58,1.12-.67S98,190.83,97.93,190.91Z"/><path class="cls-2" d="M99.63,192.81c0,.1-.53.06-1.07.32s-.84.65-1,.6.11-.64.78-.95S99.67,192.71,99.63,192.81Z"/><path class="cls-2" d="M99.62,195.92c-.1,0,0-.58.51-1s1.08-.41,1.08-.31-.42.26-.84.6S99.72,196,99.62,195.92Z"/><path class="cls-2" d="M98.89,188.44c-.08.07-.47-.28-1-.51s-1.09-.26-1.1-.37.57-.26,1.25,0S99,188.37,98.89,188.44Z"/><path class="cls-2" d="M102.81,182.78l15.16-38s-.34-6.47-1.53-8.51-37.31-14-37.31-14-9.2-2.22-15.33,0-10.74,9.88-9.89,14.14,4.77,7.72,4.77,7.72l26.24.48,14.47,5.26-9.75,27.94Z"/><polygon class="cls-8" points="116.29 156.85 116.63 170.58 106.41 170.83 104.94 154.36 116.29 156.85"/><path class="cls-3" d="M117.24,169.35l-.19,7.24s11.64,4.18,11.79,6.32l-22.42.23-.69-14Z"/><path class="cls-10" d="M110.11,175.69a.91.91,0,0,0-.62,1.05.88.88,0,0,0,1,.63,1,1,0,0,0,.65-1.12.92.92,0,0,0-1.15-.54"/><g class="cls-11"><path class="cls-4" d="M106.43,183.15l0-1.81,21.49.47s1,.42.89,1.13Z"/></g><path class="cls-2" d="M117.42,176.47c0,.11-.55.16-1.08.52s-.83.82-.93.78.06-.67.72-1.1S117.44,176.37,117.42,176.47Z"/><path class="cls-2" d="M119.78,177.42c0,.1-.45.3-.81.76s-.48.95-.58.95-.19-.62.28-1.19S119.78,177.31,119.78,177.42Z"/><path class="cls-2" d="M121.15,180.22c-.1,0-.26-.52,0-1.12s.78-.85.83-.76-.26.42-.47.91S121.25,180.21,121.15,180.22Z"/><path class="cls-2" d="M117.19,173.83c0,.1-.55-.05-1.16,0s-1.1.25-1.16.16.4-.48,1.13-.54S117.25,173.74,117.19,173.83Z"/><path class="cls-2" d="M110.32,118.75a6.38,6.38,0,0,1,6.81,6.17c.68,6.64,1.34,37.64,1.34,37.64l-14.31,1.19-2.22-31.69-22.83-9.71S106.23,117.9,110.32,118.75Z"/><path class="cls-2" d="M85.08,109.79s3.72,10.43,3,11.58-10.27,5.93-10.27,5.93l-23.91,9.19a20,20,0,0,1-2.46-9.91c0-6,8.32-16.79,8.32-16.79Z"/><path class="cls-1" d="M78,121.82l.11.06.35.16,1.32.59,5,2.16,17.17,7.39-.09-.11c.22,3.13.46,6.51.7,10,.58,8.18,1.12,15.71,1.54,21.68v.11h.11l10.44-.92,2.85-.27.75-.08a1.15,1.15,0,0,0,.26,0h-.26l-.76,0-2.87.22-10.44.82.11.1c-.4-6-.92-13.51-1.48-21.68-.25-3.5-.48-6.88-.71-10V132l-.07,0-17.2-7.3-5-2.1L78.45,122l-.35-.14Z"/><path class="cls-1" d="M59,122.86a4,4,0,0,0,.68-.18l1.79-.58a38,38,0,0,1,6-1.52,17.76,17.76,0,0,1,6.17.07c.83.2,1.66.44,2.47.72a2.4,2.4,0,0,0-.62-.31,10.63,10.63,0,0,0-1.81-.59,16.63,16.63,0,0,0-6.25-.16,34.11,34.11,0,0,0-6,1.63c-.76.27-1.37.5-1.78.66A3.9,3.9,0,0,0,59,122.86Z"/><path class="cls-1" d="M62.35,117.37a18.22,18.22,0,0,1,2.09,0c.65,0,1.43.14,2.27.24s1.78.21,2.75.4a12.56,12.56,0,0,1,4.69,1.74,13.45,13.45,0,0,1,1.62,1.31,2.19,2.19,0,0,0-.34-.46,7.44,7.44,0,0,0-1.17-1,11.87,11.87,0,0,0-4.75-1.84c-1-.19-1.93-.3-2.78-.39s-1.62-.16-2.28-.18a10,10,0,0,0-1.55.06A2.1,2.1,0,0,0,62.35,117.37Z"/><path class="cls-2" d="M72.92,33.63c-2.76-.47-5.18.59-7.5,2.14a14.22,14.22,0,0,0-5.58,15.15,10.45,10.45,0,0,0,16.74,5.44,13.79,13.79,0,0,0,5.18-10.43A13.24,13.24,0,0,0,79.66,38a10.1,10.1,0,0,0-6.74-4.41"/><path class="cls-2" d="M65.09,43a14.84,14.84,0,0,0,.41-3.35,7.32,7.32,0,0,1,4.62-5.38,10.68,10.68,0,0,1,7.3.13,9.78,9.78,0,0,1,4.58,3,7.69,7.69,0,0,1,1.42,6.93L70.85,42.48A14.2,14.2,0,0,1,67.06,45a2.57,2.57,0,0,1-1.31.2,1.15,1.15,0,0,1-1-.8A2.28,2.28,0,0,1,65.09,43Z"/><path class="cls-8" d="M77.66,37.86l-11,2.32a2.05,2.05,0,0,0-1.9,2L64.92,66a7.39,7.39,0,0,0,1.55,4.47l1,1.35a5.41,5.41,0,0,0,9-.67,3,3,0,0,0,.25-.62,4.51,4.51,0,0,0,.1-.54l.22-2.31c.1-2.12.11-4.28.11-4.25s4.5-.57,5.65-6.36A61.92,61.92,0,0,0,83.4,45.5C83.33,42,81.18,37.63,77.66,37.86Z"/><path class="cls-2" d="M81.56,50.36a.74.74,0,0,1-.75.72.71.71,0,0,1-.74-.68v0a.74.74,0,0,1,.75-.72.71.71,0,0,1,.74.67Z"/><path class="cls-2" d="M82.28,47.92c-.09.09-.64-.35-1.44-.38s-1.43.35-1.5.26.06-.22.33-.4a2,2,0,0,1,1.2-.32A1.9,1.9,0,0,1,82,47.5C82.26,47.71,82.33,47.92,82.28,47.92Z"/><path class="cls-2" d="M74.14,50a.76.76,0,0,1-.75.73.72.72,0,0,1-.74-.69h0a.74.74,0,0,1,.75-.73.72.72,0,0,1,.74.68Z"/><path class="cls-2" d="M74.65,47.74c-.09.09-.64-.35-1.45-.38s-1.42.35-1.49.25.06-.22.32-.39a2.06,2.06,0,0,1,1.21-.32,1.9,1.9,0,0,1,1.14.42C74.63,47.52,74.7,47.7,74.65,47.74Z"/><path class="cls-2" d="M77.06,53.85a5.32,5.32,0,0,1,1.32-.18c.2,0,.4-.05.44-.19a1,1,0,0,0-.11-.61c-.17-.51-.36-1-.55-1.59A27.66,27.66,0,0,1,77,47.14a28.16,28.16,0,0,1,1.53,4c.18.56.36,1.09.52,1.6a1.19,1.19,0,0,1,.08.81.52.52,0,0,1-.35.28,1.39,1.39,0,0,1-.35,0A5.39,5.39,0,0,1,77.06,53.85Z"/><path class="cls-9" d="M77.25,63.38A14.84,14.84,0,0,1,69.53,61s1.81,4.11,7.66,3.8Z"/><path class="cls-9" d="M76.65,55.78a1.4,1.4,0,0,0-1.28-.59,1.34,1.34,0,0,0-1,.47.83.83,0,0,0-.1,1,1,1,0,0,0,1.05.31,3.1,3.1,0,0,0,1-.57.78.78,0,0,0,.24-.24.27.27,0,0,0,0-.3"/><path class="cls-2" d="M74.68,54.32c.13,0,.1.86.82,1.51s1.65.59,1.65.72-.21.16-.6.15a2.13,2.13,0,0,1-1.38-.54,1.93,1.93,0,0,1-.64-1.28C74.51,54.52,74.62,54.31,74.68,54.32Z"/><path class="cls-2" d="M74.61,45.36c-.09.21-.89.08-1.84.15s-1.71.31-1.83.11.09-.3.4-.5a3.21,3.21,0,0,1,2.8-.2C74.48,45.07,74.65,45.25,74.61,45.36Z"/><path class="cls-2" d="M82.19,44.41c-.15.18-.7,0-1.36-.06s-1.24.07-1.36-.13,0-.27.3-.43a1.87,1.87,0,0,1,1.11-.26,1.85,1.85,0,0,1,1.08.41C82.18,44.12,82.26,44.33,82.19,44.41Z"/><path class="cls-2" d="M63.08,41.28c1.14-3.33,6.11-7.9,9.62-7.6l5.56,3.49a5.44,5.44,0,0,1-3.77,4.08c-1,.28-2.19.34-2.81,1.18s-.29,2.14-.87,3c-.8,1.23-2.93,1.13-3.54,2.47-.27.58-.15,1.29-.43,1.87a3.74,3.74,0,0,1-3.17,1.43c-.79-.3-.78-1.66-1-2.38a3.81,3.81,0,0,1-.06-2.58C63,44.65,62.53,42.88,63.08,41.28Z"/><path class="cls-8" d="M66.07,52c0-.43-.45-1.47-.87-1.56-1.14-.22-3.21-.21-3.32,2.69-.19,4,3.84,3.32,3.85,3.22S66,53.51,66.07,52Z"/><path class="cls-9" d="M64.57,54.8a1.05,1.05,0,0,1-.19.1.67.67,0,0,1-.52,0,1.73,1.73,0,0,1-.72-1.57,2.36,2.36,0,0,1,.24-1,.8.8,0,0,1,.55-.51.33.33,0,0,1,.39.21c.05.11,0,.19,0,.2s.09-.07.07-.23a.46.46,0,0,0-.15-.26.5.5,0,0,0-.37-.12,1,1,0,0,0-.75.59,2.32,2.32,0,0,0-.3,1.09,1.79,1.79,0,0,0,1,1.76.76.76,0,0,0,.64-.07C64.56,54.9,64.58,54.81,64.57,54.8Z"/><path class="cls-2" d="M62.23,40.26h0c0-1.24-1.54-2-2.75-2.33a5.14,5.14,0,0,0-3.57.68,2.53,2.53,0,0,0-1.43,1.56c-.14.72.55,1.56,1.23,1.3A2.37,2.37,0,1,0,57.06,46,2.34,2.34,0,0,0,58,45.5a5.22,5.22,0,0,1-2.06,2.82,5.91,5.91,0,0,0,6.31-8.07Z"/><path class="cls-5" d="M59.47,46.58a3.73,3.73,0,0,1-.14-1.2A8.71,8.71,0,0,1,61.15,40,3.81,3.81,0,0,1,62,39.1a13.37,13.37,0,0,0-2,3.5A15.15,15.15,0,0,0,59.47,46.58Z"/><path class="cls-2" d="M77.1,36c.37,1.62,2.83,3.7,3.9,4.95,2.06,2.4,2.47,3.2,2.45,8.54a11.5,11.5,0,0,0,1.63-5.76A8.65,8.65,0,0,0,82.79,38,6.76,6.76,0,0,0,77.09,36"/><path class="cls-3" d="M93.94,80.16S89.67,73,88.47,71.58A9.59,9.59,0,0,0,85,69a7.26,7.26,0,0,0-1.67-.47l-6.16-1.37a4.48,4.48,0,0,1-4.41,4.46c-4.41.26-8.11-5.87-8.11-5.87s-7.12,1.1-8.81,2-4.37,2-5.84,9.36l-1,7.2,12.27,1.12,1.17,18.21,6.08,4.23s16.85,4.38,17.92,4.67,1.43-27.11,1.43-27.11S92.14,82.61,93.94,80.16Z"/><path class="cls-2" d="M85.87,77.1a2.45,2.45,0,0,1,.24.52c.14.34.32.85.52,1.48a29.09,29.09,0,0,1,1.25,10.24c0,.66-.09,1.19-.15,1.56a2.13,2.13,0,0,1-.1.56,2.72,2.72,0,0,1,0-.57c0-.37.05-.9.07-1.56a35.32,35.32,0,0,0-.24-5.14,36,36,0,0,0-1-5c-.18-.63-.34-1.15-.45-1.5A3.41,3.41,0,0,1,85.87,77.1Z"/><path class="cls-8" d="M85.35,106.92l-23.08-5L61.21,85.41,51,84.46s.38,11.27.77,14.63c.57,4.82,3.42,11.38,5.08,12.71s29.58.72,29.58.72Z"/><path class="cls-8" d="M98.45,109.91a.9.9,0,0,1-.86.51l-.23,0c-.51-.16-.47-1.2-.47-1.2l-2.44-.4a26.46,26.46,0,0,0-4.32,3.41c-1.13,1.35-4,.26-4,.26l-1-5.22,4.5-4.07s-.28.24,0-.52,1.73-.47,1.73-.47c.22-.38,1.14-.52,1.14-.52l4,.48a2.71,2.71,0,0,1,2,1.24l1.67,2.64a7.48,7.48,0,0,1,.74,2.35.79.79,0,0,1-.92.52s-.2,1.25-.53,1.3a2.71,2.71,0,0,1-1-.24Z"/><path class="cls-9" d="M90,106.17s.53,0,1.37,0a11.47,11.47,0,0,1,3.23.61,11,11,0,0,1,1.66.7c.48.27,1,.48,1.13.84a.49.49,0,0,1-.05.48.62.62,0,0,1-.3.25,1,1,0,0,1-.34,0,.41.41,0,0,0,.38,0,.77.77,0,0,0,.38-.26.63.63,0,0,0,.09-.62,1.2,1.2,0,0,0-.47-.55c-.22-.15-.44-.29-.69-.43a11.54,11.54,0,0,0-1.69-.74,10.33,10.33,0,0,0-3.3-.54A4.73,4.73,0,0,0,90,106.17Z"/><path class="cls-9" d="M89.77,108.69c0,.08,1.61,0,3.58.12s3.57.36,3.58.29a3.69,3.69,0,0,0-1-.25,22.34,22.34,0,0,0-5.08-.29A4.08,4.08,0,0,0,89.77,108.69Z"/><path class="cls-9" d="M98.42,109.81a1.13,1.13,0,0,0,0-.41,7.49,7.49,0,0,0,0-1.16,5.3,5.3,0,0,0-.1-.8,2.68,2.68,0,0,0-.39-.86,5.49,5.49,0,0,0-1.48-1.52,7.32,7.32,0,0,0-1.9-.94,6.55,6.55,0,0,0-1.71-.26H91.74a1.2,1.2,0,0,0-.42,0,13.67,13.67,0,0,0,1.56.13,7.62,7.62,0,0,1,1.65.3,8.23,8.23,0,0,1,1.81,1,5.4,5.4,0,0,1,1.43,1.43,3,3,0,0,1,.51,1.54C98.39,109.21,98.37,109.82,98.42,109.81Z"/><path class="cls-9" d="M92.72,102.65s.59.06,1.54.17a3.89,3.89,0,0,1,3.18,1.45,13.36,13.36,0,0,1,2,3.1,8.22,8.22,0,0,1,.37,1.48,1.19,1.19,0,0,0,0-.42,4.31,4.31,0,0,0-.24-1.12,11.38,11.38,0,0,0-2-3.19,4.68,4.68,0,0,0-.76-.78,2.81,2.81,0,0,0-.95-.43,8,8,0,0,0-1.68-.27A6,6,0,0,0,92.72,102.65Z"/><path class="cls-9" d="M91,111.34a1.3,1.3,0,0,0,.23-.18l.66-.53a27.23,27.23,0,0,1,2.6-1.79h-.06l2.44.42-.08-.11a2.39,2.39,0,0,0,0,.6,1.15,1.15,0,0,0,.27.59.67.67,0,0,0,.33.15,1,1,0,0,0,.34,0,1,1,0,0,0,.61-.34.76.76,0,0,0,.11-.14l0,0v0h0l-.14,0h0l.07,0,.32.11.34.09h.18a.44.44,0,0,0,.22,0,.7.7,0,0,0,.24-.32,2,2,0,0,0,.12-.34,5,5,0,0,0,.16-.69l-.14.1a1,1,0,0,0,.91-.31.76.76,0,0,0,.17-.48,1.86,1.86,0,0,0-.09-.47,13.85,13.85,0,0,0-.67-1.76h0c-.28-.45-.59-.93-.89-1.42l-.57-.9a4.76,4.76,0,0,0-.62-.87,2.59,2.59,0,0,0-.88-.58,3.57,3.57,0,0,0-1-.21l-3.72-.42h0a3.66,3.66,0,0,0-.65.17,1.11,1.11,0,0,0-.57.4l.14,0a1.36,1.36,0,0,0-1.27.07,1.58,1.58,0,0,0-.63,1l0,0-3.1,2.79c-.35.32-.63.57-.83.77a1.24,1.24,0,0,0-.28.28,2.42,2.42,0,0,0,.31-.25l.87-.73,3.16-2.73h0v0a1.4,1.4,0,0,1,.55-.87,1.19,1.19,0,0,1,1.07,0l.09,0,0-.07a.93.93,0,0,1,.47-.31,4.18,4.18,0,0,1,.61-.15h0l3.72.44a3.16,3.16,0,0,1,1,.2,2.38,2.38,0,0,1,.8.53,4.41,4.41,0,0,1,.58.83l.57.89.89,1.42h0a13.26,13.26,0,0,1,.66,1.72,1.84,1.84,0,0,1,.08.42.41.41,0,0,1-.12.33.68.68,0,0,1-.67.23h-.12v.11a5,5,0,0,1-.15.67,1.13,1.13,0,0,1-.25.53h-.25l-.31-.08-.3-.1-.07,0h0l-.14,0h0v0a.83.83,0,0,1-.08.12.79.79,0,0,1-.47.26.66.66,0,0,1-.28,0,.43.43,0,0,1-.22-.09,1.48,1.48,0,0,1-.26-1v-.09H97l-2.45-.39h-.06a22.4,22.4,0,0,0-2.57,1.86c-.28.24-.47.43-.63.57A1.14,1.14,0,0,0,91,111.34Z"/><path class="cls-10" d="M123.72,94.75,93.33,95a1.91,1.91,0,0,0-2.08,1.42l-3.32,22.16H72.27a.91.91,0,0,0,0,1.82h50L125.68,97a2,2,0,0,0-1.7-2.25Z"/><path class="cls-2" d="M123.72,94.75a1.48,1.48,0,0,1,.47,0,2,2,0,0,1,1.54,1.72,5.81,5.81,0,0,1-.11,1.25l-.44,3.09c-.67,4.64-1.63,11.33-2.82,19.56v.08h-.09l-48.51,0H72.44a1.26,1.26,0,0,1-.69-.13,1,1,0,0,1-.47-.55,1,1,0,0,1,.47-1.26,1.24,1.24,0,0,1,.68-.13H87.91l-.12.1,3.32-22a1.71,1.71,0,0,1,.56-1.15,2.27,2.27,0,0,1,1.16-.52c.41,0,.82,0,1.23,0h1.19l4.58,0,8.13,0,11.58-.06h3.1l-3.1,0L108,94.91,99.83,95l-4.58,0H94.06a11.72,11.72,0,0,0-1.19,0,2,2,0,0,0-1.07.47,1.46,1.46,0,0,0-.47,1c-1,6.64-2.09,14-3.28,22v.11H72.44a1,1,0,0,0-.56.09.79.79,0,0,0-.36.95.77.77,0,0,0,.35.42,1,1,0,0,0,.58.1h1.3l48.51,0-.09.08,2.9-19.56c.17-1.15.32-2.18.47-3.08a5.55,5.55,0,0,0,.12-1.22,1.89,1.89,0,0,0-.35-1,2,2,0,0,0-1.12-.78A3.68,3.68,0,0,0,123.72,94.75Z"/><path class="cls-4" d="M105.33,107.31a1.9,1.9,0,1,0,1.9-1.9A1.9,1.9,0,0,0,105.33,107.31Z"/><path class="cls-2" d="M89.16,120.22s1-5.63,2.16-12.6S93.37,95,93.33,95s-1,5.63-2.16,12.6S89.12,120.22,89.16,120.22Z"/></g></g></svg>