<svg xmlns="http://www.w3.org/2000/svg" viewBox="0 0 212.25 161.54"><defs><style>.cls-1{fill:#f5f5f5;}.cls-2{fill:#20eb93;}.cls-12,.cls-2,.cls-9{opacity:0.3;}.cls-12,.cls-14,.cls-15,.cls-18,.cls-2,.cls-4,.cls-6{isolation:isolate;}.cls-3{fill:#7e57c2;}.cls-4,.cls-7{fill:#20c997;}.cls-4{opacity:0.81;}.cls-5{fill:#16a79e;}.cls-6{opacity:0.1;}.cls-8{fill:#fff;}.cls-10{fill:#263238;}.cls-11{fill:#ff8b7b;}.cls-13{fill:#ff5652;}.cls-14{opacity:0.4;}.cls-15{opacity:0.2;}.cls-16{fill:#ffc3bd;}.cls-17{fill:#ed893e;}.cls-18{opacity:0.5;}</style></defs><title>diskusi_10</title><g id="course"><g id="freepik--Shadow--inject-348"><ellipse id="freepik--path--inject-348" class="cls-1" cx="106.12" cy="150.28" rx="104.91" ry="6.12"/></g><g id="freepik--Device--inject-348"><path class="cls-2" d="M129.19,146.52H78.12a5.77,5.77,0,0,1-5.87-5.67,4.46,4.46,0,0,1,0-.73L83.5,11.89a7.13,7.13,0,0,1,7-6.4h51.07a5.75,5.75,0,0,1,5.87,5.66,4.63,4.63,0,0,1,0,.74L136.15,140.12A7.13,7.13,0,0,1,129.19,146.52Z"/><path class="cls-3" d="M141.53,5.46H90.46a7.14,7.14,0,0,0-7,6.41L72.28,140.1a5.76,5.76,0,0,0,5.11,6.36,4.41,4.41,0,0,0,.73,0h51.07a7.12,7.12,0,0,0,7-6.39L147.37,11.87a5.77,5.77,0,0,0-5.1-6.37A6,6,0,0,0,141.53,5.46Zm-8.22,134.66a4,4,0,0,1-3.87,3.56H78.37a3.22,3.22,0,0,1-3.27-3.16c0-.13,0-.27,0-.4L86.34,11.89a4,4,0,0,1,3.87-3.56h51.07a3.2,3.2,0,0,1,3.27,3.15,2.88,2.88,0,0,1,0,.41Z"/><path class="cls-4" d="M141.53,5.46H90.46a7.14,7.14,0,0,0-7,6.41L72.28,140.1a5.76,5.76,0,0,0,5.11,6.36,4.41,4.41,0,0,0,.73,0h51.07a7.12,7.12,0,0,0,7-6.39L147.37,11.87a5.77,5.77,0,0,0-5.1-6.37A6,6,0,0,0,141.53,5.46Zm-8.22,134.66a4,4,0,0,1-3.87,3.56H78.37a3.22,3.22,0,0,1-3.27-3.16c0-.13,0-.27,0-.4L86.34,11.89a4,4,0,0,1,3.87-3.56h51.07a3.2,3.2,0,0,1,3.27,3.15,2.88,2.88,0,0,1,0,.41Z"/><path class="cls-5" d="M111.32,138.59H97.26a.88.88,0,0,0-.86.79.72.72,0,0,0,.63.79h14.16a.88.88,0,0,0,.86-.79.71.71,0,0,0-.63-.78Z"/><path class="cls-6" d="M111,65.12H96.09a3.36,3.36,0,0,1-3.43-3.3,3.1,3.1,0,0,1,0-.43L94,46.49A4.16,4.16,0,0,1,98,42.76h14.9a3.36,3.36,0,0,1,3.42,3.31,3,3,0,0,1,0,.42L115,61.39A4.15,4.15,0,0,1,111,65.12Z"/><path class="cls-7" d="M109.36,63.5H94.46A3.36,3.36,0,0,1,91,60.2a2,2,0,0,1,0-.43l1.3-14.9a4.16,4.16,0,0,1,4.06-3.73h14.89a3.37,3.37,0,0,1,3.43,3.31,3,3,0,0,1,0,.42l-1.3,14.9A4.16,4.16,0,0,1,109.36,63.5Z"/><path class="cls-8" d="M105.39,51c.25-2.89-2.17-5.23-5.47-5.23S93.8,48.07,93.55,51a4.76,4.76,0,0,0,3.53,4.92,3.13,3.13,0,0,1-1.41,1.4,1.35,1.35,0,0,0,.34.17,2.72,2.72,0,0,0,3.24-1.28C102.41,56.06,105.15,53.76,105.39,51Z"/><path class="cls-8" d="M112.24,53.46c.22-2.38-1.8-4.33-4.5-4.33a5.56,5.56,0,0,0-1.41.18,5.51,5.51,0,0,1,.1,1.62,6.72,6.72,0,0,1-3.24,5,4.58,4.58,0,0,0,3.45,1.77,1.75,1.75,0,0,0,2.27,1h0l.28-.13a2,2,0,0,1-.87-1A4.87,4.87,0,0,0,112.24,53.46Z"/><path class="cls-6" d="M104.15,111.22H93.07a2.5,2.5,0,0,1-2.55-2.46c0-.1,0-.21,0-.31l1-11.08a3.08,3.08,0,0,1,3-2.78h11.08a2.5,2.5,0,0,1,2.55,2.46,1.77,1.77,0,0,1,0,.32l-1,11.08A3.07,3.07,0,0,1,104.15,111.22Z"/><path class="cls-6" d="M120.4,89.67H106.57a3.14,3.14,0,0,1-3.19-3.07c0-.14,0-.27,0-.41l1.21-13.84a3.88,3.88,0,0,1,3.79-3.48h13.85A3.13,3.13,0,0,1,125.43,72a2.68,2.68,0,0,1,0,.4l-1.2,13.84A3.88,3.88,0,0,1,120.4,89.67Z"/><path class="cls-7" d="M118.78,88H105A3.13,3.13,0,0,1,101.76,85c0-.13,0-.27,0-.4L103,70.72a3.86,3.86,0,0,1,3.78-3.47h13.86a3.13,3.13,0,0,1,3.18,3.08,2.55,2.55,0,0,1,0,.39l-1.21,13.85A3.85,3.85,0,0,1,118.78,88Z"/><path class="cls-7" d="M102.53,109.6H91.45a2.52,2.52,0,0,1-2.55-2.46c0-.11,0-.21,0-.32l1-11.07a3.09,3.09,0,0,1,3-2.78H104a2.49,2.49,0,0,1,2.55,2.45,1.82,1.82,0,0,1,0,.33l-1,11.07A3.1,3.1,0,0,1,102.53,109.6Z"/><path class="cls-8" d="M119.69,71.93H106.84a1.62,1.62,0,0,0-1.62,1.48l-.72,8.49a1.33,1.33,0,0,0,1.18,1.46h13a1.63,1.63,0,0,0,1.62-1.47l.74-8.48a1.33,1.33,0,0,0-1.16-1.48Zm-9.84,5.71-4.3,4,.69-7.91ZM107,73h12.3l-6.22,5.72a.6.6,0,0,1-.85,0h0Zm3.49,5.41.94,1a1.49,1.49,0,0,0,1.12.47,1.75,1.75,0,0,0,1.19-.47l1.14-1,3.62,4H106.19Zm5.17-.73,4.33-4-.69,7.91Z"/><polygon class="cls-8" points="92.64 98.3 95.88 99.62 99.45 97.18 96.77 100.35 98.74 103.13 101.86 95.39 92.64 98.3"/><polygon class="cls-8" points="95.66 100.36 97.12 102.14 95.56 102.14 95.66 100.36"/><path class="cls-8" d="M94.37,102.69l-.34-.22a4.84,4.84,0,0,1,.33-.46l.31.27A3.91,3.91,0,0,0,94.37,102.69Z"/><path class="cls-8" d="M94.21,105.36a1.48,1.48,0,0,1-.7-.87l.39-.11a1,1,0,0,0,.54.62Zm-.35-1.4-.4,0a2.7,2.7,0,0,1,.31-1l.36.18a2.61,2.61,0,0,0-.27.86Z"/><path class="cls-8" d="M102.39,106.79l-.4-.08a2.64,2.64,0,0,0,0-.29.67.67,0,0,0-.14-.48l.31-.26a1.15,1.15,0,0,1,.24.74A2.4,2.4,0,0,1,102.39,106.79Zm-5.76-.94h-.42v-.41a7.85,7.85,0,0,0,1,0v.41Zm1.09,0v-.41a7.93,7.93,0,0,0,1-.09l0,.41Zm-2,0h-.17a6.34,6.34,0,0,1-.84-.19l.13-.39a5.06,5.06,0,0,0,.77.18h.15Zm5.84-.09a3,3,0,0,0-.9-.13v-.43a3.11,3.11,0,0,1,1,.16Zm-2.35,0,0-.41,1-.08v.41c-.29,0-.62,0-1,.06Z"/><path class="cls-8" d="M102.05,107.81l-.37-.16c.07-.17.14-.34.19-.49l.38.13C102.2,107.45,102.13,107.62,102.05,107.81Z"/><path class="cls-6" d="M117.07,39.73H104.62A2.82,2.82,0,0,1,101.75,37c0-.12,0-.24,0-.36l1.08-12.44a3.49,3.49,0,0,1,3.4-3.13h12.44a2.82,2.82,0,0,1,2.87,2.77c0,.12,0,.24,0,.36L120.46,36.6A3.46,3.46,0,0,1,117.07,39.73Z"/><path class="cls-7" d="M115.44,38.11H103a2.83,2.83,0,0,1-2.87-2.77,2.17,2.17,0,0,1,0-.36l1.08-12.45a3.48,3.48,0,0,1,3.4-3.12h12.44a2.82,2.82,0,0,1,2.87,2.77,2,2,0,0,1,0,.35L118.84,35A3.49,3.49,0,0,1,115.44,38.11Z"/><path class="cls-8" d="M116.11,31.29A9.26,9.26,0,0,0,108,22.45a3.08,3.08,0,0,0-3.79.87c-1.08,1.32-.12,2.17,1.09,3.11s2.27,1.66,3.34.35a3.11,3.11,0,0,0,.71-1.7,7.29,7.29,0,0,1,4.2,4.61,3.16,3.16,0,0,0-1.74.54c-1.4,1-.79,2.07.05,3.38s1.59,2.33,3,1.37A3.09,3.09,0,0,0,116.11,31.29Z"/><path class="cls-3" d="M110.9,3.31h8.49c.42,0,.48-.65.06-.65H111c-.42,0-.48.65-.06.65Z"/><path class="cls-3" d="M122.5,3.31H125c.42,0,.47-.65,0-.65h-2.44c-.41,0-.47.65,0,.65Z"/><g class="cls-9"><path class="cls-5" d="M110.9,3.31h8.49c.42,0,.48-.65.06-.65H111c-.42,0-.48.65-.06.65Z"/></g><g class="cls-9"><path class="cls-5" d="M122.5,3.31H125c.42,0,.47-.65,0-.65h-2.44c-.41,0-.47.65,0,.65Z"/></g><path class="cls-3" d="M138.87,69l-.75,8.48a.33.33,0,0,0,.3.35.31.31,0,0,0,.35-.29q.38-4.24.74-8.49a.32.32,0,0,0-.32-.32A.33.33,0,0,0,138.87,69Z"/><path class="cls-3" d="M137.85,80.54,137.64,83a.32.32,0,0,0,.33.32.33.33,0,0,0,.32-.27l.21-2.43a.33.33,0,0,0-.65-.06Z"/><g class="cls-9"><path class="cls-5" d="M138.87,69l-.75,8.48a.33.33,0,0,0,.3.35.31.31,0,0,0,.35-.29q.38-4.24.74-8.49a.32.32,0,0,0-.32-.32A.33.33,0,0,0,138.87,69Z"/></g><g class="cls-9"><path class="cls-5" d="M137.85,80.54,137.64,83a.32.32,0,0,0,.33.32.33.33,0,0,0,.32-.27l.21-2.43a.33.33,0,0,0-.65-.06Z"/></g></g><g id="freepik--character-1--inject-348"><path class="cls-10" d="M63.74,31.19S60.6,30.76,61,32.4C61.26,33.59,62.31,31.25,63.74,31.19Z"/><path class="cls-11" d="M61,34.9s2.58,0,3-4.74c0,0,2.47-.86,3.87.68s-1.82,4.51,0,6.06C67.83,36.9,66.05,37.87,61,34.9Z"/><path class="cls-10" d="M70.59,18.26s3.33-.72,4.2,1.73-4.94,1.38-4.94,1.38Z"/><path class="cls-12" d="M70.59,18.26s3.33-.72,4.2,1.73-4.94,1.38-4.94,1.38Z"/><path class="cls-10" d="M73.31,24.36c.06-.31.26-.54.47-.5s.33.31.28.63-.27.54-.47.51S73.26,24.68,73.31,24.36Z"/><path class="cls-13" d="M73.48,25l1.45,2.36a2,2,0,0,1-1.86.16Z"/><path class="cls-11" d="M62.46,22.85c-.19,4-.35,5.71,1.44,8,2.85,2.42,7.67,2.75,9-1.13,1.24-3.48,1.33-9.44-2.4-11.46a5.46,5.46,0,0,0-8.08,4.63Z"/><path class="cls-10" d="M72.81,23.37a.17.17,0,0,0,.17,0,1.49,1.49,0,0,1,1.32-.23.19.19,0,0,0,.24-.11.19.19,0,0,0-.1-.24,1.82,1.82,0,0,0-1.67.28.18.18,0,0,0-.06.25h0A.14.14,0,0,0,72.81,23.37Z"/><path class="cls-10" d="M59.2,35.72s1.11-3.08,5.73-1.12,5,4.67,5,4.67Z"/><path class="cls-14" d="M59.2,35.72s1.11-3.08,5.73-1.12,5,4.67,5,4.67Z"/><path class="cls-11" d="M61.27,94.06s-.65,5.62-1,7.47c-.28,1.62-9.2,44.21-9.2,44.21l-4.05-.67s-.45-21.58,2.67-35.86c.65-2.92,1.94-5.36,2.41-7.6.38-1.79-.19-7.33-.19-7.33Z"/><path class="cls-11" d="M44.35,93.15s-1.89,5.14-2.77,6.73-4.6,6.45-4.6,6.45L17.61,133.5l-3.71-2.34s5.59-15,14-27.15c2-2.91,4.9-5.12,6.5-8,.9-1.66,1.67-7.37,1.67-7.37Z"/><path class="cls-11" d="M49.54,41.12S44.9,47,45.3,49.52,53,55,53,55L54.8,52.4,50,48.92l4.55-5.21Z"/><path class="cls-10" d="M57.21,35.2c-.58-.27-3.15-1.3-8.7,5.9a14.69,14.69,0,0,0,6.34,4S59.72,36.38,57.21,35.2Z"/><path class="cls-14" d="M54.85,45.1s.81-1.45,1.63-3.24c-.13-3.09-.51-6.93-1.59-5.55a57.1,57.1,0,0,0-4.09,6.75A16.74,16.74,0,0,0,54.85,45.1Z"/><path class="cls-7" d="M50.49,59.17a42.13,42.13,0,0,0,17.26,5L61.49,99s-18-.06-27.47-9C34,90,37.78,71,50.49,59.17Z"/><path class="cls-10" d="M49.72,59.25s7.23,5.32,18.73,5c0,0,6.61-18.28,2.47-24.46-2.56-3.82-12.39-5.55-15-4.46C52.7,36.6,54.54,48.06,49.72,59.25Z"/><path class="cls-6" d="M51.46,78l-8,17.57A56.34,56.34,0,0,0,52.08,98S52.35,81.55,51.46,78Z"/><path class="cls-14" d="M67.89,42.74l-1.28.94a33.2,33.2,0,0,0,4.76,10,41.31,41.31,0,0,0,.91-7.75l-2.85-2.4Z"/><path class="cls-11" d="M75.13,45.38l4.33,6,10.88.73,2-1.66a.86.86,0,0,1,.47-.2l5.81-.46a.3.3,0,0,1,.32.28v0l0,.5a.31.31,0,0,1-.27.27l-2.76.22-.54,2.82a.85.85,0,0,1-.63.66l-2.16.55a1,1,0,0,1-.42,0l-1.53-.39s-8.48,1.71-12.37,1-7.72-7-7.72-7Z"/><path class="cls-10" d="M70.12,50s-7-9.32-2.67-11.48,8.82,7.41,8.82,7.41A11.78,11.78,0,0,1,70.12,50Z"/><path class="cls-7" d="M52,145.49a.11.11,0,0,1-.08-.08.11.11,0,0,1,.05-.12c.07,0,1.67-.87,2.41-.63a.54.54,0,0,1,.33.26.39.39,0,0,1,0,.46,1.89,1.89,0,0,1-1.33.29A6.45,6.45,0,0,1,52,145.49Zm.35-.13c.83.14,2,.18,2.17-.11,0,0,.06-.1,0-.23a.32.32,0,0,0-.2-.16.76.76,0,0,0-.21,0,4.79,4.79,0,0,0-1.76.53Z"/><path class="cls-7" d="M51.92,145.49a.1.1,0,0,1,0-.1,3,3,0,0,1,.75-1.71.83.83,0,0,1,.61-.16c.29,0,.37.19.38.32.08.5-1,1.43-1.59,1.65h-.11Zm1.23-1.77a.48.48,0,0,0-.36.12,2.45,2.45,0,0,0-.65,1.35c.54-.31,1.3-1,1.28-1.35,0,0,0-.1-.2-.12Z"/><path class="cls-10" d="M51.56,144.85l-4.87-.18a.39.39,0,0,0-.4.29l-1,3.95a.66.66,0,0,0,.46.8h.14c1.76,0,3.33,0,5.53.08,2.59.1,1.92.38,5,.55,1.83.09,2.24-2,1.47-2.11-3.54-.58-3.87-1.68-5.2-3A1.61,1.61,0,0,0,51.56,144.85Z"/><path class="cls-7" d="M18.22,133.77a.14.14,0,0,1,0-.12.12.12,0,0,1,.1-.07c.08,0,1.89,0,2.44.54a.57.57,0,0,1,.18.38.41.41,0,0,1-.22.41,1.93,1.93,0,0,1-1.32-.34A7.06,7.06,0,0,1,18.22,133.77Zm.37,0c.68.49,1.67,1,2,.88,0,0,.09-.06.09-.21a.32.32,0,0,0-.11-.24l-.17-.11a4.84,4.84,0,0,0-1.81-.29Z"/><path class="cls-7" d="M18.17,133.74a.11.11,0,0,1,0-.11s.72-1,1.45-1.18a.79.79,0,0,1,.6.12c.25.17.26.34.21.46-.16.48-1.57.81-2.16.77h-.05Zm1.9-1a.56.56,0,0,0-.38-.07,2.52,2.52,0,0,0-1.19.92,2.7,2.7,0,0,0,1.76-.62s0-.1-.13-.21h-.06Z"/><path class="cls-10" d="M18.12,133l-4.28-2.37a.4.4,0,0,0-.49.08l-2.7,3.06a.65.65,0,0,0,0,.92h0l.11.08c1.56.83,3,1.51,4.9,2.57,2.27,1.26,1.54,1.21,4.19,2.71,1.62.91,2.9-.75,2.27-1.22-2.9-2.11-2.71-3.24-3.29-5A1.62,1.62,0,0,0,18.12,133Z"/><path class="cls-10" d="M69.23,26.3s1.63-.55,1-2.9a5.35,5.35,0,0,0,.81-2.48s4.87-2.81,2.09-5.89-7.83-1-10.07,2.91c0,0-11.87,3.86-3.61,11.13C67.53,36.16,69.23,26.3,69.23,26.3Z"/><path class="cls-10" d="M64.33,19.59s-1.85-4.07.93-7.15S63.41,16.78,64.33,19.59Z"/><path class="cls-7" d="M69.23,26.3l.14-.06A10.07,10.07,0,0,0,63.69,17c-.21.3-.41.6-.6.91,0,0-.34.12-.86.33,1.56,1.66,5.84,7.14,1,13.13C68.08,32.91,69.23,26.3,69.23,26.3Z"/><path class="cls-11" d="M69.42,24.87a3,3,0,0,1,.81,2.22c-.06,1.08-1.12,1.29-2,.71s-1.65-1.73-1.18-2.71A1.39,1.39,0,0,1,69,24.5,1.24,1.24,0,0,1,69.42,24.87Z"/><path class="cls-10" d="M73.7,23.87l.88-.05S74,24.37,73.7,23.87Z"/><path class="cls-15" d="M65.68,31.94a5.35,5.35,0,0,0,1.95,2.16,15.51,15.51,0,0,0,.5-1.5A7.42,7.42,0,0,1,65.68,31.94Z"/></g><g id="freepik--character-2--inject-348"><path class="cls-16" d="M147.57,33a16,16,0,0,1-3-6.14l-2.3,5.48a3.72,3.72,0,0,1,.84,3.15c0,.05-.08,1-1.62,1.91,0,0,.28,5.55,3.58,4.77s5.1-7.38,5.1-7.38l.24-1.86A2.23,2.23,0,0,1,147.57,33Z"/><path class="cls-6" d="M142.86,31l-.54,1.34a4,4,0,0,1,.85,1.81,9.07,9.07,0,0,0,1.68-4.68Z"/><path class="cls-16" d="M118.86,57.69s8.92.37,12.88-.72,7.33-8,7.33-8l-4.52-2.49-4.49,6.68-11.19,1.79-3.22-2.26s-6.49-1.39-6.49-.54,3.35,1.52,3.35,1.52.2,4,1.57,4.12S118.86,57.69,118.86,57.69Z"/><path class="cls-7" d="M140.69,38.61s-3.86.54-6.39,5.22-.36,4.87,1.77,6.19,3.21,1.62,4.2-1.26S143.19,38.31,140.69,38.61Z"/><path class="cls-6" d="M140.68,47.44l-1.43-2.93-2.41-.18a41.39,41.39,0,0,0,.13,6.2c1.56.82,2.46.65,3.3-1.79C140.39,48.38,140.54,47.93,140.68,47.44Z"/><path class="cls-10" d="M133,20s-2.81,1-1,3.86-1.9,4.81,4.41,5.6.22-10.61.22-10.61Z"/><path class="cls-12" d="M133,20s-2.81,1-1,3.86-1.9,4.81,4.41,5.6.22-10.61.22-10.61Z"/><path class="cls-7" d="M157.22,37.93c-.94-6.13-4.5-6-8-4.65.25,2.31.25,5.25-3.09,7.08-3,1.63-4.17-1.08-4.23-3.36-3.15,1.79-5.78,4.08-4.92,8.65.49,2.6,2.78,5.45,5.13,9.07,2.81,4.33,5.7,9.24,5.7,9.24l16-8.17S158.25,44.56,157.22,37.93Z"/><path class="cls-15" d="M157.22,37.93a11,11,0,0,0-.58-2.32l-2.42-.41-1.27,2a32.64,32.64,0,0,0,6.24,7.7A39.36,39.36,0,0,1,157.22,37.93Z"/><path class="cls-16" d="M161.51,36s5.51,3.79,7.2,5.22c2.5,2.17,9.25,9.45,9.25,9.45l4.14,2.27v2.61l-2,1.36a1.3,1.3,0,0,1-1.82-.34h0l-2.51-3.75s-6.19-5.66-8.46-7.27c-1.93-1.36-8.17-4.71-8.17-4.71Z"/><path class="cls-7" d="M151.35,32.71s3.55-1.59,6.57,0,4.36,2.48,4.07,4.4-1.41,5.91-3.4,5.25S150.24,35.4,151.35,32.71Z"/><path class="cls-16" d="M145.42,22.28c.41,4.15.67,5.89-1.06,8.33-2.61,3.68-7.79,3.28-9.43-.66-1.48-3.55-1.9-9.74,1.85-12a5.67,5.67,0,0,1,7.82,1.81,5.76,5.76,0,0,1,.84,2.51Z"/><path class="cls-17" d="M136.7,25.45a9.28,9.28,0,0,1-.84,2.33,1.48,1.48,0,0,0,1.22,0Z"/><path class="cls-10" d="M139.47,22.68a.09.09,0,0,0,.06-.06.16.16,0,0,0-.06-.22h0a1.89,1.89,0,0,0-1.77-.11.16.16,0,0,0-.07.22.15.15,0,0,0,.21.07,1.62,1.62,0,0,1,1.47.11A.15.15,0,0,0,139.47,22.68Z"/><path class="cls-10" d="M133.28,23.73l.07-.05a1.63,1.63,0,0,1,1.33-.6.17.17,0,0,0,.19-.14h0a.17.17,0,0,0-.15-.18,1.94,1.94,0,0,0-1.62.71.15.15,0,0,0,0,.23.17.17,0,0,0,.18,0Z"/><path class="cls-10" d="M139,24.54c.06.33-.08.63-.3.67s-.44-.2-.49-.54.08-.63.3-.67S138.91,24.19,139,24.54Z"/><path class="cls-10" d="M135.19,25.13c.06.33-.08.63-.3.67s-.43-.21-.49-.54.08-.64.3-.67S135.14,24.79,135.19,25.13Z"/><path class="cls-10" d="M134.8,24.59l-.84-.1S134.47,25.05,134.8,24.59Z"/><path class="cls-10" d="M138.58,24l-.84-.1S138.25,24.44,138.58,24Z"/><path class="cls-10" d="M139.78,29.35a3.72,3.72,0,0,0,.58-.35.12.12,0,0,0,0-.17h0a.12.12,0,0,0-.17,0,3.23,3.23,0,0,1-2.88.54.11.11,0,0,0-.15.06h0a.11.11,0,0,0,.05.15h0A3.35,3.35,0,0,0,139.78,29.35Z"/><path class="cls-10" d="M136.47,20c-1.62.19-5.95,1.43-5.27-2.61s8.42-6,12-3.45,6.35,2.42,9.19.3,4.23-1.28,7.88.69c0,0-2,3.4-1,5.46,0,0-2.17-2.16-6.21.15,0,0,4.68-1.24,6.45,2,0,0-.49,3.57,1.23,5.69s0,4.63-6.64,2.07-7.3-.21-8.82-1.34-2.67-4.2-2.9-6.42C142.21,20.94,141.49,19.41,136.47,20Z"/><path class="cls-16" d="M146,25.13a3.07,3.07,0,0,1-1.17,2c-.85.64-1.66,0-1.75-1s.26-2.34,1.28-2.58A1.36,1.36,0,0,1,146,24.6a1.32,1.32,0,0,1,0,.56Z"/><path class="cls-16" d="M167.71,139.79c.14,3.46.24,6.2.24,6.2l-3.84.44s-.37-2.34-.92-5.93Z"/><path class="cls-7" d="M162.42,145.6a1.63,1.63,0,0,1-1.14-.22.33.33,0,0,1,0-.4.44.44,0,0,1,.27-.23c.63-.21,2,.46,2.07.49a.11.11,0,0,1,.06.1s0,.07-.07.07A6.86,6.86,0,0,1,162.42,145.6Zm-.65-.71a.33.33,0,0,0-.17,0,.24.24,0,0,0-.18.13c-.06.12,0,.17,0,.2.2.24,1.17.18,1.87.05a4.31,4.31,0,0,0-1.53-.42Z"/><path class="cls-7" d="M163.58,145.41h0c-.47-.17-1.45-.94-1.39-1.38,0-.11.07-.24.32-.28a.66.66,0,0,1,.54.13,2.52,2.52,0,0,1,.68,1.44.07.07,0,0,1-.05.09h-.06Zm-1-1.49h0c-.16,0-.17.09-.17.11,0,.26.63.88,1.13,1.13a2.17,2.17,0,0,0-.59-1.14A.47.47,0,0,0,162.54,143.92Z"/><path class="cls-10" d="M164,144.85l4.19-.27a.32.32,0,0,1,.34.25l1,3.36a.53.53,0,0,1-.34.68l0,0H169c-1.5.07-2.86.07-4.73.19-2.22.15-1.63.37-4.25.58-1.57.12-2-1.62-1.31-1.78,3-.58,3.28-1.52,4.39-2.71A1.43,1.43,0,0,1,164,144.85Z"/><path class="cls-10" d="M165.38,58.19l-.73-2.63a.55.55,0,0,0-.67-.36l-.07,0L147.53,63.5a.54.54,0,0,0-.22.73l0,0L149,66.68s4.07,27.66,5.73,36.86c1.72,9.38,7.88,37.44,7.88,37.44a.39.39,0,0,0,.45.3l4.77-.76a.41.41,0,0,0,.33-.38c0-2.39,0-17.51-1.51-28.21-.54-3.82-1.83-6.88-2.26-9-.48-2.32.26-3.88.54-9.47C165.51,83,166.17,66.37,165.38,58.19Z"/><path class="cls-18" d="M165,93.5c.18-3.53.38-7.72.54-12.06l-4.75-8-2.12-4.73-2,2.7s3.54,14.89,8.18,24.24C164.86,95,164.92,94.3,165,93.5Z"/><path class="cls-16" d="M201,126.56c2,2.83,3.28,4.69,3.28,4.69l-3,2.44-4-4.48Z"/><path class="cls-7" d="M199.18,133.88a1.63,1.63,0,0,1-1.08.44.35.35,0,0,1-.24-.32.49.49,0,0,1,.11-.35c.41-.54,1.94-.7,2-.71a.12.12,0,0,1,.1.05.11.11,0,0,1,0,.11A7.4,7.4,0,0,1,199.18,133.88Zm-.94-.24-.13.12a.27.27,0,0,0-.06.21c0,.13.06.17.1.18.29.09,1.08-.48,1.62-1a4.39,4.39,0,0,0-1.53.47Z"/><path class="cls-7" d="M200.05,133.1h0c-.5.11-1.73,0-1.92-.41-.06-.09-.07-.24.12-.4a.64.64,0,0,1,.49-.18,2.55,2.55,0,0,1,1.37.84.07.07,0,0,1,0,.09A.06.06,0,0,1,200.05,133.1Zm-1.68-.69-.05,0c-.12.11-.09.16-.08.19a2.36,2.36,0,0,0,1.56.33,2.25,2.25,0,0,0-1.11-.65.51.51,0,0,0-.32.1Z"/><path class="cls-10" d="M200.05,132.43l3.39-2.49a.33.33,0,0,1,.42,0l2.63,2.3a.53.53,0,0,1,.09.76l0,0-.09.08c-1.23.87-2.37,1.62-3.88,2.73-1.79,1.32-1.18,1.2-3.25,2.78-1.25.95-2.55-.32-2.07-.78,2.24-2.13,1.95-3.06,2.24-4.64A1.46,1.46,0,0,1,200.05,132.43Z"/><path class="cls-10" d="M153.39,64.86s12.54,28.9,18.46,37.52c5.27,7.65,25.26,27.22,25.26,27.22a.84.84,0,0,0,1.16.07l2.77-2.36a.84.84,0,0,0,.18-1.08c-1.71-2.77-8.88-14.32-15.18-21.83-2.51-3-4.92-5.18-6.11-6.83-1.57-2.17-1.2-3.93-2.44-10-2.3-11.26-6.79-27.81-13.61-30.46Z"/></g></g></svg>