<svg xmlns="http://www.w3.org/2000/svg" viewBox="0 0 212.25 141.09"><defs><style>.cls-1{fill:#e1e1e1;}.cls-2{fill:#f5f5f5;}.cls-3{fill:#ececec;}.cls-4{fill:#1a2e35;}.cls-5{fill:#20eb93;}.cls-6{fill:#f7bf34;}.cls-7{fill:#fff;}.cls-8{fill:#375a64;}.cls-9{opacity:0.2;}.cls-10{fill:#c27460;}.cls-11{fill:#7c4235;}.cls-12{opacity:0.3;}.cls-13{opacity:0.6;}.cls-14{fill:#ffc19d;}.cls-15{fill:#ff9c6a;}.cls-16{fill:#f7ad20;}</style></defs><title>informasi0</title><g id="course"><path class="cls-1" d="M79.17,89.6a3,3,0,0,1,1.28,1.21A3.2,3.2,0,0,1,81,92.49a7.61,7.61,0,0,0-.68-1.59A8,8,0,0,0,79.17,89.6Z"/><path class="cls-1" d="M82.05,87.79s-.16,1-.19,2.32.13,2.32.08,2.32a2.51,2.51,0,0,1-.14-.67,9.63,9.63,0,0,1-.1-1.65,10.78,10.78,0,0,1,.17-1.65A3.08,3.08,0,0,1,82.05,87.79Z"/><path class="cls-1" d="M85,88.86a17.67,17.67,0,0,0-1,1.74,17.36,17.36,0,0,0-.62,1.9,1.88,1.88,0,0,1,0-.59,6.84,6.84,0,0,1,.42-1.37,5.87,5.87,0,0,1,.73-1.24A1.76,1.76,0,0,1,85,88.86Z"/><path class="cls-1" d="M36.2,120.22a3.07,3.07,0,0,1,1.29,1.21A3.15,3.15,0,0,1,38,123.1a7.86,7.86,0,0,0-.68-1.59A6.62,6.62,0,0,0,36.2,120.22Z"/><path class="cls-1" d="M39.09,118.41s-.17,1-.19,2.32S39,123,39,123.05a2.37,2.37,0,0,1-.15-.67,11.09,11.09,0,0,1-.09-1.66,10.92,10.92,0,0,1,.17-1.65A2.21,2.21,0,0,1,39.09,118.41Z"/><path class="cls-1" d="M42,119.48a13.3,13.3,0,0,0-1,1.73,17.36,17.36,0,0,0-.62,1.9,1.88,1.88,0,0,1,0-.59,6.4,6.4,0,0,1,.42-1.37,6.68,6.68,0,0,1,.72-1.24C41.85,119.62,42,119.46,42,119.48Z"/><path class="cls-1" d="M124.42,105a3,3,0,0,1,1.28,1.21,3,3,0,0,1,.55,1.68,7.56,7.56,0,0,0-.68-1.6A7.64,7.64,0,0,0,124.42,105Z"/><path class="cls-1" d="M127.31,103.14s-.17,1-.2,2.32.13,2.31.08,2.32a3.34,3.34,0,0,1-.14-.67,10.6,10.6,0,0,1,.08-3.31A2.5,2.5,0,0,1,127.31,103.14Z"/><path class="cls-1" d="M130.24,104.21a16.34,16.34,0,0,0-1,1.74,15.37,15.37,0,0,0-.61,1.9,1.62,1.62,0,0,1,0-.6,5.87,5.87,0,0,1,.42-1.37,6.05,6.05,0,0,1,.72-1.23A1.75,1.75,0,0,1,130.24,104.21Z"/><path class="cls-1" d="M195.47,96.36a3,3,0,0,1,1.28,1.21,3,3,0,0,1,.55,1.68,7.56,7.56,0,0,0-.68-1.6A7.18,7.18,0,0,0,195.47,96.36Z"/><path class="cls-1" d="M198.36,94.55s-.17,1-.2,2.32.13,2.31.09,2.32a2.37,2.37,0,0,1-.15-.67,9.89,9.89,0,0,1-.09-1.66,9.76,9.76,0,0,1,.17-1.65A2.35,2.35,0,0,1,198.36,94.55Z"/><path class="cls-1" d="M201.29,95.62a16.34,16.34,0,0,0-1,1.74,18,18,0,0,0-.61,1.89,1.56,1.56,0,0,1,.05-.59,5.87,5.87,0,0,1,.42-1.37,7,7,0,0,1,.72-1.24C201.11,95.76,201.28,95.6,201.29,95.62Z"/><path class="cls-1" d="M173.78,119.35a3,3,0,0,1,1.28,1.21,3.15,3.15,0,0,1,.55,1.67,7.86,7.86,0,0,0-.68-1.59A7.19,7.19,0,0,0,173.78,119.35Z"/><path class="cls-1" d="M176.66,117.54c.05,0-.16,1-.19,2.31s.13,2.32.08,2.33a2.65,2.65,0,0,1-.14-.67,9.76,9.76,0,0,1-.1-1.66,10.92,10.92,0,0,1,.17-1.65A2.66,2.66,0,0,1,176.66,117.54Z"/><path class="cls-1" d="M179.6,118.6a19.23,19.23,0,0,0-1,1.74,17.36,17.36,0,0,0-.62,1.9,1.88,1.88,0,0,1,.05-.59,6.51,6.51,0,0,1,.43-1.37,5.72,5.72,0,0,1,.72-1.24A1.76,1.76,0,0,1,179.6,118.6Z"/><path class="cls-1" d="M29.05,73.09A3.59,3.59,0,0,1,30.88,76a7.61,7.61,0,0,0-.68-1.59A7.49,7.49,0,0,0,29.05,73.09Z"/><path class="cls-1" d="M31.94,71.29s-.17,1-.2,2.31.13,2.32.08,2.33a3.34,3.34,0,0,1-.14-.67,9.89,9.89,0,0,1-.09-1.66A9.76,9.76,0,0,1,31.76,72,2.21,2.21,0,0,1,31.94,71.29Z"/><path class="cls-1" d="M34.87,72.35a17.67,17.67,0,0,0-1,1.74,16,16,0,0,0-.61,1.9,1.56,1.56,0,0,1,0-.59A5.74,5.74,0,0,1,33.75,74a5.89,5.89,0,0,1,.72-1.24A2,2,0,0,1,34.87,72.35Z"/><path class="cls-1" d="M11.92,111.15a3.08,3.08,0,0,1,1.28,1.22,3,3,0,0,1,.55,1.67,7.86,7.86,0,0,0-.68-1.59A7.49,7.49,0,0,0,11.92,111.15Z"/><path class="cls-1" d="M14.81,109.35s-.17,1-.2,2.31.13,2.32.09,2.33a2.37,2.37,0,0,1-.15-.67,9.89,9.89,0,0,1-.09-1.66,9.76,9.76,0,0,1,.17-1.65A2.21,2.21,0,0,1,14.81,109.35Z"/><path class="cls-1" d="M17.74,110.41a17.67,17.67,0,0,0-1,1.74,18.57,18.57,0,0,0-.61,1.9,1.56,1.56,0,0,1,.05-.59,5.87,5.87,0,0,1,.42-1.37,6.68,6.68,0,0,1,.72-1.24A2,2,0,0,1,17.74,110.41Z"/><path class="cls-1" d="M175.77,72.73a3,3,0,0,1,1.28,1.21,3.05,3.05,0,0,1,.55,1.68,7.56,7.56,0,0,0-.68-1.6A7.18,7.18,0,0,0,175.77,72.73Z"/><path class="cls-1" d="M178.65,70.92s-.16,1-.19,2.32.13,2.31.08,2.32a2.65,2.65,0,0,1-.14-.67,10.92,10.92,0,0,1-.1-1.66,9.64,9.64,0,0,1,.18-1.65A2.62,2.62,0,0,1,178.65,70.92Z"/><path class="cls-1" d="M181.59,72a16.34,16.34,0,0,0-1,1.74,16.85,16.85,0,0,0-.62,1.89,2.35,2.35,0,0,1,0-.59,6.51,6.51,0,0,1,.43-1.37,6,6,0,0,1,.72-1.24C181.41,72.13,181.57,72,181.59,72Z"/><rect class="cls-2" x="190.06" y="54.03" width="1.99" height="6.84" transform="translate(382.12 114.9) rotate(180)"/><path class="cls-2" d="M198.61,54s-.1-.06.12-.34a.28.28,0,0,0-.12-.44,2.89,2.89,0,0,1-2.25,0s1.54-.48,1.74-.93-.11-.38-.25-.38c.16,0,.5-.07.6-.25s-.4-.52-.4-.52a.41.41,0,0,0,0-.37c-.09-.24-2.11-.59-2.11-.59a.8.8,0,0,0,.81-.52s1,0,1.23-.37-.15-.5-.82-.83A16.87,16.87,0,0,1,195,46.92a3.45,3.45,0,0,0,1.18-.3c.25-.22,0-.26,0-.26,1.1.11.72-.48.72-.48a4.9,4.9,0,0,1-2.25-1.46,2.64,2.64,0,0,0,1-.48c.35-.32-.3-.41-.3-.41s1.3-.17.55-.65c-.56-.36-1.47-.85-1.75-1a2.8,2.8,0,0,0,1,0c.82-.37,0-.91,0-.91A16.3,16.3,0,0,1,192.87,39s.7.37,1,.27-.39-.55-.39-.55.38.11.53,0-.41-.61-.41-.61a11.56,11.56,0,0,1-2.32-2.61A11.81,11.81,0,0,1,189,38.14s-.57.5-.42.61.53,0,.53,0-.74.44-.39.55,1.06-.27,1.06-.27A16.3,16.3,0,0,1,187.42,41s-.83.54,0,.91a2.8,2.8,0,0,0,1,0c-.29.15-1.19.64-1.76,1-.74.48.55.65.55.65s-.65.09-.29.41a2.64,2.64,0,0,0,1,.48,5,5,0,0,1-2.26,1.46s-.37.59.73.48c0,0-.24,0,0,.26a3.35,3.35,0,0,0,1.17.3,17.34,17.34,0,0,1-2.13,1.54c-.67.33-1.06.44-.83.83s1.24.37,1.24.37a.79.79,0,0,0,.8.52s-2,.35-2.11.59a.46.46,0,0,0,0,.37s-.53.28-.4.52.45.24.61.25c-.14,0-.4,0-.25.38s1.74.93,1.74.93a2.89,2.89,0,0,1-2.25,0,.28.28,0,0,0-.12.44c.21.28.12.34.12.34s-.49-.36-.28.2,1.35.91,1.35.91-.64.11-.45.46a2.82,2.82,0,0,0,1.92.85,7.56,7.56,0,0,0,2.12-.24s-.82.43-.25.67,1.21-.3,1.21-.3-.12.55.35.36a3.11,3.11,0,0,0,.87-.56s.14.82.44.63c.29.19.44-.63.44-.63a3.16,3.16,0,0,0,.86.56c.47.19.35-.36.35-.36s.65.54,1.22.3-.26-.67-.26-.67a7.62,7.62,0,0,0,2.12.24,2.8,2.8,0,0,0,1.92-.85c.2-.35-.45-.46-.45-.46s1.14-.34,1.35-.91S198.61,54,198.61,54Z"/><path class="cls-2" d="M194.19,41h0Z"/><rect class="cls-2" x="18.28" y="54.03" width="1.99" height="6.84" transform="translate(38.56 114.9) rotate(180)"/><path class="cls-2" d="M26.83,54s-.1-.06.12-.34a.28.28,0,0,0-.12-.44,2.89,2.89,0,0,1-2.25,0s1.54-.48,1.74-.93-.11-.38-.25-.38c.16,0,.5-.07.6-.25s-.4-.52-.4-.52a.41.41,0,0,0,0-.37c-.09-.24-2.11-.59-2.11-.59a.8.8,0,0,0,.81-.52s1,0,1.23-.37-.15-.5-.82-.83a16.87,16.87,0,0,1-2.14-1.54,3.45,3.45,0,0,0,1.18-.3c.25-.22,0-.26,0-.26,1.1.11.72-.48.72-.48a4.9,4.9,0,0,1-2.25-1.46,2.64,2.64,0,0,0,1-.48c.35-.32-.3-.41-.3-.41s1.3-.17.55-.65c-.56-.36-1.47-.85-1.75-1a2.8,2.8,0,0,0,1,0c.82-.37,0-.91,0-.91A16.3,16.3,0,0,1,21.09,39s.7.37,1.05.27-.39-.55-.39-.55.38.11.53,0-.41-.61-.41-.61a11.56,11.56,0,0,1-2.32-2.61,11.81,11.81,0,0,1-2.32,2.61s-.57.5-.42.61.53,0,.53,0-.74.44-.39.55S18,39,18,39A16.3,16.3,0,0,1,15.64,41s-.83.54,0,.91a2.8,2.8,0,0,0,1,0c-.29.15-1.19.64-1.76,1-.74.48.55.65.55.65s-.65.09-.29.41a2.64,2.64,0,0,0,1,.48,5,5,0,0,1-2.26,1.46s-.37.59.73.48c0,0-.24,0,0,.26a3.35,3.35,0,0,0,1.17.3,17.34,17.34,0,0,1-2.13,1.54c-.67.33-1.06.44-.83.83s1.24.37,1.24.37a.79.79,0,0,0,.8.52s-2,.35-2.11.59a.46.46,0,0,0,0,.37s-.53.28-.4.52.45.24.61.25c-.14,0-.4,0-.25.38s1.74.93,1.74.93a2.89,2.89,0,0,1-2.25,0,.28.28,0,0,0-.12.44c.21.28.12.34.12.34s-.49-.36-.28.2,1.35.91,1.35.91-.64.11-.45.46a2.82,2.82,0,0,0,1.92.85,7.56,7.56,0,0,0,2.12-.24s-.82.43-.25.67,1.21-.3,1.21-.3-.12.55.35.36a3.11,3.11,0,0,0,.87-.56s.14.82.44.63c.29.19.44-.63.44-.63a3.16,3.16,0,0,0,.86.56c.47.19.35-.36.35-.36s.65.54,1.22.3-.26-.67-.26-.67a7.62,7.62,0,0,0,2.12.24,2.8,2.8,0,0,0,1.92-.85c.2-.35-.45-.46-.45-.46s1.14-.34,1.35-.91S26.83,54,26.83,54Z"/><path class="cls-2" d="M22.41,41h0Z"/><rect class="cls-3" x="199.8" y="52.52" width="2.43" height="8.35" transform="translate(402.02 113.4) rotate(180)"/><path class="cls-3" d="M210.22,52.5s-.12-.08.15-.43-.15-.53-.15-.53a3.59,3.59,0,0,1-2.75,0s1.89-.58,2.13-1.14c.18-.41-.14-.46-.31-.46.2,0,.61-.08.74-.31s-.49-.63-.49-.63a.5.5,0,0,0,0-.45c-.11-.29-2.57-.72-2.57-.72a1,1,0,0,0,1-.63s1.22,0,1.51-.45-.19-.61-1-1a21.85,21.85,0,0,1-2.6-1.88,4.07,4.07,0,0,0,1.43-.37c.31-.27,0-.32,0-.32,1.34.13.89-.59.89-.59a6,6,0,0,1-2.75-1.77,3.4,3.4,0,0,0,1.27-.58c.43-.4-.36-.51-.36-.51s1.58-.21.67-.79c-.69-.45-1.8-1-2.14-1.22a3.25,3.25,0,0,0,1.23,0c1-.45,0-1.11,0-1.11a19.38,19.38,0,0,1-2.89-2.33s.86.45,1.29.31-.48-.66-.48-.66.45.13.64,0-.5-.74-.5-.74A14.2,14.2,0,0,1,201.34,30a14.2,14.2,0,0,1-2.83,3.18s-.7.61-.51.74.65,0,.65,0-.91.53-.48.66,1.29-.31,1.29-.31a19.38,19.38,0,0,1-2.89,2.33s-1,.66,0,1.11a3.23,3.23,0,0,0,1.23,0c-.34.18-1.45.77-2.14,1.22-.91.58.67.79.67.79s-.79.11-.36.51a3.4,3.4,0,0,0,1.27.58,6,6,0,0,1-2.75,1.77s-.46.72.88.59c0,0-.28,0,0,.32a4.07,4.07,0,0,0,1.43.37,21.85,21.85,0,0,1-2.6,1.88c-.82.4-1.29.53-1,1s1.51.45,1.51.45a1,1,0,0,0,1,.63s-2.46.43-2.57.72a.5.5,0,0,0,0,.45s-.66.34-.49.63.54.29.74.31c-.18,0-.49.05-.31.46.24.56,2.13,1.14,2.13,1.14a3.6,3.6,0,0,1-2.75,0s-.41.19-.15.53.15.43.15.43-.6-.45-.34.23,1.65,1.12,1.65,1.12-.79.13-.55.55a3.44,3.44,0,0,0,2.35,1,9.17,9.17,0,0,0,2.58-.29s-1,.53-.31.82,1.48-.37,1.48-.37-.14.68.43.44a3.91,3.91,0,0,0,1.05-.68s.18,1,.54.76c.36.24.54-.76.54-.76a3.72,3.72,0,0,0,1.05.68c.57.24.43-.44.43-.44s.79.66,1.48.37-.31-.82-.31-.82a9.17,9.17,0,0,0,2.58.29,3.44,3.44,0,0,0,2.35-1c.24-.42-.55-.55-.55-.55s1.38-.43,1.65-1.12S210.22,52.5,210.22,52.5Z"/><path class="cls-3" d="M204.83,36.65l0,0Z"/><rect class="cls-3" x="9.37" y="52.52" width="2.43" height="8.35" transform="translate(21.17 113.4) rotate(180)"/><path class="cls-3" d="M19.79,52.5s-.12-.08.15-.43-.15-.53-.15-.53a3.6,3.6,0,0,1-2.75,0s1.89-.58,2.13-1.14c.18-.41-.13-.46-.31-.46.2,0,.61-.08.74-.31s-.49-.63-.49-.63a.5.5,0,0,0,0-.45c-.11-.29-2.57-.72-2.57-.72a1,1,0,0,0,1-.63s1.22,0,1.51-.45-.19-.61-1-1a21.85,21.85,0,0,1-2.6-1.88,4.07,4.07,0,0,0,1.43-.37c.31-.27,0-.32,0-.32,1.33.13.88-.59.88-.59A6,6,0,0,1,15,40.81a3.4,3.4,0,0,0,1.27-.58c.43-.4-.36-.51-.36-.51s1.58-.21.67-.79c-.69-.45-1.8-1-2.14-1.22a3.23,3.23,0,0,0,1.23,0c1-.45,0-1.11,0-1.11a19.38,19.38,0,0,1-2.89-2.33s.86.45,1.29.31-.48-.66-.48-.66.45.13.65,0-.51-.74-.51-.74A14.2,14.2,0,0,1,10.91,30a14.2,14.2,0,0,1-2.83,3.18s-.7.61-.5.74.64,0,.64,0-.91.53-.48.66S9,34.24,9,34.24a19.38,19.38,0,0,1-2.89,2.33s-1,.66,0,1.11a3.23,3.23,0,0,0,1.23,0c-.34.18-1.45.77-2.14,1.22-.91.58.67.79.67.79s-.79.11-.36.51a3.4,3.4,0,0,0,1.27.58,6,6,0,0,1-2.75,1.77s-.45.72.89.59c0,0-.29,0,0,.32a4.07,4.07,0,0,0,1.43.37,21.85,21.85,0,0,1-2.6,1.88c-.82.4-1.29.53-1,1s1.51.45,1.51.45a1,1,0,0,0,1,.63s-2.46.43-2.57.72a.5.5,0,0,0,0,.45s-.66.34-.49.63.54.29.74.31c-.17,0-.49.05-.31.46.24.56,2.13,1.14,2.13,1.14a3.59,3.59,0,0,1-2.75,0s-.41.19-.15.53.15.43.15.43-.6-.45-.34.23,1.65,1.12,1.65,1.12-.79.13-.55.55a3.44,3.44,0,0,0,2.35,1,9.17,9.17,0,0,0,2.58-.29s-1,.53-.31.82,1.48-.37,1.48-.37-.14.68.43.44a3.72,3.72,0,0,0,1-.68s.18,1,.54.76c.36.24.54-.76.54-.76A3.91,3.91,0,0,0,12.5,56c.57.24.43-.44.43-.44s.79.66,1.48.37-.31-.82-.31-.82a9.17,9.17,0,0,0,2.58.29,3.44,3.44,0,0,0,2.35-1c.24-.42-.55-.55-.55-.55s1.38-.43,1.65-1.12S19.79,52.5,19.79,52.5Z"/><path class="cls-3" d="M14.4,36.65l0,0Z"/><path class="cls-3" d="M68.49,16.89A8,8,0,0,0,67.58,15a2.61,2.61,0,0,0-1.71-1.12,1.58,1.58,0,0,0-1.69,1,10,10,0,0,0-1.06-4.33A4.16,4.16,0,0,0,59.48,8.3a4.25,4.25,0,0,0-3.28,2.37,12.64,12.64,0,0,0-1.12,4.06,1.54,1.54,0,0,0-2.22.19A4.41,4.41,0,0,0,52,17.28H68.85Z"/><path class="cls-3" d="M159,17.81a7.67,7.67,0,0,0-.91-1.89,2.64,2.64,0,0,0-1.71-1.11,1.59,1.59,0,0,0-1.69.95,9.88,9.88,0,0,0-1.06-4.32A4.16,4.16,0,0,0,150,9.22a4.25,4.25,0,0,0-3.28,2.37,12.57,12.57,0,0,0-1.12,4.06,1.53,1.53,0,0,0-2.22.19,4.38,4.38,0,0,0-.82,2.36h16.81Z"/><path class="cls-2" d="M79.94,9.35a4,4,0,0,0-.43-.91,1.26,1.26,0,0,0-.83-.54.76.76,0,0,0-.81.46,4.8,4.8,0,0,0-.51-2.08,2,2,0,0,0-1.75-1.07A2,2,0,0,0,74,6.35a6.27,6.27,0,0,0-.54,2,.73.73,0,0,0-1.07.09A2.19,2.19,0,0,0,72,9.53h8.09Z"/><path class="cls-2" d="M204.85,19.67a4,4,0,0,0-.43-.91,1.26,1.26,0,0,0-.83-.54.76.76,0,0,0-.81.46,4.8,4.8,0,0,0-.51-2.08,2,2,0,0,0-1.75-1.07,2,2,0,0,0-1.58,1.15,6.14,6.14,0,0,0-.54,1.95.73.73,0,0,0-1.07.09,2.19,2.19,0,0,0-.39,1.13H205Z"/><path class="cls-4" d="M205.48,60.87S160.49,61,105,61s-100.48,0-100.48-.08,45-.07,100.48-.07S205.48,60.83,205.48,60.87Z"/><path class="cls-5" d="M27.14,86.4a2,2,0,0,1,1.21,1A3.49,3.49,0,0,1,28.73,89a6.24,6.24,0,0,1-.88,3.1A4.2,4.2,0,0,1,26.3,89.5c-.26-1-.09-3.12.84-3.1"/><path class="cls-5" d="M29.12,93.63a1.7,1.7,0,0,1,.3-1.7A2.24,2.24,0,0,1,31,91.15a1,1,0,0,1,.78.21.73.73,0,0,1,.12.74,1.41,1.41,0,0,1-.46.62,3,3,0,0,1-2.33.91"/><path class="cls-4" d="M28.49,97a.63.63,0,0,1,0-.22v-.58a6.22,6.22,0,0,1,.31-1.92,3.82,3.82,0,0,1,1.1-1.6,2.48,2.48,0,0,1,.5-.32l.15-.06.05,0a4.29,4.29,0,0,0-.66.44,3.9,3.9,0,0,0-1.06,1.58,6.21,6.21,0,0,0-.33,1.9c0,.25,0,.45,0,.59Z"/><path class="cls-4" d="M27.14,88s0,0,0,.09l.06.26c0,.23.11.56.18,1,.16.82.35,2,.54,3.22s.34,2.41.43,3.24c.05.42.08.75.1,1l0,.27a.62.62,0,0,1,0,.09s0,0,0-.09l0-.27-.12-1c-.11-.83-.26-2-.45-3.23s-.38-2.4-.52-3.23l-.16-1-.05-.27A.62.62,0,0,1,27.14,88Z"/><path class="cls-5" d="M27.71,94.49a4,4,0,0,0-2.62-2.59.86.86,0,0,0-.91.13c-.21.25-.09.63.07.91a3.44,3.44,0,0,0,3.45,1.64"/><path class="cls-4" d="M25.38,92.86s.07,0,.19,0l.23.08.29.12c.1.06.22.11.34.19a3.28,3.28,0,0,1,.37.24,5.18,5.18,0,0,1,.73.69,4,4,0,0,1,.54.85,3.27,3.27,0,0,1,.17.41,3.68,3.68,0,0,1,.11.37c0,.11,0,.22.06.31a1.12,1.12,0,0,1,0,.24.76.76,0,0,1,0,.2s0-.29-.15-.74a3.79,3.79,0,0,0-.12-.36,4.34,4.34,0,0,0-.17-.4,4.88,4.88,0,0,0-.54-.83,4.53,4.53,0,0,0-.72-.68,2.6,2.6,0,0,0-.36-.25c-.11-.08-.22-.13-.32-.19C25.65,93,25.37,92.87,25.38,92.86Z"/><path class="cls-5" d="M84.25,114.77a2.05,2.05,0,0,1,1.21,1,3.56,3.56,0,0,1,.38,1.57,6.24,6.24,0,0,1-.88,3.1,4.25,4.25,0,0,1-1.55-2.58c-.26-1.06-.09-3.12.84-3.1"/><path class="cls-5" d="M86.23,122a1.7,1.7,0,0,1,.3-1.7,2.28,2.28,0,0,1,1.59-.78,1,1,0,0,1,.78.22.72.72,0,0,1,.12.73,1.43,1.43,0,0,1-.46.63,3,3,0,0,1-2.33.9"/><path class="cls-4" d="M85.6,125.32s0-.07,0-.21v-.59a6.27,6.27,0,0,1,.31-1.92A3.71,3.71,0,0,1,87,121a2.48,2.48,0,0,1,.5-.32.93.93,0,0,1,.15-.07s0,0,0,0a3.51,3.51,0,0,0-.66.44A3.76,3.76,0,0,0,86,122.63a6.11,6.11,0,0,0-.33,1.89c0,.25,0,.45,0,.59Z"/><path class="cls-4" d="M84.25,116.35s0,0,0,.09l.06.27c0,.22.11.56.18,1,.16.82.35,2,.54,3.22s.34,2.41.43,3.24c.05.41.08.75.1,1l0,.27a.62.62,0,0,1,0,.09s0,0,0-.09l0-.27-.12-1c-.11-.83-.26-2-.45-3.23s-.38-2.4-.52-3.22l-.16-1,0-.26A.82.82,0,0,1,84.25,116.35Z"/><path class="cls-5" d="M84.82,122.85a4,4,0,0,0-2.62-2.58.84.84,0,0,0-.91.12c-.21.25-.09.63.07.92a3.45,3.45,0,0,0,3.45,1.63"/><path class="cls-4" d="M82.49,121.22l.19,0,.23.08c.08,0,.19.07.29.13l.34.18.37.24a4.75,4.75,0,0,1,.73.7,4,4,0,0,1,.54.85,2.37,2.37,0,0,1,.17.41,3.55,3.55,0,0,1,.11.36c0,.12,0,.22.06.31a1.29,1.29,0,0,1,0,.24.76.76,0,0,1,0,.2s0-.28-.15-.73a3,3,0,0,0-.12-.36,4.34,4.34,0,0,0-.17-.4,4.88,4.88,0,0,0-.54-.83,4.62,4.62,0,0,0-.72-.69,3.9,3.9,0,0,0-.36-.25l-.32-.18C82.76,121.32,82.48,121.24,82.49,121.22Z"/><path class="cls-5" d="M181.48,87.34a2.05,2.05,0,0,1,.86,1.33,3.52,3.52,0,0,1-.1,1.61,6.34,6.34,0,0,1-1.76,2.7,4.26,4.26,0,0,1-.72-2.93c.06-1.08.84-3,1.72-2.71"/><path class="cls-5" d="M181.24,94.83a1.72,1.72,0,0,1,.79-1.54,2.33,2.33,0,0,1,1.75-.28,1,1,0,0,1,.68.44.71.71,0,0,1-.1.74,1.43,1.43,0,0,1-.62.46,3,3,0,0,1-2.5.18"/><path class="cls-4" d="M179.66,97.83a1,1,0,0,1,.06-.21l.19-.56a6.17,6.17,0,0,1,.86-1.74,3.73,3.73,0,0,1,1.52-1.2,2.67,2.67,0,0,1,.57-.16H183s.06,0,.06,0a3,3,0,0,0-.77.22,3.89,3.89,0,0,0-1.48,1.2,6.57,6.57,0,0,0-.87,1.71l-.21.55A1.6,1.6,0,0,1,179.66,97.83Z"/><path class="cls-4" d="M181,88.86a.62.62,0,0,1,0,.09l0,.27c0,.23-.06.57-.11,1-.09.83-.24,2-.43,3.24s-.39,2.4-.55,3.22c-.08.41-.14.74-.19,1l-.06.26,0,.1a.58.58,0,0,1,0-.1l0-.26.17-1c.14-.82.33-2,.52-3.22s.35-2.4.46-3.23c0-.41.1-.74.13-1l0-.27C181,88.89,181,88.86,181,88.86Z"/><path class="cls-5" d="M179.64,95.24A4,4,0,0,0,177.9,92a.86.86,0,0,0-.91-.15.85.85,0,0,0-.2.9,3.45,3.45,0,0,0,2.82,2.58"/><path class="cls-4" d="M177.89,93l.18.11.19.14a2.11,2.11,0,0,1,.24.21,3.43,3.43,0,0,1,.27.27l.28.34a4.59,4.59,0,0,1,.49.88,4.3,4.3,0,0,1,.27,1,3.59,3.59,0,0,1,0,.44c0,.14,0,.27,0,.39a2.72,2.72,0,0,1,0,.31c0,.09,0,.17,0,.23a.63.63,0,0,1-.06.2,7.4,7.4,0,0,0,.08-.75c0-.11,0-.24,0-.38a3.56,3.56,0,0,0,0-.43A4.37,4.37,0,0,0,179,94.1c-.09-.12-.18-.24-.27-.34l-.26-.27C178.13,93.16,177.88,93,177.89,93Z"/><rect class="cls-1" x="21.38" y="19.06" width="22.51" height="41.79" transform="translate(65.28 79.9) rotate(180)"/><rect class="cls-1" x="43.62" y="30.34" width="38.11" height="30.51" transform="translate(125.35 91.19) rotate(180)"/><path class="cls-4" d="M43.88,60.87s-.07-9.19-.07-20.53,0-20.54.07-20.54S44,29,44,40.34,43.92,60.87,43.88,60.87Z"/><rect class="cls-6" x="21.38" y="47.11" width="60.35" height="13.74" transform="translate(103.11 107.95) rotate(180)"/><polygon class="cls-6" points="44.6 17.22 32.65 11.07 20.75 17.22 44.6 17.22"/><rect class="cls-1" x="20.75" y="17.22" width="23.85" height="1.38" transform="translate(65.36 35.82) rotate(180)"/><rect class="cls-1" x="21.04" y="18.6" width="23.2" height="0.46" transform="translate(65.28 37.65) rotate(180)"/><path class="cls-4" d="M20.73,18.6s5.35-.08,11.94-.08,11.93,0,11.93.08-5.34.07-11.93.07S20.73,18.64,20.73,18.6Z"/><path class="cls-4" d="M21,19.06S26.22,19,32.63,19s11.61,0,11.61.08-5.2.07-11.61.07S21,19.1,21,19.06Z"/><rect class="cls-7" x="34.38" y="23.96" width="4.84" height="8.31" transform="translate(73.6 56.24) rotate(180)"/><rect class="cls-8" x="34.92" y="24.57" width="3.79" height="7.24" transform="translate(73.63 56.38) rotate(180)"/><path class="cls-4" d="M36.89,31.84s-.07-1.63-.07-3.64,0-3.65.07-3.65S37,26.18,37,28.2,36.93,31.84,36.89,31.84Z"/><path class="cls-4" d="M34.92,26.75a12.73,12.73,0,0,1,1.9-.07,12.64,12.64,0,0,1,1.89.07,11.83,11.83,0,0,1-1.89.08A11.91,11.91,0,0,1,34.92,26.75Z"/><path class="cls-4" d="M34.92,29.31a11.91,11.91,0,0,1,1.9-.08,11.83,11.83,0,0,1,1.89.08,12.64,12.64,0,0,1-1.89.07A12.73,12.73,0,0,1,34.92,29.31Z"/><rect class="cls-7" x="64.34" y="34" width="4.84" height="8.31" transform="translate(133.52 76.32) rotate(180)"/><rect class="cls-8" x="64.88" y="34.61" width="3.79" height="7.24" transform="translate(133.55 76.45) rotate(180)"/><path class="cls-4" d="M66.85,41.88s-.08-1.63-.08-3.65,0-3.64.08-3.64.07,1.63.07,3.64S66.89,41.88,66.85,41.88Z"/><path class="cls-4" d="M64.88,36.79a12.64,12.64,0,0,1,1.89-.07,12.73,12.73,0,0,1,1.9.07,11.91,11.91,0,0,1-1.9.08A11.83,11.83,0,0,1,64.88,36.79Z"/><path class="cls-4" d="M64.88,39.34a12.64,12.64,0,0,1,1.89-.07,12.73,12.73,0,0,1,1.9.07,10.65,10.65,0,0,1-1.9.08A10.58,10.58,0,0,1,64.88,39.34Z"/><rect class="cls-7" x="73.17" y="34" width="4.84" height="8.31" transform="translate(151.18 76.32) rotate(180)"/><rect class="cls-8" x="73.71" y="34.61" width="3.79" height="7.24" transform="translate(151.21 76.45) rotate(180)"/><path class="cls-4" d="M75.68,41.88s-.08-1.63-.08-3.65,0-3.64.08-3.64.07,1.63.07,3.64S75.72,41.88,75.68,41.88Z"/><path class="cls-4" d="M73.71,36.79a12.64,12.64,0,0,1,1.89-.07,12.73,12.73,0,0,1,1.9.07,11.91,11.91,0,0,1-1.9.08A11.83,11.83,0,0,1,73.71,36.79Z"/><path class="cls-4" d="M73.71,39.34a12.64,12.64,0,0,1,1.89-.07,12.73,12.73,0,0,1,1.9.07,10.65,10.65,0,0,1-1.9.08A10.58,10.58,0,0,1,73.71,39.34Z"/><rect class="cls-7" x="56.4" y="33.9" width="4.84" height="8.31" transform="translate(117.64 76.12) rotate(180)"/><rect class="cls-8" x="56.94" y="34.51" width="3.79" height="7.24" transform="translate(117.67 76.26) rotate(180)"/><path class="cls-4" d="M58.91,41.78s-.07-1.63-.07-3.64,0-3.65.07-3.65.08,1.63.08,3.65S59,41.78,58.91,41.78Z"/><path class="cls-4" d="M56.94,36.69a12.64,12.64,0,0,1,1.89-.07,12.73,12.73,0,0,1,1.9.07,11.91,11.91,0,0,1-1.9.08A11.83,11.83,0,0,1,56.94,36.69Z"/><path class="cls-4" d="M56.94,39.25a11.83,11.83,0,0,1,1.89-.08,11.91,11.91,0,0,1,1.9.08,12.73,12.73,0,0,1-1.9.07A12.64,12.64,0,0,1,56.94,39.25Z"/><rect class="cls-7" x="48.46" y="33.81" width="4.84" height="8.31" transform="translate(101.77 75.93) rotate(180)"/><rect class="cls-8" x="49" y="34.41" width="3.79" height="7.24" transform="translate(101.79 76.06) rotate(180)"/><path class="cls-4" d="M51,41.68S50.9,40.05,50.9,38s0-3.64.07-3.64.08,1.63.08,3.64S51,41.68,51,41.68Z"/><path class="cls-4" d="M49,36.6a10.65,10.65,0,0,1,1.9-.08,10.58,10.58,0,0,1,1.89.08,12.64,12.64,0,0,1-1.89.07A12.73,12.73,0,0,1,49,36.6Z"/><path class="cls-4" d="M49,39.15a12.73,12.73,0,0,1,1.9-.07,12.64,12.64,0,0,1,1.89.07,11.83,11.83,0,0,1-1.89.08A11.91,11.91,0,0,1,49,39.15Z"/><rect class="cls-7" x="25.84" y="23.96" width="4.84" height="8.31" transform="translate(56.52 56.24) rotate(180)"/><rect class="cls-8" x="26.38" y="24.57" width="3.79" height="7.24" transform="translate(56.55 56.38) rotate(180)"/><path class="cls-4" d="M28.35,31.84s-.07-1.63-.07-3.64,0-3.65.07-3.65.08,1.63.08,3.65S28.39,31.84,28.35,31.84Z"/><path class="cls-4" d="M26.38,26.75a12.73,12.73,0,0,1,1.9-.07,12.64,12.64,0,0,1,1.89.07,11.83,11.83,0,0,1-1.89.08A11.91,11.91,0,0,1,26.38,26.75Z"/><path class="cls-4" d="M26.38,29.31a11.91,11.91,0,0,1,1.9-.08,11.83,11.83,0,0,1,1.89.08,12.64,12.64,0,0,1-1.89.07A12.73,12.73,0,0,1,26.38,29.31Z"/><rect class="cls-7" x="34.38" y="34.61" width="4.84" height="8.31" transform="translate(73.6 77.54) rotate(180)"/><rect class="cls-8" x="34.92" y="35.22" width="3.79" height="7.24" transform="translate(73.63 77.67) rotate(180)"/><path class="cls-4" d="M36.89,42.49s-.07-1.63-.07-3.65,0-3.64.07-3.64.08,1.63.08,3.64S36.93,42.49,36.89,42.49Z"/><path class="cls-4" d="M34.92,37.4a12.73,12.73,0,0,1,1.9-.07,12.64,12.64,0,0,1,1.89.07,11.83,11.83,0,0,1-1.89.08A11.91,11.91,0,0,1,34.92,37.4Z"/><path class="cls-4" d="M34.92,40a12.73,12.73,0,0,1,1.9-.07,12.64,12.64,0,0,1,1.89.07,10.58,10.58,0,0,1-1.89.08A10.65,10.65,0,0,1,34.92,40Z"/><rect class="cls-7" x="25.84" y="34.61" width="4.84" height="8.31" transform="translate(56.52 77.54) rotate(180)"/><rect class="cls-8" x="26.38" y="35.22" width="3.79" height="7.24" transform="translate(56.55 77.67) rotate(180)"/><path class="cls-4" d="M28.35,42.49s-.07-1.63-.07-3.65,0-3.64.07-3.64.08,1.63.08,3.64S28.39,42.49,28.35,42.49Z"/><path class="cls-4" d="M26.38,37.4a12.73,12.73,0,0,1,1.9-.07,12.64,12.64,0,0,1,1.89.07,11.83,11.83,0,0,1-1.89.08A11.91,11.91,0,0,1,26.38,37.4Z"/><path class="cls-4" d="M26.38,40a12.73,12.73,0,0,1,1.9-.07,12.64,12.64,0,0,1,1.89.07,10.58,10.58,0,0,1-1.89.08A10.65,10.65,0,0,1,26.38,40Z"/><rect class="cls-1" x="20.69" y="44.8" width="61.14" height="1.41" transform="translate(102.52 91.01) rotate(180)"/><rect class="cls-1" x="21.06" y="46.16" width="60.78" height="0.94" transform="translate(102.89 93.27) rotate(180)"/><path class="cls-4" d="M81.83,46.28s-13.62.07-30.43.07S21,46.32,21,46.28s13.63-.08,30.44-.08S81.83,46.23,81.83,46.28Z"/><path class="cls-4" d="M81.83,47.11s-13.62.07-30.43.07S21,47.15,21,47.11,34.59,47,51.4,47,81.83,47.06,81.83,47.11Z"/><path class="cls-4" d="M81.83,44.8s-13.62.08-30.43.08S21,44.84,21,44.8s13.63-.07,30.44-.07S81.83,44.76,81.83,44.8Z"/><path class="cls-7" d="M60.13,48.56h5.08a0,0,0,0,1,0,0v8.81a2,2,0,0,1-2,2h-1a2,2,0,0,1-2-2V48.56A0,0,0,0,1,60.13,48.56Z" transform="translate(125.35 107.95) rotate(180)"/><path class="cls-8" d="M60.85,49.34H64.5a0,0,0,0,1,0,0v7.82A1.45,1.45,0,0,1,63,58.61h-.74a1.45,1.45,0,0,1-1.45-1.45V49.34A0,0,0,0,1,60.85,49.34Z" transform="translate(125.35 107.95) rotate(180)"/><path class="cls-4" d="M62.67,58.61S62.6,56.54,62.6,54s0-4.64.07-4.64.08,2.08.08,4.64S62.72,58.61,62.67,58.61Z"/><path class="cls-4" d="M60.88,52.23a10.81,10.81,0,0,1,1.81-.08,11,11,0,0,1,1.82.08,11.74,11.74,0,0,1-1.82.07A11.56,11.56,0,0,1,60.88,52.23Z"/><path class="cls-4" d="M60.88,55.26a11.56,11.56,0,0,1,1.81-.07,11.74,11.74,0,0,1,1.82.07,9.83,9.83,0,0,1-1.82.08A9.67,9.67,0,0,1,60.88,55.26Z"/><path class="cls-7" d="M69.81,48.56H74.9a0,0,0,0,1,0,0v8.81a2,2,0,0,1-2,2h-1a2,2,0,0,1-2-2V48.56a0,0,0,0,1,0,0Z" transform="translate(144.71 107.95) rotate(180)"/><path class="cls-8" d="M70.53,49.34h3.64a0,0,0,0,1,0,0v7.82a1.45,1.45,0,0,1-1.45,1.45H72a1.45,1.45,0,0,1-1.45-1.45V49.34A0,0,0,0,1,70.53,49.34Z" transform="translate(144.71 107.95) rotate(180)"/><path class="cls-4" d="M72.35,58.61s-.07-2.07-.07-4.63,0-4.64.07-4.64.08,2.08.08,4.64S72.4,58.61,72.35,58.61Z"/><path class="cls-4" d="M70.56,52.23a10.81,10.81,0,0,1,1.81-.08,11,11,0,0,1,1.82.08,11.74,11.74,0,0,1-1.82.07A11.56,11.56,0,0,1,70.56,52.23Z"/><path class="cls-4" d="M70.56,55.26a11.56,11.56,0,0,1,1.81-.07,11.74,11.74,0,0,1,1.82.07,9.83,9.83,0,0,1-1.82.08A9.67,9.67,0,0,1,70.56,55.26Z"/><path class="cls-7" d="M48.73,48.56h5.08a0,0,0,0,1,0,0v8.81a2,2,0,0,1-2,2h-1a2,2,0,0,1-2-2V48.56a0,0,0,0,1,0,0Z" transform="translate(102.54 107.95) rotate(180)"/><path class="cls-8" d="M49.47,49.45h3.64a0,0,0,0,1,0,0v7.82a1.45,1.45,0,0,1-1.45,1.45h-.74a1.45,1.45,0,0,1-1.45-1.45V49.45A0,0,0,0,1,49.47,49.45Z" transform="translate(102.58 108.18) rotate(180)"/><path class="cls-4" d="M51.27,58.61S51.2,56.54,51.2,54s0-4.64.07-4.64.08,2.08.08,4.64S51.31,58.61,51.27,58.61Z"/><path class="cls-4" d="M49.47,52.23a11,11,0,0,1,1.82-.08,10.81,10.81,0,0,1,1.81.08,11.56,11.56,0,0,1-1.81.07A11.74,11.74,0,0,1,49.47,52.23Z"/><path class="cls-4" d="M49.47,55.26a11.74,11.74,0,0,1,1.82-.07,11.56,11.56,0,0,1,1.81.07,9.67,9.67,0,0,1-1.81.08A9.83,9.83,0,0,1,49.47,55.26Z"/><path class="cls-7" d="M24.19,48.56h5.08a0,0,0,0,1,0,0v8.81a2,2,0,0,1-2,2h-1a2,2,0,0,1-2-2V48.56a0,0,0,0,1,0,0Z" transform="translate(53.47 107.95) rotate(180)"/><path class="cls-8" d="M24.93,49.45h3.64a0,0,0,0,1,0,0v7.82a1.45,1.45,0,0,1-1.45,1.45h-.74a1.45,1.45,0,0,1-1.45-1.45V49.45A0,0,0,0,1,24.93,49.45Z" transform="translate(53.5 108.18) rotate(180)"/><path class="cls-4" d="M26.73,58.61s-.07-2.07-.07-4.63,0-4.64.07-4.64.08,2.08.08,4.64S26.78,58.61,26.73,58.61Z"/><path class="cls-4" d="M24.94,52.23a10.81,10.81,0,0,1,1.81-.08,11,11,0,0,1,1.82.08,11.74,11.74,0,0,1-1.82.07A11.56,11.56,0,0,1,24.94,52.23Z"/><path class="cls-4" d="M24.94,55.26a11.56,11.56,0,0,1,1.81-.07,11.74,11.74,0,0,1,1.82.07,9.83,9.83,0,0,1-1.82.08A9.67,9.67,0,0,1,24.94,55.26Z"/><path class="cls-7" d="M34.28,48.56h5.08a0,0,0,0,1,0,0v8.81a2,2,0,0,1-2,2h-1a2,2,0,0,1-2-2V48.56a0,0,0,0,1,0,0Z" transform="translate(73.65 107.95) rotate(180)"/><path class="cls-8" d="M35,49.45h3.64a0,0,0,0,1,0,0v7.82a1.45,1.45,0,0,1-1.45,1.45h-.74A1.45,1.45,0,0,1,35,57.27V49.45A0,0,0,0,1,35,49.45Z" transform="translate(73.68 108.18) rotate(180)"/><path class="cls-4" d="M36.82,58.61s-.07-2.07-.07-4.63,0-4.64.07-4.64.08,2.08.08,4.64S36.86,58.61,36.82,58.61Z"/><path class="cls-4" d="M35,52.23a11,11,0,0,1,1.82-.08,10.81,10.81,0,0,1,1.81.08,11.56,11.56,0,0,1-1.81.07A11.74,11.74,0,0,1,35,52.23Z"/><path class="cls-4" d="M35,55.26a11.74,11.74,0,0,1,1.82-.07,11.56,11.56,0,0,1,1.81.07,9.67,9.67,0,0,1-1.81.08A9.83,9.83,0,0,1,35,55.26Z"/><rect class="cls-1" x="167.42" y="19.06" width="22.51" height="41.79"/><rect class="cls-1" x="129.59" y="30.34" width="38.11" height="30.51"/><path class="cls-4" d="M167.44,60.87c-.05,0-.08-9.19-.08-20.53s0-20.54.08-20.54.07,9.19.07,20.54S167.48,60.87,167.44,60.87Z"/><rect class="cls-6" x="129.59" y="47.11" width="60.35" height="13.74"/><path class="cls-8" d="M92.27,37.08V35.83c0-.81,0-1.95,0-3.37s0-3.1,0-5a2.2,2.2,0,0,0-.5-1.28,2.24,2.24,0,0,0-1.23-.74,3.69,3.69,0,0,0-.75-.05,2.44,2.44,0,0,0-.76.09,2.22,2.22,0,0,0-1.21.92,1.91,1.91,0,0,0-.29.69,3,3,0,0,0-.06.74v4.35c0,1.82,0,3.47,0,4.86l0,0,3.6,0h1l-1,0-3.63,0h-.06v-.06c0-1.39,0-3,0-4.86V27.87a2.54,2.54,0,0,1,.37-1.51,2.38,2.38,0,0,1,1.3-1,2.74,2.74,0,0,1,.8-.1,3.42,3.42,0,0,1,.78.06,2.37,2.37,0,0,1,1.31.79,2.33,2.33,0,0,1,.53,1.36c0,1.89,0,3.59,0,5s0,2.56,0,3.37l0,.9V37C92.28,37.06,92.28,37.08,92.27,37.08Z"/><rect class="cls-1" x="80.56" y="19.05" width="48.77" height="33.92"/><rect class="cls-9" x="80.56" y="19.05" width="48.77" height="33.92"/><rect class="cls-1" x="79.22" y="19.44" width="51.66" height="1.55"/><rect class="cls-1" x="79.42" y="17.89" width="51.34" height="0.52"/><rect class="cls-1" x="79.22" y="16.68" width="52.05" height="1.21"/><rect class="cls-1" x="79.84" y="17.89" width="50.37" height="1.56"/><polygon class="cls-1" points="79.42 16.68 131.27 16.68 105.07 4.35 79.42 16.68"/><rect class="cls-1" x="79.84" y="20.99" width="50.31" height="0.79"/><rect class="cls-1" x="80.56" y="21.78" width="3.04" height="31.19"/><path class="cls-4" d="M83.6,53a1.08,1.08,0,0,1,0-.16v-.47c0-.42,0-1,0-1.8,0-1.57,0-3.82,0-6.63,0-5.61,0-13.39,0-22.13l.08.07h-3l.07-.07c0,13.91,0,25.87,0,31.19l0,0,2.25,0h0l-2.27,0h0v0c0-5.32,0-17.28,0-31.19V21.7h3.19v.08c0,8.76,0,16.56,0,22.19,0,2.79,0,5.05,0,6.61,0,.77,0,1.37,0,1.78V53Z"/><rect class="cls-1" x="89.76" y="21.78" width="3.04" height="31.19"/><path class="cls-4" d="M92.81,53a1.08,1.08,0,0,1,0-.16v-.47c0-.42,0-1,0-1.8,0-1.57,0-3.82,0-6.63,0-5.61,0-13.39,0-22.13l.08.07h-3l.08-.07c0,13.91,0,25.87,0,31.19l0,0L92,53h0l-2.27,0h0v0c0-5.32,0-17.28,0-31.19V21.7h3.19v.08c0,8.76,0,16.56,0,22.19,0,2.79,0,5.05,0,6.61,0,.77,0,1.37,0,1.78V53Z"/><rect class="cls-1" x="118.27" y="21.78" width="3.04" height="31.19"/><path class="cls-4" d="M121.32,53a1.08,1.08,0,0,1,0-.16v-.47c0-.42,0-1,0-1.8,0-1.57,0-3.82,0-6.63,0-5.61,0-13.39,0-22.13l.08.07h-3l.08-.07c0,13.91,0,25.87,0,31.19l0,0,2.26,0h0l-2.27,0h0v0c0-5.32,0-17.28,0-31.19V21.7h3.19v.08c0,8.76,0,16.56,0,22.19,0,2.79,0,5.05,0,6.61,0,.77,0,1.37,0,1.78V53Z"/><rect class="cls-1" x="126.6" y="21.78" width="3.04" height="31.19"/><path class="cls-4" d="M129.64,53v-.63c0-.42,0-1,0-1.8,0-1.57,0-3.82,0-6.63,0-5.61,0-13.39,0-22.13l.07.07h-3l.07-.07c0,13.91,0,25.87,0,31.19l0,0,2.25,0h0l-2.27,0h0v0c0-5.32,0-17.28,0-31.19V21.7h3.2v.08c0,8.76,0,16.56,0,22.19,0,2.79,0,5.05,0,6.61,0,.77,0,1.37,0,1.78v.46C129.64,52.92,129.64,53,129.64,53Z"/><path class="cls-8" d="M99.82,38.17H94.87V28.7a2.26,2.26,0,0,1,2.26-2.26h.43a2.27,2.27,0,0,1,2.26,2.26Z"/><path class="cls-4" d="M99.82,38.17s0,0,0-.09v-.24l0-.92c0-.81,0-2,0-3.37s0-3.1,0-5a2.18,2.18,0,0,0-1.72-2,3.83,3.83,0,0,0-.76-.05,2.34,2.34,0,0,0-.75.09,2.26,2.26,0,0,0-1.22.91,2.6,2.6,0,0,0-.29.69A3.12,3.12,0,0,0,95,29v4.35c0,1.82,0,3.46,0,4.86l0-.05,3.6,0,1,0h0l-1,0-3.64,0h-.05v-.06c0-1.4,0-3,0-4.86V29a2.45,2.45,0,0,1,.37-1.52,2.31,2.31,0,0,1,1.29-1,2.44,2.44,0,0,1,.8-.1,4.2,4.2,0,0,1,.79.05,2.4,2.4,0,0,1,1.3.8,2.31,2.31,0,0,1,.53,1.36c0,1.89,0,3.59,0,5s0,2.56,0,3.36v1.22Z"/><path class="cls-4" d="M97.34,38.09s-.07-2.59-.07-5.78,0-5.78.07-5.78.08,2.59.08,5.78S97.38,38.09,97.34,38.09Z"/><path class="cls-4" d="M99.82,29.11a20.24,20.24,0,0,1-2.48.08,20.14,20.14,0,0,1-2.47-.08A21.54,21.54,0,0,1,97.34,29,21.65,21.65,0,0,1,99.82,29.11Z"/><path class="cls-4" d="M99.82,32a21.65,21.65,0,0,1-2.48.07A21.54,21.54,0,0,1,94.87,32a18,18,0,0,1,2.47-.08A18.1,18.1,0,0,1,99.82,32Z"/><path class="cls-4" d="M99.82,34.92a21.65,21.65,0,0,1-2.48.07,21.54,21.54,0,0,1-2.47-.07,20.14,20.14,0,0,1,2.47-.08A20.24,20.24,0,0,1,99.82,34.92Z"/><path class="cls-8" d="M108.26,38.17h-5V28.7a2.26,2.26,0,0,1,2.26-2.26H106a2.27,2.27,0,0,1,2.27,2.26Z"/><path class="cls-4" d="M108.26,38.17s0,0,0-.09v-.24c0-.22,0-.53,0-.92,0-.81,0-2,0-3.37s0-3.1,0-5a2.18,2.18,0,0,0-1.73-2,3.69,3.69,0,0,0-.75-.05,2.34,2.34,0,0,0-.75.09,2.26,2.26,0,0,0-1.22.91,2.07,2.07,0,0,0-.29.69,3.12,3.12,0,0,0-.06.75v4.35c0,1.82,0,3.46,0,4.86l0-.05,3.6,0,1,0h0l-1,0-3.63,0h-.06v-.06c0-1.4,0-3,0-4.86V30.46c0-.49,0-1,0-1.5a2.52,2.52,0,0,1,.38-1.52,2.31,2.31,0,0,1,1.29-1,2.44,2.44,0,0,1,.8-.1,4.2,4.2,0,0,1,.79.05,2.4,2.4,0,0,1,1.3.8,2.31,2.31,0,0,1,.53,1.36c0,1.89,0,3.59,0,5s0,2.56,0,3.36v1.22Z"/><path class="cls-4" d="M105.78,38.09s-.07-2.59-.07-5.78,0-5.78.07-5.78.08,2.59.08,5.78S105.82,38.09,105.78,38.09Z"/><path class="cls-4" d="M108.26,29.11a20.24,20.24,0,0,1-2.48.08,20.14,20.14,0,0,1-2.47-.08,21.54,21.54,0,0,1,2.47-.07A21.65,21.65,0,0,1,108.26,29.11Z"/><path class="cls-4" d="M108.26,32a21.65,21.65,0,0,1-2.48.07,21.54,21.54,0,0,1-2.47-.07,18,18,0,0,1,2.47-.08A18.1,18.1,0,0,1,108.26,32Z"/><path class="cls-4" d="M108.26,34.92a21.65,21.65,0,0,1-2.48.07,21.54,21.54,0,0,1-2.47-.07,20.14,20.14,0,0,1,2.47-.08A20.24,20.24,0,0,1,108.26,34.92Z"/><path class="cls-8" d="M116.69,38.17h-4.94V28.7A2.26,2.26,0,0,1,114,26.44h.42a2.26,2.26,0,0,1,2.26,2.26Z"/><path class="cls-4" d="M116.69,38.17V36.92c0-.81,0-2,0-3.37s0-3.1,0-5a2.18,2.18,0,0,0-1.73-2,3.69,3.69,0,0,0-.75-.05,2.44,2.44,0,0,0-.76.09,2.24,2.24,0,0,0-1.21.91,2.07,2.07,0,0,0-.29.69,3.12,3.12,0,0,0-.06.75v4.35c0,1.82,0,3.46,0,4.86l0-.05,3.6,0,1,0h0l-1,0-3.63,0h-.06v-.06c0-1.4,0-3,0-4.86,0-.91,0-1.86,0-2.85V29a2.59,2.59,0,0,1,.37-1.52,2.37,2.37,0,0,1,1.3-1,2.44,2.44,0,0,1,.8-.1,4,4,0,0,1,.78.05,2.39,2.39,0,0,1,1.31.8,2.31,2.31,0,0,1,.53,1.36c0,1.89,0,3.59,0,5s0,2.56,0,3.36v1.14C116.7,38.15,116.7,38.17,116.69,38.17Z"/><path class="cls-4" d="M114.22,38.09s-.07-2.59-.07-5.78,0-5.78.07-5.78.08,2.59.08,5.78S114.26,38.09,114.22,38.09Z"/><path class="cls-4" d="M116.69,29.11a20,20,0,0,1-2.47.08,20.14,20.14,0,0,1-2.47-.08,21.54,21.54,0,0,1,2.47-.07A21.4,21.4,0,0,1,116.69,29.11Z"/><path class="cls-4" d="M116.69,32a21.4,21.4,0,0,1-2.47.07,21.54,21.54,0,0,1-2.47-.07,18,18,0,0,1,2.47-.08A17.89,17.89,0,0,1,116.69,32Z"/><path class="cls-4" d="M116.69,34.92a21.4,21.4,0,0,1-2.47.07,21.54,21.54,0,0,1-2.47-.07,20.14,20.14,0,0,1,2.47-.08A20,20,0,0,1,116.69,34.92Z"/><rect class="cls-4" x="95.94" y="44.76" width="3.87" height="7.68"/><rect class="cls-4" x="103.53" y="44.76" width="3.87" height="7.68"/><rect class="cls-4" x="111.11" y="44.76" width="3.87" height="7.68"/><rect class="cls-1" x="79.56" y="52.44" width="51.08" height="1.62"/><rect class="cls-2" x="78.44" y="54.03" width="52.6" height="1.62"/><rect class="cls-2" x="76.07" y="57.27" width="56.97" height="1.62"/><rect class="cls-2" x="73.97" y="60.49" width="60.9" height="1.62"/><rect class="cls-1" x="77.18" y="55.65" width="54.79" height="1.62"/><rect class="cls-1" x="75.06" y="58.89" width="58.8" height="1.62"/><path class="cls-4" d="M130.2,21.78s-11.19.07-25,.07-25,0-25-.07,11.19-.08,25-.08S130.2,21.74,130.2,21.78Z"/><path class="cls-4" d="M130.88,21c0,.05-11.52.08-25.73.08S79.42,21,79.42,21s11.52-.07,25.73-.07S130.88,20.93,130.88,21Z"/><path class="cls-4" d="M130.94,19.42s-11.52.07-25.73.07-25.73,0-25.73-.07,11.52-.08,25.73-.08S130.94,19.38,130.94,19.42Z"/><path class="cls-4" d="M130.94,18.42s-11.52.07-25.73.07-25.73,0-25.73-.07,11.52-.08,25.73-.08S130.94,18.37,130.94,18.42Z"/><path class="cls-4" d="M130.67,17.9c0,.05-11.52.08-25.73.08s-25.73,0-25.73-.08,11.52-.07,25.73-.07S130.67,17.86,130.67,17.9Z"/><path class="cls-4" d="M129.84,52.37c0,.05-11.22.08-25,.08s-25.06,0-25.06-.08S91,52.3,104.79,52.3,129.84,52.33,129.84,52.37Z"/><path class="cls-4" d="M129.84,54s-11.22.07-25,.07S79.73,54,79.73,54,91,53.9,104.79,53.9,129.84,53.93,129.84,54Z"/><path class="cls-4" d="M129.84,55.58s-11.76.09-26.27.11-26.27,0-26.27,0,11.76-.09,26.27-.11S129.84,55.54,129.84,55.58Z"/><path class="cls-4" d="M129.67,57.27s-12,.07-26.8.07-26.8,0-26.8-.07,12-.08,26.8-.08S129.67,57.23,129.67,57.27Z"/><path class="cls-4" d="M129.84,58.89s-12.23.07-27.3.07-27.3,0-27.3-.07,12.22-.08,27.3-.08S129.84,58.84,129.84,58.89Z"/><path class="cls-4" d="M129.84,60.5s-12.51.08-27.93.08S74,60.55,74,60.5s12.51-.07,27.94-.07S129.84,60.46,129.84,60.5Z"/><path class="cls-4" d="M129.84,62.11s-11.22.07-25,.07-25.06,0-25.06-.07S91,62,104.79,62,129.84,62.07,129.84,62.11Z"/><polygon class="cls-6" points="166.71 17.22 178.67 11.07 190.56 17.22 166.71 17.22"/><rect class="cls-1" x="166.71" y="17.22" width="23.85" height="1.38"/><rect class="cls-1" x="167.08" y="18.6" width="23.2" height="0.46"/><path class="cls-4" d="M190.59,18.6s-5.35.07-11.94.07-11.94,0-11.94-.07,5.34-.08,11.94-.08S190.59,18.56,190.59,18.6Z"/><path class="cls-4" d="M190.29,19.06s-5.2.07-11.61.07-11.6,0-11.6-.07,5.19-.08,11.6-.08S190.29,19,190.29,19.06Z"/><rect class="cls-7" x="172.09" y="23.96" width="4.84" height="8.31"/><rect class="cls-8" x="172.6" y="24.57" width="3.79" height="7.24"/><path class="cls-4" d="M174.42,31.84s-.07-1.63-.07-3.64,0-3.65.07-3.65.08,1.63.08,3.65S174.47,31.84,174.42,31.84Z"/><path class="cls-4" d="M176.4,26.75a22.6,22.6,0,0,1-3.8,0,25.82,25.82,0,0,1,3.8,0Z"/><path class="cls-4" d="M176.4,29.31a25.82,25.82,0,0,1-3.8,0,22.6,22.6,0,0,1,3.8,0Z"/><rect class="cls-7" x="134.2" y="34.1" width="4.84" height="8.31"/><rect class="cls-8" x="134.71" y="34.71" width="3.79" height="7.24"/><path class="cls-4" d="M136.53,42s-.08-1.63-.08-3.64,0-3.64.08-3.64.07,1.63.07,3.64S136.57,42,136.53,42Z"/><path class="cls-4" d="M138.5,36.89a25.69,25.69,0,0,1-3.79,0,22.48,22.48,0,0,1,3.79,0Z"/><path class="cls-4" d="M138.5,39.44a22.48,22.48,0,0,1-3.79,0,25.69,25.69,0,0,1,3.79,0Z"/><rect class="cls-7" x="142.14" y="34" width="4.84" height="8.31"/><rect class="cls-8" x="142.65" y="34.61" width="3.79" height="7.24"/><path class="cls-4" d="M144.47,41.88s-.08-1.63-.08-3.65,0-3.64.08-3.64.07,1.63.07,3.64S144.51,41.88,144.47,41.88Z"/><path class="cls-4" d="M146.44,36.79a22.48,22.48,0,0,1-3.79,0,25.69,25.69,0,0,1,3.79,0Z"/><path class="cls-4" d="M146.44,39.34a22.48,22.48,0,0,1-3.79,0,25.69,25.69,0,0,1,3.79,0Z"/><rect class="cls-7" x="150.08" y="33.9" width="4.84" height="8.31"/><rect class="cls-8" x="150.59" y="34.51" width="3.79" height="7.24"/><path class="cls-4" d="M152.4,41.78s-.07-1.63-.07-3.64,0-3.65.07-3.65.08,1.63.08,3.65S152.45,41.78,152.4,41.78Z"/><path class="cls-4" d="M154.38,36.69a11.91,11.91,0,0,1-1.9.08,11.72,11.72,0,0,1-1.89-.08,12.53,12.53,0,0,1,1.89-.07A12.73,12.73,0,0,1,154.38,36.69Z"/><path class="cls-4" d="M154.38,39.25a12.73,12.73,0,0,1-1.9.07,12.53,12.53,0,0,1-1.89-.07,11.72,11.72,0,0,1,1.89-.08A11.91,11.91,0,0,1,154.38,39.25Z"/><rect class="cls-7" x="158.01" y="33.81" width="4.84" height="8.31"/><rect class="cls-8" x="158.52" y="34.41" width="3.79" height="7.24"/><path class="cls-4" d="M160.34,41.68s-.07-1.63-.07-3.64,0-3.64.07-3.64.08,1.63.08,3.64S160.38,41.68,160.34,41.68Z"/><path class="cls-4" d="M162.32,36.6a25.82,25.82,0,0,1-3.8,0,22.6,22.6,0,0,1,3.8,0Z"/><path class="cls-4" d="M162.32,39.15a22.6,22.6,0,0,1-3.8,0,25.82,25.82,0,0,1,3.8,0Z"/><rect class="cls-7" x="180.64" y="23.96" width="4.84" height="8.31"/><rect class="cls-8" x="181.14" y="24.57" width="3.79" height="7.24"/><path class="cls-4" d="M183,31.84s-.07-1.63-.07-3.64,0-3.65.07-3.65.08,1.63.08,3.65S183,31.84,183,31.84Z"/><path class="cls-4" d="M184.94,26.75a22.6,22.6,0,0,1-3.8,0,25.82,25.82,0,0,1,3.8,0Z"/><path class="cls-4" d="M184.94,29.31a25.82,25.82,0,0,1-3.8,0,22.6,22.6,0,0,1,3.8,0Z"/><rect class="cls-7" x="172.09" y="34.61" width="4.84" height="8.31"/><rect class="cls-8" x="172.6" y="35.22" width="3.79" height="7.24"/><path class="cls-4" d="M174.42,42.49s-.07-1.63-.07-3.65,0-3.64.07-3.64.08,1.63.08,3.64S174.47,42.49,174.42,42.49Z"/><path class="cls-4" d="M176.4,37.4a22.6,22.6,0,0,1-3.8,0,25.82,25.82,0,0,1,3.8,0Z"/><path class="cls-4" d="M176.4,40a22.6,22.6,0,0,1-3.8,0,25.82,25.82,0,0,1,3.8,0Z"/><rect class="cls-7" x="180.64" y="34.61" width="4.84" height="8.31"/><rect class="cls-8" x="181.14" y="35.22" width="3.79" height="7.24"/><path class="cls-4" d="M183,42.49s-.07-1.63-.07-3.65,0-3.64.07-3.64.08,1.63.08,3.64S183,42.49,183,42.49Z"/><path class="cls-4" d="M184.94,37.4a22.6,22.6,0,0,1-3.8,0,25.82,25.82,0,0,1,3.8,0Z"/><path class="cls-4" d="M184.94,40a22.6,22.6,0,0,1-3.8,0,25.82,25.82,0,0,1,3.8,0Z"/><rect class="cls-1" x="129.48" y="44.8" width="61.14" height="1.41"/><rect class="cls-1" x="129.48" y="46.16" width="60.78" height="0.94"/><path class="cls-4" d="M129.48,46.28c0-.05,13.63-.08,30.44-.08s30.43,0,30.43.08-13.62.07-30.43.07S129.48,46.32,129.48,46.28Z"/><path class="cls-4" d="M129.48,47.11S143.11,47,159.92,47s30.43,0,30.43.08-13.62.07-30.43.07S129.48,47.15,129.48,47.11Z"/><path class="cls-4" d="M129.48,44.8s13.63-.07,30.44-.07,30.43,0,30.43.07-13.62.08-30.43.08S129.48,44.84,129.48,44.8Z"/><path class="cls-7" d="M138.52,48.56h1a2,2,0,0,1,2,2v8.81a0,0,0,0,1,0,0h-5.08a0,0,0,0,1,0,0V50.59a2,2,0,0,1,2-2Z"/><path class="cls-8" d="M138.67,49.34h.74a1.45,1.45,0,0,1,1.45,1.45v7.82a0,0,0,0,1,0,0h-3.64a0,0,0,0,1,0,0V50.8A1.45,1.45,0,0,1,138.67,49.34Z"/><path class="cls-4" d="M139,58.61S139,56.54,139,54s0-4.64.08-4.64.07,2.08.07,4.64S139.08,58.61,139,58.61Z"/><path class="cls-4" d="M140.84,52.23a11.74,11.74,0,0,1-1.82.07,11.56,11.56,0,0,1-1.81-.07,10.81,10.81,0,0,1,1.81-.08A11,11,0,0,1,140.84,52.23Z"/><path class="cls-4" d="M140.84,55.26a9.83,9.83,0,0,1-1.82.08,9.67,9.67,0,0,1-1.81-.08,11.56,11.56,0,0,1,1.81-.07A11.74,11.74,0,0,1,140.84,55.26Z"/><path class="cls-7" d="M149.95,48.56h1a2,2,0,0,1,2,2v8.81a0,0,0,0,1,0,0h-5.08a0,0,0,0,1,0,0V50.59A2,2,0,0,1,149.95,48.56Z"/><path class="cls-8" d="M150.1,49.34h.74a1.45,1.45,0,0,1,1.45,1.45v7.82a0,0,0,0,1,0,0h-3.64a0,0,0,0,1,0,0V50.8A1.45,1.45,0,0,1,150.1,49.34Z"/><path class="cls-4" d="M150.46,58.61s-.07-2.07-.07-4.63,0-4.64.07-4.64.08,2.08.08,4.64S150.51,58.61,150.46,58.61Z"/><path class="cls-4" d="M152.26,52.23a23.57,23.57,0,0,1-3.63,0,20.63,20.63,0,0,1,3.63,0Z"/><path class="cls-4" d="M152.26,55.26a20.63,20.63,0,0,1-3.63,0,23.57,23.57,0,0,1,3.63,0Z"/><path class="cls-7" d="M160.55,48.56h1a2,2,0,0,1,2,2v8.81a0,0,0,0,1,0,0h-5.08a0,0,0,0,1,0,0V50.59A2,2,0,0,1,160.55,48.56Z"/><path class="cls-8" d="M160.68,49.45h.74a1.45,1.45,0,0,1,1.45,1.45v7.82a0,0,0,0,1,0,0h-3.64a0,0,0,0,1,0,0V50.91a1.45,1.45,0,0,1,1.45-1.45Z"/><path class="cls-4" d="M161.07,58.61S161,56.54,161,54s0-4.64.08-4.64.07,2.08.07,4.64S161.11,58.61,161.07,58.61Z"/><path class="cls-4" d="M162.86,52.23a11.56,11.56,0,0,1-1.81.07,11.74,11.74,0,0,1-1.82-.07,11,11,0,0,1,1.82-.08A10.81,10.81,0,0,1,162.86,52.23Z"/><path class="cls-4" d="M162.86,55.26a9.67,9.67,0,0,1-1.81.08,9.83,9.83,0,0,1-1.82-.08,11.74,11.74,0,0,1,1.82-.07A11.56,11.56,0,0,1,162.86,55.26Z"/><path class="cls-7" d="M184.07,48.56h1a2,2,0,0,1,2,2v8.81a0,0,0,0,1,0,0H182a0,0,0,0,1,0,0V50.59a2,2,0,0,1,2-2Z"/><path class="cls-8" d="M184.2,49.45h.74a1.45,1.45,0,0,1,1.45,1.45v7.82a0,0,0,0,1,0,0h-3.64a0,0,0,0,1,0,0V50.91A1.45,1.45,0,0,1,184.2,49.45Z"/><path class="cls-4" d="M184.58,58.61s-.07-2.07-.07-4.63,0-4.64.07-4.64.08,2.08.08,4.64S184.62,58.61,184.58,58.61Z"/><path class="cls-4" d="M186.38,52.23a23.57,23.57,0,0,1-3.63,0,20.63,20.63,0,0,1,3.63,0Z"/><path class="cls-4" d="M186.38,55.26a20.63,20.63,0,0,1-3.63,0,23.57,23.57,0,0,1,3.63,0Z"/><path class="cls-7" d="M174,48.56h1a2,2,0,0,1,2,2v8.81a0,0,0,0,1,0,0H172a0,0,0,0,1,0,0V50.59a2,2,0,0,1,2-2Z"/><path class="cls-8" d="M174.13,49.45h.74a1.45,1.45,0,0,1,1.45,1.45v7.82a0,0,0,0,1,0,0h-3.64a0,0,0,0,1,0,0V50.91a1.45,1.45,0,0,1,1.45-1.45Z"/><path class="cls-4" d="M174.51,58.61s-.07-2.07-.07-4.63,0-4.64.07-4.64.08,2.08.08,4.64S174.55,58.61,174.51,58.61Z"/><path class="cls-4" d="M176.31,52.23a23.57,23.57,0,0,1-3.63,0,20.63,20.63,0,0,1,3.63,0Z"/><path class="cls-4" d="M176.31,55.26a20.63,20.63,0,0,1-3.63,0,23.57,23.57,0,0,1,3.63,0Z"/><rect class="cls-1" x="128.87" y="28.5" width="39.13" height="1.38"/><rect class="cls-1" x="129.47" y="29.88" width="38.05" height="0.46"/><path class="cls-4" d="M168,28.5h-3.08l-8.36,0-27.69,0,.08-.08v1.38h0l-.08-.08c18.92,0,34.81,0,39.13.06l0,0c0-.47,0-.81,0-1s0-.34,0-.34,0,.11,0,.33V29.9h0c-4.32,0-20.21.05-39.13.05h-.07v-.07h0V28.43h.07l27.75,0,8.34,0h3Z"/><path class="cls-4" d="M129.47,29.88s0,0,0,.11v.35l0,0c1.88,0,9.7-.06,19-.06s17.16,0,19,.06v0l0-.35v-.11s0,0,0,.11l0,.35h0c-1.88,0-9.69.06-19,.06s-17.16,0-19-.06h0V30A.87.87,0,0,0,129.47,29.88Z"/><polygon class="cls-6" points="168 28.5 128.87 28.5 129.63 25.01 167.36 25.01 168 28.5"/><polygon class="cls-6" points="79.22 16.68 77.94 15.37 105.1 2 132.62 15.51 131.27 16.68 105.07 4.35 79.22 16.68"/><polygon class="cls-9" points="79.42 16.68 131.27 16.68 105.07 4.35 79.42 16.68"/><circle class="cls-1" cx="104.94" cy="11.16" r="3.78"/><rect class="cls-1" x="43.32" y="28.5" width="39.13" height="1.38" transform="translate(125.76 58.38) rotate(180)"/><rect class="cls-1" x="43.79" y="29.88" width="38.05" height="0.46" transform="translate(125.63 60.22) rotate(180)"/><path class="cls-4" d="M43.32,28.5h3l8.35,0,27.74,0h.08v1.45h0V30h-.08c-18.92,0-34.8,0-39.12-.05h0V28.83c0-.22,0-.33,0-.33v1.36c4.32,0,20.2-.06,39.12-.06l-.07.08h0V28.5l.07.08-27.69,0-8.36,0H43.32Z"/><path class="cls-4" d="M81.84,29.88s0,0,0,.11v.35h0c-1.88,0-9.69.06-19,.06s-17.16,0-19-.06h0l0-.35a.5.5,0,0,1,0-.11v.46l0,0c1.88,0,9.69-.06,19-.06s17.16,0,19,.06V30A.87.87,0,0,0,81.84,29.88Z"/><polygon class="cls-6" points="43.32 28.5 82.44 28.5 81.68 25.01 43.95 25.01 43.32 28.5"/><path class="cls-4" d="M158.05,37a1.49,1.49,0,0,1,1.4.88,1,1,0,0,0,.19.37,1.26,1.26,0,0,0,.52.2,1.19,1.19,0,0,1,.85,1.08,2.11,2.11,0,0,1,1.05.34.65.65,0,0,1,.11.94,1.09,1.09,0,0,1,.27,1.68,1.77,1.77,0,0,1,1.2,1.63,1.61,1.61,0,0,1,1,.38.54.54,0,0,1-.13.86.82.82,0,0,1-.09,1.12.69.69,0,0,1,.29,1.08.76.76,0,0,1-1.16-.13,1.23,1.23,0,0,1-.71,1,1.34,1.34,0,0,1,0,1.56.72.72,0,0,1,.55.82.77.77,0,0,1-.87.53,1.82,1.82,0,0,1-.27,1,.88.88,0,0,1-.91.39,1.55,1.55,0,0,1,0,1.63,2,2,0,0,1-.34.38l-.76.75c-.24.23-.64.48-.89.26a1.4,1.4,0,0,1-2,.48c-.22.71-1.17.89-1.93,1a1.56,1.56,0,0,1-.72-.07c-.34-.17-.48-.55-.71-.84s-.3-.28-.42-.44a1.1,1.1,0,0,1,.14-1.43,2.78,2.78,0,0,1-.48-2.12,4.11,4.11,0,0,1,.36-1.87.5.5,0,0,0,.08-.26c0-.13-.15-.2-.25-.27a1.57,1.57,0,0,1-.68-1.63,1,1,0,0,0,0-.54.8.8,0,0,0-.27-.36c-.54-.53-.88-1.43-.35-2a2.12,2.12,0,0,1-.84-2.58,1.65,1.65,0,0,1-.79-2.22,2.5,2.5,0,0,1-.82-1.13.88.88,0,0,1,.63-1.09c-.24-.19.41.36.56.09s0-.91.17-1.18a1.74,1.74,0,0,1,1-1,1.05,1.05,0,0,1,1.18.51.54.54,0,0,1,.54-.43,1.69,1.69,0,0,1,.72.2,1,1,0,0,1,1.59-.06,1,1,0,0,1,1.61.27"/><path class="cls-8" d="M161.31,48.76l.05,0h.16a.77.77,0,0,0,.53-.27.83.83,0,0,0,.22-.38,1.18,1.18,0,0,0,0-.53,1.68,1.68,0,0,0-.22-.57,2.2,2.2,0,0,0-.18-.28.44.44,0,0,0-.3-.19v0a.49.49,0,0,0,.34-.1.58.58,0,0,0,.22-.29,1,1,0,0,0-.07-.78,1.88,1.88,0,0,0-.47-.7,1.07,1.07,0,0,0-.38-.24.62.62,0,0,0-.46,0l0,0a.63.63,0,0,0,.29-.45,1.28,1.28,0,0,0,0-.55,1.76,1.76,0,0,0-.2-.54.88.88,0,0,0-.42-.41.65.65,0,0,0-.59,0,.43.43,0,0,0-.2.24.25.25,0,0,0,0,.17.28.28,0,0,0,.11.13.33.33,0,0,0,.32,0,.52.52,0,0,0,.17-.27,1.23,1.23,0,0,0,0-.63A1.52,1.52,0,0,0,159,41.11v.06a.57.57,0,0,0,.31-.24.68.68,0,0,0,.1-.36.82.82,0,0,0-.29-.66,1.4,1.4,0,0,0-.64-.3,5.1,5.1,0,0,0-.67-.08l0,0a1,1,0,0,0,0-.9,1.23,1.23,0,0,0-.61-.6,1.58,1.58,0,0,0-.8-.09,2,2,0,0,0-.69.25h0a2.28,2.28,0,0,0-2.1-.54,2,2,0,0,0-.57.22L153,38l0,0,0,0,.14-.08a2,2,0,0,1,.56-.21,2.28,2.28,0,0,1,.95,0,2.19,2.19,0,0,1,1.12.57h0a1.73,1.73,0,0,1,.68-.24,1.46,1.46,0,0,1,.77.08,1.17,1.17,0,0,1,.58.58.91.91,0,0,1,0,.85l0,0h0a5,5,0,0,1,.66.08,1.36,1.36,0,0,1,.62.29.74.74,0,0,1,.26.62.66.66,0,0,1-.09.33.44.44,0,0,1-.27.21l-.16,0,.16,0a1.44,1.44,0,0,1,1.21,1.1,1.22,1.22,0,0,1,0,.6.45.45,0,0,1-.15.24.27.27,0,0,1-.26,0,.18.18,0,0,1-.09-.23.4.4,0,0,1,.17-.21.63.63,0,0,1,.55,0,.92.92,0,0,1,.39.39,1.93,1.93,0,0,1,.2.52,1.35,1.35,0,0,1,0,.53.6.6,0,0,1-.27.42l0,0a.58.58,0,0,1,.43,0,1.34,1.34,0,0,1,.36.22,1.94,1.94,0,0,1,.46.69,1,1,0,0,1,.07.74.52.52,0,0,1-.52.37v0a.44.44,0,0,1,.27.17,2.2,2.2,0,0,1,.18.28,1.77,1.77,0,0,1,.22.56,1.1,1.1,0,0,1,0,.51,1,1,0,0,1-.21.38.75.75,0,0,1-.52.27A.49.49,0,0,1,161.31,48.76Z"/><path class="cls-8" d="M158.67,45.89a1,1,0,0,1,.18.36.81.81,0,0,1,0,.46.73.73,0,0,1-.35.45l-.07,0h.08a1.25,1.25,0,0,1,.64.23,1.14,1.14,0,0,1,.42.62,1.22,1.22,0,0,1-.15,1l0,.06.07,0a1.24,1.24,0,0,1,.76,0,1.38,1.38,0,0,1,.52.31,1.51,1.51,0,0,1,.3.44v0l0-.1a1.1,1.1,0,0,0-.23-.33,1.3,1.3,0,0,0-.53-.33,1.19,1.19,0,0,0-.79,0l0,0a1.24,1.24,0,0,0,.17-1,1.18,1.18,0,0,0-.45-.65,1.27,1.27,0,0,0-.67-.24v0a.78.78,0,0,0,.37-.48.94.94,0,0,0,0-.47.81.81,0,0,0-.13-.28l-.06-.06Z"/><path class="cls-8" d="M162,42.79l.16,0a1,1,0,0,1,.42.19,1.1,1.1,0,0,1,.38.54,1.15,1.15,0,0,1-.08.81l-.06.1,0,0h.05a1.09,1.09,0,0,1,.72.26,1.06,1.06,0,0,1,.32.54,1.05,1.05,0,0,1,0,.43c0,.1,0,.15,0,.15l0,0a1.27,1.27,0,0,0,0-.56,1.06,1.06,0,0,0-1.08-.84l0,0a.41.41,0,0,0,.07-.11,1.18,1.18,0,0,0,.08-.84,1.07,1.07,0,0,0-.41-.56,1,1,0,0,0-.43-.19H162Z"/><path class="cls-8" d="M160.6,54a.49.49,0,0,1,0,.11.73.73,0,0,1-.25.25.67.67,0,0,1-.52.09.76.76,0,0,1-.53-.45h0a1.23,1.23,0,0,1-.95.18,1.09,1.09,0,0,1-.5-.23,1.11,1.11,0,0,1-.34-.46,1.24,1.24,0,0,1,.08-1.1l0,0a1.26,1.26,0,0,1-1-.33,1.2,1.2,0,0,1-.19-1.49s0,.06-.08.19a1.3,1.3,0,0,0-.07.54,1.19,1.19,0,0,0,1.35,1.05h0l0,0a1.16,1.16,0,0,0-.08,1.06,1.12,1.12,0,0,0,.32.45,1.16,1.16,0,0,0,.48.22,1.18,1.18,0,0,0,.93-.17h0v0a.69.69,0,0,0,.49.43.64.64,0,0,0,.51-.08.72.72,0,0,0,.25-.24Z"/><path class="cls-4" d="M144,48.7a.49.49,0,0,0,.29.09,1.19,1.19,0,0,0,.79-.27,1.34,1.34,0,0,0,.2-.21,1.06,1.06,0,0,0,.15-.28,1.24,1.24,0,0,0,0-.69,1.29,1.29,0,0,0-.4-.65,1.2,1.2,0,0,0-.37-.2.85.85,0,0,0-.45,0,.67.67,0,0,0-.37.29.48.48,0,0,0-.07.24.45.45,0,0,0,0,.23.61.61,0,0,0,.28.33.92.92,0,0,0,.38.11,1.19,1.19,0,0,0,1.24-1.06,1,1,0,0,0,0-.36c0-.19-.11-.28-.13-.27s0,.1,0,.28a1.1,1.1,0,0,1-.19.71.92.92,0,0,1-.37.33,1,1,0,0,1-.54.13.62.62,0,0,1-.27-.09.37.37,0,0,1-.17-.2.26.26,0,0,1,0-.24.38.38,0,0,1,.22-.17.68.68,0,0,1,.58.15,1.06,1.06,0,0,1,.33.52,1,1,0,0,1,0,.55.88.88,0,0,1-.11.24c0,.06-.1.13-.15.18a1.21,1.21,0,0,1-.67.3C144.13,48.7,144,48.68,144,48.7Z"/><path class="cls-6" d="M156.16,38.54a6.62,6.62,0,0,0-3.68-1.81,6,6,0,0,0-1.12-.09c-.23,0-1.21.1-1.53.86l1.33-.43a17.75,17.75,0,0,1,4.34,6.86,1.26,1.26,0,0,0,.31.58.86.86,0,0,0,1.12-.12,2.08,2.08,0,0,0,.47-1.13A5.53,5.53,0,0,0,156.16,38.54Z"/><path class="cls-10" d="M155.33,41a1.11,1.11,0,0,0-1.13-1l-4.1-1.29-1,.19c-2.34.18-3.76,2.87-3.64,4.77a33.94,33.94,0,0,0,.82,6.2A4,4,0,0,0,149.6,53s.06,1.31.12,2.36l1.65,2,3.41-2.69Z"/><path class="cls-11" d="M150.86,49.25a.69.69,0,0,0-.28-.4.78.78,0,0,0-.89,0,.87.87,0,0,0-.31.88h0a.89.89,0,0,0,.66.3h.12a.78.78,0,0,0,.52-.23A.65.65,0,0,0,150.86,49.25Z"/><path class="cls-4" d="M147,46.7a.4.4,0,0,0,.44.36.39.39,0,0,0,.37-.41.4.4,0,0,0-.44-.36A.39.39,0,0,0,147,46.7Z"/><path class="cls-4" d="M146.36,45.24c.06,0,.33-.21.77-.27s.78.12.82.06,0-.11-.2-.19a1.09,1.09,0,0,0-.66-.12,1.12,1.12,0,0,0-.6.28C146.37,45.12,146.33,45.22,146.36,45.24Z"/><path class="cls-4" d="M149.24,48.25a2.54,2.54,0,0,0-.72,0c-.11,0-.22,0-.25-.08a.71.71,0,0,1,0-.34c.07-.28.15-.57.22-.88a15.28,15.28,0,0,0,.46-2.29,14.16,14.16,0,0,0-.64,2.25c-.07.31-.14.6-.21.89a.66.66,0,0,0,0,.44.28.28,0,0,0,.2.14h.2A3,3,0,0,0,149.24,48.25Z"/><path class="cls-11" d="M149.6,53a5.89,5.89,0,0,0,4.05-1.25s-.85,2.07-4,2.17Z"/><path class="cls-4" d="M146.2,44.36c.1.08.39-.1.77-.19s.72-.1.78-.22-.06-.14-.22-.2a1.15,1.15,0,0,0-.67,0,1.19,1.19,0,0,0-.58.34C146.17,44.21,146.15,44.32,146.2,44.36Z"/><path class="cls-4" d="M151.57,46.23a.4.4,0,0,1-.35.44.39.39,0,0,1-.45-.32.4.4,0,0,1,.35-.45A.39.39,0,0,1,151.57,46.23Z"/><path class="cls-4" d="M152,44.82c0,.06-.37-.14-.8-.1s-.74.28-.79.24,0-.13.15-.24a1.11,1.11,0,0,1,.62-.25,1,1,0,0,1,.65.14C151.94,44.7,152,44.8,152,44.82Z"/><path class="cls-4" d="M152,43.86c-.09.1-.43,0-.83,0s-.75.07-.83,0,0-.15.17-.24a1.27,1.27,0,0,1,.67-.16,1.26,1.26,0,0,1,.66.2C152,43.71,152.06,43.81,152,43.86Z"/><path class="cls-10" d="M154.68,46.43c0-.24.37-.76.6-.76.63,0,1.74.16,1.56,1.73a1.63,1.63,0,0,1-2.35,1.39S154.58,47.23,154.68,46.43Z"/><path class="cls-11" d="M155.17,48.07s0,0,.1.07a.4.4,0,0,0,.28,0,1,1,0,0,0,.52-.78,1.24,1.24,0,0,0,0-.55.47.47,0,0,0-.25-.32.18.18,0,0,0-.23.08c0,.06,0,.1,0,.1s0,0,0-.12a.31.31,0,0,1,.1-.13.32.32,0,0,1,.22,0,.54.54,0,0,1,.35.38,1.36,1.36,0,0,1,.06.61,1,1,0,0,1-.65.86.45.45,0,0,1-.34-.09A.17.17,0,0,1,155.17,48.07Z"/><path class="cls-4" d="M150.87,39.73a11.14,11.14,0,0,1,4.34.27,2,2,0,0,1,1.13.6,2,2,0,0,1,.35,1.08,11,11,0,0,1-.51,3.85l-1.38,1.06c-1.18-.14-.88-2.17-.94-3.17a2.37,2.37,0,0,1-1.61-1.9A2.61,2.61,0,0,1,150.87,39.73Z"/><path class="cls-4" d="M150.74,37.22a1.6,1.6,0,0,1,2.46.81,2,2,0,0,1,1.65.23,2,2,0,0,1,.89,1.4.51.51,0,0,0,.09.3.48.48,0,0,0,.24.11,2,2,0,0,1,1.34,1.58,2,2,0,0,1-.83,1.89,1.67,1.67,0,0,1-.45,2.15"/><path class="cls-8" d="M156.13,45.69a1.93,1.93,0,0,0,.41-.48,1.85,1.85,0,0,0,.23-.71,1.62,1.62,0,0,0-.21-1v0h0a1.94,1.94,0,0,0,.61-.71,2,2,0,0,0,.21-1,2,2,0,0,0-.89-1.46,1.51,1.51,0,0,0-.28-.15,2.09,2.09,0,0,0-.3-.11.34.34,0,0,1-.12-.09.31.31,0,0,1-.06-.13c0-.09,0-.18-.05-.26a2,2,0,0,0-.16-.49,1.93,1.93,0,0,0-2.32-1h0v0a1.77,1.77,0,0,0-.78-.91,1.66,1.66,0,0,0-.47-.19,2.16,2.16,0,0,0-.43,0,1.54,1.54,0,0,0-.34.08,1.67,1.67,0,0,0-.23.11l-.14.08,0,0s0,0,0,0l.14-.09a1.67,1.67,0,0,1,.23-.11,1.53,1.53,0,0,1,.34-.09,1.37,1.37,0,0,1,.93.2,1.79,1.79,0,0,1,.81.93l0,0a2,2,0,0,1,1.75.29,2.1,2.1,0,0,1,.64.77,2.27,2.27,0,0,1,.17.5,2,2,0,0,0,0,.26A.27.27,0,0,0,156,40a2.22,2.22,0,0,1,.3.11,1.25,1.25,0,0,1,.28.15,2,2,0,0,1,.92,1.51,2,2,0,0,1-.22,1.07,2,2,0,0,1-.63.72v0a1.62,1.62,0,0,1,.21,1,1.7,1.7,0,0,1-.24.72,1.6,1.6,0,0,1-.31.37.46.46,0,0,1-.1.07Z"/><path class="cls-4" d="M151.22,39.1a1.31,1.31,0,0,1,1.49,1.8,1.15,1.15,0,0,1,1.11.93,1.17,1.17,0,0,1-.74,1.24.92.92,0,0,1,.62.72,1.12,1.12,0,0,1-.3.92.9.9,0,0,1-.62.32.6.6,0,0,1-.57-.34.45.45,0,0,1,.24-.58.74.74,0,0,1-.58-.71,2.06,2.06,0,0,1,.23-1,.65.65,0,0,1-.22-1,1.3,1.3,0,0,1-1.19-.79c-.05-.11,0-.31.12-.25a.68.68,0,0,1-.53-.83"/><path class="cls-4" d="M144.34,44.32a1,1,0,0,1,0-1.62c-.14-1.2-.08-2.21,1-2.91a1,1,0,0,1,1.31-1.33,2.63,2.63,0,0,1,.91-1,.88.88,0,0,1,1.21.29,1.39,1.39,0,0,1,2-.49,1,1,0,0,1,1.4.73l-.61,1.11a1.06,1.06,0,0,1,.59,1.06,1.09,1.09,0,0,1-.81.91,1.4,1.4,0,0,1-.14,1.46c-.15.19-.51.31-.59.08-.14.24-.56.11-.65-.16a1.1,1.1,0,0,1,.15-.8.57.57,0,0,1-.74-.22.58.58,0,0,1,.17-.75l-.67.14a1.18,1.18,0,0,1-.12,1,.73.73,0,0,1-.91.25,1.13,1.13,0,0,1-.95,1.48.41.41,0,0,1-.55-.21,1.53,1.53,0,0,1-.12-.91s0,1.2-.47,1.39A10.84,10.84,0,0,0,145.6,46c0,.29-.65.24-1,.08a1,1,0,0,1-.28-.19,1.1,1.1,0,0,1,0-1.43Z"/><path class="cls-4" d="M154.3,46.06a.74.74,0,0,1-.32-1.12.77.77,0,0,1,.11-1.19,1.31,1.31,0,0,1-.26-1.31,1.12,1.12,0,0,1,1.11-.69,1,1,0,0,1,.86,1l.07,2.11a.37.37,0,0,1,.09.47.38.38,0,0,1-.46.14,1,1,0,0,1,.29.91.41.41,0,0,1-.16.29.21.21,0,0,1-.19,0,.52.52,0,0,1,0,.72.5.5,0,0,1-.78-.15.36.36,0,0,1-.47,0,.68.68,0,0,1-.21-.45A.62.62,0,0,1,154.3,46.06Z"/><path class="cls-8" d="M145.29,45.78l-.16,0a1,1,0,0,1-.46-.08.89.89,0,0,1-.28-.21.77.77,0,0,1-.18-.36.82.82,0,0,1,0-.46.86.86,0,0,1,.32-.41l0,0h0a.92.92,0,0,1-.39-1,.79.79,0,0,1,.33-.51.54.54,0,0,1,.3-.1.37.37,0,0,1,.15,0,.32.32,0,0,1,.13.1.26.26,0,0,1,0,.3.3.3,0,0,1-.3.09.38.38,0,0,1-.27-.21.86.86,0,0,1-.07-.36,1.27,1.27,0,0,1,.2-.72,1,1,0,0,1,.27-.27.52.52,0,0,1,.37,0l.07,0,0-.07a1.37,1.37,0,0,1-.23-1.15,1.16,1.16,0,0,1,.22-.39,1.05,1.05,0,0,1,.36-.23.81.81,0,0,1,.81.1l0,0a.51.51,0,0,1-.07-.52.75.75,0,0,1,.36-.4,1.2,1.2,0,0,1,.53-.08,2.33,2.33,0,0,1,.51.11l0,0v0a.91.91,0,0,1,.12-.68.83.83,0,0,1,.52-.38.91.91,0,0,1,.61.07.8.8,0,0,1,.4.39l0,0v0a1.47,1.47,0,0,1,.85-.56,1.65,1.65,0,0,1,.77,0,1.35,1.35,0,0,1,.45.21l.1.07,0,0-.13-.11a1.26,1.26,0,0,0-.45-.21,1.58,1.58,0,0,0-.79,0,1.6,1.6,0,0,0-.46.19,1.33,1.33,0,0,0-.41.38h0a1,1,0,0,0-.43-.41,1,1,0,0,0-.63-.08,1,1,0,0,0-.68,1.13l0,0a2.19,2.19,0,0,0-.52-.12,1.16,1.16,0,0,0-.55.09.73.73,0,0,0-.39.42.7.7,0,0,0,0,.29.5.5,0,0,0,.12.28l0,0a.85.85,0,0,0-.87-.11.93.93,0,0,0-.38.25,1,1,0,0,0-.23.4,1.43,1.43,0,0,0,.23,1.2l0,0a.53.53,0,0,0-.41.06.78.78,0,0,0-.28.29,1.26,1.26,0,0,0-.21.75.8.8,0,0,0,.08.37.44.44,0,0,0,.12.15.38.38,0,0,0,.53,0,.24.24,0,0,0,.05-.18.29.29,0,0,0-.07-.18.31.31,0,0,0-.14-.11.33.33,0,0,0-.17,0,.59.59,0,0,0-.32.11.85.85,0,0,0-.35.54,1,1,0,0,0,.41,1v0a.91.91,0,0,0-.33.43.89.89,0,0,0,0,.48.87.87,0,0,0,.19.37.76.76,0,0,0,.29.2.89.89,0,0,0,.47.08A.52.52,0,0,0,145.29,45.78Z"/><path class="cls-8" d="M155.05,46a.28.28,0,0,0,.13,0,.52.52,0,0,0,.39-.09.57.57,0,0,0,.21-.2.68.68,0,0,0,.11-.33,1.06,1.06,0,0,0-.3-.75v0a1,1,0,0,0,.45-.42,1,1,0,0,0,.11-.67,1,1,0,0,0-1.16-.75v0a.43.43,0,0,0,.14,0,.46.46,0,0,0,.17-.24.66.66,0,0,0,0-.28,1.48,1.48,0,0,0-.18-.51.68.68,0,0,0-.17-.21.51.51,0,0,0-.49-.09.35.35,0,0,0-.19.17l0,.07.07,0a1,1,0,0,0,.4-.45,1.43,1.43,0,0,0,.09-.27,1.22,1.22,0,0,0,0-.27.94.94,0,0,0-.17-.45,1.12,1.12,0,0,0-.32-.27,1,1,0,0,0-.56-.13.69.69,0,0,0-.2,0l.2,0a1.09,1.09,0,0,1,.55.14,1,1,0,0,1,.3.27.81.81,0,0,1,.16.43.76.76,0,0,1,0,.26.79.79,0,0,1-.08.26,1,1,0,0,1-.38.43l0,0a.37.37,0,0,1,.39-.16.58.58,0,0,1,.38.29,1.64,1.64,0,0,1,.17.5.57.57,0,0,1,0,.26.38.38,0,0,1-.15.2.3.3,0,0,1-.11,0v0a.92.92,0,0,1,1,1.35.92.92,0,0,1-.43.4l0,0,0,0a1,1,0,0,1,.29.72.64.64,0,0,1-.29.51.55.55,0,0,1-.37.1A.45.45,0,0,1,155.05,46Z"/><path class="cls-8" d="M149.23,40.54a.67.67,0,0,1,.08-.22.92.92,0,0,1,.51-.32,1.86,1.86,0,0,1,.42,0,.88.88,0,0,1,.47.11.61.61,0,0,1,.29.42.35.35,0,0,1-.07.26.27.27,0,0,1-.24.1.38.38,0,0,1-.24-.13.58.58,0,0,1-.14-.24,1,1,0,0,1,0-.53.93.93,0,0,1,.26-.4.85.85,0,0,1,.38-.19.92.92,0,0,1,.6.08.7.7,0,0,1,.19.12.55.55,0,0,0-.18-.14,1,1,0,0,0-.62-.09.78.78,0,0,0-.4.19,1,1,0,0,0-.28.42.93.93,0,0,0,0,.55.72.72,0,0,0,.15.27.47.47,0,0,0,.28.14.31.31,0,0,0,.28-.12.39.39,0,0,0,.08-.29.6.6,0,0,0-.32-.46,1,1,0,0,0-.49-.12,1.94,1.94,0,0,0-.43.06.93.93,0,0,0-.52.35.67.67,0,0,0-.06.16Z"/><path class="cls-4" d="M150.59,48.61c-.07,0-.08.45-.48.76s-.89.24-.89.31.1.09.31.1a1.1,1.1,0,0,0,.74-.23,1,1,0,0,0,.37-.63C150.67,48.73,150.62,48.61,150.59,48.61Z"/><path class="cls-8" d="M140.79,63.5a8.58,8.58,0,0,0-5.25,6c-.95,4.51-1,15.89.74,16.36s5.76,0,5.76,0l3.19-13.16Z"/><g class="cls-12"><path d="M139.48,64.16l4.93,7.19a4,4,0,0,1,.7,1.32,4.36,4.36,0,0,1-.36,2.47l-3.64,10.2-1.64.77a1.47,1.47,0,0,1-.74-1.11,4,4,0,0,1,.11-1.38,23.71,23.71,0,0,1,1.09-3.6,2.47,2.47,0,0,0,.16-2.2c-.32-.49-1-.66-1.44-1a4.19,4.19,0,0,1-1.58-3.42C136.89,70.21,138.2,67.12,139.48,64.16Z"/></g><path class="cls-4" d="M136.86,82.89a1.06,1.06,0,0,0,0-.17l-.08-.49c0-.21-.07-.47-.11-.77s-.1-.64-.14-1c-.1-.76-.19-1.66-.26-2.67s-.1-2.11-.09-3.27.09-2.27.18-3.27.21-1.9.34-2.65c.06-.38.13-.72.18-1s.11-.55.15-.76l.1-.48c0-.11,0-.17,0-.17l0,.17-.12.47c-.05.21-.11.46-.17.76s-.14.63-.2,1c-.14.75-.26,1.65-.37,2.66s-.17,2.11-.19,3.28,0,2.27.1,3.28.17,1.91.28,2.67c.05.38.11.72.16,1s.1.55.14.76l.11.48A1.37,1.37,0,0,0,136.86,82.89Z"/><path class="cls-4" d="M135.49,84.18a1.4,1.4,0,0,0,.5.08,4.77,4.77,0,0,0,1.21-.06,5.37,5.37,0,0,0,1.17-.34c.29-.13.45-.23.44-.25a11.24,11.24,0,0,1-1.63.46A13.19,13.19,0,0,1,135.49,84.18Z"/><path class="cls-4" d="M159.06,75.34s3.17,4.24,2.95,9.09c-.32,7.14-1.76,8.1-2.79,14.51-.83,5.17-1.14,14.64-1.72,17.72s-2.68,11-2.68,11l-4.63.28s0-21.12,0-23.63.1-14.78.1-14.78l-6.47,19.9-3.05,19-5.37-.24s.73-16.17,1-19.18c.41-4.46,2.26-20.83,3.13-23.7s4.25-10,4.25-10Z"/><path class="cls-4" d="M135.67,124.31l-.12,5.29s-5.3,2-5.36,3l10.26,0,0-8.25Z"/><path class="cls-1" d="M138.73,129.15a.43.43,0,0,1,.29.48.4.4,0,0,1-.47.29.44.44,0,0,1-.31-.5.42.42,0,0,1,.53-.25"/><path class="cls-8" d="M140.45,132.54l0-.83-9.83.33s-.45.2-.4.52Z"/><path class="cls-7" d="M135.39,129.55s.25.07.5.23.38.38.42.36,0-.31-.33-.5S135.38,129.51,135.39,129.55Z"/><path class="cls-7" d="M134.31,130c0,.05.21.13.38.34s.22.44.27.44.08-.29-.14-.55S134.31,130,134.31,130Z"/><path class="cls-7" d="M133.7,131.29c.05,0,.12-.24,0-.52s-.37-.38-.39-.34.13.19.23.42S133.65,131.28,133.7,131.29Z"/><path class="cls-7" d="M135.48,128.34s.25,0,.53,0,.5.1.53.06-.19-.22-.52-.24S135.45,128.3,135.48,128.34Z"/><path class="cls-4" d="M154.83,123.68l-.14,6.4,1.34,5.1a.65.65,0,0,1-.51.81h0a.63.63,0,0,1-.57-.17c-1-.94-4.56-4.4-4.52-4.87s-.3-6.76-.3-6.76Z"/><path class="cls-8" d="M155.52,136l-5.09-5.47v.27a1,1,0,0,0,.23.64c.41.48,1.56,1.77,4.27,4.39a.65.65,0,0,0,.59.17Z"/><g class="cls-13"><path class="cls-7" d="M151.74,128.46a.37.37,0,0,1-.4.63.41.41,0,0,1-.11-.55.38.38,0,0,1,.54-.06"/></g><path class="cls-7" d="M154.06,133.19s.18-.31.56-.49a2,2,0,0,1,.74-.15.41.41,0,0,0-.23-.08,1,1,0,0,0-.57.1,1,1,0,0,0-.43.39C154.05,133.09,154,133.19,154.06,133.19Z"/><path class="cls-7" d="M154.52,134.05s.23-.18.56-.27a4.79,4.79,0,0,1,.63-.09.77.77,0,0,0-.67-.05C154.67,133.75,154.48,134,154.52,134.05Z"/><path class="cls-7" d="M153.21,132.1a3.32,3.32,0,0,1,1.8-.71,1.51,1.51,0,0,0-1,.09A1.47,1.47,0,0,0,153.21,132.1Z"/><path class="cls-7" d="M153.09,130.15s.37-.11.83-.13.83.09.84,0a1.3,1.3,0,0,0-.84-.19A1.27,1.27,0,0,0,153.09,130.15Z"/><path class="cls-7" d="M153.09,128.27a2.84,2.84,0,0,1,.86-.16,3.36,3.36,0,0,1,.85.21s-.06-.09-.21-.17A1.35,1.35,0,0,0,154,128a1.42,1.42,0,0,0-.64.13C153.15,128.18,153.08,128.25,153.09,128.27Z"/><path class="cls-7" d="M153.94,127.75s0-.08,0-.24a1.71,1.71,0,0,0-.2-.63.77.77,0,0,0-.32-.36.26.26,0,0,0-.29.06.4.4,0,0,0-.1.29.92.92,0,0,0,.81.86,1.07,1.07,0,0,0,1.05-.57.37.37,0,0,0,0-.31.25.25,0,0,0-.27-.13.84.84,0,0,0-.42.22,1.85,1.85,0,0,0-.44.49,1,1,0,0,0-.1.22,3.66,3.66,0,0,1,.6-.63.93.93,0,0,1,.37-.19c.07,0,.13,0,.15.08a.29.29,0,0,1,0,.2,1,1,0,0,1-.92.48.8.8,0,0,1-.7-.72.29.29,0,0,1,.06-.21.15.15,0,0,1,.16,0,.63.63,0,0,1,.28.3A2.53,2.53,0,0,1,153.94,127.75Z"/><path class="cls-6" d="M162.63,59.11A16,16,0,0,0,160,56.56c-1-.64-5.22-2.39-5.22-2.39a3.28,3.28,0,0,1-2.68,1.68,3,3,0,0,1-2.48-1.42l-6.35.6s-.86,11.84-.5,13.31a70.85,70.85,0,0,1,.44,7.73l15.14-.94L159.05,63Z"/><path class="cls-4" d="M158.61,74.43c.07-.15.32-13.54-1.29-13.48s-12.16-1.15-12.34.44S142.7,79,142.7,79l9.79,5.61,7.44-6.26"/><path class="cls-4" d="M145.58,54.72a3.37,3.37,0,0,1,2.37-.14s.26,5.6-.23,6.27-2,.18-2,.18Z"/><path class="cls-4" d="M156,55.14a3.32,3.32,0,0,1,2.36.27S157.63,61,157,61.55s-2-.19-2-.19Z"/><path class="cls-8" d="M147.81,66.68a.42.42,0,0,1,0,.07v1c0,.66,0,1.61,0,2.77v.45a.65.65,0,0,0,.15.47.56.56,0,0,0,.21.16,1.23,1.23,0,0,0,.25,0l.51.06c.68.08,1.42.14,2.19.19s1.59.07,2.43.07h1a1.1,1.1,0,0,0,.35,0,.7.7,0,0,0,.28-.23.74.74,0,0,0,.1-.34l.08-.66c.1-.89.2-1.76.3-2.59a4.43,4.43,0,0,0,.06-1.26,1,1,0,0,0-.3-.55,1.65,1.65,0,0,0-.51-.33,5.17,5.17,0,0,0-1.12-.26c-.36-.06-.71-.1-1.06-.14-.68-.08-1.33-.11-1.91-.13s-1.12,0-1.58,0a1.75,1.75,0,0,0-1.15.31.79.79,0,0,0-.21.39,1.33,1.33,0,0,0,0,.32v.19a.42.42,0,0,1,0,.07,1.33,1.33,0,0,0,0-.26.92.92,0,0,1,.25-.67,1.7,1.7,0,0,1,1.12-.28c.46,0,1,0,1.58,0s1.22.06,1.9.14l1,.15a4.56,4.56,0,0,1,1.09.26,1.1,1.1,0,0,1,.73.79,4.55,4.55,0,0,1-.06,1.21c-.1.84-.2,1.7-.31,2.59l-.08.66a.55.55,0,0,1-.08.29.46.46,0,0,1-.21.18,1,1,0,0,1-.3,0h-1c-.84,0-1.65,0-2.42-.06s-1.51-.1-2.19-.17l-.5-.06a.79.79,0,0,1-.23,0,.37.37,0,0,1-.17-.13.57.57,0,0,1-.13-.4v-.45c0-1.16,0-2.11-.06-2.77l0-.76v-.19A.17.17,0,0,0,147.81,66.68Z"/><path class="cls-8" d="M155.11,60.67a.8.8,0,0,0-.07.21,3.8,3.8,0,0,0-.09.57,1.86,1.86,0,0,0,.14.86,1.07,1.07,0,0,0,.84.64.83.83,0,0,0,.56-.15,1.39,1.39,0,0,0,.33-.41,4.94,4.94,0,0,0,.34-.79c.07-.24.11-.43.14-.57a.49.49,0,0,0,0-.21s-.07.29-.24.74a5,5,0,0,1-.35.77,1.32,1.32,0,0,1-.31.36.67.67,0,0,1-.46.13,1,1,0,0,1-.75-.56,1.89,1.89,0,0,1-.15-.81C155.07,61,155.13,60.68,155.11,60.67Z"/><path class="cls-8" d="M145.7,60.59a1.9,1.9,0,0,0,0,.19,2.62,2.62,0,0,0,0,.55,1.37,1.37,0,0,0,.23.78,1,1,0,0,0,.89.45.91.91,0,0,0,.51-.19,1.36,1.36,0,0,0,.3-.39,4.47,4.47,0,0,0,.27-.77,2.2,2.2,0,0,0,.09-.73s-.06.28-.18.71a5.5,5.5,0,0,1-.29.73,1.17,1.17,0,0,1-.28.35.74.74,0,0,1-.42.16A.94.94,0,0,1,146,62a1.5,1.5,0,0,1-.24-.72C145.69,60.88,145.73,60.59,145.7,60.59Z"/><path class="cls-8" d="M155.9,61.18a.37.37,0,0,0-.32.37.35.35,0,1,0,.69,0,.37.37,0,0,0-.37-.32"/><path class="cls-8" d="M146.67,60.61a.37.37,0,0,0-.32.37.35.35,0,1,0,.32-.37"/><polygon class="cls-1" points="157.01 61.01 156.67 78.05 144.72 78.05 144.73 60.98 157.01 61.01"/><path class="cls-4" d="M145,67.47a1.38,1.38,0,0,0,.36-.07l.43-.1a2.84,2.84,0,0,0,.55-.17,8.35,8.35,0,0,0,2.91-1.65l.36-.33c.12-.11.22-.23.33-.34a8.56,8.56,0,0,0,.57-.68,8.82,8.82,0,0,0,.79-1.29,5.42,5.42,0,0,0,.39-.94,2.29,2.29,0,0,0,.1-.36,3.56,3.56,0,0,0-.14.34,9.35,9.35,0,0,1-.43.92,8.4,8.4,0,0,1-.81,1.25,7,7,0,0,1-.57.67l-.32.34-.36.32A8.72,8.72,0,0,1,146.29,67a4.45,4.45,0,0,1-.54.19l-.42.12A2,2,0,0,0,145,67.47Z"/><polygon class="cls-8" points="157.94 65.19 157.66 77.23 147.82 77.23 148.24 65.06 157.94 65.19"/><path class="cls-4" d="M156.92,77.19a.55.55,0,0,0,0-.12l0-.34,0-1.24c.05-1.07.1-2.5.17-4.09s.11-3.05.12-4.1c0-.53,0-1,0-1.25v-.33a.55.55,0,0,0,0-.12.55.55,0,0,0,0,.12l0,.33c0,.32,0,.74,0,1.24,0,1.07-.09,2.51-.16,4.1s-.11,3-.12,4.1c0,.53,0,1,0,1.24v.34C156.91,77.15,156.91,77.19,156.92,77.19Z"/><rect class="cls-7" x="150.54" y="67.14" width="4.86" height="1.63" transform="translate(305.94 135.9) rotate(180)"/><path class="cls-10" d="M140.12,59.2c-.1,0-2,10.44-2,12.15s.21,3.78,2.25,4.28S155.4,75,155.4,75L151,72.14l-2.59-.22L142.23,71l1.17-8.63S141.39,59.48,140.12,59.2Z"/><path class="cls-11" d="M140.6,72.46s.05-.14.14-.34a1.73,1.73,0,0,1,.53-.67,1.82,1.82,0,0,1,.77-.36c.22,0,.37,0,.37,0a.71.71,0,0,0-.38,0,1.66,1.66,0,0,0-.84.34,1.64,1.64,0,0,0-.54.74A.79.79,0,0,0,140.6,72.46Z"/><path class="cls-6" d="M144.35,54.91a5.09,5.09,0,0,0-3.1,1.09c-1.27,1.12-1.72,4-1.72,4l4,2.9Z"/><path class="cls-6" d="M164.12,62.33,158.83,64,160,56.56A7.07,7.07,0,0,1,164.12,62.33Z"/><path class="cls-4" d="M160.25,59.85a2.64,2.64,0,0,0-.22.6c-.15.43-.31.93-.5,1.48s-.36,1-.51,1.47a3,3,0,0,0-.19.62,2.77,2.77,0,0,0,.28-.59c.15-.37.35-.88.55-1.46s.35-1.1.45-1.49A2.55,2.55,0,0,0,160.25,59.85Z"/><path class="cls-8" d="M145.5,54.77,143,71.12l-.8-.13,1.05-16.08S145.28,54.33,145.5,54.77Z"/><path class="cls-10" d="M147.05,68l11.61,2.13.21-6.24,4.8-1.47c.31,2.87-.28,11.92-1.48,12.54s-4.69.62-6.79,0-8.14-3.64-8.14-3.64Z"/><path class="cls-10" d="M148.44,68.53,147.05,68A10.45,10.45,0,0,0,146,66.59a22.7,22.7,0,0,0-3.47-1.72s-.74.09-.18.79a4.66,4.66,0,0,0,1,1s-.8.07-.95.29a2.26,2.26,0,0,0,0,1.21,1.84,1.84,0,0,0,0,1.28l0,.2a1.13,1.13,0,0,0,.46,1s-.22.44.34.63a32.31,32.31,0,0,0,4.1.13Z"/><path class="cls-11" d="M147.31,71.34s0,0-.1,0h-1.27l-1.55,0c-.3,0-.62,0-.95-.08A.77.77,0,0,1,143,71a.35.35,0,0,1-.08-.42l0,0,0,0a1.86,1.86,0,0,1-.33-.41,1,1,0,0,1-.11-.51v0h0l0-.2h0a1.74,1.74,0,0,1,0-1.23v0a3.84,3.84,0,0,1-.09-.68,1,1,0,0,1,0-.35.34.34,0,0,1,.05-.14.28.28,0,0,1,.12-.08,2.94,2.94,0,0,1,.78-.17l.17,0-.15-.11a4.88,4.88,0,0,1-.91-.85,1.06,1.06,0,0,1-.28-.49c0-.16.17-.27.34-.29h0c.77.32,1.47.63,2.09.92.31.15.6.29.87.44a2,2,0,0,1,.65.48,10.76,10.76,0,0,1,.72.92l.18.25c0,.06.06.09.07.08l-.05-.09-.17-.27a9.18,9.18,0,0,0-.7-.94,2,2,0,0,0-.66-.51c-.26-.15-.55-.3-.86-.45-.62-.3-1.33-.62-2.1-.94h0a.76.76,0,0,0-.3.12.37.37,0,0,0-.14.31,1.07,1.07,0,0,0,.31.56,4.71,4.71,0,0,0,.94.89l0-.12a2.63,2.63,0,0,0-.81.18.63.63,0,0,0-.18.12.53.53,0,0,0-.07.2,1.17,1.17,0,0,0,0,.37,3.38,3.38,0,0,0,.1.71v0a1.93,1.93,0,0,0,0,1.32h0l0,.19v0a1.27,1.27,0,0,0,.48,1l0-.07a.52.52,0,0,0,.11.57,1,1,0,0,0,.51.19c.33,0,.65,0,.95.06.6,0,1.13,0,1.56,0l1,0h.36Z"/><path class="cls-11" d="M159.83,72.44s.06-.14,0-.39a2.36,2.36,0,0,0-.25-.93,2.26,2.26,0,0,0-.62-.74.85.85,0,0,0-.34-.19,3.73,3.73,0,0,1,.84,1A3.42,3.42,0,0,1,159.83,72.44Z"/><path class="cls-11" d="M147.32,71.36a3,3,0,0,0,.37.23l1.05.55c.89.45,2.14,1,3.56,1.6S155,74.74,156,75l1.14.32a2.32,2.32,0,0,0,.43.09,2.29,2.29,0,0,0-.41-.14L156,74.93c-1-.3-2.25-.75-3.67-1.31s-2.67-1.13-3.57-1.56l-1.06-.52A2.51,2.51,0,0,0,147.32,71.36Z"/><path class="cls-8" d="M93.08,104.18l-1-.1a2.84,2.84,0,0,1-2.46-3.44L92.8,86.32l5,.54-1.59,14.8A2.83,2.83,0,0,1,93.08,104.18Z"/><path class="cls-6" d="M116,50.82a1.55,1.55,0,0,0-.84-.81,10,10,0,0,0-3.32-.85,27.89,27.89,0,0,0-7.13.08,10.58,10.58,0,0,0-3,.81,2.37,2.37,0,0,0-.85.59,1.05,1.05,0,0,0-.23,1,.68.68,0,0,0,.81.46l13.05.52a3.56,3.56,0,0,0,1.16-.6A1.18,1.18,0,0,0,116,50.82Z"/><path class="cls-4" d="M101.87,36.05a2,2,0,0,0-.63,1.58c0,.09,0,.2.13.21a.28.28,0,0,0,.12,0l2.39-1.27"/><path class="cls-4" d="M110.84,44.57a20.82,20.82,0,0,0,.9-3.47,7.28,7.28,0,0,0-.28-3.53c-.07-.17-.61-1.31-.79-1.3s.21,1.08.14,1.19a6.17,6.17,0,0,0-.69,3.59,16.3,16.3,0,0,0,.72,3.52"/><path class="cls-14" d="M110.86,51l.1-11c.09-3-1.57-5.55-4.57-5.56h-.27a5.36,5.36,0,0,0-5.07,5.21c-.07,2.59-.12,5.47,0,6.85a3.44,3.44,0,0,0,3.08,3.16s0,2.93.06,3.77l4.33-.29,1-.11Z"/><path class="cls-15" d="M104.11,49.68a7,7,0,0,0,3.68-1.3,3.57,3.57,0,0,1-3.66,2.1Z"/><path class="cls-4" d="M102.41,42.36a.42.42,0,0,0,.42.4.39.39,0,0,0,.4-.4.41.41,0,0,0-.41-.39A.4.4,0,0,0,102.41,42.36Z"/><path class="cls-4" d="M101.73,40.9c0,.05.35-.19.79-.22s.78.19.82.13,0-.12-.18-.22a1.13,1.13,0,0,0-.66-.16,1.11,1.11,0,0,0-.63.24C101.74,40.78,101.7,40.88,101.73,40.9Z"/><path class="cls-4" d="M106.28,42a.41.41,0,0,0,.41.4.4.4,0,0,0,.41-.4.42.42,0,0,0-.42-.39A.39.39,0,0,0,106.28,42Z"/><path class="cls-4" d="M106.06,40.77s.35-.19.79-.22.78.18.82.13,0-.12-.18-.22a1.13,1.13,0,0,0-.66-.16,1.07,1.07,0,0,0-.63.24C106.07,40.65,106,40.75,106.06,40.77Z"/><path class="cls-4" d="M104.66,44.25a2.61,2.61,0,0,0-.73-.09c-.11,0-.22,0-.24-.1a.58.58,0,0,1,.06-.34c.09-.28.18-.57.28-.87a14.53,14.53,0,0,0,.63-2.29,14.87,14.87,0,0,0-.81,2.23c-.09.31-.19.6-.27.88a.68.68,0,0,0,0,.45.3.3,0,0,0,.2.15.65.65,0,0,0,.19,0A3.16,3.16,0,0,0,104.66,44.25Z"/><path class="cls-4" d="M105.84,39.4c.07.11.49,0,1-.07s1,0,1-.1-.07-.16-.26-.24a1.63,1.63,0,0,0-.78-.11,1.74,1.74,0,0,0-.75.24C105.89,39.24,105.81,39.35,105.84,39.4Z"/><path class="cls-4" d="M101.54,39.72c.1.09.45,0,.89,0s.8,0,.88-.07,0-.15-.19-.24a1.38,1.38,0,0,0-.73-.14,1.33,1.33,0,0,0-.69.23C101.55,39.56,101.5,39.67,101.54,39.72Z"/><path class="cls-14" d="M110.84,42.15s1.94-.69,2,1.27A1.47,1.47,0,0,1,110.88,45S110.84,42.15,110.84,42.15Z"/><path class="cls-15" d="M111.46,44.21l.09,0a.33.33,0,0,0,.26,0,.85.85,0,0,0,.38-.77,1.1,1.1,0,0,0-.11-.49.37.37,0,0,0-.26-.25.16.16,0,0,0-.2.09c0,.06,0,.1,0,.1s0,0,0-.11a.17.17,0,0,1,.07-.13.25.25,0,0,1,.19-.05.47.47,0,0,1,.36.3,1.16,1.16,0,0,1,.13.54.87.87,0,0,1-.48.86.37.37,0,0,1-.31,0C111.47,44.26,111.45,44.22,111.46,44.21Z"/><path class="cls-4" d="M102.28,36.39c-.32-.17.62-1.21,1.4-1.58a7,7,0,0,1,4.07-.61,4.77,4.77,0,0,1,3.09,2.18,7.79,7.79,0,0,1,.92,3.94,2.43,2.43,0,0,1-.26,1.2c-.27.44-.66.66-.77,1.32a1.08,1.08,0,0,1-.19.61c-.36.38-.8,0-1-.33a5.7,5.7,0,0,1-.55-2.56,5.65,5.65,0,0,1,.1-1.88c.09-.33.24-.64.31-1a1.16,1.16,0,0,0-.15-1,1.19,1.19,0,0,0-.16-.16,2,2,0,0,0-2-.36c-1.1.41-3,1-3.49.65a3.21,3.21,0,0,1-.89-.89Z"/><path class="cls-4" d="M106.05,44.5c-.07,0-.07.45-.45.78s-.87.27-.87.34.11.08.31.09a1.17,1.17,0,0,0,.73-.26,1,1,0,0,0,.34-.65C106.13,44.61,106.08,44.5,106.05,44.5Z"/><path class="cls-6" d="M112.2,42.05a.91.91,0,0,1,.13-.08c2.29-2.24.42-4.35.38-5,0-.91,1.05.23,1.17-1,.16-1.59-1.54-2.25-3.63-2.9a11.67,11.67,0,0,0-4.88.09A5.69,5.69,0,0,0,102,35.68a1.48,1.48,0,0,0-.48.37c-.28.55-.15.78-.15.78s3.67-2,6.8.51S110.76,42,111.57,42Z"/><path class="cls-4" d="M109.59,34.46l.16.07a1.21,1.21,0,0,1,.2.07l.25.11c.18.09.39.2.62.34a6.08,6.08,0,0,1,.69.53,5.9,5.9,0,0,1,.61.62,4.91,4.91,0,0,1,.41.58c.06.09.1.17.14.24l.1.18q.08.15.09.15a1.37,1.37,0,0,0-.07-.16,1.54,1.54,0,0,0-.09-.19l-.13-.24a5.34,5.34,0,0,0-.41-.59,6,6,0,0,0-.61-.64,5.27,5.27,0,0,0-.7-.52,5.1,5.1,0,0,0-.64-.34l-.25-.1-.2-.07Z"/><path class="cls-4" d="M101.88,35.74h0l.1,0,.38-.15c.16-.07.37-.14.61-.22a7.11,7.11,0,0,1,3.07-.2,7.94,7.94,0,0,1,1.27.33,6.82,6.82,0,0,1,1.27.63,6.44,6.44,0,0,1,1.12.87,7.14,7.14,0,0,1,.84,1,10.28,10.28,0,0,1,1,2c.23.59.37,1.09.47,1.43l.12.4,0,.1a.06.06,0,0,0,0,0,.1.1,0,0,0,0,0l0-.1c0-.1-.06-.23-.1-.4-.1-.35-.24-.85-.46-1.45a9.71,9.71,0,0,0-1-2,6.67,6.67,0,0,0-.85-1,6.21,6.21,0,0,0-1.13-.88,6.9,6.9,0,0,0-1.28-.63,7,7,0,0,0-1.29-.33,6.41,6.41,0,0,0-2.24,0,6.52,6.52,0,0,0-.84.2l-.61.22-.38.17-.09,0Z"/><path class="cls-4" d="M110.92,41.09a1,1,0,0,0,.53-.07,1,1,0,0,0,.44-.32,3.5,3.5,0,0,1-.46.27A2.77,2.77,0,0,1,110.92,41.09Z"/><path class="cls-4" d="M109.87,39.36s.08,0,.2,0a1.31,1.31,0,0,0,.43-.25,1.54,1.54,0,0,0,.33-.37.72.72,0,0,0,.09-.19,3.07,3.07,0,0,1-.46.52A3.17,3.17,0,0,1,109.87,39.36Z"/><path class="cls-4" d="M108.05,37.24a4.4,4.4,0,0,1,.36-.55c.23-.28.48-.44.47-.46a1.43,1.43,0,0,0-.51.42A1.47,1.47,0,0,0,108.05,37.24Z"/><path class="cls-4" d="M106.26,36.37a5.53,5.53,0,0,1,.17-.58,5.21,5.21,0,0,1,.29-.52,1.27,1.27,0,0,0-.34.5A1.4,1.4,0,0,0,106.26,36.37Z"/><path class="cls-4" d="M103.58,36.23a1.32,1.32,0,0,1,0-.59,1.75,1.75,0,0,1,.27-.53.74.74,0,0,0-.13.12,1.18,1.18,0,0,0-.2.39,1.1,1.1,0,0,0,0,.44C103.54,36.17,103.57,36.23,103.58,36.23Z"/><path class="cls-4" d="M102,36.64a2.89,2.89,0,0,1-.06-.46,4.28,4.28,0,0,1,.06-.46.94.94,0,0,0,0,.92Z"/><path class="cls-4" d="M100.72,34.72a1.7,1.7,0,0,1,1.89-.48A2.41,2.41,0,0,1,104,35.75a1,1,0,0,1,1.28.36l.85.16a3.57,3.57,0,0,1-.41,1,1.2,1.2,0,0,1-.87.55.72.72,0,0,1-.75-.62,1.74,1.74,0,0,1-1.49,1,1.77,1.77,0,0,1-1.4-.31,1,1,0,0,1-.18-1.32A1.31,1.31,0,0,1,100.72,34.72Z"/><path class="cls-4" d="M97.24,86.7s-.73,19.52-.73,20.74c0,1.41-.1,5.21-.07,6.9s.8,10.54.8,10.54l.23,3.12h5.64s1.82-20.43,2-22.12,2.44-17.82,2.57-17.43,2.6,16.13,2.71,17.82,0,21.73,0,21.73h6.31s1.18-12.72,1.56-18.6c.34-5.45,1.6-16.79,1.6-16.79V84.27L107.24,83Z"/><path class="cls-4" d="M116.27,124l.15,5.53s5.55,2,5.62,3.07l-10.73,0-.06-8.62Z"/><path class="cls-1" d="M113.1,129.09a.43.43,0,0,0-.3.5.41.41,0,0,0,.49.3.46.46,0,0,0,.32-.53.44.44,0,0,0-.55-.26"/><path class="cls-8" d="M111.31,132.64l0-.87,10.27.3s.48.21.43.55Z"/><path class="cls-7" d="M116.59,129.49c0,.06-.26.08-.52.25s-.39.39-.44.37,0-.33.34-.53S116.6,129.44,116.59,129.49Z"/><path class="cls-7" d="M117.72,130s-.22.14-.39.36-.23.45-.28.45-.09-.3.14-.57S117.72,129.91,117.72,130Z"/><path class="cls-7" d="M118.36,131.3s-.12-.25,0-.54.38-.4.4-.35-.12.19-.23.43S118.41,131.3,118.36,131.3Z"/><path class="cls-7" d="M116.5,128.23c0,.05-.27,0-.56,0s-.53.11-.56.07.2-.24.55-.26S116.52,128.19,116.5,128.23Z"/><path class="cls-4" d="M98.26,123.48l-.11,6.69-1.61,5.27a.67.67,0,0,0,.5.86h0a.68.68,0,0,0,.61-.15c1.06-.94,4.93-4.41,4.91-4.9s.58-7,.58-7Z"/><path class="cls-8" d="M97,136.3l5.54-5.5v.28a1.06,1.06,0,0,1-.27.66c-.45.48-1.7,1.79-4.63,4.41a.69.69,0,0,1-.63.15Z"/><g class="cls-13"><path class="cls-7" d="M101.29,128.59a.42.42,0,0,0-.13.54.41.41,0,0,0,.53.14.45.45,0,0,0,.14-.57.42.42,0,0,0-.57-.09"/></g><path class="cls-7" d="M98.68,133.44s-.17-.34-.56-.54a2.58,2.58,0,0,0-.77-.18.42.42,0,0,1,.24-.08,1.21,1.21,0,0,1,.6.13,1.1,1.1,0,0,1,.43.43C98.69,133.34,98.7,133.44,98.68,133.44Z"/><path class="cls-7" d="M98.17,134.32s-.24-.2-.58-.31a5.19,5.19,0,0,0-.65-.11.8.8,0,0,1,.7,0C98,134,98.21,134.3,98.17,134.32Z"/><path class="cls-7" d="M99.61,132.33a6.65,6.65,0,0,0-.86-.54,7.62,7.62,0,0,0-1-.27,1.54,1.54,0,0,1,1,.14A1.47,1.47,0,0,1,99.61,132.33Z"/><path class="cls-7" d="M99.82,130.3s-.39-.13-.87-.16-.86.06-.87,0A1.23,1.23,0,0,1,99,130,1.36,1.36,0,0,1,99.82,130.3Z"/><path class="cls-7" d="M99.9,128.34a3.71,3.71,0,0,0-.9-.2,3.31,3.31,0,0,0-.89.19s.06-.09.22-.18A1.41,1.41,0,0,1,99,128a1.35,1.35,0,0,1,.67.16C99.83,128.24,99.91,128.32,99.9,128.34Z"/><path class="cls-6" d="M117.93,52.72s3.91,1.06,5.25,6.31c.65,2.51.51,8.72.62,9.79s.39,3.88.71,7.06c.06.6.86,1,.91,1.68,0,0,.58,1.92-.41,3-1.45,1.59.11,4,.11,4L124.58,86l-2.7-.44-.11-1s-1.56-4.48-2.31-7.91-1.12-4.61-1.49-6.42a23.15,23.15,0,0,1-.44-5Z"/><path class="cls-14" d="M94,82.9a1.86,1.86,0,0,0,.55,1.16,4.74,4.74,0,0,1,.76,1.6s.42,2.22.52,2.94.11,1.38-.46,1.25-.75-.56-.86-1.89l-.33-.69-.31.53-.06,2.12s1.45,1.39,1.35,1.79-.38.33-.38.33l-.23.23-2.21-1.58-.82-2.8.24-3.61V81.47l2.36-.31Z"/><path class="cls-6" d="M99.5,52.36s-3.81.36-5.36,5.39c-.73,2.41-.88,8.45-1,9.48s-.56,3.75-1,6.82c-.53,3.56-1,8.44-1,8.44l.46,1.43,2.64-.31.15-.94S96.07,78.4,97,75.1s1.31-4.43,1.74-6.17a22.45,22.45,0,0,0,.66-4.82Z"/><path class="cls-1" d="M104.35,51.4l-5.79,1.32,1.15,19.37L97.07,86.82c.36,1.42,7.79,1.51,12,1.39,3.94-.12,10.43-1.76,10.89-2.49s-2-16.58-2-16.58V52.72l-6.38-1.46A7.66,7.66,0,0,1,104.35,51.4Z"/><path class="cls-6" d="M97.25,84.45s10.82.59,13.54.4A46.25,46.25,0,0,0,120,83v-1.5s1.9-1.55.57-2.36c-.57-.35-.55-1.93-.73-3-.64-3.7-.91-10.44-.91-10.44l-1-13-2.83-.93-3.42-1.23-3.61,3.23a46.44,46.44,0,0,0-4.15-3.23l-5.46,2.16-.63,17.92s-.45,3.55-.76,6c-.16,1.28-.82,2.27-.82,3.28a4.06,4.06,0,0,0,1.29,2.47Z"/><path class="cls-4" d="M119.89,81.52s-.07,0-.22,0l-.64.12c-.56.11-1.37.23-2.38.37s-2.21.28-3.54.4-2.81.22-4.36.27-3,.06-4.37,0-2.56-.08-3.57-.14-1.83-.13-2.4-.19l-.65-.07-.22,0a.68.68,0,0,1,.23,0l.65,0c.56.05,1.38.1,2.4.15s2.22.09,3.56.11,2.81,0,4.36,0,3-.15,4.36-.26,2.53-.24,3.54-.37,1.82-.24,2.38-.33l.65-.09Z"/><path class="cls-16" d="M98.48,52.72C98.2,52.81,94.77,54,94,60a44.14,44.14,0,0,0-.19,7.48l6.07-.51Z"/><path class="cls-4" d="M106.65,55h-.26c-.16,0-.4-.05-.69-.1a8.48,8.48,0,0,1-2.17-.78,8.23,8.23,0,0,1-1.87-1.34,5,5,0,0,1-.48-.5,1.24,1.24,0,0,1-.16-.21s.26.26.7.64a9.32,9.32,0,0,0,4,2.09C106.29,55,106.65,55,106.65,55Z"/><path class="cls-4" d="M115.54,52l-.2.19c-.13.11-.32.27-.57.45a11.19,11.19,0,0,1-2.11,1.2,10.74,10.74,0,0,1-2.31.72c-.3.06-.55.09-.72.11h-.27s.37-.08,1-.22a12.84,12.84,0,0,0,2.28-.74,14.24,14.24,0,0,0,2.1-1.15A9.69,9.69,0,0,1,115.54,52Z"/><path class="cls-4" d="M108,54.49s0,0,.09,0l.24,0a1.66,1.66,0,0,1,.76.48,1.61,1.61,0,0,1,.31.55.37.37,0,0,1-.07.38.25.25,0,0,1-.22,0,.76.76,0,0,1-.18-.09,2.39,2.39,0,0,1-1-1.31,1.66,1.66,0,0,1-.06-.21l.13,0a1.55,1.55,0,0,1-.44,1.47.52.52,0,0,1-.36.12.33.33,0,0,1-.29-.24.53.53,0,0,1,0-.33,2,2,0,0,1,.14-.25,2.33,2.33,0,0,1,.6-.59c.16-.12.26-.16.27-.15s-.09.07-.24.19a2.44,2.44,0,0,0-.55.61.6.6,0,0,0-.14.49c0,.18.3.2.46.05a1.44,1.44,0,0,0,.39-1.34l.13,0,.06.21a2.31,2.31,0,0,0,.91,1.23c.09.07.19.11.25.06a.24.24,0,0,0,0-.26,1.44,1.44,0,0,0-.28-.52,1.63,1.63,0,0,0-.7-.49C108.11,54.51,108,54.5,108,54.49Z"/><path class="cls-4" d="M96.84,57.35s0,.07,0,.19l0,.52c0,.46.09,1.12.14,1.94.1,1.64.21,3.91.27,6.42s.05,4.77,0,6.41c0,.83,0,1.49,0,2l0,.53c0,.12,0,.18,0,.18s0-.06,0-.18V72.83c0-1.64,0-3.91-.07-6.41S97,61.65,97,60l-.09-1.94c0-.22,0-.4,0-.53S96.83,57.35,96.84,57.35Z"/><path class="cls-4" d="M119.7,81.93l0-.07.12-.19c.11-.16.28-.4.5-.69a1.87,1.87,0,0,0,.33-.51,1.25,1.25,0,0,0,0-.7,2.22,2.22,0,0,0-.31-.76l-.49-.8h0c-.19-1-.37-2.27-.53-3.61s-.29-2.82-.4-4.36c-.24-3.39-.31-6.47-.36-8.7,0-1.1,0-2,0-2.64V58s0-.06,0-.06v.25c0,.17,0,.41,0,.71,0,.64,0,1.54.08,2.64.07,2.23.16,5.3.39,8.69.11,1.54.24,3,.39,4.35s.33,2.57.51,3.61h0l.49.81a2.21,2.21,0,0,1,.31.79,1.41,1.41,0,0,1-.06.74,2.07,2.07,0,0,1-.35.51c-.24.29-.41.52-.52.68l-.13.18Z"/><path class="cls-4" d="M101.75,73.36a.76.76,0,0,1,0,.26c0,.16,0,.4,0,.69a12.19,12.19,0,0,1-.37,2.26,11.65,11.65,0,0,1-.79,2.15,4.83,4.83,0,0,1-.32.62c-.08.14-.13.22-.14.21s.15-.33.38-.87a14.55,14.55,0,0,0,1.14-4.38C101.72,73.72,101.73,73.36,101.75,73.36Z"/><path class="cls-4" d="M117.11,78.79a1,1,0,0,1-.23-.17,5.83,5.83,0,0,1-.57-.53A9,9,0,0,1,114.8,76a9.22,9.22,0,0,1-.85-2.43,6.78,6.78,0,0,1-.11-.78,1,1,0,0,1,0-.28s.06.4.21,1A9.7,9.7,0,0,0,116.38,78C116.82,78.51,117.13,78.77,117.11,78.79Z"/><polygon class="cls-8" points="112.4 84.15 115.26 93.36 128.38 89.35 125.68 80.38 113.5 83.76 112.77 84.02 112.4 84.15"/><polygon class="cls-7" points="112.77 84.02 115.53 92.71 116.42 92.39 113.5 83.74 112.77 84.02"/><path class="cls-4" d="M114.12,83.86s.73,2,1.56,4.47,1.46,4.51,1.42,4.52-.74-2-1.56-4.47S114.08,83.87,114.12,83.86Z"/><path class="cls-4" d="M121.37,81.58a2,2,0,0,1-.35.12l-1,.29-3.18.91-3.18.87-1,.29a1.48,1.48,0,0,1-.35.09,1.26,1.26,0,0,1,.34-.14l.94-.34c.8-.25,1.93-.56,3.17-.91s2.37-.65,3.19-.86l1-.25A2.29,2.29,0,0,1,121.37,81.58Z"/><path class="cls-14" d="M118.67,90.42a28.43,28.43,0,0,1,1.65-2.94A6.58,6.58,0,0,1,122.2,86l3.14,1.49a31,31,0,0,1-.27,4,1.93,1.93,0,0,1-.64.48,1.64,1.64,0,0,1-.92.21h-.29s-1.82.52-2,.21c0,0-.82.44-1.26.24a1.56,1.56,0,0,1-.57-.54l1.55-1.36.09-1.2A12.62,12.62,0,0,1,119.55,91C119.1,91.26,118.43,90.86,118.67,90.42Z"/><path class="cls-14" d="M121,81.65,122.2,86l3.14,1.49s-.12-3-.19-4.62-.14-2.3-.14-2.3A8.09,8.09,0,0,0,121,81.65Z"/><path class="cls-15" d="M122.57,91s.11.11,0,.32a.77.77,0,0,1-.22.27l-.31.26a2.5,2.5,0,0,1-.9.53,7.33,7.33,0,0,1,.81-.64,2.93,2.93,0,0,0,.53-.47A.67.67,0,0,0,122.57,91Z"/><path class="cls-8" d="M96.78,53.58s.32-1.08,2.36-1.14c0,0,0,5.32-.08,7.91-.19,8.76-2,26.94-2,26.94l-1.44-.38L96.83,72Z"/><path class="cls-4" d="M70.43,78.42a8,8,0,0,1,4,6.66c0,1.61.09,3.61.09,5.92,0,6.11.94,17.1.94,17.1l1.34,22.3-7,1.31L66.66,108,64.88,96.58l-.69,11.13,0,22.36-7.68.34-2.26-22.87L53.18,90.76l3.43-12.71,3.15-1,10.48,1.22Z"/><path class="cls-8" d="M62.87,80.18a.24.24,0,0,1,0,.07l0,.2.07.78.24,2.84c.18,2.42.44,5.73.73,9.4l-.08-.07H65l-.07.07c-.14-3.42-.34-6.47-.5-8.66-.09-1.09-.15-2-.2-2.59l0-.7a1.18,1.18,0,0,1,0-.25,2.26,2.26,0,0,1,0,.24l.07.7c.07.61.15,1.49.25,2.59.19,2.19.4,5.24.55,8.67v.08H63.8v-.07c-.27-3.67-.51-7-.69-9.4-.08-1.19-.14-2.16-.19-2.85l0-.77v-.28Z"/><path class="cls-4" d="M75.53,126.53l.11,5s5,1.86,5,2.78l-9.65,0,0-7.75Z"/><path class="cls-1" d="M72.66,131.08a.4.4,0,0,0-.27.45.37.37,0,0,0,.44.27.42.42,0,0,0,.29-.48.39.39,0,0,0-.49-.23"/><path class="cls-8" d="M71,134.26l0-.78,9.24.31s.42.19.38.49Z"/><path class="cls-7" d="M75.8,131.45c0,.05-.24.07-.47.22s-.35.35-.4.33,0-.29.31-.47S75.81,131.41,75.8,131.45Z"/><path class="cls-7" d="M76.81,131.87s-.19.13-.35.33-.21.41-.26.4-.07-.26.13-.51S76.81,131.83,76.81,131.87Z"/><path class="cls-7" d="M77.38,133.08s-.1-.22,0-.48.34-.36.36-.32-.12.18-.21.39S77.43,133.08,77.38,133.08Z"/><path class="cls-7" d="M75.72,130.32s-.24,0-.5,0-.48.1-.5.06.17-.21.49-.22S75.74,130.28,75.72,130.32Z"/><path class="cls-4" d="M57.54,125.94l.13,6-1.26,4.79a.62.62,0,0,0,.48.76h0a.6.6,0,0,0,.54-.16c.92-.88,4.28-4.13,4.24-4.57s.28-6.35.28-6.35Z"/><path class="cls-8" d="M56.89,137.5l4.78-5.14v.26a.89.89,0,0,1-.22.6c-.38.45-1.46,1.66-4,4.12a.59.59,0,0,1-.56.16Z"/><g class="cls-13"><path class="cls-7" d="M60.44,130.42a.38.38,0,0,0-.1.49.36.36,0,0,0,.48.11.4.4,0,0,0,.1-.52.37.37,0,0,0-.51-.05"/></g><path class="cls-7" d="M58.26,134.87a2,2,0,0,0-.52-.46,2.12,2.12,0,0,0-.7-.14s.07-.06.22-.08a.92.92,0,0,1,.53.1.88.88,0,0,1,.41.37C58.27,134.78,58.28,134.87,58.26,134.87Z"/><path class="cls-7" d="M57.83,135.68a3.4,3.4,0,0,0-.53-.26,5.26,5.26,0,0,0-.59-.08.74.74,0,0,1,.63-.05C57.69,135.4,57.87,135.66,57.83,135.68Z"/><path class="cls-7" d="M59.06,133.84a6.56,6.56,0,0,0-.79-.45,6.1,6.1,0,0,0-.9-.21,1.67,1.67,0,0,1,1.69.66Z"/><path class="cls-7" d="M59.17,132s-.35-.1-.78-.12-.77.09-.79.05a1.24,1.24,0,0,1,.8-.18A1.18,1.18,0,0,1,59.17,132Z"/><circle class="cls-8" cx="63.45" cy="78.58" r="0.58"/><path class="cls-4" d="M57.55,46.79A57.58,57.58,0,0,1,56.45,55C56,57,55.27,59.07,55.36,61.17A2.43,2.43,0,0,0,56,62.85a2.64,2.64,0,0,0,1.38.56,59.28,59.28,0,0,0,9.32.76l6,.17a2.5,2.5,0,0,0,2.06-.58c.59-.69.25-1.74-.09-2.58a71,71,0,0,1-4.47-16"/><path class="cls-4" d="M58.55,43.8a7.06,7.06,0,0,1,5.21-3.19,7.61,7.61,0,0,1,2.68.24,4,4,0,0,1,2.36,1.27A6.52,6.52,0,0,1,70.34,45a9.3,9.3,0,0,1,.11,3.13A12.67,12.67,0,0,1,69.1,52l-1.88.4a17.87,17.87,0,0,1-4.73.17,6.11,6.11,0,0,1-4.08-2.19A6.09,6.09,0,0,1,58.55,43.8Z"/><path class="cls-14" d="M61.09,43.56l3.68-1.85,1,0c2.24-.19,4,2.14,4.18,4a32.69,32.69,0,0,1,.17,6,3.88,3.88,0,0,1-2.91,3.52s.43,3.55.54,4.55l-6.1-1.86L60.18,44.67A1.07,1.07,0,0,1,61.09,43.56Z"/><path class="cls-15" d="M65.58,51.37a.64.64,0,0,1,.18-.41.65.65,0,0,1,.79-.11.87.87,0,0,1,.4.79h0a.8.8,0,0,1-.54.37l-.1,0a.74.74,0,0,1-.5-.15A.65.65,0,0,1,65.58,51.37Z"/><path class="cls-4" d="M69,48.4a.4.4,0,0,1-.36.41.38.38,0,0,1-.41-.34A.39.39,0,0,1,69,48.4Z"/><path class="cls-4" d="M69.36,46.75s-.35-.15-.77-.14-.71.24-.76.19,0-.12.15-.22a1.1,1.1,0,0,1,.61-.21,1,1,0,0,1,.61.17C69.33,46.64,69.38,46.73,69.36,46.75Z"/><path class="cls-4" d="M67,50.25a2.72,2.72,0,0,1,.67-.15c.11,0,.21,0,.22-.11a.45.45,0,0,0-.08-.31l-.34-.8a13.82,13.82,0,0,1-.78-2.1,14.92,14.92,0,0,1,1,2c.11.28.22.55.33.8A.65.65,0,0,1,68,50a.25.25,0,0,1-.17.16.38.38,0,0,1-.18,0A2.93,2.93,0,0,1,67,50.25Z"/><path class="cls-15" d="M67.22,55.19a7.73,7.73,0,0,1-4.09-.94,4,4,0,0,0,4.17,1.67Z"/><path class="cls-4" d="M69.36,45.47c-.07.11-.39.05-.76.09s-.68.16-.77.07,0-.15.13-.25a1.11,1.11,0,0,1,.6-.24,1.17,1.17,0,0,1,.63.11C69.33,45.33,69.39,45.42,69.36,45.47Z"/><path class="cls-4" d="M64.3,48.63a.39.39,0,0,0,.4.36.37.37,0,0,0,.38-.38.39.39,0,0,0-.4-.36A.37.37,0,0,0,64.3,48.63Z"/><path class="cls-4" d="M63.72,47.09c.05,0,.33-.19.75-.22s.73.16.77.11,0-.12-.17-.2a1.05,1.05,0,0,0-.63-.15,1,1,0,0,0-.59.24C63.73,47,63.69,47.07,63.72,47.09Z"/><path class="cls-4" d="M64.27,45.62c.09.09.4,0,.79,0s.72,0,.79-.08,0-.14-.18-.22a1,1,0,0,0-.65-.12,1.22,1.22,0,0,0-.62.22C64.27,45.48,64.23,45.58,64.27,45.62Z"/><path class="cls-14" d="M61.15,49.69c0-.23-.29-.75-.51-.78-.6-.07-1.67,0-1.63,1.52A1.55,1.55,0,0,0,61.13,52S61.17,50.46,61.15,49.69Z"/><path class="cls-15" d="M60.54,51.22s0,0-.1.05a.34.34,0,0,1-.27,0,.87.87,0,0,1-.43-.78,1.24,1.24,0,0,1,.09-.52c.06-.15.15-.26.26-.28a.19.19,0,0,1,.22.09c0,.06,0,.1,0,.1s.05,0,0-.12a.26.26,0,0,0-.09-.13.26.26,0,0,0-.2,0,.48.48,0,0,0-.36.33,1.16,1.16,0,0,0-.11.57.93.93,0,0,0,.55.88.36.36,0,0,0,.32-.06C60.54,51.27,60.55,51.22,60.54,51.22Z"/><path class="cls-4" d="M60.55,48.92l.57.5c3.29-2.16,6.63-8,5.76-7.8a6.57,6.57,0,0,0-3.24-.07c-1.65.44-4.75,1.56-4.53,3.53A10.42,10.42,0,0,0,60.55,48.92Z"/><path class="cls-4" d="M67.07,51.7c0-.07-.49,0-.9-.34s-.45-.87-.52-.87-.08.13,0,.35a1.2,1.2,0,0,0,.4.73,1.11,1.11,0,0,0,.76.26C67,51.81,67.08,51.73,67.07,51.7Z"/><path class="cls-8" d="M73.91,84.6a3.3,3.3,0,0,1-.7-.38c-.42-.26-1-.64-1.61-1.07L70,82.05a4.23,4.23,0,0,1-.64-.47,4,4,0,0,1,.7.38c.42.26,1,.64,1.61,1.07l1.57,1.1A4.78,4.78,0,0,1,73.91,84.6Z"/><polygon class="cls-14" points="55.82 58.94 61.58 57.22 67.62 57.22 73.43 58.94 73.96 60.47 64.05 65.44 55.82 58.94"/><path class="cls-6" d="M76.61,61.9s1.22,5.1,1.84,8.39c.54,2.78,1.19,6.36-.21,7.78s-2.14,2-2.63,1.74S72.08,77,72.08,77l-.66-15.2Z"/><path class="cls-8" d="M49.06,90.47c0-.15.2-8.86.2-8.86L50.79,81l10.12,2.78v9.71l-1.75.27Z"/><polygon class="cls-2" points="59.48 93.48 59.22 84.4 49.57 81.48 50.67 81.18 60.52 83.94 60.52 93.27 59.48 93.48"/><path class="cls-6" d="M52,82.56a1.41,1.41,0,0,1-.9-1.94c.57-1.47.5-9.41.58-11.19.22-4.91.34-5.52,1.06-7.55l3.37,3.92s-.41,14.83,0,15.94,0,.45-.82.82A9.48,9.48,0,0,1,52,82.56Z"/><path class="cls-14" d="M52.32,82.66s.16,5.49.23,6.16-.65,2.23-.11,2.83l.53.61,1.05.17s0,.61.52.61h.56s.28.57.74.4.28-1.11.28-1.11.49,0,.49-.61a6.91,6.91,0,0,0-.81-3.66,2.78,2.78,0,0,1-.63-2l.48-3.57-3.41.28"/><path class="cls-6" d="M55.82,58.94s-2.48,1.12-3.13,2.94l3.13,4.86v9.47s-.53,2.91,1.22,2.94,3.14-2,3.14-2l10.06,1.17s.44,1.27,1.86.42c.4-.24.32-.79.32-3.64,0-.74,4.31-7.5,4.39-7.64s.12-1.63.2-3.28a5.25,5.25,0,0,0-3.58-5.23h0S65.05,65.87,55.82,58.94Z"/><path class="cls-14" d="M73.85,77.18a58.16,58.16,0,0,0-3.61,4.95l3,2,.84-2.67,2.52-3.19S76.19,76.71,73.85,77.18Z"/><path class="cls-4" d="M53.16,64.05s0,0,.1.11l.24.34a10.62,10.62,0,0,1,.77,1.32,16.18,16.18,0,0,1,1.41,4.84,32.4,32.4,0,0,1,.22,5c0,.64,0,1.16,0,1.52l0,.42c0,.09,0,.14,0,.14s0-.05,0-.14v-.42c0-.38,0-.9,0-1.53a37.32,37.32,0,0,0-.27-5,16.87,16.87,0,0,0-1.36-4.81,13.22,13.22,0,0,0-.72-1.34A5,5,0,0,1,53.16,64.05Z"/><path class="cls-4" d="M72.9,65.61a2.38,2.38,0,0,1,0,.47l-.07,1.28c-.06,1.08-.14,2.58-.21,4.24s-.1,3.15-.13,4.23l0,1.29a3,3,0,0,1,0,.47,3,3,0,0,1,0-.47c0-.3,0-.74,0-1.29,0-1.08,0-2.58.08-4.24s.17-3.15.25-4.24c.05-.54.09-1,.12-1.28A3.19,3.19,0,0,1,72.9,65.61Z"/><path class="cls-4" d="M57.24,75.18a12,12,0,0,1,1.64,1,10.35,10.35,0,0,1,1.56,1.08,12.73,12.73,0,0,1-1.64-1A11.81,11.81,0,0,1,57.24,75.18Z"/><path class="cls-4" d="M59.74,73.27a12.37,12.37,0,0,0,.07,2,11,11,0,0,0,.56,1.93,1.54,1.54,0,0,1-.3-.52,5.81,5.81,0,0,1-.41-1.39,5.59,5.59,0,0,1,0-1.45A1.78,1.78,0,0,1,59.74,73.27Z"/><path class="cls-4" d="M61.35,55.62l-3.44,1.56a18.12,18.12,0,0,0,.24,8.09,1.52,1.52,0,0,0,.5.92,1.56,1.56,0,0,0,.93.2l3.94,0Q62.43,61,61.35,55.62Z"/></g></svg>