<svg xmlns="http://www.w3.org/2000/svg" viewBox="0 0 144.5 170.21"><defs><style>.cls-1{fill:#263238;}.cls-2{fill:#fafafa;}.cls-3{fill:#f5f5f5;}.cls-4{fill:#e0e0e0;}.cls-5{fill:#20c997;}.cls-6{fill:#ebebeb;}.cls-7{opacity:0.3;}.cls-8{fill:#fff;}.cls-9{fill:#ffbe9d;}.cls-10{fill:#eb996e;}.cls-11{fill:#455a64;}.cls-12{opacity:0.6;}</style></defs><title>leaderboard0</title><g id="course"><g id="freepik--Rocket--inject-20"><path class="cls-1" d="M39.42,167.77c-.05,0,5.63-10.36,12.69-23.08s12.81-23,12.86-23-5.63,10.36-12.69,23.09S39.46,167.8,39.42,167.77Z"/><path class="cls-1" d="M21.33,167.77l.17-.23.52-.66,2-2.59,7.52-9.62c6.44-8.2,15.46-19.72,25.9-33l.06-.08.07.07,4.84,4.46.18.17H54l.09-.15c.72,1.32,1.52,2.72,2.27,4.15l2,3.52.08.15H48l.08-.14,5.28,9,.08.14H40.92l.08-.14,6.88,9.83.08.12h-.15l-14.59,0,.05-.09L39,161.75l1.5,2.43.38.62L41,165l-.14-.21-.38-.62c-.34-.55-.86-1.36-1.52-2.41l-5.72-9.14-.06-.09h.1l14.6,0-.07.12-6.89-9.79-.1-.14H53.28l-.08.14c-1.7-2.9-3.47-5.89-5.28-9l-.09-.14H58.26l-.08.14-2-3.53L54,126.21l-.08-.15h8.5l-.07.17-4.83-4.46h.14l-25.95,33-7.59,9.55-2,2.56-.53.66Z"/><path class="cls-1" d="M125.28,167.58s-5.8-10.24-12.86-22.89-12.74-23-12.69-23,5.81,10.24,12.86,22.9S125.33,167.55,125.28,167.58Z"/><path class="cls-1" d="M143.37,167.58l-.18-.22-.53-.65-2-2.55-7.56-9.55-25.95-32.87h.14l-4.83,4.44-.07-.17h8.5l-.08.15-2.31,4.16-1.94,3.49-.08-.15h10.43l-.09.14-5.29,8.95-.07-.14h12.51l-.1.14-6.9,9.78-.06-.12,14.59,0h.1l0,.08-5.72,9.1L124.29,164l-.38.61-.14.21.13-.21.37-.63,1.5-2.42,5.67-9.12.05.09-14.59,0h-.15l.08-.12,6.88-9.78.07.13H111.29l.08-.14,5.28-8.95.08.15H106.28l.09-.14,1.93-3.49,2.31-4.15.08.14h-8.58l.19-.17,4.83-4.42.08-.07.06.08,25.9,32.91,7.53,9.57,2,2.57.51.66Z"/><path class="cls-2" d="M127,154.4a14.69,14.69,0,0,0-12.87-4.72,9.84,9.84,0,0,0-3-9,12.29,12.29,0,0,0-10.44-2.31l.1-19.09c-.64,0-13.55,0-18.7,0s-18.06,0-18.7,0l.1,19.09A12.32,12.32,0,0,0,53,140.66a9.86,9.86,0,0,0-3,9,14.42,14.42,0,0,0-16,18.11h96A14.7,14.7,0,0,0,127,154.4Z"/><path class="cls-1" d="M127,154.4s.21.24.59.71a14.71,14.71,0,0,1,1.46,2.31,15.1,15.1,0,0,1,1.37,4.25,14.53,14.53,0,0,1-.29,6.12v0h0l-96,.06H34l0-.06a14.66,14.66,0,0,1-.31-6.11,14.91,14.91,0,0,1,2.24-5.81,14.18,14.18,0,0,1,4.57-4.35,15.31,15.31,0,0,1,6.07-2,13.6,13.6,0,0,1,3.49.06l-.11.11a9.93,9.93,0,0,1,3.57-9.58,12.06,12.06,0,0,1,4.83-2,11.38,11.38,0,0,1,5.16.11l-.12.1c0-6.55-.07-12.93-.1-19.1v-.09h37.58v.08c0,7-.08,13.33-.11,19.09l-.09-.06a10.38,10.38,0,0,1,3.08-.35,14,14,0,0,1,3,.44,10.25,10.25,0,0,1,4.84,2.6,9.92,9.92,0,0,1,2.65,8.73l0-.05a14.56,14.56,0,0,1,6.12.47,15,15,0,0,1,4,1.9,14.61,14.61,0,0,1,2.11,1.73l.63.67-.17-.16-.47-.5a16.52,16.52,0,0,0-2.12-1.71,15.37,15.37,0,0,0-4-1.86,14.49,14.49,0,0,0-6.07-.46h-.06v-.06a9.84,9.84,0,0,0-2.62-8.61,10.24,10.24,0,0,0-4.8-2.56,13.82,13.82,0,0,0-2.92-.43,10,10,0,0,0-3,.34l-.09,0v-.09q0-8.66.09-19.1l.07.08H63.39l.08-.09q.06,9.25.11,19.1v.13l-.13,0a11.09,11.09,0,0,0-5.06-.11,11.9,11.9,0,0,0-4.75,2,9.73,9.73,0,0,0-3.51,9.37l0,.14-.14,0a14.22,14.22,0,0,0-3.45-.05,15.13,15.13,0,0,0-6,2A13.85,13.85,0,0,0,36.05,156a14.77,14.77,0,0,0-2.21,5.72,14.61,14.61,0,0,0,.3,6l-.09-.07,96,0,0,0a14.42,14.42,0,0,0,.31-6.06,14.92,14.92,0,0,0-2.77-6.56l-.44-.54Z"/><path class="cls-1" d="M105.24,157.78v-.11a2.19,2.19,0,0,0,0-.33,4.6,4.6,0,0,0-.06-.52,5.55,5.55,0,0,0-.13-.71,9.07,9.07,0,0,0-4.76-6.05,8,8,0,0,0-3.67-.82,8.92,8.92,0,0,0-4.08,1.07,8.44,8.44,0,0,0-3.35,3.14l-.07.11-.09-.1a10.16,10.16,0,0,0-7.08-3.67,9.44,9.44,0,0,0-3.84.48,9.92,9.92,0,0,0-3.22,1.87A10.23,10.23,0,0,0,71.5,158l0,.13-.11-.08a8.47,8.47,0,0,0-6.24-1.22,8.13,8.13,0,0,0-4.33,2.45,8.53,8.53,0,0,0-2,3.58l-.06.21a.1.1,0,0,1,0,.07A5.37,5.37,0,0,1,59,162a8.47,8.47,0,0,1,3.51-4.31,8,8,0,0,1,2.57-1,8.52,8.52,0,0,1,6.37,1.22l-.14.06A10.42,10.42,0,0,1,78,150.07a9.45,9.45,0,0,1,3.91-.47,10.36,10.36,0,0,1,7.23,3.75H89a8.75,8.75,0,0,1,3.41-3.2,9.16,9.16,0,0,1,4.17-1.07,8.07,8.07,0,0,1,3.73.86,9.08,9.08,0,0,1,4.75,6.14,6,6,0,0,1,.11.72,3.15,3.15,0,0,1,0,.53v.32A.51.51,0,0,1,105.24,157.78Z"/><path class="cls-1" d="M85.72,144.72s-.06-.33-.24-.89a6.49,6.49,0,0,0-1.21-2.18,6.17,6.17,0,0,0-3.09-2,6.43,6.43,0,0,0-4.52.42l-.12.06,0-.13a5.62,5.62,0,0,0-.42-1.52,6.5,6.5,0,0,0-3.6-3.55,5.78,5.78,0,0,0-2.21-.41,6.71,6.71,0,0,0-4.43,1.74c-.5.46-.71.78-.73.76a.87.87,0,0,1,.16-.23,4.15,4.15,0,0,1,.52-.59,6.43,6.43,0,0,1,2.48-1.52,6.76,6.76,0,0,1,2-.34,5.75,5.75,0,0,1,2.28.4,6.68,6.68,0,0,1,3.72,3.64,6.47,6.47,0,0,1,.42,1.55l-.14-.07a6.54,6.54,0,0,1,4.66-.41,5.84,5.84,0,0,1,1.85.88,6.18,6.18,0,0,1,1.29,1.21,6.39,6.39,0,0,1,1.18,2.25,3.92,3.92,0,0,1,.15.66A1.27,1.27,0,0,1,85.72,144.72Z"/><path class="cls-1" d="M88.55,145.31s-.09-4.08-.09-9.1,0-9.1.09-9.1.11,4.08.11,9.1S88.61,145.31,88.55,145.31Z"/><path class="cls-1" d="M90.75,136.71s-.1-3-.1-6.67,0-6.66.1-6.66.1,3,.1,6.66S90.8,136.71,90.75,136.71Z"/><polygon class="cls-3" points="102.91 105.82 102.82 99.24 81.23 99.24 62.26 99.24 62.2 105.5 56.98 116.46 56.98 123.23 83.52 122.84 107.77 123.22 107.77 116.46 102.91 105.82"/><path class="cls-1" d="M102.91,105.82l.08.18.25.53c.22.47.55,1.16,1,2.06l3.62,7.85v6.85h-.07L85.26,123l-1.63,0L82,123l-3.36,0-7,.11L57,123.33h-.1v-6.91l5.23-11v0c0-2.14,0-4.22.06-6.26v-.09h.09l40.57,0h0v.06c0,2.13,0,3.79,0,4.89v1.26c0-.28,0-.71,0-1.26,0-1.11,0-2.76-.08-4.89l0,0-40.57,0,.09-.09c0,2,0,4.12-.06,6.26v0h0c-1.68,3.53-3.41,7.21-5.22,11v6.73l-.1-.1,14.72-.21,7-.11,3.36,0,1.65,0,1.63,0,22.49.38-.07.07v-6.74l-3.57-7.87c-.41-.91-.72-1.6-.93-2.08-.1-.23-.18-.41-.24-.53Z"/><rect class="cls-4" x="57.13" y="116.56" width="50.37" height="6.41"/><path class="cls-5" d="M61.79,67.05l-.14.12A37.94,37.94,0,0,0,49.23,95.6h0L61.77,93Z"/><rect class="cls-3" x="61.72" y="65.81" width="41.55" height="28.8"/><path class="cls-5" d="M82.46,1c-3.25,0-9.23,9.22-14.79,24.65-.38,1.05-.73,2-1.06,2.89v.95H98.12v-.85c-.28-1-.58-2.05-.9-3C92,10.16,85.71,1,82.46,1"/><path class="cls-1" d="M82.46,1h.16a1.85,1.85,0,0,1,.46.08A4.7,4.7,0,0,1,84.64,2a21.64,21.64,0,0,1,4.29,5.18,68.45,68.45,0,0,1,4.78,9.14c.79,1.81,1.57,3.76,2.34,5.82.38,1,.75,2.08,1.13,3.17s.68,2.22,1,3.36v1H66.52V28.5h0c.82-2.22,1.59-4.38,2.39-6.42s1.6-4,2.4-5.77a75.65,75.65,0,0,1,4.76-9.1A21.56,21.56,0,0,1,80.29,2a4.78,4.78,0,0,1,1.55-.89A1.77,1.77,0,0,1,82.3,1h.15l-.15,0a1.8,1.8,0,0,0-.45.09,4.63,4.63,0,0,0-1.52.91,22.43,22.43,0,0,0-4.17,5.23,76.33,76.33,0,0,0-4.71,9.12q-1.2,2.7-2.39,5.76c-.79,2-1.56,4.2-2.38,6.43v.9l-.09-.09h31.5l-.09.09v-.83c-.35-1.13-.66-2.27-1-3.35s-.74-2.14-1.14-3.17c-.76-2.06-1.51-4-2.32-5.81A68.38,68.38,0,0,0,88.83,7.2,21.61,21.61,0,0,0,84.6,2a5.2,5.2,0,0,0-1.53-.89A3.58,3.58,0,0,0,82.62,1Z"/><path class="cls-5" d="M103.27,66.36l.14.12a38.92,38.92,0,0,1,12.74,29.17h0L103.29,93Z"/><path class="cls-3" d="M61.94,61.93s-.18-10.61.43-15.37S64.8,33.29,64.8,33.29h35.56a79.6,79.6,0,0,1,2.4,15.81c.32,8.21.31,13,.31,13Z"/><path class="cls-1" d="M61.94,61.93H73.47l29.6,0-.09.09c-.17-8,0-16.94-2.06-26-.2-.93-.41-1.85-.65-2.75l.09.07H64.8l.07-.1C64,37.56,63.2,41.48,62.66,45c-.14.87-.26,1.71-.34,2.54s-.13,1.6-.18,2.36C62.06,51.38,62,52.78,62,54c-.06,2.52-.06,4.49-.06,5.84v1.54c0-.35,0-.86,0-1.52,0-1.34,0-3.31,0-5.83,0-1.26.06-2.65.14-4.17,0-.76.09-1.55.16-2.37s.2-1.67.33-2.54c.54-3.5,1.3-7.42,2.19-11.7v-.07h.06l35.56,0h.08l0,.08c.24.9.45,1.82.66,2.76a77.66,77.66,0,0,1,1.75,13.42c.16,4.37.28,8.59.29,12.62v.09h-.09L73.39,62l-8.46,0-2.25,0h-.57Z"/><path class="cls-1" d="M84.13,78c0,1-.73,1.81-2.34,1.81a3.83,3.83,0,0,1-2.13-.61l.5-1a2.66,2.66,0,0,0,1.61.51c.65,0,1.06-.26,1.06-.72s-.32-.7-1.06-.7h-.6v-.86l1.16-1.31h-2.4V74h3.95v.85l-1.27,1.45A1.62,1.62,0,0,1,84.13,78Z"/><path class="cls-1" d="M84.79,52.65v1.06H80.53v-.85l2.17-2c.5-.47.59-.76.59-1,0-.44-.31-.7-.9-.7a1.43,1.43,0,0,0-1.17.56l-1-.61a2.6,2.6,0,0,1,2.24-1c1.25,0,2.09.64,2.09,1.66a2.27,2.27,0,0,1-.94,1.78l-1.3,1.23Z"/><path class="cls-1" d="M84.84,111h-.92v1.18H82.65V111h-3v-.88l2.65-3.57h1.37L81.18,110h1.51v-1.06h1.23V110h.92Z"/><path class="cls-1" d="M82.75,16.54v5.63H81.44V17.58H80.31v-1Z"/><path class="cls-4" d="M100.8,35h-1l-2.86,0L87,35.1l.08,0-3.52,6.33c-.2.35-.38.71-.58,1l0,0h-.06l-14.09,0-4.23,0-1.14,0h0l1.14,0,4.23,0,14.09,0-.08,0,.58-1L86.9,35l0,0H87l9.93,0,2.86,0h.76Z"/><rect class="cls-4" x="66.61" y="47.66" width="5.62" height="3.03"/><polygon class="cls-6" points="71.58 66.36 75.74 83.29 84.43 83.44 88.25 94.56 84.96 94.61 82.03 84.13 74.53 84.13 71.58 66.36"/><path class="cls-4" d="M71.49,65.81a.36.36,0,0,1,0,.1l.06.27c.05.25.11.61.19,1.06l.68,3.9C73,74.45,73.76,79,74.61,84v.08l-.1-.08h7.58v.06c.85,3.09,1.57,5.71,2.08,7.58.25.92.44,1.65.58,2.17l.15.57c0,.06,0,.13,0,.2a.62.62,0,0,1-.07-.19c0-.15-.1-.33-.17-.57-.16-.52-.36-1.24-.63-2.15-.53-1.86-1.27-4.47-2.15-7.55l.09.06H74.43v-.16c-.83-5-1.57-9.58-2.11-12.9l-.62-3.91c-.07-.45-.12-.81-.16-1.06s0-.21,0-.28A.3.3,0,0,1,71.49,65.81Z"/><path class="cls-4" d="M103.28,80.21a.71.71,0,0,1-.25,0h-.71l-2.63,0-8.77,0h-.1V79.18c0-3.69,0-7,0-9.48,0-1.2,0-2.17,0-2.87v-.78a1.23,1.23,0,0,1,0-.27,2.45,2.45,0,0,1,0,.27c0,.2,0,.45,0,.78,0,.7,0,1.67,0,2.87,0,2.43,0,5.77,0,9.48v1l-.1-.1,8.77,0,2.63,0H103A.86.86,0,0,1,103.28,80.21Z"/><path class="cls-4" d="M102.15,42.41h-.47l-1.35,0-4.83,0,.08-.08c0,2.49,0,5.53,0,8.81v7.92L95.52,59l5.47,0,1.51,0h.41a.33.33,0,0,1,.14,0h-.55l-1.51,0-5.47,0h-.09V42.25h.09l4.83,0,1.34,0H102A.52.52,0,0,1,102.15,42.41Z"/><g class="cls-7"><path d="M103.28,94.56c-13.08-3.63-27-2.3-41.25,0Z"/></g><g class="cls-7"><path d="M103.07,62c-17.15-2.9-27-2.41-41.2-.1Z"/></g><g class="cls-7"><path d="M98.12,29.49c-15-2.9-19.08-2.31-31.51,0Z"/></g><rect class="cls-5" x="96.06" y="83.46" width="1.32" height="5.68"/><path class="cls-1" d="M57.36,116.17s11.28-.08,25.2,0,25.21.08,25.21.14-11.28.08-25.21,0S57.36,116.23,57.36,116.17Z"/><path class="cls-1" d="M103,105.5c0,.06-9.1.1-20.35.1s-20.35,0-20.35-.1,9.1-.09,20.35-.09S103,105.45,103,105.5Z"/><path class="cls-1" d="M103,103.74c0,.06-9.1.1-20.35.1s-20.35,0-20.35-.1,9.1-.09,20.35-.09S103,103.69,103,103.74Z"/><path class="cls-1" d="M103,102c0,.05-9.1.09-20.35.09s-20.35,0-20.35-.09,9.1-.1,20.35-.1S103,101.93,103,102Z"/><path class="cls-1" d="M103,100.23s-9.1.09-20.35.09-20.35,0-20.35-.09,9.1-.1,20.35-.1S103,100.17,103,100.23Z"/><path class="cls-1" d="M107.77,120c0,.05-11.37.1-25.4.1S57,120,57,120s11.38-.1,25.41-.1S107.77,119.9,107.77,120Z"/><path class="cls-1" d="M107.77,118.21c0,.06-11.37.11-25.4.11s-25.41,0-25.41-.11,11.38-.09,25.41-.09S107.77,118.15,107.77,118.21Z"/><path class="cls-8" d="M59.94,70.89a1.43,1.43,0,0,1-.14.2l-.41.55q-.28.36-.66.87c-.25.35-.55.74-.84,1.18-.62.88-1.3,2-2,3.19A42.47,42.47,0,0,0,53.81,81c-.67,1.49-1.2,3-1.65,4.3-.22.68-.42,1.32-.59,1.93s-.31,1.17-.44,1.69-.23,1-.32,1.41-.16.78-.22,1.08-.1.5-.13.67a2.1,2.1,0,0,1-.06.24,1,1,0,0,1,0-.24c0-.18.07-.41.1-.69s.11-.66.19-1.08.16-.9.29-1.42.25-1.1.43-1.71.35-1.26.56-1.94a44.16,44.16,0,0,1,1.65-4.32c.63-1.41,1.33-2.79,2.09-4.12s1.42-2.31,2.05-3.18c.31-.44.61-.82.87-1.16s.49-.63.68-.86l.45-.52A1,1,0,0,1,59.94,70.89Z"/><path class="cls-8" d="M82,3.14a4.67,4.67,0,0,0-1,.43A6.77,6.77,0,0,0,78.9,5.75c-1.36,2.19-3.09,5.31-4.83,8.86S71,21.44,70,23.86c-.48,1.2-.85,2.18-1.1,2.85l-.29.79a1.23,1.23,0,0,1-.12.26c0-.09,0-.18.08-.28l.26-.79c.23-.68.58-1.67,1-2.88.92-2.43,2.28-5.74,4-9.29a96.45,96.45,0,0,1,4.89-8.85A6.68,6.68,0,0,1,80.94,3.5a3.73,3.73,0,0,1,.78-.31A1.35,1.35,0,0,1,82,3.14Z"/><path class="cls-8" d="M63,60.27A1.13,1.13,0,0,1,63,60v-.76c0-.64.05-1.58.1-2.73.12-2.3.38-5.49.84-9s1-6.63,1.55-8.88c.24-1.14.45-2,.62-2.66.07-.3.14-.53.18-.72a2.25,2.25,0,0,1,.08-.24,1.09,1.09,0,0,1,0,.25l-.15.73c-.14.63-.33,1.54-.56,2.65-.45,2.28-1,5.4-1.49,8.89s-.75,6.66-.89,9c-.07,1.14-.13,2.08-.16,2.73,0,.3,0,.55-.05.74A.67.67,0,0,1,63,60.27Z"/><path class="cls-8" d="M63.29,90.16s-.1-4.87-.1-10.88.05-10.88.1-10.88.1,4.87.1,10.88S63.35,90.16,63.29,90.16Z"/><g class="cls-7"><path d="M61.77,92.31s.38-17,0-25.26c-1.52,4-3.18,8.54-3.51,12.83A19.25,19.25,0,0,0,61.77,92.31Z"/></g><path class="cls-1" d="M61.92,94.61h3l8.49,0,29.83,0-.09.09V65.84l.1.1h-.22L61.74,65.7l.08-.08c0,8.82,0,16.07,0,21.12,0,2.52,0,4.5,0,5.85v0c0-1.35,0-3.33,0-5.85,0-5,0-12.3,0-21.12v-.11h.08l41.33.21h.31v29h-.09l-29.83,0-8.49,0H62.18Z"/><path class="cls-1" d="M107.77,121.72s-11.37.1-25.4.1-25.41,0-25.41-.1,11.38-.1,25.41-.1S107.77,121.66,107.77,121.72Z"/></g><g id="freepik--Character--inject-20"><path class="cls-9" d="M10.82,73.9V85.33c0,1.94,2.33,5.42,5.41,5.28h.25c2.65-.31,1.13-3.47,1.13-5.3V83.64a3.46,3.46,0,0,0,3.12-3.15c.11-1.39.08-4.27,0-6.88a5.37,5.37,0,0,0-5-5.26h-.28C12.43,68.35,10.75,70.9,10.82,73.9Z"/><path class="cls-10" d="M17.62,83.66a7,7,0,0,1-3.69-1.34,3.62,3.62,0,0,0,3.68,2.08Z"/><path class="cls-1" d="M15.87,74.87c-.06.06-.38-.21-.88-.21s-.84.23-.89.17,0-.14.19-.25a1.21,1.21,0,0,1,.71-.21,1.23,1.23,0,0,1,.7.24C15.84,74.73,15.89,74.84,15.87,74.87Z"/><path class="cls-1" d="M15.93,76.21a.38.38,0,0,1-.38.38h0a.38.38,0,0,1,0-.76h0A.38.38,0,0,1,15.93,76.21Z"/><path class="cls-1" d="M17.09,78.2a3.63,3.63,0,0,1,.73-.08c.12,0,.23,0,.25-.1a.54.54,0,0,0-.06-.33l-.28-.89a15,15,0,0,1-.61-2.3,16.26,16.26,0,0,1,.8,2.25l.26.88a.69.69,0,0,1,0,.45.24.24,0,0,1-.19.15h-.19A2.3,2.3,0,0,1,17.09,78.2Z"/><path class="cls-1" d="M15.64,73.3c-.05.11-.43,0-.89.06s-.84.14-.9,0,.05-.15.2-.25a1.62,1.62,0,0,1,.68-.2,1.45,1.45,0,0,1,.68.13C15.58,73.16,15.66,73.25,15.64,73.3Z"/><path class="cls-1" d="M20.23,73.7c-.05.09-.43,0-.89,0s-.83,0-.88,0,.05-.12.21-.19a1.69,1.69,0,0,1,1.34,0C20.17,73.58,20.24,73.66,20.23,73.7Z"/><path class="cls-9" d="M10.92,76.05s-1.94-.71-2,1.27a1.48,1.48,0,0,0,1.94,1.56S10.92,76.05,10.92,76.05Z"/><path class="cls-10" d="M10.27,78.12l-.1,0a.36.36,0,0,1-.25,0,.86.86,0,0,1-.38-.76,1.17,1.17,0,0,1,.11-.49.36.36,0,0,1,.27-.25.17.17,0,0,1,.2.09.14.14,0,0,1,0,.1s0,0,0-.11a.33.33,0,0,0-.07-.13.27.27,0,0,0-.19-.05.46.46,0,0,0-.38.29,1.18,1.18,0,0,0-.14.55.89.89,0,0,0,.52.85.37.37,0,0,0,.31-.05C10.27,78.17,10.29,78.12,10.27,78.12Z"/><path class="cls-1" d="M8.27,72.89A9.38,9.38,0,0,0,9,70.58a2.6,2.6,0,0,1,1.4-1.87h0a2.09,2.09,0,0,1,2.09.17,2.68,2.68,0,0,1,2-2.12A6.57,6.57,0,0,1,18,67a7.12,7.12,0,0,1,2.35,1.78,9.07,9.07,0,0,1,1,1.21l.9,2.68-.73,1.41c0,.1-.09.19-.14.29h0l-.63,3c-.06-.81,0-3.62-.08-4.43a4.5,4.5,0,0,1-3.23-1.45c-.46-.49-.81-1.1-1.4-1.38a3.27,3.27,0,0,0-2.48.2l0,0a3.6,3.6,0,0,0-1.11.82,11.12,11.12,0,0,1-.43,4.76c-.07.22-.27.7-.5.79-.44.18-.56-.27-.83-.51a1.17,1.17,0,0,0-.81-.19,16.22,16.22,0,0,1-.56-2,1.8,1.8,0,0,1-.83.07l.25-.61a1,1,0,0,1-.36.16.31.31,0,0,1-.33-.14C8.08,73.21,8.18,73,8.27,72.89Z"/><path class="cls-11" d="M13.38,69.21a2.37,2.37,0,0,0-.28.27,1.91,1.91,0,0,0-.43,1,3.61,3.61,0,0,0-.07.73c0,.27,0,.55.05.85a7.38,7.38,0,0,1,0,.94,2.07,2.07,0,0,1-.06.5,1.09,1.09,0,0,1-.19.49.48.48,0,0,1-.41.14.66.66,0,0,1-.37-.21,1.47,1.47,0,0,1-.29-.73h.06a2.27,2.27,0,0,1-.34.61.84.84,0,0,1-.56.31.53.53,0,0,1-.3,0,.52.52,0,0,1-.2-.19.59.59,0,0,1-.07-.25.37.37,0,0,1,.1-.23l0,0a1.68,1.68,0,0,1-.81.55H9.2l.07,0s.1-.05.18-.09a2.12,2.12,0,0,0,.6-.47l0,0a.38.38,0,0,0,0,.43.42.42,0,0,0,.18.17.43.43,0,0,0,.27,0,.83.83,0,0,0,.52-.29,2.49,2.49,0,0,0,.33-.6l0-.09v.1a1.51,1.51,0,0,0,.27.7A.67.67,0,0,0,12,74a.4.4,0,0,0,.34-.12,1,1,0,0,0,.18-.46,2,2,0,0,0,.06-.49,7.23,7.23,0,0,0,0-.93c0-.3,0-.58,0-.85a4.18,4.18,0,0,1,.09-.71,2,2,0,0,1,.46-1A1.25,1.25,0,0,1,13.38,69.21Z"/><path class="cls-11" d="M22.31,71.9l0,0-.07,0-.12.08-.18.09a2.56,2.56,0,0,1-1.22.24A3.34,3.34,0,0,1,19,71.77a5.5,5.5,0,0,1-1.51-1.71c-.22-.34-.38-.7-.59-1a4,4,0,0,0-.64-.88,1.93,1.93,0,0,0-.84-.49,1.26,1.26,0,0,0-.43,0,1.23,1.23,0,0,0-.38.08,1.67,1.67,0,0,0-.92.79,2.16,2.16,0,0,0-.14.43,0,0,0,0,1,0,0v-.09a1.19,1.19,0,0,1,.1-.32,1.43,1.43,0,0,1,.32-.44,1.65,1.65,0,0,1,.6-.38,1.58,1.58,0,0,1,.42-.09,1.38,1.38,0,0,1,.45,0,2.13,2.13,0,0,1,.87.51,3.82,3.82,0,0,1,.66.88c.2.33.38.68.58,1A5.59,5.59,0,0,0,19,71.71a3.22,3.22,0,0,0,1.71.63,2.43,2.43,0,0,0,1.61-.44Z"/><path class="cls-1" d="M20.26,75c-.06.06-.38-.21-.88-.21s-.83.23-.88.17,0-.14.18-.25a1.22,1.22,0,0,1,.72-.21,1.17,1.17,0,0,1,.69.25C20.24,74.86,20.29,75,20.26,75Z"/><path class="cls-1" d="M19.82,76.21a.38.38,0,1,1-.75,0,.37.37,0,0,1,.37-.38h0A.37.37,0,0,1,19.82,76.21Z"/><path class="cls-1" d="M21.18,69.68a1.25,1.25,0,0,0,1,.58,2.23,2.23,0,0,0,.44-.13c.14.09.1.57,0,.7a1.82,1.82,0,0,1-.31.31,1.59,1.59,0,0,0,1.41,0,2.45,2.45,0,0,1-1.47,2,.85.85,0,0,1-.79,0,1,1,0,0,1-.35-.62,10.77,10.77,0,0,1-.35-2.65Z"/><path class="cls-1" d="M17.11,79.44s-.08.09-.26.11a1.06,1.06,0,0,1-1.14-.67c-.06-.16-.05-.28,0-.28a1.85,1.85,0,0,0,.58.65A2.28,2.28,0,0,0,17.11,79.44Z"/><polygon class="cls-9" points="32.12 107.54 19.9 107.81 19.68 103.73 34.41 104.94 32.12 107.54"/><path class="cls-11" d="M41.38,94.65l.14.3-4.93,9.41-4.77,2.31-10-.45v-.61l4.52-2.33,7.32.18,3.93-7.78a.69.69,0,0,1,.5-.38Z"/><path class="cls-1" d="M31.81,106.67a2.27,2.27,0,0,0,.3-.46c.18-.3.41-.71.66-1.16s.47-.87.62-1.17a2,2,0,0,0,.23-.5,2.27,2.27,0,0,0-.3.46c-.17.29-.41.7-.66,1.16s-.47.86-.62,1.17A2.27,2.27,0,0,0,31.81,106.67Z"/><polygon class="cls-1" points="30.75 105.66 25.88 105.5 29.55 103.59 33.49 103.68 30.75 105.66"/><path class="cls-1" d="M21.76,105.59h.41l1.11,0,3.66.15c1.42.07,2.72.11,3.66.12h1.11l-1.11,0c-.93,0-2.23-.08-3.66-.15s-2.72-.1-3.66-.11H21.87C21.8,105.58,21.76,105.58,21.76,105.59Z"/><path class="cls-9" d="M36.55,102.69c-.13-.16-.7-.5-1.14.92,0,0-.2-.2-.6.32a11.42,11.42,0,0,0-1,1.75l-1.14.55-.9.44s.24.91.31.87,1.3-.11,1.3-.11l.34-.16s.83,0,.88-.22,1.42-1.17,1.42-1.37v-1.31S36.69,102.85,36.55,102.69Z"/><path class="cls-10" d="M35.32,103.59h.06a.13.13,0,0,1,.07.13h0c-.05.17-.11.42-.18.74s-.14.69-.26,1.07a2,2,0,0,1-.38.68l-.41.54a3,3,0,0,0-.35.5,4.47,4.47,0,0,0,.42-.45l.43-.52A2.43,2.43,0,0,0,35,106a1.44,1.44,0,0,0,.18-.4,9.94,9.94,0,0,0,.25-1.08c0-.28.1-.53.13-.74h0a.15.15,0,0,0-.12-.16C35.34,103.57,35.32,103.58,35.32,103.59Z"/><path class="cls-10" d="M35.52,106.23a4.7,4.7,0,0,0,.33-.91,3.84,3.84,0,0,0,.21-.95A7.62,7.62,0,0,0,35.52,106.23Z"/><path class="cls-11" d="M14.44,157.61l-1.68,5.84s5.35,3.68,5.14,4.78L6.48,165.37l2.25-9.21Z"/><path class="cls-4" d="M9.32,162.07a.46.46,0,0,0,0,.91.51.51,0,0,0,.48-.48.47.47,0,0,0-.51-.43"/><g class="cls-12"><path class="cls-8" d="M6.48,165.37l.26-.92,10.87,3.09s.45.35.31.69Z"/></g><path class="cls-1" d="M12.92,163.44c0,.05-.3,0-.62.12s-.52.31-.57.27.12-.34.51-.46S13,163.39,12.92,163.44Z"/><path class="cls-1" d="M14,164.23c0,.06-.27.09-.52.28s-.38.43-.42.41,0-.34.3-.57S14,164.18,14,164.23Z"/><path class="cls-1" d="M14.34,165.84c-.06,0-.06-.3.16-.57s.51-.33.52-.28-.19.18-.38.41S14.39,165.85,14.34,165.84Z"/><path class="cls-1" d="M13.18,162.06c0,.05-.28-.1-.6-.15s-.59,0-.61-.08.27-.19.65-.12S13.22,162,13.18,162.06Z"/><path class="cls-11" d="M10.41,159l-.26,6.07s6.06,2.31,6.14,3.43L4.5,168.39l0-9.48Z"/><path class="cls-4" d="M6.51,164.52a.47.47,0,0,0-.34.54.46.46,0,0,0,.54.34.5.5,0,0,0,.35-.58.48.48,0,0,0-.6-.29"/><g class="cls-12"><path class="cls-8" d="M4.5,168.4l0-1,11.29.44s.52.23.46.6Z"/></g><path class="cls-1" d="M10.34,165c0,.06-.29.08-.58.26s-.43.42-.48.4,0-.35.37-.57S10.35,165,10.34,165Z"/><path class="cls-1" d="M11.57,165.52s-.24.15-.43.38-.26.5-.31.49-.09-.33.16-.62S11.57,165.46,11.57,165.52Z"/><path class="cls-1" d="M12.26,167s-.13-.27,0-.59.42-.43.44-.38-.14.22-.27.48S12.32,167,12.26,167Z"/><path class="cls-1" d="M10.25,163.61s-.29,0-.62,0-.58.12-.6.07.21-.26.59-.27S10.27,163.56,10.25,163.61Z"/><path class="cls-1" d="M10.4,163.54a8.9,8.9,0,0,1,0,1.46l-.05-.07c.69.26,1.61.61,2.58,1.07a14.12,14.12,0,0,1,2.65,1.5,3.13,3.13,0,0,1,.65.66c.12.19.1.34.08.33a.76.76,0,0,0-.15-.28,2.9,2.9,0,0,0-.67-.59,16.17,16.17,0,0,0-2.61-1.44c-1-.46-1.87-.83-2.55-1.11l-.05,0v0A10.13,10.13,0,0,1,10.4,163.54Z"/><path class="cls-1" d="M3.86,118.37v4.36l1.17,17S4.3,148,3.86,152.61a81,81,0,0,0,.24,11.07h6.83l2.43-23.48,1.52-14.63,2.63-6.66Z"/><polygon class="cls-1" points="22.17 119.14 20.51 142.83 13.61 160.57 13.29 161.64 9.22 160.66 12.25 118.66 22.17 119.14"/><path class="cls-11" d="M15.69,125.76v.39c0,.26,0,.63,0,1.11,0,1-.11,2.36-.23,4.08-.25,3.45-.72,8.21-1.44,13.44s-1.52,10-2.08,13.38c-.3,1.7-.54,3.08-.7,4-.09.48-.15.85-.2,1.1s0,.22-.05.29a.19.19,0,0,1,0,.1v-.1a2.53,2.53,0,0,1,.05-.29c0-.26.09-.63.16-1.1.16-1,.38-2.35.65-4,.55-3.42,1.32-8.15,2-13.39s1.21-10,1.49-13.42c.13-1.72.23-3.12.28-4.08,0-.48.06-.85.08-1.11v-.29Z"/><path class="cls-11" d="M15.29,119.83a.36.36,0,0,1-.32.39.35.35,0,0,1-.38-.32v-.07a.36.36,0,0,1,.38-.32A.36.36,0,0,1,15.29,119.83Z"/><path class="cls-5" d="M2.83,120.64s.79-6,.87-6.65,1.41-9.34,1.41-9.34L3.87,88.21A58.77,58.77,0,0,1,9.72,84l.75-2.09L16.6,86.5,17.42,89l.28-4.12L19,86.36l.11,2.51L20,90.16l.92,5.73a17.85,17.85,0,0,1,.23,2.42l.19,7.24,1.44,16.16L18,123.23a10.48,10.48,0,0,1-5.36.23c-2.57-.56-6.11-1.31-6.75-1.36a2.89,2.89,0,0,0-2,1A3.41,3.41,0,0,1,2.83,120.64Z"/><path class="cls-1" d="M9.89,83.85a1.44,1.44,0,0,0,.23.32c.15.18.38.46.68.78.58.66,1.44,1.52,2.37,2.49.46.48.89.94,1.26,1.37l0,.06,0-.05c.63-.62,1.08-1.22,1.43-1.62l.42-.46a1.07,1.07,0,0,0,.14-.16l-.17.14c-.11.1-.25.24-.43.44-.38.38-.84,1-1.46,1.57h.09c-.38-.44-.8-.91-1.26-1.39-.93-1-1.79-1.82-2.4-2.45l-.71-.76A2.47,2.47,0,0,0,9.89,83.85Z"/><path class="cls-1" d="M19.48,113.77v-.25c0-.18,0-.42,0-.73,0-.64-.1-1.54-.17-2.65-.16-2.25-.38-5.34-.66-8.76s-.53-6.52-.75-8.76c-.11-1.11-.22-2-.29-2.65,0-.3-.07-.54-.1-.72a.34.34,0,0,0,0-.18s0-.07,0-.07v.26a7,7,0,0,0,.08.72c.06.63.14,1.54.24,2.65.2,2.24.45,5.33.72,8.75s.52,6.51.7,8.76c.09,1.11.16,2,.21,2.66,0,.3.05.54.07.72v.19A.09.09,0,0,0,19.48,113.77Z"/><g class="cls-7"><path d="M21.44,107.09c-.65.32-1.38.44-2,.76a7.94,7.94,0,0,0-1.23.93,15.42,15.42,0,0,1-9.61,4,4.88,4.88,0,0,1-3.42-1A1.82,1.82,0,0,1,4.51,110c.24-.78,1.14-1.14,1.9-1.37l7.27-2.28a32.73,32.73,0,0,1,4.65-1.2,16.59,16.59,0,0,1,3.22-.2"/></g><path class="cls-1" d="M13.37,117.23s1.77-.91,3.92-2.11,3.87-2.2,3.85-2.24-1.77.92-3.92,2.12S13.35,117.2,13.37,117.23Z"/><path class="cls-1" d="M18.93,122.92a1.93,1.93,0,0,0,0-.34c0-.25,0-.56-.05-.93,0-.79,0-1.87,0-3.07s0-2.28,0-3.08v-.93a2.06,2.06,0,0,0,0-.35,2.07,2.07,0,0,0,0,.35c0,.25,0,.56,0,.93,0,.79-.05,1.89-.06,3.08s0,2.27.07,3.07c0,.38.06.72.09.94A1.28,1.28,0,0,0,18.93,122.92Z"/><g class="cls-7"><path d="M9.92,103.73a27.88,27.88,0,0,1-.49-7.47c-.43,1.66-.92,4.2-1.27,5.94l.68,1.67Z"/></g><g class="cls-7"><path d="M17.42,89s.22.21,0,0a7.73,7.73,0,0,1-.88-1.24,20,20,0,0,0-1.85,2C13.85,88.85,13,88,12.23,87a20.37,20.37,0,0,1-1.67-2.42l3.93,4.2,2.12-2.28Z"/></g><path class="cls-9" d="M18.89,102.29l-.18,3.25a60.24,60.24,0,0,1-8,3.06A21.5,21.5,0,0,1,4,109l1.25-5Z"/><path class="cls-9" d="M28.21,103a.69.69,0,0,0-.35-.67c-.42-.25-1.3-.83-1.3-.83l-2.65-.24-5,1.06-.18,3.25s2.55.14,3.15.12a14.36,14.36,0,0,0,2.24-.55,17.77,17.77,0,0,0,2.9.2c.13-.15.31-.33.13-.44s-2.31-.66-2.31-.66l1.43-.11a20.2,20.2,0,0,0,2.25.38c.15-.06.35-.33.22-.53l-.14-.2a.44.44,0,0,0-.22-.55l-.19-.07Z"/><path class="cls-10" d="M24.42,102.93a1.73,1.73,0,0,0,.64.12,6.38,6.38,0,0,1,1.51.13c.27.1.53.21.79.33a5.21,5.21,0,0,0,.66.24,2,2,0,0,0,.63.13,6.08,6.08,0,0,0-.6-.21c-.19-.07-.41-.15-.65-.26a5.58,5.58,0,0,0-.79-.35,3.12,3.12,0,0,0-.86-.11H25C24.68,103,24.42,102.91,24.42,102.93Z"/><path class="cls-10" d="M24.65,102.18a1.23,1.23,0,0,0,.57.07,3.05,3.05,0,0,1,1.34.18l1.28.54a2,2,0,0,0,.54.19,2.49,2.49,0,0,0-.51-.27c-.32-.15-.75-.38-1.26-.57a2,2,0,0,0-.76-.18,4,4,0,0,0-.63,0C24.87,102.19,24.65,102.16,24.65,102.18Z"/><path class="cls-5" d="M3.87,88.21A23.77,23.77,0,0,0,2,92.11c-.23,1-.73,12-.52,12.2a5.08,5.08,0,0,0,.57.47s-1.2.26-.83.89a10.9,10.9,0,0,0,.73,1.09,14.85,14.85,0,0,0,.88,2.81c.22,0,5.25.22,5.25.22A18.88,18.88,0,0,0,9,107c.29-1.13,1.21-3.86,1.21-3.86l-1.66-.68L9.7,94.19s.49-4.47-1.33-5.63S4.55,87,3.87,88.21Z"/><path class="cls-10" d="M18.71,105.55a1.06,1.06,0,0,0,.31,0l.83,0,1.24.06.73,0a2.32,2.32,0,0,0,.38-.06l.38-.1,1.52-.38h0l1.69.14.48,0a.48.48,0,0,0,.17,0,.47.47,0,0,0-.17,0l-.47-.06-1.68-.19h0l-1.52.38-.38.09a1.59,1.59,0,0,1-.38.07l-.73,0-1.24,0H18.71Z"/><path class="cls-1" d="M8.35,109.38a1.88,1.88,0,0,1,.1-.47c.09-.34.2-.76.34-1.26.3-1.05.72-2.51,1.2-4.12l.11-.38.06.12-1.56-.72.11,0c-.8.84-1.48,1.56-2,2.06l-.58.58a1.37,1.37,0,0,1-.22.2,1.08,1.08,0,0,1,.18-.24l.54-.62c.46-.52,1.13-1.25,1.91-2.11l0-.05.06,0,1.55.71.08,0,0,.09c0,.12-.07.25-.11.38-.48,1.6-.93,3.06-1.26,4.1-.16.49-.29.91-.4,1.24A2.75,2.75,0,0,1,8.35,109.38Z"/><path class="cls-1" d="M8.62,102.29A7.17,7.17,0,0,1,8.74,101c.1-.81.26-1.92.44-3.15s.38-2.34.51-3.14A9.21,9.21,0,0,1,10,93.4a7.17,7.17,0,0,1-.12,1.31c-.11.81-.26,1.92-.45,3.15S9,100.2,8.88,101l-.17,1A2.14,2.14,0,0,1,8.62,102.29Z"/><path class="cls-1" d="M4.58,87.79a.86.86,0,0,1,.29-.14,4.09,4.09,0,0,1,.85-.15,3.91,3.91,0,0,1,4.13,3.29,3.71,3.71,0,0,1,0,.88.81.81,0,0,1-.06.31,8.48,8.48,0,0,0-.11-1.13,3.94,3.94,0,0,0-4-3.22A8.93,8.93,0,0,0,4.58,87.79Z"/><path class="cls-1" d="M18.91,88.76a17.89,17.89,0,0,1-.71-2.4h.19l0,.14a12.08,12.08,0,0,1-.58,1.76,2.52,2.52,0,0,1-.34.7c-.05,0,.38-1.14.73-2.54l0-.13.1-.38.09.38A16,16,0,0,1,18.91,88.76Z"/></g></g></svg>