<svg xmlns="http://www.w3.org/2000/svg" viewBox="0 0 155.5 102.75"><defs><style>.cls-1{fill:#ffbe9d;}.cls-2{fill:#20c997;}.cls-3{fill:#263238;}.cls-4{opacity:0.3;}.cls-5{fill:#eb996e;}.cls-6{fill:#455a64;}.cls-7{fill:#fff;}.cls-8{fill:#e0e0e0;}.cls-9{fill:#f5f5f5;}</style></defs><title>Artboard 300</title><g id="class"><g id="freepik--Character--inject-68"><polygon class="cls-1" points="57.27 43.87 63.63 42.64 75.84 45.44 82.03 46.73 82.11 55.19 68.31 57.73 59 54.97 55.48 49.79 57.27 43.87"/><path class="cls-2" d="M52.75,44.71l6-1.42S63,56.43,73.48,55.86C82,55.39,82,46.73,82,46.73l6.24,1.1s2.62,15.86-.25,27c-2.39,9.25-4.51,21.94-4.51,21.94H42l10.72-52Z"/><path class="cls-2" d="M113.6,85.33s-17.11-30-20.19-33.82c-3.37-4.21-6.06-3.72-6.06-3.72L85.54,68l14.54,20.64,3.47,1.25Z"/><path class="cls-2" d="M53.46,44.54s-9.72.78-13.21,16.72c-1.58,7.21-3.58,15.66-4.14,21.33-.42,4.12,2.12,8.4,6.23,8.92l5.15,1a5.41,5.41,0,0,0,6.25-4l1.74-7.21-4.64-1.56,1.07-21.47Z"/><path class="cls-3" d="M89.06,59a.79.79,0,0,1,0,.22c0,.16.06.37.1.64s0,.3.07.47,0,.35,0,.55c0,.4.09.85.11,1.36a32.16,32.16,0,0,1,0,3.54A41.57,41.57,0,0,1,89,70.08c-.22,1.52-.5,3-.78,4.26s-.57,2.47-.81,3.45-.46,1.77-.6,2.31c-.07.26-.13.47-.17.63a1.72,1.72,0,0,1-.07.21.85.85,0,0,1,0-.22c0-.16.08-.37.14-.63l.55-2.34c.23-1,.51-2.15.78-3.45s.55-2.74.77-4.26a41.83,41.83,0,0,0,.44-4.3,29.56,29.56,0,0,0,0-3.53c0-.5,0-1-.08-1.35,0-.2,0-.39,0-.56s0-.32-.06-.47,0-.48-.07-.64S89.06,59.05,89.06,59Z"/><path class="cls-3" d="M55.93,82a.5.5,0,0,1,0-.13l-.12-.38-.19-.62a1.9,1.9,0,0,0-.35-.78,2.4,2.4,0,0,0-.89-.54,7.39,7.39,0,0,0-1.22-.35,17.49,17.49,0,0,0-3-.29h-.08v-.08l.87-5.73c.57-3.6,1.08-6.86,1.46-9.25.19-1.17.34-2.13.46-2.8,0-.32.09-.57.13-.76a.54.54,0,0,1,0-.2A.2.2,0,0,1,53,60a.08.08,0,0,1,0,.07.75.75,0,0,1,0,.2c0,.19-.06.45-.1.77l-.41,2.8c-.37,2.39-.86,5.65-1.41,9.26-.32,2.06-.62,4-.9,5.72l-.07-.08a17.9,17.9,0,0,1,3,.34,6.66,6.66,0,0,1,1.23.36,2.45,2.45,0,0,1,.92.6,1.14,1.14,0,0,1,.24.41l.11.4c.07.24.12.45.17.63s.08.29.1.39A.2.2,0,0,1,55.93,82Z"/><path class="cls-3" d="M42.54,84.42a1.35,1.35,0,0,1,.08-.4A6.55,6.55,0,0,1,43,83a7.15,7.15,0,0,1,5.71-4.15,5.89,5.89,0,0,1,1.11,0,1.92,1.92,0,0,1,.41,0c-.5,0-1,0-1.5.1A7.34,7.34,0,0,0,43.1,83,13.18,13.18,0,0,0,42.54,84.42Z"/><path class="cls-3" d="M44.79,76.48a.86.86,0,0,1,.23,0c.21,0,.43,0,.64,0a7.52,7.52,0,0,1,2.05.51,8,8,0,0,1,1.83,1.08c.16.14.32.28.47.43s.16.18.15.19-.26-.21-.69-.53a8.52,8.52,0,0,0-3.82-1.57A8.37,8.37,0,0,1,44.79,76.48Z"/><path class="cls-3" d="M54.85,55.86a2.07,2.07,0,0,1,0-.43c0-.28,0-.67,0-1.16A18.39,18.39,0,0,0,52.72,47c-.22-.43-.41-.78-.55-1a2.82,2.82,0,0,1-.21-.38,2.78,2.78,0,0,1,.26.34,10.68,10.68,0,0,1,.59,1,16.58,16.58,0,0,1,2.06,7.34,8.8,8.8,0,0,1,0,1.16A2.07,2.07,0,0,1,54.85,55.86Z"/><g class="cls-4"><path d="M88.62,72.35a15,15,0,0,0,.37-14,39,39,0,0,1-.44,14"/></g><g class="cls-4"><path d="M66.55,77.1a10.89,10.89,0,0,1-6.32,0,6.14,6.14,0,0,0,6.61,2.12,6.82,6.82,0,0,0,4.8-5.56A10.2,10.2,0,0,1,66.55,77.1Z"/></g><path class="cls-3" d="M73.48,70.32a1.09,1.09,0,0,1,0,.17,4.37,4.37,0,0,1-.16.46,9.62,9.62,0,0,1-.81,1.64,10.21,10.21,0,0,1-1.7,2.12,10.34,10.34,0,0,1-5.91,2.84,11.17,11.17,0,0,1-2.71,0,9.87,9.87,0,0,1-1.79-.4c-.21-.06-.36-.13-.47-.17l-.16-.06a4.64,4.64,0,0,1,.64.17,10.69,10.69,0,0,0,12.85-6.16A4.63,4.63,0,0,1,73.48,70.32Z"/><path class="cls-3" d="M52.5,91.23l-.07.08a2.43,2.43,0,0,1-.25.2,3.86,3.86,0,0,1-1,.55,5.78,5.78,0,0,1-1.7.29,14.55,14.55,0,0,1-2.09-.07c-1.49-.13-2.82-.35-3.78-.52-.48-.08-.87-.16-1.13-.22a1.6,1.6,0,0,1-.42-.1,3,3,0,0,1,.43,0l1.14.16c1,.15,2.29.35,3.78.47a16.16,16.16,0,0,0,2.09.09,5.88,5.88,0,0,0,1.66-.27A5.18,5.18,0,0,0,52.5,91.23Z"/><path class="cls-3" d="M86.23,12.65l1.22-1.19c1.64.71,2.39,2.61,2.67,4.37s.24,3.61,1,5.23c.57,1.25,1.61,2.39,1.49,3.77s-1.29,2.35-1.3,3.65,1,2.22,1.66,3.32c1.23,2.23,2,11.33,1.38,13.79-5.42-.47-15-1.05-20.46-2.29C75.31,33.94,81.33,20.74,86.23,12.65Z"/><path class="cls-1" d="M88.65,21A12.29,12.29,0,0,0,78,8.05,12,12,0,0,0,64.54,18.78l-1.6,26.86a2.37,2.37,0,0,0,.41,1.46,11,11,0,0,0,7,4.47,11.48,11.48,0,0,0,7.07-1.47,2.3,2.3,0,0,0,1.17-2l.11-6s0,0,0,0h0a7.87,7.87,0,0,0,1.68,0c1.59-.38,5.64-1.94,7-7.89A122.41,122.41,0,0,0,88.65,21Z"/><path class="cls-3" d="M79.82,29.77a8.13,8.13,0,0,1,1.75-.18c.27,0,.53,0,.59-.22a1.29,1.29,0,0,0-.13-.8l-.67-2.09a35.14,35.14,0,0,1-1.45-5.43,36.38,36.38,0,0,1,1.89,5.3c.22.73.43,1.43.64,2.09a1.55,1.55,0,0,1,.07,1,.66.66,0,0,1-.47.36,1.78,1.78,0,0,1-.46,0A6.42,6.42,0,0,1,79.82,29.77Z"/><path class="cls-3" d="M86.9,23.24c-.12.13-.82-.46-1.83-.49s-1.76.5-1.87.36.07-.3.4-.54a2.35,2.35,0,0,1,1.49-.46,2.42,2.42,0,0,1,1.45.56C86.86,22.94,87,23.18,86.9,23.24Z"/><path class="cls-3" d="M76.64,23.5c-.13.13-.87-.54-2-.64s-2,.41-2.07.26.1-.29.47-.54a2.75,2.75,0,0,1,1.66-.37,2.67,2.67,0,0,1,1.56.68C76.61,23.18,76.71,23.44,76.64,23.5Z"/><path class="cls-5" d="M78.69,42.08a17.25,17.25,0,0,1-9-3.34s1.27,5.43,9,5.26Z"/><path class="cls-5" d="M79.21,32.25a2,2,0,0,0-1.67-.81A1.72,1.72,0,0,0,76.3,32a1.06,1.06,0,0,0-.17,1.23,1.31,1.31,0,0,0,1.37.45A4,4,0,0,0,78.91,33a1.14,1.14,0,0,0,.32-.3.35.35,0,0,0,0-.39"/><path class="cls-3" d="M76.66,30.27c.17,0,.1,1.14,1,2s2.17.83,2.17,1-.3.2-.81.18a3,3,0,0,1-1.81-.76A2.47,2.47,0,0,1,76.45,31C76.43,30.54,76.58,30.27,76.66,30.27Z"/><path class="cls-3" d="M76.82,19.34c-.12.27-1.17.06-2.42.11s-2.29.3-2.44,0,.13-.38.56-.62a4.29,4.29,0,0,1,3.7-.12C76.65,19,76.86,19.2,76.82,19.34Z"/><path class="cls-3" d="M87.12,19.56c-.22.24-1.07,0-2.09,0s-1.89.17-2.09-.08,0-.36.42-.6a3.49,3.49,0,0,1,3.36.08C87.09,19.2,87.21,19.44,87.12,19.56Z"/><path class="cls-3" d="M78.91,6.71a3.55,3.55,0,0,0-2.74-1.55c-4.7-.71-10,2.12-12.59,6.08s-2.78,9.87-.85,14.22l2.94-1.84c5.89-2.43,10-8.1,13.84-14C80,8.85,79.4,7.53,78.91,6.71Z"/><path class="cls-3" d="M86.16,9.3c-2-2.24-3.4-4.48-7.48-2.92-.6,1.14.6,2.63,1.62,3.49,1.5,1.28,2.78,2.13,3.75,3,2,1.84,4.2,8,4.39,11.39a18,18,0,0,1,.6-2.93,3.68,3.68,0,0,0,1.23-3.24C89.74,11.8,88.13,11.53,86.16,9.3Z"/><path class="cls-6" d="M76.18,5.16a1.69,1.69,0,0,1,.92.08A3.94,3.94,0,0,1,79,6.46a3.77,3.77,0,0,1,.37.52,2.78,2.78,0,0,1,.21.57,6.15,6.15,0,0,1,.25,1,1.38,1.38,0,0,1-.09.92,8.47,8.47,0,0,0-.11-.88,7.6,7.6,0,0,0-.3-.92,2.28,2.28,0,0,0-.21-.51,2.9,2.9,0,0,0-.35-.49A4.38,4.38,0,0,0,77,5.42,8.52,8.52,0,0,1,76.18,5.16Z"/><path class="cls-3" d="M86,25.2a.89.89,0,0,1-.85.89.85.85,0,0,1-.93-.77v0a.9.9,0,0,1,.84-.92.85.85,0,0,1,.93.77Z"/><path class="cls-3" d="M76.13,25.24a.9.9,0,0,1-.84.92.86.86,0,0,1-.94-.77v0a.9.9,0,0,1,.85-.92.86.86,0,0,1,.93.77Z"/><path class="cls-3" d="M49.06,32.72a4.7,4.7,0,0,1,2.21-2.15,8.53,8.53,0,0,0,3-1.34c1.25-1.15,1.19-3.06,1.08-4.73s-.14-3.58,1.13-4.7c1.07-.94,2.77-1,3.7-2.09a5.8,5.8,0,0,0,1-2.61c.6-2.44,1.94-6.7,9.13-9.16L63.87,30.12a3.23,3.23,0,0,1,1.67,1.94c.06.69-.24,1.38-.25,2.07s.92,1.34,1.5,2a3.76,3.76,0,0,1,.84,3,21.23,21.23,0,0,1-1.14,4.22c-5.91-.6-14.52-.79-19-4.55C46.66,38.06,47.83,34.75,49.06,32.72Z"/><path class="cls-1" d="M65.68,23.62c-.11-.06-4.46-1.79-4.73,2.8s4.37,3.9,4.38,3.77S65.68,23.62,65.68,23.62Z"/><path class="cls-5" d="M64,28.37s-.08.06-.22.11a.83.83,0,0,1-.6,0,2,2,0,0,1-.8-1.83,2.63,2.63,0,0,1,.29-1.13,1,1,0,0,1,.64-.57.41.41,0,0,1,.46.25c0,.13,0,.22,0,.23s.1-.08.08-.27a.54.54,0,0,0-.17-.3.59.59,0,0,0-.43-.14,1.1,1.1,0,0,0-.87.66,2.78,2.78,0,0,0-.36,1.26,2.08,2.08,0,0,0,1,2,.82.82,0,0,0,.73-.08C64,28.48,64.06,28.38,64,28.37Z"/><path class="cls-6" d="M81.94,24.82a5.84,5.84,0,0,1,.15-1,4.17,4.17,0,0,1,5-3.07l.37.11a3.69,3.69,0,0,1,1.06.55,3.82,3.82,0,0,1,.89.86,4.13,4.13,0,0,1,.08,4.9,4.08,4.08,0,0,1-1.9,1.48,4.16,4.16,0,0,1-3.94-.52,4.25,4.25,0,0,1-1.58-2.26,8.87,8.87,0,0,1-.18-1v.28c0,.1,0,.21,0,.32a2.14,2.14,0,0,0,.08.44,4.2,4.2,0,0,0,1.57,2.34,4.28,4.28,0,0,0,6-6,3.93,3.93,0,0,0-.93-.89,3.67,3.67,0,0,0-1.08-.55A4.23,4.23,0,0,0,82,23.8a3.64,3.64,0,0,0-.07.44,1.83,1.83,0,0,0,0,.33v.2A.09.09,0,0,0,81.94,24.82Z"/><path class="cls-6" d="M70.4,25a7.09,7.09,0,0,1,.14-1A4.22,4.22,0,0,1,72,21.67a4.14,4.14,0,0,1,1.74-.8,4.16,4.16,0,0,1,3.24.7,3.87,3.87,0,0,1,.89.87A4.11,4.11,0,0,1,78,27.33a3.87,3.87,0,0,1-.86.9,3.66,3.66,0,0,1-1,.58,4.15,4.15,0,0,1-2.18.22,4.1,4.1,0,0,1-1.76-.74A4.2,4.2,0,0,1,70.58,26a7.27,7.27,0,0,1-.18-1v.27a1.66,1.66,0,0,0,0,.32,3.12,3.12,0,0,0,.09.44,4.18,4.18,0,0,0,1.56,2.34,4.4,4.4,0,0,0,1.8.78,4.32,4.32,0,0,0,4.22-1.74A4.26,4.26,0,0,0,78,22.35a4.35,4.35,0,0,0-2-1.47,4.45,4.45,0,0,0-2.26-.14A4.24,4.24,0,0,0,70.46,24a2.13,2.13,0,0,0-.07.44,1.84,1.84,0,0,0,0,.33v.2A.25.25,0,0,0,70.4,25Z"/><path class="cls-6" d="M78.64,24.69s.15-.18.42-.4a2,2,0,0,1,2.55-.05c.3.22.41.41.43.39a1,1,0,0,0-.36-.47,2,2,0,0,0-2.69.05A1.05,1.05,0,0,0,78.64,24.69Z"/><path class="cls-6" d="M64.63,23.33a3.48,3.48,0,0,0,.84.17c.53.09,1.26.17,2.07.24l2.07.18a4.91,4.91,0,0,0,.86.07,4.15,4.15,0,0,0-.85-.18c-.52-.08-1.26-.16-2.07-.23l-2.06-.18A5,5,0,0,0,64.63,23.33Z"/><path class="cls-7" d="M88.6,27.4A5.13,5.13,0,0,0,89.5,26a5.61,5.61,0,0,0,.26-1.68,1.1,1.1,0,0,1,.09.51,3.45,3.45,0,0,1-.2,1.23A3.4,3.4,0,0,1,89,27.08C88.78,27.31,88.62,27.42,88.6,27.4Z"/><path class="cls-7" d="M89.33,22.69s.19,0,.3.25.06.39,0,.38-.07-.15-.15-.31S89.3,22.72,89.33,22.69Z"/><path class="cls-7" d="M78.06,26.5s.06-.24.13-.63A4.2,4.2,0,0,0,77.64,23c-.2-.34-.36-.52-.34-.54a1.55,1.55,0,0,1,.44.48,3.81,3.81,0,0,1,.57,3A1.51,1.51,0,0,1,78.06,26.5Z"/><path class="cls-8" d="M62.19,30.13l-.15.25a1.57,1.57,0,0,0-.2.76,1.39,1.39,0,0,0,.42,1,1.51,1.51,0,0,0,1.29.42,1.53,1.53,0,0,0,1.07-.84,1.39,1.39,0,0,0,0-1.13,1.64,1.64,0,0,0-.44-.64c-.15-.12-.24-.17-.24-.19a.87.87,0,0,1,.27.14,1.57,1.57,0,0,1,.52.65,1.55,1.55,0,0,1,0,1.23,1.58,1.58,0,0,1-2.07.83,1.64,1.64,0,0,1-.53-.37,1.5,1.5,0,0,1-.43-1.14,1.52,1.52,0,0,1,.26-.79A.57.57,0,0,1,62.19,30.13Z"/><path class="cls-8" d="M87.41,33.65a1.29,1.29,0,0,0,.8.05,1.63,1.63,0,0,0,.73-.45,2,2,0,0,0,.47-.94,1.77,1.77,0,0,0-.12-1,1.9,1.9,0,0,0-.54-.68A2.79,2.79,0,0,0,88,30.2a.45.45,0,0,1,.23,0,1.53,1.53,0,0,1,.56.27,2,2,0,0,1,.6.71,1.84,1.84,0,0,1,.15,1.13,2.06,2.06,0,0,1-.53,1,1.61,1.61,0,0,1-.81.46,1.09,1.09,0,0,1-.62,0A.39.39,0,0,1,87.41,33.65Z"/><path class="cls-1" d="M70.85,93l4.43,1.31a32.75,32.75,0,0,0,3.63,1.32c1.47.33,2.48-.12,2.53-.94s-1.09-.93-1.09-.93a23.49,23.49,0,0,1-2.84-1.31,5.13,5.13,0,0,1-1.58-1.79l1.58.22s3.33,2.38,4.59,3.11,1.53-.55,1.63-.93S80,88.75,80,88.75s3.66,2.35,4.31,2.94,1.64.77,1.86.39.82-.38,0-2-7.37-6-7.37-6l1.8-.38,2,.87a4.91,4.91,0,0,0,.82,1.87c.71,1,2,0,2,0l-.78-4L80.7,80a42.94,42.94,0,0,0-4.63.76,4.24,4.24,0,0,0-1.26,1.42l-1.09.44c-1.7.49-1.64,2.18-2.19,2.24s-16.47-3.05-16.47-3.05l-1.44-.38c-2.39,1.81-3.34,4.81-3.76,7.47a2.94,2.94,0,0,0,0,2Z"/><path class="cls-5" d="M67.92,90.11a1.11,1.11,0,0,1,0-.26,1.53,1.53,0,0,1,0-.3,2.79,2.79,0,0,1,.07-.4,5.79,5.79,0,0,1,1.12-2.05,12.25,12.25,0,0,1,1.65-1.65,4.44,4.44,0,0,1,.77-.58,8.55,8.55,0,0,1-.7.65,14.75,14.75,0,0,0-1.6,1.66,6.15,6.15,0,0,0-1.13,2C68,89.74,68,90.11,67.92,90.11Z"/><path class="cls-5" d="M74.82,82.19a2.47,2.47,0,0,0-.33.23,3.68,3.68,0,0,0-.73.84,3.91,3.91,0,0,0-.36.67,3.47,3.47,0,0,0-.17.85,2.25,2.25,0,0,1-.36.94,4.53,4.53,0,0,0-.53.9,2.43,2.43,0,0,0,0,1.68l0,.06-.06,0a3.32,3.32,0,0,0-1.4,1.94,5.07,5.07,0,0,0-.14,1,1.07,1.07,0,0,1,0-.25,3.38,3.38,0,0,1,.08-.72,3.31,3.31,0,0,1,1.42-2l0,.09a2.51,2.51,0,0,1,0-1.79,3.46,3.46,0,0,1,.55-.92,2,2,0,0,0,.33-.9,2.89,2.89,0,0,1,.6-1.56,3.37,3.37,0,0,1,.78-.82,1.17,1.17,0,0,1,.27-.15Z"/><path class="cls-5" d="M78.66,84a2.41,2.41,0,0,1-2.09-.74s.43.28,1,.48S78.66,83.93,78.66,84Z"/><path class="cls-5" d="M79.68,88.39A11,11,0,0,1,78,87.75,10.45,10.45,0,0,1,76.39,87a11,11,0,0,1,1.68.64A11.42,11.42,0,0,1,79.68,88.39Z"/><path class="cls-5" d="M76.09,90.57a14.81,14.81,0,0,1-1.7-.7,2.18,2.18,0,0,1,.9.23A2,2,0,0,1,76.09,90.57Z"/><path class="cls-5" d="M79.13,88.67A2.17,2.17,0,0,0,78.07,90s0-.11,0-.27a1.42,1.42,0,0,1,.8-1C79,88.66,79.12,88.65,79.13,88.67Z"/><path class="cls-5" d="M80.73,86.25s-.28.19-.47.52a4.06,4.06,0,0,0-.25.66.79.79,0,0,1,.12-.74C80.35,86.31,80.72,86.21,80.73,86.25Z"/><path class="cls-5" d="M80.28,81.86s-.08-.07-.12-.21a1.22,1.22,0,0,1,0-.6,1.07,1.07,0,0,1,.3-.51c.11-.1.19-.14.2-.12a3.25,3.25,0,0,0-.34.67A3.29,3.29,0,0,0,80.28,81.86Z"/><path class="cls-9" d="M112.56,83.23a5.25,5.25,0,0,0-4.26-4.73c-4.06-.81-11.17,2.64-11.17,2.64L77.2,95l.59,1.72L98,93.93l1.85.71,14.21-9.33,13.41-9.7L126,74.45a53.7,53.7,0,0,1-6.24,3.7C117.27,79.26,113.68,81.22,112.56,83.23Z"/><path class="cls-6" d="M76.89,97.32,93.76,86.84,111.59,84A2.45,2.45,0,0,0,114,85h0L128.66,74.8l.28.61-28.44,20A2.43,2.43,0,0,1,98,94.91Z"/><path class="cls-3" d="M111.59,84a.53.53,0,0,1-.14.12l-.41.3c-.36.25-.88.63-1.5,1.1-1.26.94-3,2.28-4.84,3.8s-3.53,2.93-4.72,4l-1.43,1.23-.38.33-.14.1.12-.13.36-.35c.32-.3.79-.73,1.39-1.25,1.17-1.06,2.82-2.48,4.69-4s3.58-2.86,4.88-3.77c.63-.47,1.16-.83,1.53-1.07l.43-.27Z"/><path class="cls-8" d="M111.4,81.79a8,8,0,0,0-6.52-2.16,23.51,23.51,0,0,0-6.82,1.94L77.43,95.69l.19.53,20.74-14a54.26,54.26,0,0,1,6.69-1.75A10.94,10.94,0,0,1,111.4,81.79Z"/><path class="cls-8" d="M114.64,83.65,124.56,77S116.43,81.19,114.64,83.65Z"/><path class="cls-3" d="M77.43,95.69l.09-.07.25-.18,1-.7,3.66-2.53,12.09-8.3L98,81.52h0a25.06,25.06,0,0,1,6.27-1.89,9.49,9.49,0,0,1,5.15.73,6.46,6.46,0,0,1,1.64,1.1,4.71,4.71,0,0,1,.92,1.17,3.41,3.41,0,0,1,.36.86c0,.1,0,.18,0,.24s0,0,0,.08a5.24,5.24,0,0,0-.47-1.15,5.1,5.1,0,0,0-.93-1.14,6.35,6.35,0,0,0-1.64-1.07,9.37,9.37,0,0,0-5.07-.69,25.6,25.6,0,0,0-6.23,1.88h0L94.6,84,82.49,92.3l-3.68,2.49-1,.67-.27.18Z"/><path class="cls-3" d="M95.49,85a.83.83,0,0,1,.16-.09l.46-.25c.4-.21,1-.5,1.73-.83a22.56,22.56,0,0,1,6-1.86,13.21,13.21,0,0,1,6.27.58,8.68,8.68,0,0,1,1.74.83,2.94,2.94,0,0,1,.44.3l.14.11-.61-.35a11.28,11.28,0,0,0-1.74-.78,13.4,13.4,0,0,0-6.22-.52,23.93,23.93,0,0,0-6,1.79c-.74.32-1.34.6-1.75.79l-.47.22A.49.49,0,0,1,95.49,85Z"/><path class="cls-3" d="M127,75.19l-.13.1-.38.26-1.43.92c-1.22.77-2.89,1.85-4.72,3s-3.46,2.32-4.66,3.12l-1.41,1-.39.26-.14.07.12-.1.38-.28c.32-.24.79-.57,1.38-1,1.18-.83,2.81-2,4.65-3.16s3.51-2.26,4.73-3l1.46-.87.4-.24Z"/><path class="cls-1" d="M117.93,85.93a7.12,7.12,0,0,1-.76,1.38c-.38.45-1.63,1.09-1.73,2s.1,2.89-1.25,4.43a7.53,7.53,0,0,1-3.2,2.09l-5.32-.52-8.5-3.35a.75.75,0,0,1-.55-.89,1.07,1.07,0,0,1,.9-.8l.2,0s-.49-.4.21-1.1,1.88-.26,2.53,0,4.51,1.83,5.2,2.07,1.09.42,1.09.42-4.93-3.33-5-3.77a.93.93,0,0,1,.47-1.12c.6-.43,1.58,0,2.53.43.71.3,5.22,2.52,5.22,2.52s.2-.19,0-.59-1.7-2.33-1.94-2.69-.3-.56-.06-.86a1.35,1.35,0,0,1,2,.1c.51.46,2.3,1.67,2.3,1.67l8.28-6s1,0,.68,1.41S117.93,85.93,117.93,85.93Z"/><path class="cls-5" d="M111.76,91a2.11,2.11,0,0,1-1.49-1.26s.28.35.69.69S111.78,90.92,111.76,91Z"/><path class="cls-5" d="M112.44,87.36a.46.46,0,0,1,.3,0,1.28,1.28,0,0,1,1,.85c.06.18,0,.3,0,.3a2.26,2.26,0,0,0-.52-.74A2.58,2.58,0,0,0,112.44,87.36Z"/><path class="cls-5" d="M112.83,89s-.06-.45-.24-1-.42-.88-.39-.89a2.16,2.16,0,0,1,.63,1.85Z"/><path class="cls-5" d="M117.73,85.5s-.1,0-.21-.19a1.37,1.37,0,0,1-.15-1.33c.07-.16.15-.24.17-.23A1.94,1.94,0,0,0,117.73,85.5Z"/><path class="cls-5" d="M110.25,93.05a1.18,1.18,0,0,1-.59,0,3.85,3.85,0,0,1-1.31-.49,6.92,6.92,0,0,1-1.13-.82,1.73,1.73,0,0,1-.41-.4,2.11,2.11,0,0,1,.48.32,11.37,11.37,0,0,0,1.14.77,5.08,5.08,0,0,0,1.25.52C110,93,110.25,93,110.25,93.05Z"/><path class="cls-5" d="M111.63,92.2s.05.3-.21.55-.55.23-.54.19.23-.1.43-.3S111.59,92.19,111.63,92.2Z"/><path class="cls-5" d="M113.66,90.71s0,.08,0,.18a.71.71,0,0,1-.34.3.78.78,0,0,1-.45.07c-.12,0-.18-.07-.17-.09a1.52,1.52,0,0,0,.55-.12C113.5,90.91,113.62,90.69,113.66,90.71Z"/><path class="cls-5" d="M106.49,94.1s-2-.79-4.42-1.85-4.38-2-4.35-2,2,.79,4.43,1.85S106.51,94.06,106.49,94.1Z"/></g><g id="freepik--Desk--inject-68"><path class="cls-3" d="M141.37,96.76s-30.11.08-67.23.08S6.9,96.8,6.9,96.76s30.1-.08,67.24-.08S141.37,96.71,141.37,96.76Z"/></g><g id="freepik--Device--inject-68"><path class="cls-8" d="M10.74,65l6.48,31.81H73.47a1.12,1.12,0,0,0,1.12-1.12h0a1.13,1.13,0,0,0-1.12-1.13H62.14l-6-29.6a1.23,1.23,0,0,0-1.2-1l-43-.46a1.22,1.22,0,0,0-1.24,1.22A1.14,1.14,0,0,0,10.74,65Z"/><path class="cls-3" d="M10.74,65l0-.1a1.5,1.5,0,0,1,0-.3,1.29,1.29,0,0,1,.6-.93,1.31,1.31,0,0,1,.37-.15,2.2,2.2,0,0,1,.44,0h1l2.53,0,16.25.15,11.33.12,6.35.06,3.33,0h2.13a1.32,1.32,0,0,1,.44.13,1.35,1.35,0,0,1,.62.65,3,3,0,0,1,.12.43l.08.43c.06.3.12.57.18.86.11.57.23,1.15.35,1.74.24,1.16.48,2.34.72,3.53.49,2.39,1,4.83,1.49,7.33q1.53,7.49,3.16,15.53l-.08-.06H73.29a2.2,2.2,0,0,1,.44,0,1.18,1.18,0,0,1,.73.5,1.15,1.15,0,0,1,.2.86,1.19,1.19,0,0,1-.61.88,1.39,1.39,0,0,1-.53.14H17.17v0C15.19,87,13.59,79,12.46,73.53l-1.27-6.36c-.15-.73-.26-1.28-.33-1.66s-.11-.56-.11-.56.05.19.12.56.2.93.35,1.65c.3,1.46.74,3.6,1.31,6.35C13.66,79,15.29,87,17.29,96.75l-.06,0,26.41,0H73.51a1,1,0,0,0,.46-.12,1.07,1.07,0,0,0,.53-.76,1.09,1.09,0,0,0-.17-.76,1.07,1.07,0,0,0-.64-.42l-.41,0H62.08v-.06C61,89.19,59.94,84,58.93,79q-.75-3.75-1.49-7.33l-.72-3.54c-.11-.58-.23-1.16-.35-1.74-.06-.29-.12-.57-.17-.86l-.09-.43a2,2,0,0,0-.11-.4,1.15,1.15,0,0,0-.94-.7h-.42l-1.7,0-3.33,0-6.35-.08-11.33-.13-16.26-.2-2.52,0-1,0a1.56,1.56,0,0,0-.43,0,1,1,0,0,0-.37.14,1.23,1.23,0,0,0-.59.89A1.7,1.7,0,0,0,10.74,65Z"/><circle class="cls-7" cx="34.8" cy="79.5" r="1.86"/><path class="cls-3" d="M10.8,65.21h2.94l8,0,26.54.19,3.83,0h1a1.94,1.94,0,0,1,.48,0,1.36,1.36,0,0,1,1,1c.07.3.12.59.18.89l1.37,6.91C57,78.67,57.82,82.63,58.47,86s1.2,6,1.55,7.89c.18.92.32,1.65.41,2.14,0,.25.08.43.11.56l0,.2,0-.19c0-.13-.07-.32-.12-.56L60,93.88C59.58,92,59,89.32,58.37,86S56.9,78.7,56,74.3c-.44-2.2-.89-4.51-1.38-6.9-.06-.3-.11-.6-.18-.9a1.22,1.22,0,0,0-.51-.69,1.16,1.16,0,0,0-.4-.16,3.4,3.4,0,0,0-.45,0h-1l-3.83,0-26.54-.23-8-.09-2.18-.06H10.8Z"/></g></g></svg>