<svg xmlns="http://www.w3.org/2000/svg" viewBox="0 0 155.5 145.17"><defs><style>.cls-1{fill:#ba68c8;}.cls-2{fill:#20c997;}.cls-22,.cls-3{opacity:0.1;}.cls-13,.cls-14,.cls-20,.cls-22,.cls-24,.cls-3,.cls-4,.cls-8{isolation:isolate;}.cls-14,.cls-20,.cls-22,.cls-4,.cls-7{fill:#fff;}.cls-13,.cls-4,.cls-9{opacity:0.3;}.cls-5{fill:none;}.cls-6{fill:#455a64;}.cls-8{opacity:0.15;}.cls-10{fill:#f7bf34;}.cls-11{fill:#9c5857;}.cls-12{fill:#f5f5f5;}.cls-14,.cls-24{opacity:0.2;}.cls-15{fill:#37474f;}.cls-16{fill:#20e2a5;}.cls-17{fill:#783130;}.cls-18{fill:#263238;}.cls-19{fill:#e0e0e0;}.cls-21{fill:#ffa8a7;}.cls-23{fill:#f28f8f;}</style></defs><title>teman0</title><g id="course"><g id="freepik--Canvas--inject-173"><polygon class="cls-1" points="71.64 3.38 67.6 2.29 2.16 40.07 22.7 139.47 26.75 140.57 92.19 102.78 71.64 3.38"/><polygon class="cls-2" points="71.64 3.38 67.6 2.29 2.16 40.07 22.7 139.47 26.75 140.57 92.19 102.78 71.64 3.38"/><polygon class="cls-3" points="2.16 40.07 22.7 139.47 26.75 140.57 6.2 41.17 2.16 40.07"/><polygon class="cls-4" points="71.64 3.38 67.6 2.29 2.16 40.07 6.2 41.17 71.64 3.38"/><path class="cls-5" d="M47.39,74.49a1,1,0,0,0,.56.13A1,1,0,0,1,47.39,74.49Z"/><path class="cls-5" d="M51.49,70.63c.16.78.67,1.23,1.27,1.2-.6,0-1.11-.42-1.27-1.2l-1.07-5.19a1.08,1.08,0,0,0-.29-.56,1.08,1.08,0,0,1,.29.56Z"/><path class="cls-5" d="M55.08,79.84a16.25,16.25,0,0,1,.19-3.12A16.25,16.25,0,0,0,55.08,79.84Z"/><path class="cls-5" d="M45,69.05a.87.87,0,0,1,.28,0A.87.87,0,0,0,45,69.05Z"/><path class="cls-5" d="M50.75,64.51A1.89,1.89,0,0,1,51,65,1.89,1.89,0,0,0,50.75,64.51Z"/><path class="cls-5" d="M56.55,70.54a9,9,0,0,0,.12-1.8A9,9,0,0,1,56.55,70.54Z"/><path class="cls-5" d="M53.65,71.44a1.94,1.94,0,0,1-.29.21l-.18.07.18-.07A1.94,1.94,0,0,0,53.65,71.44Z"/><path class="cls-5" d="M53.71,65.12a1.33,1.33,0,0,0,0,.28l.15.73-.15-.73A1.33,1.33,0,0,1,53.71,65.12Z"/><path class="cls-5" d="M56.66,68.7a6.77,6.77,0,0,0-.15-1.26L56,64.86l.53,2.58A6.77,6.77,0,0,1,56.66,68.7Z"/><path class="cls-5" d="M55.51,63.55a.83.83,0,0,1,.19.27A.83.83,0,0,0,55.51,63.55Z"/><path class="cls-5" d="M45.79,68.45l.1.07Z"/><path class="cls-5" d="M45.32,68.28a1.25,1.25,0,0,1,.41.14A1.25,1.25,0,0,0,45.32,68.28Z"/><path class="cls-5" d="M48.74,73.43a1.84,1.84,0,0,0,.32-.66A1.84,1.84,0,0,1,48.74,73.43Z"/><path class="cls-5" d="M49.11,64.11a1.07,1.07,0,0,1,.31-.13A1.07,1.07,0,0,0,49.11,64.11Z"/><path class="cls-5" d="M50.52,64.22a1.63,1.63,0,0,1,.17.2A1.63,1.63,0,0,0,50.52,64.22Z"/><path class="cls-5" d="M50,63.94a1.05,1.05,0,0,1,.51.27A1.05,1.05,0,0,0,50,63.94Z"/><path class="cls-5" d="M49.57,63.93h0Z"/><path class="cls-5" d="M55.08,79.94c0,.45.07.89.13,1.32C55.15,80.85,55.12,80.4,55.08,79.94Z"/><path class="cls-5" d="M45.45,77.77l2.65,2.79a8.33,8.33,0,0,1,1.61,2.56,8.33,8.33,0,0,0-1.61-2.56Z"/><path class="cls-5" d="M43.28,71.44a2.88,2.88,0,0,1,1.19-2.94,1.55,1.55,0,0,1,.66-.21,1.55,1.55,0,0,0-.66.21,2.9,2.9,0,0,0-1.19,2.94L44,74.69A6.89,6.89,0,0,0,44.86,77,6.89,6.89,0,0,1,44,74.69Z"/><path class="cls-5" d="M48.39,73.72a1.21,1.21,0,0,0,.35-.29,1.21,1.21,0,0,1-.35.29.77.77,0,0,1-.37.12A.77.77,0,0,0,48.39,73.72Z"/><path class="cls-5" d="M46.66,73.42a1.46,1.46,0,0,0,.71,1.07,1.46,1.46,0,0,1-.71-1.07l-.74-3.52a1.17,1.17,0,0,0-.33-.63,1.17,1.17,0,0,1,.33.63Z"/><polygon class="cls-5" points="52.17 94.15 49.11 95.91 52.59 93.9 52.17 94.15"/><path class="cls-5" d="M53.22,70.94a1.67,1.67,0,0,0,.69-1.7,1.67,1.67,0,0,1-.69,1.7.7.7,0,0,1-.37.11A.7.7,0,0,0,53.22,70.94Z"/><path class="cls-5" d="M49.08,72,48,66.83a2.76,2.76,0,0,1,.81-2.52A2.76,2.76,0,0,0,48,66.83L49.08,72a1.64,1.64,0,0,1,0,.73A1.64,1.64,0,0,0,49.08,72Z"/><path class="cls-5" d="M57.08,67.12a8.92,8.92,0,0,1,.17,1.94,8.92,8.92,0,0,0-.17-1.94l-.68-3.26a1.82,1.82,0,0,0-.5-1,1.82,1.82,0,0,1,.5,1Z"/><path class="cls-5" d="M55.91,81.78A12.77,12.77,0,0,1,55.65,79,12.77,12.77,0,0,0,55.91,81.78Z"/><polygon class="cls-5" points="52.73 93.82 52.73 93.82 57.48 91.08 57.23 91.22 52.73 93.82"/><path class="cls-5" d="M54.38,62.76a1.25,1.25,0,0,1,1.52.12,1.25,1.25,0,0,0-1.52-.12,2.91,2.91,0,0,0-1.19,3l.74,3.52-.74-3.52A2.88,2.88,0,0,1,54.38,62.76Z"/><path class="cls-6" d="M57.88,109.37l1-.6a1.62,1.62,0,0,0,.66-1.65l-2.84,1.64C56.88,109.4,57.39,109.68,57.88,109.37Z"/><path class="cls-7" d="M43.15,38.36c.08.39.4.56.71.38a1,1,0,0,0,.42-1l-2-9.65c-.08-.39-.4-.56-.71-.36a1,1,0,0,0-.41,1Z"/><path class="cls-7" d="M34.19,47.61a.44.44,0,0,0,.57.07.75.75,0,0,0,.25-.25,1,1,0,0,0,0-1.11L29.46,40.2a.42.42,0,0,0-.56-.08.72.72,0,0,0-.26.26.93.93,0,0,0,0,1.1Z"/><path class="cls-7" d="M21.51,59.92l7.64,1a.46.46,0,0,0,.3-.07,1,1,0,0,0,.42-.63c.08-.43-.1-.81-.41-.85l-7.64-1a.46.46,0,0,0-.3.06,1,1,0,0,0-.41.64C21,59.5,21.2,59.89,21.51,59.92Z"/><path class="cls-7" d="M29.79,73.68c-.08-.39-.4-.56-.71-.37l-7.66,4.42a1,1,0,0,0-.42,1c.08.39.4.57.71.39l7.67-4.42A1,1,0,0,0,29.79,73.68Z"/><path class="cls-7" d="M34.26,84.1a.84.84,0,0,0-.27.26L28.35,93a1,1,0,0,0,0,1.08.46.46,0,0,0,.57.08.88.88,0,0,0,.25-.26l5.65-8.66a.93.93,0,0,0,0-1.08A.42.42,0,0,0,34.26,84.1Z"/><path class="cls-7" d="M63.37,41.27a.72.72,0,0,0,.26-.26l5.64-8.66a.93.93,0,0,0,0-1.1.43.43,0,0,0-.56-.07.88.88,0,0,0-.26.25l-5.64,8.66a1,1,0,0,0,0,1.1A.42.42,0,0,0,63.37,41.27Z"/><path class="cls-7" d="M54,36.44a.52.52,0,0,0,.3-.06,1,1,0,0,0,.41-.64l2.11-10.57c.08-.43-.1-.81-.41-.85a.46.46,0,0,0-.3.07.91.91,0,0,0-.41.63L53.65,35.6C53.54,36,53.73,36.4,54,36.44Z"/><path class="cls-7" d="M76.11,65.44l-7.63-1a.6.6,0,0,0-.3.07,1,1,0,0,0-.41.64c-.09.43.09.81.4.85l7.64,1a.42.42,0,0,0,.29-.07.89.89,0,0,0,.42-.63C76.6,65.86,76.42,65.48,76.11,65.44Z"/><path class="cls-6" d="M53.12,107c.4,1.9,1.94,2.74,3.46,1.87l.17-.1,2.84-1.64.17-.1a5,5,0,0,0,2-5Z"/><path class="cls-8" d="M53.12,107c.4,1.9,1.94,2.74,3.46,1.87l.17-.1,2.84-1.64.17-.1a5,5,0,0,0,2-5Z"/><path class="cls-7" d="M67.84,51.7c.08.39.4.57.71.38l7.66-4.41a1,1,0,0,0,.42-1c-.08-.39-.4-.56-.71-.37l-7.66,4.42A1,1,0,0,0,67.84,51.7Z"/><polygon class="cls-6" points="63.13 100.18 62.5 97.12 61.76 97.55 51.51 103.47 50.76 103.9 51.39 106.96 52.14 106.53 52.14 106.53 62.39 100.61 62.39 100.61 62.39 100.61 63.13 100.18"/><polygon class="cls-6" points="52.14 106.53 52.14 106.53 52.33 107.46 53.12 107.01 61.79 102 62.59 101.54 62.39 100.61 62.39 100.61 52.14 106.53"/><polygon class="cls-6" points="51.31 102.53 51.51 103.47 61.76 97.55 61.57 96.61 51.31 102.53 51.31 102.53"/><polygon class="cls-6" points="50.49 98.54 50.68 99.47 60.93 93.56 60.74 92.62 50.49 98.54 50.49 98.54"/><g class="cls-9"><polygon points="52.14 106.53 52.14 106.53 52.33 107.46 53.12 107.01 61.79 102 62.59 101.54 62.39 100.61 62.39 100.61 52.14 106.53"/><polygon points="51.31 102.53 51.51 103.47 61.76 97.55 61.57 96.61 51.31 102.53 51.31 102.53"/><polygon points="50.49 98.54 50.68 99.47 60.93 93.56 60.74 92.62 50.49 98.54 50.49 98.54"/></g><polygon class="cls-6" points="51.31 102.53 61.57 96.61 61.57 96.61 62.31 96.19 61.68 93.12 60.93 93.56 50.68 99.47 49.94 99.9 50.57 102.96 51.31 102.53 51.31 102.53"/><path class="cls-7" d="M52.73,93.82h0l-1.88-9.1a9.8,9.8,0,0,0-2.35-4.78l-2.65-2.8a5.65,5.65,0,0,1-1.35-2.76l-.66-3.27a1.89,1.89,0,0,1,.78-1.93A.91.91,0,0,1,45,69a.87.87,0,0,1,.28,0,.85.85,0,0,1,.29.17,1.17,1.17,0,0,1,.33.63l.73,3.52a1.56,1.56,0,0,0,.71,1.08,1.11,1.11,0,0,0,.56.12,1.35,1.35,0,0,0,.61-.18,2.7,2.7,0,0,0,1.1-2.73l-1.08-5.19a1.67,1.67,0,0,1,.68-1.7.69.69,0,0,1,.88.07,1.08,1.08,0,0,1,.29.56l1.07,5.19c.16.78.67,1.23,1.27,1.2a1.05,1.05,0,0,0,.43-.11l.18-.07a1.94,1.94,0,0,0,.29-.21,2.79,2.79,0,0,0,.81-2.52l-.58-2.8-.15-.73a1.41,1.41,0,0,1,0-.28,1.86,1.86,0,0,1,.81-1.65.8.8,0,0,1,1,.08.83.83,0,0,1,.19.27,1.18,1.18,0,0,1,.14.37l.14.67.53,2.58a6.58,6.58,0,0,1,.15,1.26,0,0,0,0,1,0,0,8.43,8.43,0,0,1-.11,1.81c0,.15,0,.3-.08.45l-1,4.93c-.06.27-.11.53-.15.8a15.43,15.43,0,0,0-.19,3.11v.12q0,.68.12,1.32c0,.28.08.56.14.83l1.88,9.12.25-.14.32-.19-1.88-9.1A12.77,12.77,0,0,1,55.65,79,14.65,14.65,0,0,1,56,76L57,71.08a9.76,9.76,0,0,0,.22-2,8.92,8.92,0,0,0-.17-1.94l-.68-3.26a1.82,1.82,0,0,0-.5-1h0a1.22,1.22,0,0,0-1.52-.12,2.91,2.91,0,0,0-1.19,3l.73,3.52a1.68,1.68,0,0,1-.68,1.7,1,1,0,0,1-.37.11.74.74,0,0,1-.72-.52,1.87,1.87,0,0,1-.07-.22L51,65.12A.37.37,0,0,0,51,65a1.75,1.75,0,0,0-.2-.47l-.05-.08a1.18,1.18,0,0,0-.18-.21h0A1.1,1.1,0,0,0,50,64l-.14,0H49.6l-.15,0a1.09,1.09,0,0,0-.31.14,1.54,1.54,0,0,0-.29.21A2.76,2.76,0,0,0,48,66.83L49.11,72a1.8,1.8,0,0,1-.35,1.39,1.22,1.22,0,0,1-.34.3.74.74,0,0,1-1.15-.62l-.74-3.51a1.72,1.72,0,0,0-.61-1.06l-.1-.07-.06,0a1.23,1.23,0,0,0-.41-.13.6.6,0,0,0-.19,0,1.41,1.41,0,0,0-.66.2,2.9,2.9,0,0,0-1.19,3L44,74.69A6.89,6.89,0,0,0,44.89,77c.11.16.21.31.33.46a3.12,3.12,0,0,0,.26.3l2.65,2.8a8.29,8.29,0,0,1,1.61,2.55A10.74,10.74,0,0,1,50.31,85l1.87,9.13.42-.25Z"/><polygon class="cls-6" points="57.79 90.9 57.48 91.08 52.73 93.82 52.59 93.9 49.11 95.91 49.74 98.97 50.49 98.54 50.49 98.54 60.74 92.62 60.74 92.62 61.48 92.19 60.85 89.13 57.79 90.9 57.79 90.9"/><path class="cls-10" d="M55.35,82.1a7.39,7.39,0,0,1-.14-.82c-.06-.43-.11-.88-.13-1.33v-.11a15.49,15.49,0,0,1,.2-3.12c0-.26.09-.53.14-.79l1-4.93c0-.15.06-.31.09-.46a9,9,0,0,0,.11-1.8v0a6.77,6.77,0,0,0-.15-1.26L56,64.86l-.14-.67a1.28,1.28,0,0,0-.14-.37,1,1,0,0,0-.19-.27.81.81,0,0,0-1-.08,1.87,1.87,0,0,0-.81,1.65,1.27,1.27,0,0,0,0,.28l.15.74.58,2.79a2.81,2.81,0,0,1-.81,2.52,1.94,1.94,0,0,1-.29.21l-.18.08a1.2,1.2,0,0,1-1.7-1.09l-1.08-5.2a1,1,0,0,0-.29-.56.71.71,0,0,0-.87-.07,1.66,1.66,0,0,0-.68,1.7l1.07,5.2a2.68,2.68,0,0,1-1.11,2.73,1.27,1.27,0,0,1-.6.18,1.07,1.07,0,0,1-.56-.12,1.56,1.56,0,0,1-.71-1.08l-.74-3.51a1.1,1.1,0,0,0-.33-.64.81.81,0,0,0-.28-.17.9.9,0,0,0-.28,0,.94.94,0,0,0-.43.13,1.91,1.91,0,0,0-.78,1.93l.68,3.25a5.56,5.56,0,0,0,1.35,2.76l2.64,2.8a9.87,9.87,0,0,1,2.34,4.78l1.88,9.12h0l4.5-2.6Z"/><path class="cls-10" d="M44.33,41l-.26.15c-9,5.4-14.59,19-12.51,30.54,1.17,6.55,4.48,11.18,8.75,13.26a9.77,9.77,0,0,1,4.88,6.26l.05.19a6.39,6.39,0,0,0,3.87,4.53l3.06-1.77L50.29,85a11.67,11.67,0,0,0-.58-1.91,8.1,8.1,0,0,0-1.61-2.55l-2.64-2.8a3.73,3.73,0,0,1-.26-.3,5.54,5.54,0,0,1-.34-.46A6.89,6.89,0,0,1,44,74.7l-.67-3.25a2.9,2.9,0,0,1,1.19-3,1.41,1.41,0,0,1,.66-.2h.19a1.21,1.21,0,0,1,.42.13l0,0,.11.07a1.76,1.76,0,0,1,.61,1.06l.73,3.51a.82.82,0,0,0,.79.74.81.81,0,0,0,.37-.12,1.38,1.38,0,0,0,.34-.3,1.72,1.72,0,0,0,.32-.65,1.68,1.68,0,0,0,0-.74L48,66.84a2.79,2.79,0,0,1,.81-2.52,1.94,1.94,0,0,1,.29-.21,1.73,1.73,0,0,1,.31-.14l.15,0h.29L50,64a1.08,1.08,0,0,1,.51.28h0a1.63,1.63,0,0,1,.17.2l.06.09A1.89,1.89,0,0,1,51,65a.7.7,0,0,0,0,.14l1.08,5.2a.9.9,0,0,0,.06.22.74.74,0,0,0,.72.52.8.8,0,0,0,.37-.11,1.67,1.67,0,0,0,.69-1.7l-.74-3.52a2.93,2.93,0,0,1,1.19-3,1.23,1.23,0,0,1,1.52.12h0a1.83,1.83,0,0,1,.51,1l.67,3.26a9,9,0,0,1,.18,1.94,10.51,10.51,0,0,1-.23,2L56,76a16.25,16.25,0,0,0-.33,3,13.4,13.4,0,0,0,.26,2.82l1.89,9.12h0l3.06-1.77a13.23,13.23,0,0,0,1.37-7.55l0-.21a18.92,18.92,0,0,1,1.45-9.77,31.92,31.92,0,0,0,2.21-19C63.41,40.76,53.77,35.54,44.33,41Z"/></g><g id="freepik--character-2--inject-173"><path class="cls-11" d="M101.41,132.12a13.62,13.62,0,0,0,1.84,1.08l-2,2.43a11.31,11.31,0,0,0-1.69-.79A3.78,3.78,0,0,1,101.41,132.12Z"/><path class="cls-12" d="M104,138.35c0-2.43,1.67-3.64,2.44-3.24l-.43-.41a2.25,2.25,0,0,0-1.47.64,3.69,3.69,0,0,0-1,2.09,16.66,16.66,0,0,0-.1,2.34,7.45,7.45,0,0,1-.27,2.45,4.67,4.67,0,0,1-3.8-1,2,2,0,0,0,0,.6,4.39,4.39,0,0,0,4,.93C104.24,141.93,104,140.42,104,138.35Z"/><path class="cls-6" d="M106.39,135.11c-.77-.4-2.44.81-2.44,3.24,0,2.07.29,3.58-.63,4.39l.08,0a13.05,13.05,0,0,0,2.35-1.21,1,1,0,0,0,.54-1,8.21,8.21,0,0,1,.14-2.37c.12-.53.34-1,.41-1.57A1.62,1.62,0,0,0,106.39,135.11Z"/><path class="cls-13" d="M106.39,135.11c-.77-.4-2.44.81-2.44,3.24,0,2.07.29,3.58-.63,4.39l.08,0a13.05,13.05,0,0,0,2.35-1.21,1,1,0,0,0,.54-1,8.21,8.21,0,0,1,.14-2.37c.12-.53.34-1,.41-1.57A1.62,1.62,0,0,0,106.39,135.11Z"/><path class="cls-14" d="M106.39,135.11c-.77-.4-2.44.81-2.44,3.24,0,2.07.29,3.58-.63,4.39l.08,0a13.05,13.05,0,0,0,2.35-1.21,1,1,0,0,0,.54-1,8.21,8.21,0,0,1,.14-2.37c.12-.53.34-1,.41-1.57A1.62,1.62,0,0,0,106.39,135.11Z"/><path class="cls-15" d="M103.32,133c-1.35.34-1.93,1.45-2.41,2.68.5.28,1,.44,1.14,1l0,.44a1.42,1.42,0,0,0,.08.18,1.33,1.33,0,0,1,.14.19.37.37,0,0,1,.05.23.18.18,0,0,1-.15.16.21.21,0,0,1-.18-.07l0,.37a1.24,1.24,0,0,0,.1.2l.13.2a.37.37,0,0,1,.06.22.19.19,0,0,1-.15.17.22.22,0,0,1-.2-.09l0,.69a3.23,3.23,0,0,0-1.11,2.49,4.4,4.4,0,0,0,2.41.21,7.72,7.72,0,0,0,.26-2.45,16.66,16.66,0,0,1,.1-2.34,3.63,3.63,0,0,1,1-2.08,2.28,2.28,0,0,1,1.47-.65A11.74,11.74,0,0,0,103.32,133Z"/><path class="cls-7" d="M102.29,137.66a.37.37,0,0,0-.05-.23,1.33,1.33,0,0,0-.14-.19,1.42,1.42,0,0,1-.08-.18l-.06.69a.21.21,0,0,0,.18.07A.18.18,0,0,0,102.29,137.66Z"/><path class="cls-7" d="M102.22,138.75a.33.33,0,0,0,0-.22,1.43,1.43,0,0,0-.14-.2,1,1,0,0,1-.1-.21l-.05.71a.21.21,0,0,0,.19.09A.2.2,0,0,0,102.22,138.75Z"/><path class="cls-7" d="M101.85,139.52A2.11,2.11,0,0,0,100,140a2,2,0,0,0-.65,1.17,4.73,4.73,0,0,0,1.4.79A3.06,3.06,0,0,1,101.85,139.52Z"/><path class="cls-12" d="M77.93,137.94a2.22,2.22,0,0,1-1.61,1,7.79,7.79,0,0,1-2.21-.14,14.11,14.11,0,0,0-3.31-.09,17.68,17.68,0,0,1-2.06.15,3.26,3.26,0,0,1-1.93-.61,2,2,0,0,1-.74-1.24,1.87,1.87,0,0,0,.74,1.67,3.26,3.26,0,0,0,1.93.61,17.68,17.68,0,0,0,2.06-.15,14.11,14.11,0,0,1,3.31.09,7.93,7.93,0,0,0,2.27.19,2.2,2.2,0,0,0,1.61-1Z"/><path class="cls-7" d="M69.89,136.64c.62,0,.4-.92,1-1.53l-.72,0C69.62,135.89,69.47,136.64,69.89,136.64Z"/><path class="cls-7" d="M71.18,136.6c.62,0,.45-1.1,1.06-1.72a2.9,2.9,0,0,1-.42.12,2.2,2.2,0,0,1-.37.06C70.91,135.82,70.75,136.6,71.18,136.6Z"/><path class="cls-6" d="M77.29,134.5A.89.89,0,0,0,77,134l-3.34-.09a2.86,2.86,0,0,1-1.39,1c-.61.64-.44,1.73-1.06,1.73-.43,0-.27-.77.27-1.54a4.93,4.93,0,0,1-.58.06c-.58.61-.37,1.53-1,1.53-.41,0-.27-.74.26-1.51h-.46a2,2,0,0,1-.43,0c-1.23,1-1.33,2-1.17,3.68a4.48,4.48,0,0,0,.64.07,17.67,17.67,0,0,0,2-.15,14.18,14.18,0,0,1,3.32.09,7.72,7.72,0,0,0,2.2.14,2.23,2.23,0,0,0,1.62-1Z"/><path class="cls-7" d="M69.26,135.1a5.2,5.2,0,0,0-1.67,0,2,2,0,0,0-1.5,1.3,1.31,1.31,0,0,0,0,.59,2,2,0,0,0,.73,1.24,2.93,2.93,0,0,0,1.3.54C67.93,137.12,68,136.07,69.26,135.1Z"/><path class="cls-11" d="M73.52,133v1.61a.66.66,0,0,0,.66.66h1.68a1.07,1.07,0,0,0,1.08-1L77,133Z"/><path class="cls-1" d="M86,106a21.15,21.15,0,0,0-.22,2.25l-9.88,2.77a6.79,6.79,0,0,0-4.84,7.73c1,5.35,2.16,12.59,2.09,14.52,1.45,1.1,4.08,0,4.08,0,.24-6,1.45-9.44.74-14.32l10.69-2.14-2.13,7.72a5.07,5.07,0,0,0,2.84,6l10.45,4.58a2.92,2.92,0,0,1,2-2.78c-3.35-3-4.69-5.45-8.24-6.32,0,0,3.4-7.47,5.61-11.25s1.08-7.53-.42-10.18Z"/><path class="cls-6" d="M86,106a21.15,21.15,0,0,0-.22,2.25l-9.88,2.77a6.79,6.79,0,0,0-4.84,7.73c1,5.35,2.16,12.59,2.09,14.52,1.45,1.1,4.08,0,4.08,0,.24-6,1.45-9.44.74-14.32l10.69-2.14-2.13,7.72a5.07,5.07,0,0,0,2.84,6l10.45,4.58a2.92,2.92,0,0,1,2-2.78c-3.35-3-4.69-5.45-8.24-6.32,0,0,3.4-7.47,5.61-11.25s1.08-7.53-.42-10.18Z"/><path class="cls-11" d="M98.83,104.59a1.77,1.77,0,0,1-.19-.68l-.1-1.68-12,.77c-.16.84-.32,1.88-.48,3A17.83,17.83,0,0,0,98.83,104.59Z"/><path class="cls-1" d="M91,89l-3.22.63c-.71,1.3-1.43,2.52-2.14,3.82a6.1,6.1,0,0,0-1.05,3.14,3.19,3.19,0,0,0,1.92,2.77l-.36,4.39c5,1.55,11.22.19,12.58-1,.4-1.84.76-3.8,1.15-5.64a19.19,19.19,0,0,0,.55-3.62A6.47,6.47,0,0,0,99.62,90l0,0a4,4,0,0,0-3.95-1.7Z"/><path class="cls-16" d="M91,89l-3.22.63c-.71,1.3-1.43,2.52-2.14,3.82a6.1,6.1,0,0,0-1.05,3.14,3.19,3.19,0,0,0,1.92,2.77l-.36,4.39c5,1.55,11.22.19,12.58-1,.4-1.84.76-3.8,1.15-5.64a19.19,19.19,0,0,0,.55-3.62A6.47,6.47,0,0,0,99.62,90l0,0a4,4,0,0,0-3.95-1.7Z"/><polygon class="cls-17" points="86.61 81.28 85.62 83.01 86.7 83.41 86.61 81.28"/><path class="cls-11" d="M86.5,80.51a5.2,5.2,0,0,1,1.59-3.68,8.23,8.23,0,0,0,1.13,5.42A2.35,2.35,0,0,1,90,81a1.26,1.26,0,0,1,1.78-.07,1.38,1.38,0,0,1,.34.54,1.84,1.84,0,0,1-1,2.39,1.88,1.88,0,0,1-1.28,0,3.54,3.54,0,0,0,2.71,2.75,4.59,4.59,0,0,0,2.64-.25l.41,2C93.88,90.17,91,89,91,89l-.37-2c-3.27.2-3.57.14-3.94-1.66A17.94,17.94,0,0,1,86.5,80.51Z"/><path class="cls-18" d="M91,74.17a3.71,3.71,0,0,0-4.23,1.69,5.41,5.41,0,0,0-.17,4.76,5.48,5.48,0,0,1,1.47-3.77c-.3,2.32,0,4,1.14,5.42a1.68,1.68,0,0,1,.39,1.08c0,.39-.09.78-.06,1.16a4.12,4.12,0,0,0,1.12,2.14,3.75,3.75,0,0,1,1.08,2.15c0,1.36-.39,2.79-.47,4.15a6.3,6.3,0,0,0,.92,3.88,5.12,5.12,0,0,0,5.1,2,5.93,5.93,0,0,0,4.27-3.58,7.09,7.09,0,0,0-.21-5.64c-.69-1.48-1.82-2.7-2.48-4.18a18,18,0,0,1-1.06-5.27,9.65,9.65,0,0,0-1.7-5A4.32,4.32,0,0,0,91,74.17Z"/><path class="cls-15" d="M57,81.11a1.62,1.62,0,0,0-1.82-.22,1.82,1.82,0,0,0-1,1.58,1.58,1.58,0,0,0,.45,1.17,1.18,1.18,0,0,0,1.2.28.67.67,0,0,1-.55-.39.61.61,0,0,1,.09-.62c.26-.31.74-.28,1.1-.44S57.41,81.47,57,81.11Z"/><path class="cls-19" d="M57,81.78a.46.46,0,1,1-.22-.9h0l6.09-1.68.3,1.21Z"/><path class="cls-6" d="M81.43,75.15h0a.29.29,0,0,0-.34-.21l-18.7,4.2a.79.79,0,0,0-.59,1h0a.79.79,0,0,0,1,.57h0L81.24,75.5A.29.29,0,0,0,81.43,75.15Z"/><path class="cls-1" d="M54.41,82.67a.21.21,0,0,0,.26,0c.1-.09.07-.27.18-.36a.29.29,0,0,1,.31,0,.45.45,0,0,0,.3.09c.12,0,.19-.14.27-.23a.43.43,0,0,1,.41-.15.29.29,0,0,1,.23.34.34.34,0,0,1-.15.18,1.41,1.41,0,0,0-.78.34.6.6,0,0,0-.09.62.69.69,0,0,0,.55.39,1.18,1.18,0,0,1-1.2-.28,1.59,1.59,0,0,1-.45-1.15A.35.35,0,0,0,54.41,82.67Z"/><path class="cls-11" d="M87.24,89.34c-1.86.13-4.21.33-6.53.28a25.32,25.32,0,0,1-5-.55S71.82,84,70.68,82l-.41-3.38a.82.82,0,0,0-.49-.67L68,77.18a.82.82,0,0,0-.65,0l-1,.42a.45.45,0,0,0-.23.59.41.41,0,0,0,.05.09.44.44,0,0,0,.48.16l.51-.15L66,79.17a1,1,0,0,0-.37.74v.6a1,1,0,0,0,.42.78l.14.09a.48.48,0,0,0,.66-.12l0,0a4.32,4.32,0,0,0,1.61,2.27L71.3,90.8A5.13,5.13,0,0,0,75.21,94l4.53.79,6,1A4,4,0,0,0,90.21,93v-.06a2.86,2.86,0,0,0-2.07-3.49A2.71,2.71,0,0,0,87.24,89.34Z"/><path class="cls-17" d="M67.17,78.29l.31-.21a.54.54,0,0,1,.37-.08l1.44.29-1.35-.47a.5.5,0,0,0-.57.18Z"/><path class="cls-17" d="M66.85,81.23c-.13-.48-.21-1.11,0-1.35l-.59.33.07.6Z"/><path class="cls-13" d="M96.93,113.17c-1.7,2.21-4.82,3.07-8.22,3.65l-.41,1.47C89.41,118.06,94.62,116.76,96.93,113.17Z"/><path class="cls-20" d="M54.41,82.67a.21.21,0,0,0,.26,0c.1-.09.07-.27.18-.36a.29.29,0,0,1,.31,0,.45.45,0,0,0,.3.09c.12,0,.19-.14.27-.23a.43.43,0,0,1,.41-.15.29.29,0,0,1,.23.34.34.34,0,0,1-.15.18,1.41,1.41,0,0,0-.78.34.6.6,0,0,0-.09.62.69.69,0,0,0,.55.39,1.18,1.18,0,0,1-1.2-.28,1.59,1.59,0,0,1-.45-1.15A.35.35,0,0,0,54.41,82.67Z"/></g><g id="freepik--character-3--inject-173"><path class="cls-6" d="M75,58.88a5.31,5.31,0,0,0-5.92-.41,6,6,0,0,0-2.85,5.31,5.2,5.2,0,0,0,1.68,3.73,3.82,3.82,0,0,0,3.92.71A2.2,2.2,0,0,1,70,67a2,2,0,0,1,.19-2c.79-1.05,2.37-1,3.54-1.62C75.26,62.6,76.32,60,75,58.88Z"/><path class="cls-19" d="M75,61.11a1.5,1.5,0,0,1-.88-2.86l19.5-6.57,1.2,3.89Z"/><path class="cls-6" d="M153.3,35.44h0a1,1,0,0,0-1.15-.63l-60,16.77a2.57,2.57,0,0,0-1.79,3.17l0,.07h0a2.58,2.58,0,0,0,3.22,1.7l.06,0L152.7,36.61A.94.94,0,0,0,153.3,35.44Z"/><path class="cls-13" d="M153.3,35.44a.94.94,0,0,0-.14-.26.93.93,0,0,1-.64.84L93.22,55.21a2.57,2.57,0,0,1-3-1.1,2.43,2.43,0,0,0,.11.7,2.57,2.57,0,0,0,3.22,1.7l.06,0L152.7,36.6A.94.94,0,0,0,153.3,35.44Z"/><path class="cls-1" d="M66.79,64.41a.73.73,0,0,0,.82-.08c.32-.31.21-.91.56-1.18a1,1,0,0,1,1,.05,1.51,1.51,0,0,0,1,.26c.37-.1.58-.49.83-.79a1.47,1.47,0,0,1,1.32-.57,1,1,0,0,1,.8,1.11,1,1,0,0,1-.47.59A4.44,4.44,0,0,0,70.17,65a2,2,0,0,0-.19,2,2.22,2.22,0,0,0,1.84,1.18,3.84,3.84,0,0,1-3.92-.71,5.21,5.21,0,0,1-1.66-3.66A1.43,1.43,0,0,0,66.79,64.41Z"/><path class="cls-10" d="M66.79,64.41a.73.73,0,0,0,.82-.08c.32-.31.21-.91.56-1.18a1,1,0,0,1,1,.05,1.51,1.51,0,0,0,1,.26c.37-.1.58-.49.83-.79a1.47,1.47,0,0,1,1.32-.57,1,1,0,0,1,.8,1.11,1,1,0,0,1-.47.59A4.44,4.44,0,0,0,70.17,65a2,2,0,0,0-.19,2,2.22,2.22,0,0,0,1.84,1.18,3.84,3.84,0,0,1-3.92-.71,5.21,5.21,0,0,1-1.66-3.66A1.43,1.43,0,0,0,66.79,64.41Z"/><path class="cls-15" d="M129.1,99.9a5.38,5.38,0,0,0,3.6-2.72C129.6,95.73,129.1,99.9,129.1,99.9Z"/><path class="cls-21" d="M129.65,98.81l1.59,2.52,2.45-1.71L132.54,97A3.67,3.67,0,0,0,129.65,98.81Z"/><path class="cls-18" d="M133.45,104.27c0-2.16,1.47-3.23,2.16-2.88l-.37-.37a2,2,0,0,0-1.31.58,3.24,3.24,0,0,0-.85,1.84,15.86,15.86,0,0,0-.1,2.07,6.38,6.38,0,0,1-.23,2.17,4.08,4.08,0,0,1-3.37-.9,2,2,0,0,0,0,.54,3.9,3.9,0,0,0,3.55.82C133.71,107.43,133.45,106.1,133.45,104.27Z"/><path class="cls-15" d="M132.74,107.69a6.92,6.92,0,0,0,.23-2.17,14.34,14.34,0,0,1,.09-2.07,3.28,3.28,0,0,1,.86-1.84,2,2,0,0,1,1.31-.57c-.51-.49-1-1-1.45-1.53a3,3,0,0,0-2.73,1.87,4.65,4.65,0,0,1,.71,1.36l-.18,2.58a1.88,1.88,0,0,0-1.64.45,1.86,1.86,0,0,0-.57,1A4.1,4.1,0,0,0,132.74,107.69Z"/><path class="cls-15" d="M135.61,101.39c-.68-.35-2.16.72-2.16,2.88,0,1.84.26,3.16-.56,3.89l.07,0a12,12,0,0,0,2.08-1.07.92.92,0,0,0,.48-.88,7.33,7.33,0,0,1,.12-2.09c.11-.47.3-.92.37-1.39A1.43,1.43,0,0,0,135.61,101.39Z"/><path class="cls-22" d="M135.61,101.39c-.68-.35-2.16.72-2.16,2.88,0,1.84.26,3.16-.56,3.89l.07,0a12,12,0,0,0,2.08-1.07.92.92,0,0,0,.48-.88,7.33,7.33,0,0,1,.12-2.09c.11-.47.3-.92.37-1.39A1.43,1.43,0,0,0,135.61,101.39Z"/><path class="cls-18" d="M115.47,108.87a1.77,1.77,0,0,1-1.61,1.07,7.79,7.79,0,0,1-2-.25,27.68,27.68,0,0,0-4.46,0,6.71,6.71,0,0,1-1.48-.16,2.4,2.4,0,0,1-1.25-.74,1.65,1.65,0,0,1-.37-.79,1.52,1.52,0,0,0,.37,1.23,2.4,2.4,0,0,0,1.25.74,6.71,6.71,0,0,0,1.48.16,26.59,26.59,0,0,1,4.46,0,8.25,8.25,0,0,0,2,.26,1.8,1.8,0,0,0,1.61-1.08,1.85,1.85,0,0,0,0-.7A2.38,2.38,0,0,1,115.47,108.87Z"/><path class="cls-15" d="M115.43,107.61c-.09-.45-.18-.91-.28-1.36a1.86,1.86,0,0,0-.23-.7.68.68,0,0,0-.61-.37c-.82-.11-2-.41-2.67.06a6.11,6.11,0,0,1-3.68,1.08,12.67,12.67,0,0,0-2-.09,1.84,1.84,0,0,0-1.59,1.11,1.31,1.31,0,0,0,0,.59,1.61,1.61,0,0,0,.37.79,2.4,2.4,0,0,0,1.25.74,6.71,6.71,0,0,0,1.48.16,26.59,26.59,0,0,1,4.46,0,7.79,7.79,0,0,0,2,.25,1.77,1.77,0,0,0,1.61-1.07,2.38,2.38,0,0,0,0-.26A3.23,3.23,0,0,0,115.43,107.61Z"/><path class="cls-21" d="M111.42,103.34l0,2.27a.7.7,0,0,0,.65.74,12,12,0,0,0,1.8,0,1,1,0,0,0,.92-1l0-1.81Z"/><path class="cls-6" d="M115.54,104a5.22,5.22,0,0,1-2.67.43,3.64,3.64,0,0,1-2.11-.84c.15-6.65,0-15.39-.1-17.91a13.58,13.58,0,0,1,0-1.43l1.45-16.62,14-1.26c1.15,3.37,1.1,17.29,1,18.45,3.5,3.36,4,8.29,5.54,12.39-1.56-.1-3.6,2.72-3.6,2.72l-7.36-12.66a5.77,5.77,0,0,1-.68-1.86c-.4-2.38-1.41-8.3-1.51-9.57-1.15,5.37-3,11.14-3,11.14C117.82,92.45,115.87,99.24,115.54,104Z"/><path class="cls-13" d="M123.76,70.61a7.58,7.58,0,0,1-3.56,1s-.21,1.92-.69,4.16c0,.52.24,1.84.49,3.39a42.27,42.27,0,0,1,1-6.71A5.66,5.66,0,0,0,123.76,70.61Z"/><path class="cls-2" d="M112.15,53.9V67.6c8.07,3.38,13.3.33,14-1.26-.37-5.58.8-12.09,1.12-14.85s1.34-6.25-5-5.29l-4.6.44-2.31.57Z"/><path class="cls-18" d="M115,36c-1-.37-1.93-1.78-1-2.4.27-.2,1.07,0,1.71,0-.56-.5-.7-1.1-.42-1.31s1,.53,2.41.4,6.08-1.66,6.68,1.79a.89.89,0,0,1,1.23-.34l.15.1-1,.7c1.45,2,1,4.41-2.54,9.08a2.57,2.57,0,0,1-3.44.5l-1.46-3.57-1.42-1.72Z"/><polygon class="cls-23" points="114.65 38.85 113.7 40.49 114.74 40.87 114.65 38.85"/><path class="cls-21" d="M115,36a15.43,15.43,0,0,0-.27,7,2.31,2.31,0,0,0,.44,1.1,1.72,1.72,0,0,0,1.2.56,5.57,5.57,0,0,0,1.35-.13v2.14c1.62.37,3.31.53,4.57-.45V44a5.94,5.94,0,0,1-2.84.18c-1.12-.61-1.35-2.66-1.19-3.2a.83.83,0,0,0,.88.3,1.16,1.16,0,0,0,.73-.57,2.34,2.34,0,0,0,.28-.92,1.62,1.62,0,0,0-.17-1.12,1.16,1.16,0,0,0-1.27-.43,1.79,1.79,0,0,0-1.07.89,2.17,2.17,0,0,0-.19.41.25.25,0,0,1-.32.16.23.23,0,0,1-.17-.22,3.37,3.37,0,0,1,.32-1.79,1.27,1.27,0,0,1-.92-.56,1.22,1.22,0,0,1-.18-1A3.64,3.64,0,0,1,115,36Z"/><path class="cls-21" d="M107.43,55.49l-1.68,3.33c-1-.46-4.53-.84-6.46-2.06a16.63,16.63,0,0,0-1.72-2.55,5.81,5.81,0,0,1-.4-.92A.42.42,0,0,0,96.7,53h0a.42.42,0,0,0-.35.41,5.72,5.72,0,0,0,.4,1.63,7.33,7.33,0,0,1-2.15-2.25.84.84,0,0,0-1.17-.24l0,0-.21.16A1.53,1.53,0,0,0,92.57,54l0,.69a2.36,2.36,0,0,0,.78,1.68l.48.43a10,10,0,0,0,1.76,1.28l1.48.82A22.5,22.5,0,0,0,106,63.23a2,2,0,0,0,1.8-.56,29.44,29.44,0,0,0,3.28-4.26Z"/><path class="cls-24" d="M105,60.13a6,6,0,0,1,.8-1.31,5.28,5.28,0,0,0-.77-.24A2.18,2.18,0,0,0,105,60.13Z"/><path class="cls-2" d="M115.37,47.21c-3.78.28-5.67,2.09-8.5,8.78a5.51,5.51,0,0,0,4.63,2.94c1.81-2.94,3.93-5.45,4.93-7.8A3.37,3.37,0,0,0,115.37,47.21Z"/></g></g></svg>