<svg xmlns="http://www.w3.org/2000/svg" viewBox="0 0 155.5 145.17"><defs><style>.cls-1{fill:#fff;}.cls-2{fill:#263238;}.cls-3{fill:#20c997;}.cls-4{fill:#7e57c2;}.cls-5{fill:#e0e0e0;}.cls-6{fill:#f5f5f5;}.cls-7{fill:#f7bf34;}.cls-8{fill:#455a64;}.cls-9{fill:#ffbe9d;}.cls-10{fill:#eb996e;}.cls-11{opacity:0.3;}</style></defs><title>testbefore0</title><g id="course"><g id="freepik--Table--inject-64"><path d="M151.73,125.7s-33.12.09-74,.09-74-.05-74-.09,33.12-.08,74-.08S151.73,125.64,151.73,125.7Z"/></g><g id="freepik--Screen--inject-64"><rect class="cls-1" x="21.56" y="6.29" width="86.68" height="87.93"/><path class="cls-2" d="M108.24,94.23V92.6c0-1.08,0-2.66,0-4.73,0-4.13,0-10.19,0-17.89,0-15.38,0-37.35-.08-63.69l.15.16-86.67,0h0l.17-.18c0,32.23,0,62.42,0,87.94l-.15-.15,62.8.07,17.62,0,4.65,0h0l-4.63,0-17.58,0-62.9.07h-.15v-.15c0-25.52,0-55.69,0-87.93V6.08h.19l86.67,0h.16v.15c0,26.38-.07,48.37-.08,63.79,0,7.69,0,13.73,0,17.86,0,2,0,3.63,0,4.69v1.5A.5.5,0,0,1,108.24,94.23Z"/><path d="M28.37,20.64V23h-.44V21h-.49v-.36Z"/><path d="M28.81,22.72a.28.28,0,0,1,.28-.28.28.28,0,0,1,0,.55A.28.28,0,0,1,28.81,22.72Z"/><path d="M57.43,11.21a1.26,1.26,0,0,1,2.51-.12,1.27,1.27,0,0,1-1.2,1.32h-.05a1.21,1.21,0,0,1-1.26-1.13Zm2.08,0a.82.82,0,1,0-.82.82h0a.79.79,0,0,0,.81-.78v0Z"/><path d="M62.47,10v2.34h-.35L60.83,10.8v1.58H60.4V10h.36L62,11.62V10Z"/><path d="M63.1,10h.43v2h1.22v.37H63.1Z"/><path d="M65.1,10h.43v2.34H65.1Z"/><path d="M68.23,10v2.34h-.36L66.59,10.8v1.58h-.43V10h.36l1.28,1.58V10Z"/><path d="M70.61,12v.37H68.86V10h1.68v.37H69.29V11h1.13v.36H69.29V12Z"/><path d="M72.48,10.41h-.77V10h2v.37h-.77v2h-.44Z"/><path d="M75.77,12v.37H74V10H75.7v.37H74.44V11h1.12v.36H74.44V12Z"/><path d="M76,12.13l.15-.34a1.3,1.3,0,0,0,.77.26c.37,0,.52-.13.52-.3,0-.51-1.39-.18-1.39-1,0-.38.3-.7.94-.7a1.5,1.5,0,0,1,.78.21l-.14.33a1.28,1.28,0,0,0-.64-.18c-.36,0-.51.14-.51.32,0,.49,1.39.17,1.39,1,0,.37-.31.67-1,.67A1.52,1.52,0,0,1,76,12.13Z"/><path d="M78.78,10.41H78V10h2v.37h-.78v2h-.43Z"/><path d="M39.17,30.88H38l-.23.54h-.45l1-2.33h.43l1.05,2.33H39.4ZM39,30.55l-.44-1-.43,1Z"/><circle cx="27.41" cy="11.43" r="0.95"/><circle cx="30.28" cy="11.43" r="0.95"/><circle cx="33.15" cy="11.43" r="0.95"/><path d="M108.24,16.12s-19.3.08-43.12.08S22,16.16,22,16.12,41.3,16,65.12,16,108.24,16.07,108.24,16.12Z"/><path d="M98.76,22.64c0,.05-15,.09-33.56.09s-33.58,0-33.58-.09,15-.09,33.58-.09S98.76,22.59,98.76,22.64Z"/><path d="M57.53,24.92S51.79,25,44.71,25s-12.85,0-12.85-.09,5.74-.09,12.85-.09S57.53,24.87,57.53,24.92Z"/><path d="M35.54,31.79H32.46V28.72h3.08Zm-2.74-.34h2.4v-2.4H32.8Z"/><path d="M39.71,36.63c0,.4-.31.63-.92.63H37.64V34.93h1.09c.56,0,.86.23.86.61a.55.55,0,0,1-.3.51A.57.57,0,0,1,39.71,36.63Zm-1.64-1.35v.64h.61c.3,0,.47-.1.47-.32s-.17-.33-.47-.33Zm1.2,1.32c0-.24-.17-.34-.5-.34h-.7v.67h.7C39.1,36.93,39.27,36.82,39.27,36.6Z"/><path d="M35.54,37.63H32.46V34.57h3.08Zm-2.74-.34h2.4V34.91H32.8Z"/><path d="M37.47,41.93a1.26,1.26,0,0,1,1.32-1.2,1.3,1.3,0,0,1,.85.39l-.28.27a.82.82,0,1,0-.62,1.36.81.81,0,0,0,.62-.27l.28.26a1.25,1.25,0,0,1-1.78,0A1.21,1.21,0,0,1,37.47,41.93Z"/><path d="M35.54,43.47H32.46V40.39h3.08Zm-2.74-.34h2.4v-2.4H32.8Z"/><path d="M37.64,46.6h1a1.17,1.17,0,1,1,0,2.34h-1Zm1,2a.8.8,0,1,0,.1-1.6h-.68v1.6Z"/><path d="M35.54,49.31H32.46V46.23h3.08ZM32.8,49h2.4v-2.4H32.8Z"/><path d="M65.19,30.26s-5.06.08-11.32.08-11.34,0-11.34-.08,5.07-.09,11.34-.09S65.19,30.21,65.19,30.26Z"/><path d="M96.38,36.09s-12,.09-26.92.09-26.93,0-26.93-.09S54.59,36,69.46,36,96.38,36.05,96.38,36.09Z"/><path d="M49.94,47.77s-1.65.09-3.71.09-3.71,0-3.71-.09,1.66-.09,3.71-.09S49.94,47.73,49.94,47.77Z"/><path d="M69.46,41.93S63.43,42,56,42s-13.47,0-13.47-.09,6-.09,13.47-.09S69.46,41.88,69.46,41.93Z"/><path d="M28.45,56.08v.36H26.73v-.29l.93-.88a.63.63,0,0,0,.26-.48c0-.21-.15-.34-.43-.34a.67.67,0,0,0-.55.25l-.3-.24a1.07,1.07,0,0,1,.88-.38c.51,0,.84.25.84.67a1,1,0,0,1-.39.74l-.62.59Z"/><path d="M28.7,56.19a.28.28,0,1,1,.28.27.27.27,0,0,1-.28-.27Z"/><path d="M38.35,64.36H37.18L37,64.9h-.45l1.05-2.33H38L39,64.9h-.46ZM38.21,64l-.44-1-.44,1Z"/><path d="M98,56.11s-15,.09-33.57.09-33.57,0-33.57-.09,15-.09,33.57-.09S98,56.06,98,56.11Z"/><path d="M56.72,58.39s-5.74.09-12.85.09S31,58.44,31,58.39s5.74-.08,12.85-.08S56.72,58.34,56.72,58.39Z"/><path d="M34.71,65.29H31.63V62.21h3.08ZM32,65h2.4v-2.4H32Z"/><path d="M38.89,70.1c0,.4-.31.63-.91.63H36.82V68.4H37.9c.56,0,.86.24.86.61a.55.55,0,0,1-.3.51A.58.58,0,0,1,38.89,70.1Zm-1.63-1.35v.65h.61c.3,0,.47-.11.47-.32s-.17-.34-.47-.34Zm1.2,1.32c0-.23-.18-.34-.51-.34h-.69v.68H38c.33,0,.51-.12.51-.35Z"/><path d="M34.71,71.11H31.63V68h3.08ZM32,70.77h2.4v-2.4H32Z"/><path d="M36.65,75.41a1.21,1.21,0,0,1,1.18-1.2h.07a1.22,1.22,0,0,1,.93.39l-.28.27a.84.84,0,0,0-.63-.28.82.82,0,0,0,0,1.64h0a.83.83,0,0,0,.63-.27l.28.26a1.25,1.25,0,0,1-1.78,0A1.29,1.29,0,0,1,36.65,75.41Z"/><path d="M34.71,76.94H31.63V73.87h3.08ZM32,76.6h2.4V74.2H32Z"/><path d="M36.82,80.08h1a1.17,1.17,0,1,1,0,2.33h-1Zm1,2a.8.8,0,0,0,.88-.72.82.82,0,0,0-.73-.88h-.71V82Z"/><path d="M34.71,82.78H31.63V79.71h3.08ZM32,82.44h2.4V80H32Z"/><path d="M64.38,63.73c0,.05-5.06.09-11.33.09s-11.33,0-11.33-.09,5.06-.09,11.33-.09S64.38,63.68,64.38,63.73Z"/><path d="M95.57,69.57c0,.05-12.06.08-26.93.08s-26.92,0-26.92-.08,12.05-.09,26.92-.09S95.57,69.52,95.57,69.57Z"/><path d="M49.13,81.24c0,.05-1.66.09-3.71.09s-3.72,0-3.72-.09,1.67-.09,3.72-.09S49.13,81.19,49.13,81.24Z"/><path d="M68.64,75.41s-6,.09-13.46.09-13.46,0-13.46-.09,6-.09,13.46-.09S68.64,75.35,68.64,75.41Z"/><path class="cls-3" d="M90.44,89.25H76.54A4.26,4.26,0,0,1,72.28,85h0a4.26,4.26,0,0,1,4.26-4.26h13.9A4.26,4.26,0,0,1,94.7,85h0a4.25,4.25,0,0,1-4.26,4.27Z"/><path class="cls-1" d="M80,84v2.32h-.44L78.4,84.88v1.41h-.53V84h.45l1.15,1.41V84Z"/><path class="cls-1" d="M82.36,85.88v.43h-1.8V84h1.75v.43H81.1v.5h1.08v.42H81.1v.54Z"/><path class="cls-1" d="M84.22,86.29l-.56-.8-.55.8H82.5l.85-1.18L82.54,84h.61l.53.75L84.2,84h.58L84,85.09l.87,1.2Z"/><path class="cls-1" d="M85.49,84.41h-.74V84h2v.44H86v1.88h-.54Z"/><path class="cls-1" d="M89.71,86.12a.18.18,0,0,1-.1-.32l1.08-.71a.13.13,0,0,0,.06-.11.17.17,0,0,0-.06-.1l-1.07-.63a.16.16,0,0,1-.05-.23.16.16,0,0,1,.22-.06l1.07.63a.46.46,0,0,1,.16.63.5.5,0,0,1-.14.15l-1.08.71A.25.25,0,0,1,89.71,86.12Z"/><path class="cls-4" d="M32.08,37.58c-.1-.1.55-.92,1.46-1.84s1.73-1.55,1.83-1.45-.55.92-1.46,1.83S32.19,37.68,32.08,37.58Z"/><path class="cls-4" d="M35.93,37.9c-.1.1-1-.61-2-1.58s-1.69-1.85-1.58-2,1,.6,2,1.58S36,37.8,35.93,37.9Z"/><path class="cls-4" d="M31.34,65.43c-.1-.1.55-.92,1.46-1.83s1.73-1.56,1.83-1.46-.55.92-1.46,1.84S31.44,65.54,31.34,65.43Z"/><path class="cls-4" d="M35.2,65.76c-.1.1-1-.61-2-1.58s-1.69-1.85-1.58-2,1,.61,1.95,1.58S35.29,65.65,35.2,65.76Z"/></g><g id="freepik--Character--inject-64"><path class="cls-5" d="M96.81,134l-23.7-7.61a.44.44,0,0,0-.2,0l-18.22,1.35-9-21.9a4.48,4.48,0,0,0-3.57-2.72l-19.74-2.58a1.35,1.35,0,0,0-1.5,1.18,1.22,1.22,0,0,0,.1.68L32,128.29a2.69,2.69,0,0,0,1.59,1.49l22.57,9a3.37,3.37,0,0,0,1.63.21l1.45-.15h0c5-.53,29.7-3,37.43-3.85a.51.51,0,0,0,.48-.54A.5.5,0,0,0,96.81,134Z"/><path class="cls-2" d="M96.81,134a.51.51,0,0,1,.33.34.52.52,0,0,1-.16.56.64.64,0,0,1-.37.13l-.45,0-5.54.59-20.4,2.13-6.75.7-3.6.37-1.85.2a3.59,3.59,0,0,1-1.89-.22l-15.1-6-4-1.61-2.06-.81-1-.42-.52-.21a2.5,2.5,0,0,1-.5-.29,2.89,2.89,0,0,1-.77-.86,10.62,10.62,0,0,1-.46-1l-.91-2.09-1.82-4.26-7.6-17.72-.36-.84a1.85,1.85,0,0,1-.23-.9,1.45,1.45,0,0,1,1.18-1.33,2,2,0,0,0,.24,0l.23,0,.45.06.89.12,1.77.23,7,.91,6.81.89,1.69.22c.56.08,1.12.12,1.69.25a4.65,4.65,0,0,1,2.7,1.93,9.34,9.34,0,0,1,.71,1.5c.2.51.41,1,.62,1.51l1.22,3,2.39,5.79,4.49,10.89-.07,0,17.76-1.32.49,0a.57.57,0,0,1,.26,0l.23.08.89.3,1.8.57,3.39,1.12,6,1.92,8.35,2.7,2.2.72.75.25-.76-.23-2.2-.69-8.36-2.68-6-1.91-3.41-1.1-1.8-.57-.92-.29a1.88,1.88,0,0,0-.45-.12l-.5,0-17.75,1.35h0l0-.05-4.5-10.88-2.39-5.79q-.61-1.47-1.23-3c-.21-.5-.41-1-.62-1.51a9.85,9.85,0,0,0-.69-1.47,4.42,4.42,0,0,0-2.59-1.85c-.53-.13-1.09-.17-1.65-.25l-1.69-.22-6.82-.89-7-.91-1.77-.23-.89-.12a2.75,2.75,0,0,0-.86-.05,1.26,1.26,0,0,0-1,1.17,1.57,1.57,0,0,0,.21.82l.37.84,7.59,17.72q.93,2.14,1.83,4.26l.9,2.09a10.52,10.52,0,0,0,.46,1,2.5,2.5,0,0,0,.72.8,2.78,2.78,0,0,0,.47.28l.51.2,1,.42,2,.82,4.05,1.61,15.09,6a3.37,3.37,0,0,0,1.83.21l1.85-.2,3.59-.36,6.75-.68,20.41-2.07,5.55-.55.44,0a.58.58,0,0,0,.36-.12.52.52,0,0,0,.17-.54.44.44,0,0,0-.22-.28A.38.38,0,0,0,96.81,134Z"/><polygon class="cls-6" points="66.31 129.3 75.19 133.02 86.27 131.86 76.96 128.02 66.31 129.3"/><polygon class="cls-6" points="59.61 136.33 76.96 134.76 60.39 128.19 55.06 128.59 57.88 135.38 59.61 136.33"/><path d="M95.09,134,95,134l-.35,0-1.35.14-5,.49-16.54,1.54-13,1.18h-.05l0,0-2.88-7-.79-2-.21-.52-.06-.18.08.17.23.51.82,1.95c.71,1.69,1.73,4.1,2.94,7l-.07,0,13-1.21,16.56-1.49,5-.43,1.35-.11.35,0Z"/><path d="M21.5,101.45h.15l.44,0,1.68.22,6.19.84c2.62.37,5.74.81,9.18,1.32l2.65.4.67.12.34.07a.58.58,0,0,1,.18,0,2.57,2.57,0,0,1,.76.5,1.55,1.55,0,0,1,.2.32l.13.34c.71,1.76,1.44,3.59,2.19,5.46l7.64,19.15c1,2.45,1.75,4.43,2.29,5.81.27.68.47,1.22.62,1.59.07.17.12.31.15.41a.78.78,0,0,1,0,.14L57,138.1l-.17-.41-.65-1.57c-.56-1.38-1.35-3.35-2.36-5.79l-7.66-19.14-2.18-5.45-.13-.34a1,1,0,0,0-.17-.27,1.69,1.69,0,0,0-.54-.39.76.76,0,0,0-.16-.06l-.16,0-.34-.07-.67-.12L39.11,104l-9.17-1.35-6.18-.9-1.69-.25-.43-.07Z"/><path class="cls-1" d="M39,117c.84,1.13,1,2.43.38,2.9s-1.83-.06-2.68-1.19-1-2.43-.38-2.9S38.1,115.84,39,117Z"/><path class="cls-7" d="M145.74,97.69c-1.13-6.41-8.23-10.28-10.57-12.41L138.69,90a76.87,76.87,0,0,1,2,22.72c-.05.83,0,2,.64,2.08a.86.86,0,0,0,.59-.19c2.08-1.33,3.43-4.39,3.73-7.53A36.41,36.41,0,0,0,145.74,97.69Z"/><path class="cls-8" d="M140.55,90.51c-.34-.65-.2-2.7-2-.56l-.12-.8-11.28-8.67L102,81.78c-2.42.15-6,4.33-7,6.08-.74,6.49-.89,12.25-.89,12.25s-.86,7.22,0,10.63,1.89,4.64,3.23,7.3a22.63,22.63,0,0,0,3.62,5l1.18,9.12,26.27,2.36,12-.67s-1.08-18-1.08-18.3c0-.14,1.5-3.61,3.12-7.3C145.24,101.91,143.69,96.59,140.55,90.51Z"/><path class="cls-8" d="M74.56,123.2c.14,0,1.45-8.88,2.31-10.89S95,87.85,95,87.85L99.11,101l-1.75,7-9.45,11.37-2.67,8.24Z"/><path class="cls-8" d="M144,97.25c-1.24-7.89-7.39-7.55-7.39-7.55l-6.12,10.64v22L101,124.88l-.54,7.41s29.38,6.71,36.17,4.46a12.39,12.39,0,0,0,8.7-11.38A167.62,167.62,0,0,0,144,97.25Z"/><path d="M87.94,119.42c-.09-.51-.2-1-.34-1.5a7.2,7.2,0,0,0-5.14-4.83c-.5-.11-1-.19-1.52-.25a1.48,1.48,0,0,1,.42,0,5.39,5.39,0,0,1,1.13.15,7,7,0,0,1,5.21,4.91,6.06,6.06,0,0,1,.22,1.11A1.88,1.88,0,0,1,87.94,119.42Z"/><path d="M102.05,124.58l.13,0,.38,0,1.44-.19,5.32-.68,17.55-2.13,3.91-.47-.08.09c.23-6,.34-11.26.3-15,0-1.89,0-3.41-.07-4.45,0-.51,0-.91,0-1.19V100a.2.2,0,0,1,0,.11,1.79,1.79,0,0,0,0,.3c0,.29,0,.68.06,1.2,0,1,.09,2.56.12,4.45.06,3.77,0,9-.24,15v.08h-.08l-3.9.46-17.57,2.09-5.32.61-1.45.15-.38,0Z"/><path d="M145.77,124.58v.13a3,3,0,0,1,0,.39,15.16,15.16,0,0,1-.17,1.51,15.74,15.74,0,0,1-.58,2.32,13.46,13.46,0,0,1-1.38,2.86,11.13,11.13,0,0,1-2.59,2.84,10.29,10.29,0,0,1-4,1.89,17.25,17.25,0,0,1-2.37.4q-1.24.11-2.49.09a36.29,36.29,0,0,1-5.2-.48l-10-1.64-4.34-.72-3.79-.7c-2.3-.43-4.17-.76-5.47-1l-1.5-.22-.38,0a.35.35,0,0,1-.14,0h.14l.39,0,1.5.19c1.3.17,3.17.48,5.48.9l3.78.67,4.35.71,10,1.63a36,36,0,0,0,5.18.49c.85,0,1.67,0,2.48-.08a18,18,0,0,0,2.33-.39,10.11,10.11,0,0,0,3.93-1.86,11,11,0,0,0,2.57-2.79,13.44,13.44,0,0,0,1.39-2.82,16.54,16.54,0,0,0,.6-2.3,15,15,0,0,0,.2-1.5l0-.39S145.76,124.62,145.77,124.58Z"/><path d="M101.26,125.12a.32.32,0,0,1,0-.14c0-.1,0-.24-.07-.41,0-.38-.13-.9-.22-1.57v0l-2.24-2.47h0a17.35,17.35,0,0,1-1.17-2,21.64,21.64,0,0,1-1-2.36,26,26,0,0,1-1.35-5.64,35.49,35.49,0,0,1-.14-6.27c.1-1.93.3-3.66.49-5.1s.37-2.61.5-3.42l.15-.92c0-.1,0-.18,0-.24s0-.06,0-.08a.11.11,0,0,1,0,.08,1.1,1.1,0,0,1,0,.24l-.12.93c-.11.81-.27,2-.44,3.43s-.34,3.16-.44,5.09a36.13,36.13,0,0,0,.15,6.24,26.48,26.48,0,0,0,1.33,5.61,20.13,20.13,0,0,0,1,2.34,16.49,16.49,0,0,0,1.15,1.94h0L101,123h0l.19,1.58c0,.17,0,.31,0,.41A.86.86,0,0,1,101.26,125.12Z"/><path d="M135,125.94a5.74,5.74,0,0,1-.61-.79c-.37-.49-.89-1.17-1.49-1.89s-1.18-1.35-1.6-1.79a6.68,6.68,0,0,1-.67-.74,5.14,5.14,0,0,1,.75.65,23,23,0,0,1,1.65,1.77c.51.62,1,1.26,1.45,1.93A5.78,5.78,0,0,1,135,125.94Z"/><path class="cls-9" d="M81.78,124.28a5.07,5.07,0,0,0-1.56-2.56s-.63-1.76-1.57-2.22-1.69.46-2.5.21a6,6,0,0,0-3.14,0c-.56.31-1.25,2.07-1.25,2.07a3.79,3.79,0,0,0-1.62.43,3,3,0,0,0-1.08.93,1.28,1.28,0,0,0-1.43.34,3.77,3.77,0,0,0-.76,1.37L66.43,126a1.2,1.2,0,0,0-.12.59.75.75,0,0,0,.72.59,1.2,1.2,0,0,0,.91-.4,4.88,4.88,0,0,0,.61-.75l.11.78s.18,1.24,1.18,1.31c.7.06,1.45-.75,1.45-.75l1.75-.19.25,1.76a1.65,1.65,0,0,0,1.63,1.12c.63,0,1.44-1.06,1.44-1.06l1.63.62s1.87,1.32,2.75.88a1.21,1.21,0,0,0,.63-1.38,4.7,4.7,0,0,0,.87-1.44C82.48,127,82,125.72,81.78,124.28Z"/><path class="cls-10" d="M68.62,126.55a6.1,6.1,0,0,1,.06-1.86,6.18,6.18,0,0,1,.45-1.8c.05,0-.14.82-.28,1.83S68.68,126.55,68.62,126.55Z"/><path class="cls-10" d="M71.35,124.9a4.81,4.81,0,0,1,.15,1.3,2.19,2.19,0,0,1-.09,1c-.1.23-.24.33-.25.31s.07-.14.13-.34a3,3,0,0,0,0-.9A4.86,4.86,0,0,1,71.35,124.9Z"/><path class="cls-10" d="M72.52,124.16s-.19.33-.51.64-.61.56-.65.53a2,2,0,0,1,.52-.65C72.2,124.37,72.49,124.12,72.52,124.16Z"/><path class="cls-10" d="M72.75,120.79a5,5,0,0,1,0,.95c0,.59,0,1.4.08,2.29s.11,1.71.16,2.3a6,6,0,0,1,.07,1,4.36,4.36,0,0,1-.19-.94c-.08-.58-.17-1.39-.22-2.3s0-1.71,0-2.3A5,5,0,0,1,72.75,120.79Z"/><path class="cls-10" d="M79.32,121.46l-.19.47a8.69,8.69,0,0,0-.39,1.32l-.2.94a5.74,5.74,0,0,1-.29,1.08,2.5,2.5,0,0,1-.72,1,1.44,1.44,0,0,1-1.29.32,1.12,1.12,0,0,1-.61-.36,1.2,1.2,0,0,1-.27-.62,6.43,6.43,0,0,1,0-1.24,10.83,10.83,0,0,1,.32-2A9.9,9.9,0,0,1,76.1,121a2.86,2.86,0,0,1,.15-.33.47.47,0,0,1,.07-.12,3.38,3.38,0,0,1-.16.48c-.15.44-.28.88-.39,1.33a11.52,11.52,0,0,0-.27,2,5.94,5.94,0,0,0,0,1.19.94.94,0,0,0,.75.84,1.3,1.3,0,0,0,1.15-.28,2.36,2.36,0,0,0,.67-1,17,17,0,0,0,.52-2,7.9,7.9,0,0,1,.45-1.32,2.21,2.21,0,0,1,.18-.34A.51.51,0,0,1,79.32,121.46Z"/><path class="cls-10" d="M80,122.22a1.76,1.76,0,0,1-1.44,1.52,6.64,6.64,0,0,0,.84-.64A5.7,5.7,0,0,0,80,122.22Z"/><path class="cls-10" d="M76.36,126.58a4.06,4.06,0,0,1,.08,1.43,5.48,5.48,0,0,1-.18,1.27v0h0a.09.09,0,0,1-.12,0v-.07a0,0,0,0,0,0,0s0,0,.06,0l0,0c0-.23,0-.71.08-1.26A11.12,11.12,0,0,1,76.36,126.58Z"/><path class="cls-10" d="M80.33,125.18a3,3,0,0,1-.46.6,9.25,9.25,0,0,0-1,1.46,3.82,3.82,0,0,0-.47,1.68c0,.46.08.74,0,.74a1.56,1.56,0,0,1-.18-.74,3.56,3.56,0,0,1,.45-1.77,6.7,6.7,0,0,1,1.09-1.46A2.85,2.85,0,0,1,80.33,125.18Z"/><path class="cls-9" d="M79.64,128.3a1.86,1.86,0,0,1,.77-2.06c1.18-.83,4.7-3,4.78-3A48.58,48.58,0,0,1,91,121.68c1.71-.17,9.2,3.55,9.2,3.55a8.39,8.39,0,0,1,1.46,4.9c-.28,2.41-1.84,2.54-1.84,2.54l-2.18-.53-2.24-.42s-5,1.38-5.74,1.12-1-1.1-.2-1.56a27.42,27.42,0,0,1,3.27-1.17l1.86-.79-6.07.86a47,47,0,0,1-5.74.87c-.6-.14-.69-.59-.74-1,0,0-2.07,1-2.69.46A1.26,1.26,0,0,1,79.64,128.3Z"/><path class="cls-10" d="M92.75,126.82a2.26,2.26,0,0,1-.45,0c-.29,0-.71,0-1.23,0a9.07,9.07,0,0,0-1.8.25,6.18,6.18,0,0,0-1,.36c-.33.16-.67.34-1,.54a7,7,0,0,1-1.07.51,3.66,3.66,0,0,1-1.08.23,7.77,7.77,0,0,0-1.8.21,2,2,0,0,0-1,.67,2.5,2.5,0,0,0-.23.39.48.48,0,0,1,0-.12,1.77,1.77,0,0,1,.15-.31,2,2,0,0,1,1-.75,7.54,7.54,0,0,1,1.83-.25,4.77,4.77,0,0,0,2.06-.73,10.24,10.24,0,0,1,1-.54,4.85,4.85,0,0,1,1-.36,8.12,8.12,0,0,1,1.84-.22c.52,0,.94,0,1.24,0A2.38,2.38,0,0,1,92.75,126.82Z"/><path class="cls-10" d="M90.92,124.26l-.11,0-.34.13a8,8,0,0,1-1.27.29c-.53.1-1.18.17-1.87.34a9.55,9.55,0,0,0-2.12.93,26.64,26.64,0,0,1-3.89,1.76l-1.23.41a2.37,2.37,0,0,1-.46.11,3.38,3.38,0,0,1,.44-.18l1.2-.46a30,30,0,0,0,3.85-1.8,9.47,9.47,0,0,1,2.17-.93,17.12,17.12,0,0,1,1.9-.32,11.13,11.13,0,0,0,1.26-.23A3.56,3.56,0,0,1,90.92,124.26Z"/><path class="cls-10" d="M95.85,125.7a1.8,1.8,0,0,1-.1-.4,2,2,0,0,0-1.25-1.39,3.12,3.12,0,0,1-.39-.15s.17,0,.43,0a1.87,1.87,0,0,1,.89.54,1.78,1.78,0,0,1,.44.94A.7.7,0,0,1,95.85,125.7Z"/><path class="cls-10" d="M98.66,129.5c0-.19,0-.38,0-.57a2,2,0,0,0-.74-1.1,4.28,4.28,0,0,0-1.22-.63,2.14,2.14,0,0,1-.54-.23,1.66,1.66,0,0,1,.58.11,3.92,3.92,0,0,1,1.29.61,2,2,0,0,1,.75,1.22A.87.87,0,0,1,98.66,129.5Z"/><path class="cls-10" d="M82.1,130a1.11,1.11,0,0,1-.3.17,6.54,6.54,0,0,1-.87.34,4.37,4.37,0,0,1-.62.17,1.68,1.68,0,0,1-.77-.08,1,1,0,0,1-.61-.59,1.56,1.56,0,0,1-.16-.9.93.93,0,0,1,.33-.59,2.22,2.22,0,0,1,.52-.34l0,.1a1.69,1.69,0,0,1,.08-1.27,2.63,2.63,0,0,1,.64-.77,4.7,4.7,0,0,1,.53-.38.88.88,0,0,1,.22-.1s-.28.19-.68.56a2.74,2.74,0,0,0-.58.76,1.57,1.57,0,0,0-.05,1.15l0,.07-.07,0c-.31.17-.69.41-.73.81a1.48,1.48,0,0,0,.14.8.91.91,0,0,0,.51.51,1.58,1.58,0,0,0,.68.09,6,6,0,0,0,.61-.15c.38-.1.68-.21.88-.28A1.21,1.21,0,0,1,82.1,130Z"/><path class="cls-2" d="M108.25,61.76c-.73-7.32-2.28-14.59-2-21.94l-6,3.75c.3,2.91-2.32,5.16-3.83,7.66a11.22,11.22,0,0,0-.66,10.19A15,15,0,0,1,97.3,65.1c.34,2.22-1,4.48-.53,6.67.58,2.52,3.67,3.91,6.15,3.2a7.92,7.92,0,0,0,5-5.51A20.12,20.12,0,0,0,108.25,61.76Z"/><path class="cls-2" d="M100.6,42.33a10.23,10.23,0,0,1,16.88-5.75,22.17,22.17,0,0,0,3.26,3c1.44.84,1.62.56,3.2,1.07s4.68,4.63,4.73,6.29l1.23,7.22c0,1.71-2.09,2.81-3.74,2.37s-2.81-1.9-3.75-3.32a11.78,11.78,0,0,0-3.3-3.86c-2.41-1.48-5.51-.73-8.24,0S105,50.65,102.68,49C100.74,47.49,100.16,44.72,100.6,42.33Z"/><path class="cls-9" d="M99.73,52.8c0-4.76,2.8-10.75,7.54-10.54l15,2.84a2.77,2.77,0,0,1,2.65,2.66l.56,35.61h.1S120.35,96.44,110.43,94c-2-.49-.52-5.39-1-7.53l-.09,0c0-.26,0-.5-.06-.75a23.41,23.41,0,0,1-.36-4.87h0c-.21-2.87-.28-4-.28-4s-6.11-.64-7.84-8.46C99.91,64.52,99.71,58.08,99.73,52.8Z"/><path class="cls-2" d="M102.37,59a1,1,0,0,0,1,1,1,1,0,0,0,1-.95s0,0,0,0a1,1,0,0,0-1-1,1,1,0,0,0-1,1Z"/><path class="cls-2" d="M101.33,56.06c.13.13.86-.49,2-.55s1.92.43,2,.29-.09-.29-.45-.52a2.79,2.79,0,0,0-1.64-.4,2.72,2.72,0,0,0-1.53.62C101.36,55.76,101.26,56,101.33,56.06Z"/><path class="cls-2" d="M112.19,58.46a1,1,0,0,0,1,1,1,1,0,0,0,1-1v0a1,1,0,0,0-1-1,1,1,0,0,0-1,1Z"/><path class="cls-2" d="M112,55.62c.14.12.87-.49,2-.55s1.92.43,2,.29-.08-.29-.45-.52a2.75,2.75,0,0,0-1.63-.4,2.66,2.66,0,0,0-1.55.6C112.08,55.32,112,55.56,112,55.62Z"/><path class="cls-2" d="M108.58,63.94a6.86,6.86,0,0,0-1.79-.22c-.28,0-.55,0-.61-.24a1.41,1.41,0,0,1,.14-.83c.22-.68.45-1.41.69-2.17a36.1,36.1,0,0,0,1.52-5.65,34.59,34.59,0,0,0-2,5.51l-.66,2.18a1.61,1.61,0,0,0-.07,1.1.66.66,0,0,0,.48.38,1.52,1.52,0,0,0,.47,0A7.69,7.69,0,0,0,108.58,63.94Z"/><path class="cls-10" d="M108.6,76.87A20.17,20.17,0,0,0,119,73.41s-2.34,5.65-10.28,5.4Z"/><path class="cls-10" d="M109.19,66.53a2,2,0,0,1,1.72-.83,1.75,1.75,0,0,1,1.28.59,1.13,1.13,0,0,1,.16,1.29A1.32,1.32,0,0,1,111,68a4,4,0,0,1-1.44-.75,1,1,0,0,1-.34-.31.36.36,0,0,1,0-.4"/><path class="cls-2" d="M111.82,64.5c-.18,0-.11,1.18-1.07,2.08s-2.23.84-2.23,1,.3.21.83.19a2.93,2.93,0,0,0,1.86-.77,2.53,2.53,0,0,0,.82-1.74C112.06,64.77,111.91,64.48,111.82,64.5Z"/><path class="cls-2" d="M111.52,51.49c.13.29,1.21.09,2.49.17s2.34.36,2.5.08-.13-.4-.56-.67a4.33,4.33,0,0,0-3.81-.19C111.69,51.11,111.48,51.36,111.52,51.49Z"/><path class="cls-2" d="M101.54,52.88c.2.24.94-.06,1.84-.13s1.69.07,1.84-.2-.07-.37-.42-.58a2.63,2.63,0,0,0-3,.27C101.53,52.51,101.44,52.77,101.54,52.88Z"/><path class="cls-2" d="M107.41,40.23l.61-.9a50.85,50.85,0,0,1,13.49,2.56,11.13,11.13,0,0,1,4.76,2.65c1.72,1.85,2.14,4.52,2.48,7,1.29,9.53,2.48,19.35,0,28.66a5.06,5.06,0,0,0-3.61-1.74,14.91,14.91,0,0,1-4-.72,5.42,5.42,0,0,1-2.91-3.29,6.46,6.46,0,0,1,.21-4.42c.64-1.57,1.85-3.11,1.43-4.73s-2.49-2.58-3.06-4.25c-1-2.89,3-5.79,1.95-8.66a4.13,4.13,0,0,0-2.41-2.24c-1-.43-2.16-.65-3.21-1.06A9.26,9.26,0,0,1,107.41,40.23Z"/><path class="cls-7" d="M130.76,44.94c-4.91-6.88-8.23-7.71-12.85-8l6.41,14.38c1,2.31,2.29,5.12,2.49,7.62.25,3-.78,5.43-2.15,8.06-1.65,3.16-3.46,6.17-6.29,8.33s-9.14,4.88-12.41,3.48l4.56,2.56,10.91,0,12.71,0a12.54,12.54,0,0,0,2.79-4.67C140.21,68.4,136.23,52.61,130.76,44.94Z"/><path class="cls-7" d="M139.81,89.74s-2.73-5.61-6.3-8.69-5.76-3.06-10.85-2.62-12.21,1.23-13.9.8l-.16-2.36c-.84-.08-4.27-1.76-4.94-2.76a4.61,4.61,0,0,0-1.54,4.18l-.83.31a5.33,5.33,0,0,0-3.35,6.26,2.88,2.88,0,0,0,2.62,2.23c6.11,1.06,22.44-3.36,27.36-3.37S139.81,89.74,139.81,89.74Z"/><path class="cls-2" d="M100,87a2.1,2.1,0,0,1,.43,0l1.21.11a37,37,0,0,0,4.47.07,39.31,39.31,0,0,0,6.57-.89c1.22-.27,2.5-.59,3.8-1l4-1.24A21.39,21.39,0,0,1,128.59,83a15.45,15.45,0,0,1,6.34,2,14.64,14.64,0,0,1,3.48,2.84,10,10,0,0,1,.77,1,2.08,2.08,0,0,1,.24.34,1.69,1.69,0,0,1-.28-.32c-.17-.22-.45-.53-.81-.91a15.31,15.31,0,0,0-9.76-4.69,21.38,21.38,0,0,0-8,1.17c-1.38.42-2.72.86-4,1.24s-2.59.7-3.82,1a37.81,37.81,0,0,1-6.62.83,32,32,0,0,1-4.49-.16c-.53,0-.94-.12-1.21-.16A3,3,0,0,1,100,87Z"/><path class="cls-7" d="M140.1,87.9a23.61,23.61,0,0,0-27.26-7.06l-9.79,2.07c-2.58.45-6.72,1.29-6.92,3.68a13.33,13.33,0,0,0,1.59,7.3c2.28,4,1,9.27,3.32,13.23a22.34,22.34,0,0,0,3.73,5.27,7.59,7.59,0,0,0,5.84,2.29c2.39-.25,4.35-2,5.87-3.86,3.27-4,5.31-8.89,8.37-13.06s6.68-7.24,13.11-7.64c1.17-.07,4.5,1.48,4.5,1.48C142.55,91.13,140.4,88.28,140.1,87.9Z"/><g class="cls-11"><path d="M126.93,83.13c-4.26,0-8.44,2.05-12.56,3-16.6,3.65-16.6-2.6-16.6-2.6h0c-.52,2.94,2.24,4.29,5.15,5,5.55,1.28,11.48,2,15.48.69,3.23-1,6.59-1.76,9.85-2.7s7.95-.57,10.42,1.74C136.46,84.55,131.19,83.12,126.93,83.13Z"/></g><g class="cls-11"><path d="M105.36,82.69a3.32,3.32,0,0,0,2.1,1.81,7.31,7.31,0,0,0,2.83.24,38.72,38.72,0,0,0,10.09-2.54c-2.63-.09-5.17.82-7.75,1.35s-5.47.56-7.57-1"/></g><path d="M140.94,90.47l-.08-.07-.21-.24c-.18-.21-.45-.51-.81-.89a10.69,10.69,0,0,0-3.61-2.48,10.38,10.38,0,0,0-3-.64,15.11,15.11,0,0,0-3.49.11,61.07,61.07,0,0,0-7.79,2A37.22,37.22,0,0,1,114.13,90a28.41,28.41,0,0,1-6.57-.47c-1.84-.33-3.31-.72-4.32-1l-1.17-.3-.3-.08-.11,0a.2.2,0,0,1,.11,0l.31.06,1.17.27c1,.23,2.5.6,4.34.93a29.73,29.73,0,0,0,6.53.43A35.49,35.49,0,0,0,122,88.06a52.65,52.65,0,0,1,7.81-2,15.93,15.93,0,0,1,3.52-.09,9.57,9.57,0,0,1,6.61,3.22c.35.39.62.69.79.91l.19.25Z"/><path d="M134.74,82.21a.18.18,0,0,1-.07,0l-.2-.18c-.16-.16-.42-.39-.76-.68a15.27,15.27,0,0,0-3.17-2,18.31,18.31,0,0,0-5.32-1.52,27,27,0,0,0-6.78,0,66.18,66.18,0,0,0-6.69,1.25,10,10,0,0,1-3,.24,4.76,4.76,0,0,1-2.44-.89,5.94,5.94,0,0,1-1.46-1.58,9.84,9.84,0,0,1-.75-1.44q-.25-.62-.36-1l-.08-.25a.29.29,0,0,1,0-.09.48.48,0,0,1,0,.08c0,.06.06.15.09.25s.21.54.4.94a9.64,9.64,0,0,0,.77,1.41,5.71,5.71,0,0,0,1.44,1.54,4.75,4.75,0,0,0,2.38.84,9.62,9.62,0,0,0,2.93-.25,63.44,63.44,0,0,1,6.71-1.26,26.92,26.92,0,0,1,6.83,0,18.15,18.15,0,0,1,5.34,1.58,14.15,14.15,0,0,1,3.16,2c.26.22.51.46.75.7l.18.19Z"/><path class="cls-7" d="M132.75,82.05h-.09l-.25,0-1-.16a35.18,35.18,0,0,0-3.56-.36,32.39,32.39,0,0,0-5.3.17,53.26,53.26,0,0,0-6.38,1.25,26.73,26.73,0,0,1-6.44,1,11.32,11.32,0,0,1-2.84-.34,5.72,5.72,0,0,1-2.18-1.18,8.79,8.79,0,0,1-2.17-2.85,6.12,6.12,0,0,1-.47-1.23.2.2,0,0,1,0,.08l.09.23c.08.21.21.51.4.89a9,9,0,0,0,2.19,2.78A5.48,5.48,0,0,0,107,83.41a11.46,11.46,0,0,0,2.8.32,28.44,28.44,0,0,0,6.41-1,51.83,51.83,0,0,1,6.41-1.25,32.15,32.15,0,0,1,8.89.28l1,.2.24,0Z"/><path d="M133.06,66.9a3.9,3.9,0,0,1-.13.57,4.88,4.88,0,0,1-.2.65c-.08.25-.17.54-.3.85s-.27.65-.45,1-.38.73-.6,1.11a15.48,15.48,0,0,1-3.78,4.32,12.3,12.3,0,0,1-1,.74c-.34.21-.64.41-.94.58s-.56.3-.8.41a4.91,4.91,0,0,1-.62.28q-.27.12-.54.21a3.1,3.1,0,0,1,.51-.27,5.59,5.59,0,0,0,.61-.3c.23-.14.5-.26.78-.44s.6-.36.92-.59l1-.74A16.68,16.68,0,0,0,131.27,71c.22-.38.43-.74.6-1.09s.34-.68.46-1l.34-.83c.1-.25.17-.47.22-.64A3.62,3.62,0,0,1,133.06,66.9Z"/><path d="M132.55,87l-.27,0-.34,0c-.13,0-.28,0-.45,0a8.17,8.17,0,0,0-2.81.43,15.19,15.19,0,0,0-1.81.78,21.3,21.3,0,0,0-2,1.16c-1.33.89-2.72,2-4.21,3.07L113.1,98l-2.33,1.68-.64.44a.91.91,0,0,1-.23.15l.21-.17.62-.48L113,97.91l7.59-5.68c1.5-1.09,2.89-2.18,4.23-3.06a21.63,21.63,0,0,1,2-1.16,12.74,12.74,0,0,1,1.84-.76,7.69,7.69,0,0,1,2.85-.39,2.89,2.89,0,0,1,.45,0l.34.06A1.22,1.22,0,0,1,132.55,87Z"/><path d="M143.44,97.37a3.37,3.37,0,0,1-.15-.48c-.08-.3-.19-.75-.36-1.3a12.32,12.32,0,0,0-.69-1.87,7.17,7.17,0,0,0-1.36-2,4.67,4.67,0,0,0-2-1.24,5.64,5.64,0,0,0-2-.18c-.61.07-1.22.18-1.82.31l.12-.05.34-.11a7.69,7.69,0,0,1,1.35-.27,5.51,5.51,0,0,1,2,.14A4.84,4.84,0,0,1,141,91.6a7.14,7.14,0,0,1,1.39,2.05,12.71,12.71,0,0,1,.67,1.91c.15.55.25,1,.31,1.32A3.86,3.86,0,0,1,143.44,97.37Z"/></g><g id="freepik--speech-bubble--inject-64"><circle class="cls-1" cx="136.89" cy="22.36" r="12.03"/><path class="cls-2" d="M130.2,36.26l.34-.08a1.54,1.54,0,0,1,.94.18,1.6,1.6,0,0,1,.51.42,1.33,1.33,0,0,1,.25.71A1.44,1.44,0,0,1,131,39.08a1.47,1.47,0,0,1-1.14-.39,1.38,1.38,0,0,1-.41-.62,1.52,1.52,0,0,1,0-.67,1.6,1.6,0,0,1,.43-.87c.16-.16.28-.22.27-.23a.2.2,0,0,0-.08,0l-.1.06-.12.1a1.61,1.61,0,0,0-.45,1.58,1.52,1.52,0,0,0,.43.68,1.65,1.65,0,0,0,.8.38,1.46,1.46,0,0,0,1.62-.8,1.64,1.64,0,0,0,.17-.87,1.38,1.38,0,0,0-.28-.76,1.61,1.61,0,0,0-1.53-.59l-.15,0-.11,0Z"/><path class="cls-2" d="M126.88,29.2l-.1-.17-.3-.49c-.06-.12-.14-.24-.22-.37a5,5,0,0,1-.22-.46l-.26-.54a1.66,1.66,0,0,1-.12-.31q-.06-.15-.12-.33a11.46,11.46,0,0,1-.71-3.42,12.18,12.18,0,0,1,.6-4.56l.21-.61c.09-.21.19-.41.28-.61s.09-.21.13-.31a3,3,0,0,1,.16-.31l.34-.6c0-.1.11-.2.17-.3l.21-.29.42-.59c.15-.19.32-.37.48-.56l.25-.28.12-.14.14-.13a12.34,12.34,0,0,1,1.16-1,7.52,7.52,0,0,1,.64-.47l.67-.42c.12-.06.23-.14.34-.2l.37-.18c.24-.11.49-.24.74-.33a12.45,12.45,0,0,1,1.6-.52l.41-.11.21-.05.21,0,.85-.13c.29,0,.58,0,.88,0a2.16,2.16,0,0,1,.44,0l.44,0a13.4,13.4,0,0,1,1.79.18l.88.22.23,0,.22.07.43.15.44.15.43.19.42.2.21.09.21.12.82.47.77.55A11.92,11.92,0,0,1,148.47,19l.24.93.14.93,0,.23v.24l0,.46,0,.47,0,.46,0,.46v.23l0,.23-.12.9a13.19,13.19,0,0,1-.48,1.74l-.14.42c-.05.14-.12.27-.18.4s-.23.54-.36.79-.29.51-.43.76l-.11.18-.13.18-.24.34a13.07,13.07,0,0,1-1.07,1.29c-.19.2-.39.38-.59.57l-.3.28c-.1.09-.21.16-.32.25l-.63.48c-.22.15-.45.28-.68.42a10.89,10.89,0,0,1-1.35.72l-.17.08-.17.06-.34.13c-.23.08-.46.18-.69.25l-.71.17-.33.09-.34.06-.68.1-.33,0h-.34c-.22,0-.45,0-.68,0l-.65,0a12,12,0,0,1-4.47-1.1c-.15-.07-.31-.13-.46-.21l-.41-.24-.41-.23-.2-.11-.17-.13-.68-.49c-.21-.16-.39-.33-.58-.49l-.26-.23a1.31,1.31,0,0,1-.24-.23l-.46-.4-.34-.37-.26-.34-.33-.46-.12-.15.11.16.34.46.25.34.34.38.4.44.24.23.27.23c.18.16.36.34.57.5l.68.49.18.13.19.12.41.23.42.25.46.21a12.08,12.08,0,0,0,4.49,1.12l.66,0,.67,0,.34,0,.34,0,.69-.11.34,0,.33-.09.71-.18c.24-.07.46-.16.7-.24l.36-.13.17-.07.17-.08a11.28,11.28,0,0,0,1.38-.72c.22-.14.45-.27.67-.42l.64-.49.34-.25.3-.28c.2-.19.41-.37.6-.57a13.29,13.29,0,0,0,1.08-1.3,3,3,0,0,1,.25-.34l.12-.18.11-.19.43-.75c.14-.26.25-.53.37-.8a3.65,3.65,0,0,0,.18-.41l.15-.43a11.77,11.77,0,0,0,.47-1.74c0-.3.09-.61.13-.92l0-.22v-.24l0-.46,0-.47,0-.47,0-.47v-.24l0-.23-.14-.94-.24-.93a12,12,0,0,0-4.33-6.35l-.79-.56-.82-.47-.21-.12-.21-.09-.43-.2-.43-.19-.44-.15-.45-.15-.22-.08-.22-.05-.9-.21a11.94,11.94,0,0,0-1.8-.19l-.44,0h-.45c-.3,0-.59,0-.88.05l-.86.14-.22,0a.8.8,0,0,0-.21.05l-.42.11a13,13,0,0,0-1.6.52c-.26.11-.5.24-.75.36l-.37.17-.34.21-.67.42c-.23.15-.43.32-.64.48a11.31,11.31,0,0,0-1.17,1l-.14.13L128,14l-.25.28c-.17.2-.34.38-.48.57l-.43.59-.21.3c-.06.1-.12.2-.17.3l-.34.61A1.77,1.77,0,0,0,126,17l-.14.31c-.1.2-.19.41-.27.61s-.15.42-.22.62a11.93,11.93,0,0,0-.58,4.59,11.19,11.19,0,0,0,.73,3.43l.12.34a1.88,1.88,0,0,0,.12.3l.27.54c.08.17.15.32.23.46l.22.36.31.49A.87.87,0,0,0,126.88,29.2Z"/><polygon class="cls-3" points="130.82 22.66 132.6 20.88 136.04 23.93 142.78 17.44 144.44 19.22 135.79 27.37 130.82 22.66"/></g></g></svg>