<svg xmlns="http://www.w3.org/2000/svg" viewBox="0 0 155.5 145.17"><defs><style>.cls-1{fill:#37474f;}.cls-2{fill:#263238;}.cls-3{fill:#dbdbdb;}.cls-4{fill:#c7c7c7;}.cls-5{fill:#7e57c2;}.cls-6{fill:#20c997;}.cls-7{fill:#fff;}.cls-8{fill:#455a64;}.cls-9{fill:#eb9481;}.cls-10{fill:#f7bf34;}.cls-11,.cls-12{opacity:0.1;}.cls-11{isolation:isolate;}</style></defs><title>testafter0</title><g id="course"><g id="freepik--Character--inject-251"><path class="cls-1" d="M57.57,121c-.42.54-35.78,2.13-37.47,1.64a.94.94,0,0,1-.23-.1c-2.08-1-11-7.72-12.45-10.57-1.13-2.27,5.6-14.71,8-16.84a11,11,0,0,1,4.46-2S28,69.52,33.08,64.58c1.27-1.24,23.2-1.73,27.11.06,1.68.76,5.76,4.92,5.87,5.68h0C66.16,71.41,58,120.46,57.57,121Z"/><path class="cls-2" d="M57.81,121c-.42.54-35.78,2.13-37.46,1.64a1,1,0,0,1-.24-.1c3.41-9.16,19.32-52.15,19.77-52.42s21.41-.16,26.43.21C66.41,71.41,58.24,120.46,57.81,121Z"/><path class="cls-1" d="M44.82,66.32c-.35-.33-.58-5.14.07-6.09s9.13-.55,9.63.37.74,5.72.48,5.89-1.65.34-1.84,0S53,62.25,52.83,62s-6-.59-6.24-.29.29,4.32.06,4.49S45.17,66.65,44.82,66.32Z"/><rect class="cls-3" x="23.81" y="87.59" width="3.3" height="2.87" transform="translate(-65.96 74.3) rotate(-64.89)"/><rect class="cls-4" x="22.54" y="88.92" width="3.76" height="4.67" transform="translate(-68.58 74.64) rotate(-64.89)"/><path class="cls-5" d="M26.67,99.54l-7.32,15.6L9.29,110.43,16.6,94.82c1.45-3.08,4.51-4.54,7.58-3.11S28.11,96.46,26.67,99.54Z"/><path class="cls-6" d="M26.67,99.54l-7.32,15.6L9.29,110.43,16.6,94.82c1.45-3.08,4.51-4.54,7.58-3.11S28.11,96.46,26.67,99.54Z"/><path class="cls-7" d="M23.1,92.62a.43.43,0,1,1-.78-.37h0A.44.44,0,0,1,22.9,92,.43.43,0,0,1,23.1,92.62Z"/><path class="cls-7" d="M26.46,98.49a.44.44,0,0,1-.79-.37.44.44,0,0,1,.58-.2.43.43,0,0,1,.21.57Z"/><path class="cls-7" d="M21.82,96.8a.43.43,0,0,1-.58.2h0a.44.44,0,0,1-.2-.58.43.43,0,0,1,.78.38Z"/><path class="cls-7" d="M20.45,100.73a.42.42,0,0,1-.56.21h0a.43.43,0,1,1,.36-.78A.44.44,0,0,1,20.45,100.73Z"/><path class="cls-7" d="M14.57,102.74A.43.43,0,0,1,14,103h0a.43.43,0,0,1-.2-.58.43.43,0,0,1,.78.36Z"/><path class="cls-7" d="M15.81,99.07A.44.44,0,1,1,15,98.7a.44.44,0,1,1,.79.37Z"/><path class="cls-7" d="M17.64,95.43a.45.45,0,0,1-.58.2.43.43,0,1,1,.58-.2Z"/><path class="cls-7" d="M20.4,94a.44.44,0,0,1-.79-.37.44.44,0,0,1,.57-.21h0A.45.45,0,0,1,20.4,94Z"/><path class="cls-7" d="M19,98a.44.44,0,0,1-.58.2A.43.43,0,1,1,19,98Z"/><path class="cls-7" d="M24.78,95.61a.43.43,0,0,1-.78-.37.43.43,0,0,1,.79.36Z"/><path class="cls-7" d="M23.48,99.64a.43.43,0,0,1-.57.2.43.43,0,1,1,.57-.21Z"/><path class="cls-7" d="M17.47,101.77a.43.43,0,0,1-.58.2.43.43,0,0,1,.37-.78.44.44,0,0,1,.21.58Z"/><path class="cls-7" d="M20.24,106.86a.43.43,0,1,1-.21-.58.44.44,0,0,1,.21.58Z"/><path class="cls-7" d="M18.8,109.78a.43.43,0,0,1-.58.2.43.43,0,0,1,.37-.78.44.44,0,0,1,.21.58Z"/><path class="cls-7" d="M16.22,105.06a.44.44,0,0,1-.58.21h0a.43.43,0,0,1-.2-.58.43.43,0,0,1,.78.37Z"/><path class="cls-7" d="M12.15,108.76a.42.42,0,0,1-.58.2.43.43,0,0,1-.2-.58h0a.43.43,0,1,1,.78.38Z"/><path class="cls-7" d="M19.07,104.24a.43.43,0,1,1-.21-.57.43.43,0,0,1,.21.57Z"/><path class="cls-7" d="M17.63,107.45a.43.43,0,0,1-.78-.37.43.43,0,1,1,.78.37Z"/><path class="cls-7" d="M16.14,110.63a.43.43,0,0,1-.57.2.43.43,0,1,1,.57-.21Z"/><path class="cls-7" d="M17.45,113a.44.44,0,0,1-.58.21.44.44,0,0,1-.2-.58.42.42,0,0,1,.58-.2A.43.43,0,0,1,17.45,113Z"/><path class="cls-7" d="M13.51,105.75a.45.45,0,0,1-.59.2.44.44,0,0,1-.2-.58h0a.43.43,0,0,1,.58-.2.44.44,0,0,1,.21.58Z"/><path class="cls-7" d="M14.8,108.08a.42.42,0,0,1-.57.2.43.43,0,0,1-.21-.57.44.44,0,0,1,.58-.21.44.44,0,0,1,.21.58Z"/><path class="cls-7" d="M20,112.44a.43.43,0,0,1-.57.2.43.43,0,0,1,.36-.78A.44.44,0,0,1,20,112.44Z"/><path class="cls-7" d="M13.45,111.19a.43.43,0,1,1-.78-.36.43.43,0,0,1,.78.36Z"/><path class="cls-7" d="M23,106.21a.43.43,0,1,1-.78-.36.43.43,0,0,1,.78.36Z"/><path class="cls-7" d="M21.55,109.29a.43.43,0,0,1-.57.21.43.43,0,1,1,.57-.21Z"/><path class="cls-7" d="M21.83,103.68a.44.44,0,0,1-.58.21.43.43,0,0,1,.37-.78.44.44,0,0,1,.21.57Z"/><path class="cls-7" d="M24.86,102.73a.43.43,0,0,1-.78-.37.43.43,0,0,1,.79.36Z"/><path class="cls-8" d="M8.12,110.65c.84,4.17,10.1,8.66,10.73,8.64s6.78-15.23,6.78-15.23-7.49-2.46-10.86-6.84C14.77,97.22,7.85,109.34,8.12,110.65Z"/><path class="cls-8" d="M79.57,145.17H43.75c-2.19-8.33-4.19-15.68-5.47-20.33-.8-2.92-1.31-4.77-1.41-5.12,0,0,0,0,0-.06H74.11l1.13,5.23c.45,2.11,1,4.78,1.68,7.83.06.26.12.53.17.81C77.84,137,78.69,141,79.57,145.17Z"/><path class="cls-2" d="M49.18,145.17H48.5q-2.74-10.12-5.36-20.3L43,124.3c0-.16.2-.23.24-.07s.13.43.19.64C45.4,131.62,47.3,138.39,49.18,145.17Z"/><path class="cls-8" d="M71.2,119.72A35,35,0,0,1,69.93,125c-.41,1.35-.92,2.82-1.49,4.33-.12.34-.25.68-.38,1-1.8,4.6-4.16,9.29-6.6,11.52h0a7.29,7.29,0,0,1-.93.73l-2.08,1.28a0,0,0,0,1,0,0h0c0,.13-.09.58-.21,1.3h-35a48.33,48.33,0,0,1,2.6-20.42,40.23,40.23,0,0,1,2-5Z"/><path class="cls-2" d="M67,139.84a68,68,0,0,1-6.78,3.25l-1.86.78h0a.56.56,0,0,0-.12,0c-.54.23-1.08.44-1.62.65s-1.06.42-1.6.61H53.88c.81-.41,1.67-.76,2.5-1.13l3.46-1.52,1.58-.69h0c1.8-.8,3.6-1.61,5.46-2.27C67.09,139.46,67.21,139.74,67,139.84Z"/><path class="cls-2" d="M58.41,143.89c0,.27,0,.73-.07,1.28H58a12.43,12.43,0,0,1,.34-1.26v0s.08-.06.1,0h0Z"/><path class="cls-2" d="M31.26,121.9c-.48.95-.9,1.9-1.3,2.89a38.92,38.92,0,0,0-2.65,18.73c.06.55.14,1.1.22,1.65h-.6a39,39,0,0,1-.42-4.83,37,37,0,0,1,3-15.56c.45-1,1-2,1.49-3a.12.12,0,0,1,.21.11Z"/><path class="cls-2" d="M57.54,134.14c0-1.35.12-2.69.19-4,.16-3.18.28-6.37.58-9.53a.09.09,0,0,1,.1-.1.1.1,0,0,1,.1.1c0,2.45-.06,4.92-.11,7.37,0,1.23-.06,2.46-.1,3.69s-.07,2.34,0,3.51c.07.89.26,2.61,1.41,2.72s2-1.08,2.23-1.94a34,34,0,0,0,1.16-6.81c.13-1.35.28-6.82.21-8.19,0-.09.13-.08.14,0,.07,1.38.26,2.76.31,4.16s0,2.78,0,4.17-.2,2.65-.4,4a14.14,14.14,0,0,1-.85,3.52,3.12,3.12,0,0,1-2.13,2l-.38,0c0,.28-.06.57-.08.85,0,.44-.08.88-.14,1.33a9.4,9.4,0,0,1-.27,1.28,4.79,4.79,0,0,1-.46,1.23.07.07,0,0,1-.09,0,.05.05,0,0,1,0-.05,6,6,0,0,1,.1-1.27c.07-.43.13-.87.21-1.3s.17-.84.26-1.26.09-.57.14-.86A2.07,2.07,0,0,1,58,137.54,7.6,7.6,0,0,1,57.54,134.14Z"/><path class="cls-9" d="M56.89,73.25C61.41,78.91,79.13,99,89,100.88c6.63,1.27,27.93-9.58,32.6-13.51,1.89-1.6-8.76-17.5-11.36-16.86-2.82.7-18.15,10.89-20.15,10.77s-17.68-8.94-27.2-12.84C57.15,66.07,54.35,70.06,56.89,73.25Z"/><path class="cls-9" d="M115.73,91.16c4.09-1.58,16.52-10.29,18.59-12.56s7.53-9.2,6-10.95-3.33.14-3.33.14,2.07-3.58.1-4.92c-1.57-1.07-4.19,1.48-4.19,1.48s2.06-4-.06-5.12c-1.94-1-4.07,2.47-4.07,2.47s1.38-3.55-.66-4.14c-2.47-.71-4.86,5.44-7.33,7.77-.56.53-17.1,8.64-17.1,8.64Z"/><path class="cls-2" d="M128.63,61.53c-2.28,4.42-3.34,6.19-7.2,9-.07,0,0,.18.08.13,4-2.43,5.44-4.44,7.33-9.09C128.94,61.37,128.73,61.32,128.63,61.53Z"/><path class="cls-2" d="M132.8,64.35c-2.25,4.54-4,6.25-7.79,9.51-.06,0,0,.14.08.1,4-2.89,6.22-4.75,7.87-9.58C133,64.17,132.9,64.14,132.8,64.35Z"/><path class="cls-2" d="M136.75,68c-2.5,4.23-4.24,6.31-8.36,9a.1.1,0,0,0,0,.13.08.08,0,0,0,.12,0A16.24,16.24,0,0,0,136.87,68C137,67.76,136.91,67.68,136.75,68Z"/><path class="cls-7" d="M153.25,80.46c-10.87,3.17-21.59,6.35-32,9.52-6.24-14-7.16-28-11.43-42q16.34-4.75,32-9.53C148.09,52.42,149,66.44,153.25,80.46Z"/><path class="cls-2" d="M153.25,80.46q-8.13,2.42-16.11,4.82T121.3,90.1l-.11,0,0-.11c-6.27-14-7.2-28-11.5-42l-.06-.18.18-.06Q126.1,43,141.81,38.27l.12,0,.06.12a107.47,107.47,0,0,1,6.4,21.08C149.92,66.47,151.16,73.46,153.25,80.46Zm0,0c-2.16-7-3.48-14-5.05-21a109.58,109.58,0,0,0-6.44-21l.18.09c-10.45,3.2-21.16,6.39-32,9.59l.13-.24c4.25,14,5.15,28.05,11.36,42.07l-.16-.08q7.82-2.36,15.83-4.71T153.25,80.46Z"/><path class="cls-3" d="M115,54q9.21-2.64,18.32-5.3c.1.36.21.72.31,1.08q-9.12,2.66-18.37,5.3C115.14,54.78,115.05,54.42,115,54Z"/><path class="cls-3" d="M115.62,56.79l18.43-5.31.29,1.08-18.48,5.31Z"/><path class="cls-3" d="M116.23,59.51q9.3-2.64,18.53-5.3c.08.38.17.72.26,1.08q-9.24,2.66-18.56,5.3C116.39,60.23,116.31,59.87,116.23,59.51Z"/><path class="cls-3" d="M116.82,62.24,144,54.48l.26,1.08-27.22,7.76C117,63,116.9,62.6,116.82,62.24Z"/><path class="cls-3" d="M117.41,65l27.25-7.76c.09.36.17.72.25,1.08q-13.6,3.88-27.27,7.76C117.55,65.68,117.48,65.32,117.41,65Z"/><path class="cls-3" d="M118,67.68l27.27-7.76c.08.38.16.72.24,1.08l-27.27,7.76C118.14,68.41,118.06,68.06,118,67.68Z"/><path class="cls-3" d="M118.59,70.41l27.27-7.76c.08.38.15.72.23,1.08l-27.25,7.76C118.75,71.13,118.67,70.77,118.59,70.41Z"/><path class="cls-3" d="M119.22,73.14c9-2.59,18.11-5.17,27.21-7.76.08.36.15.72.23,1.08Q133,70.35,119.48,74.22C119.39,73.86,119.31,73.5,119.22,73.14Z"/><path class="cls-3" d="M119.9,75.86Q133.37,72,147,68.1c.08.36.15.72.23,1.08q-13.6,3.88-27.06,7.76C120.09,76.58,120,76.22,119.9,75.86Z"/><path class="cls-3" d="M120.64,78.59q13.37-3.89,27-7.76c.08.38.16.72.25,1.08-9,2.59-18,5.17-26.91,7.76C120.85,79.31,120.75,79,120.64,78.59Z"/><path class="cls-3" d="M121.46,81.31q13.24-3.87,26.8-7.76c.09.38.18.72.27,1.08q-13.5,3.89-26.72,7.76C121.69,82,121.58,81.69,121.46,81.31Z"/><path class="cls-3" d="M122.36,84q13.11-3.87,26.59-7.76c.1.36.19.72.29,1.08q-13.41,3.89-26.49,7.76Z"/><path class="cls-6" d="M136.41,54.39c-.4-3-.9-5.89-1.56-8.83,2.07,2.11,4.05,4.22,6,6.33l-.57.51c-1.35-1.48-2.72-3-4.14-4.45.42,2.1.76,4.2,1,6.3Z"/><path class="cls-6" d="M135.87,52.86l-.44-.61q2-1.52,4-3l.46.61Q137.9,51.35,135.87,52.86Z"/><path class="cls-6" d="M134.69,44.4A8.17,8.17,0,0,0,133.05,46a7.19,7.19,0,0,0-1.36,4.34,5.33,5.33,0,0,0,.48,2.19,4.87,4.87,0,0,0,3.35,2.62,5.9,5.9,0,0,0,4.29-1.09,6.63,6.63,0,0,0,2.84-3.48,5.06,5.06,0,0,0-.55-4.33,5.31,5.31,0,0,0-1.72-1.51,5.58,5.58,0,0,0-2.2-.71,4.79,4.79,0,0,0-2.28.32,6.76,6.76,0,0,0-2,1.23,7.21,7.21,0,0,1,.86-.8,5.43,5.43,0,0,1,1-.61,4.91,4.91,0,0,1,2.35-.5A6,6,0,0,1,142.58,46a5.15,5.15,0,0,1,.95,2.36,5.93,5.93,0,0,1-.19,2.51,7.36,7.36,0,0,1-3.14,3.91,8.37,8.37,0,0,1-2.32,1,5.45,5.45,0,0,1-2.54.11,4.9,4.9,0,0,1-2.22-1.1,5.53,5.53,0,0,1-1.49-2,6.56,6.56,0,0,1,0-4.85A7.09,7.09,0,0,1,134.69,44.4Z"/><path class="cls-6" d="M138.85,47.23l-1.33-1.79.59-.44c.46.6.9,1.19,1.34,1.79Z"/><path class="cls-6" d="M137.86,47l-.45-.62,1.71-1.23.46.62Z"/><path class="cls-9" d="M103.63,74s4-4.13,5.84-6.18,6.13-8.55,8.48-8.39c2.65.17.73,7-2.47,10.71,0,0,4.26,6.79,1.35,10.48-.64.79-5.23,3.31-6.37,3.08Z"/><path class="cls-2" d="M115.28,70.61c1.76,2.58,3,6.52,1.72,9.37,0,0,0,.08,0,.09a.07.07,0,0,0,.08,0c1.77-2.88.38-7.45-1.31-9.66C115.48,70,114.83,70,115.28,70.61Z"/><path class="cls-10" d="M103.63,74l12.1,17.18a5.37,5.37,0,0,1-3.32,5.13c-3.61,1.58-18.54,7-24.46,5S65.17,84.72,57.9,75.06s3.48-7.74,5.53-6.82S89.53,80.5,90.38,80.49s6.44-4.27,9.09-5.59S103.63,74,103.63,74Z"/><path class="cls-11" d="M96.58,101.12c-3.41.63-6.56.83-8.62.14-5.92-2-22.78-16.53-30.06-26.2-.46-.61-.85-1.18-1.17-1.7Z"/><path class="cls-2" d="M111,94.71c-1.11-1.36-2-2.87-3-4.32s-1.9-2.87-2.83-4.32c-1.9-2.91-3.86-5.81-5.55-8.83a.07.07,0,0,1,0-.08.06.06,0,0,1,.07,0c2.18,2.75,4.09,5.73,6,8.66q1.45,2.2,2.83,4.44a45.59,45.59,0,0,1,2.55,4.39C111.17,94.73,111.06,94.77,111,94.71Z"/><g class="cls-12"><path d="M107.14,98.27l-1.37.47a9.63,9.63,0,0,1-.1-1.52c0-1,.07-1.89.06-2.8a13.71,13.71,0,0,0-.26-2.72,9.41,9.41,0,0,0-.92-2.52c-.1-.2-.22-.38-.33-.57a4.8,4.8,0,0,0-.36-.52c-.26-.34-.54-.7-.84-1l-1.74-2.12c-.59-.71-1.17-1.42-1.75-2.15s-1.13-1.49-1.65-2.28a15.44,15.44,0,0,1-1.39-2.56,6.93,6.93,0,0,1-.34-1L97.57,76a10.6,10.6,0,0,0,.52,1.2,24.16,24.16,0,0,0,1.38,2.22c1,1.48,2.08,3,3.16,4.47.53.76,1.08,1.51,1.58,2.3.25.39.5.8.72,1.23.11.22.22.44.32.68a6.44,6.44,0,0,1,.24.7,32,32,0,0,1,.86,5.58A22.44,22.44,0,0,0,107.14,98.27Z"/><path d="M102.36,99.75l-1.11.31a17.67,17.67,0,0,1-.52-4.64V93.06c0-.38,0-.78,0-1.16a7,7,0,0,0-.11-1.11,1.05,1.05,0,0,0-.06-.24l-.1-.26-.11-.25-.13-.24a4.74,4.74,0,0,0-.69-.91,8.35,8.35,0,0,0-1.83-1.41c-.34-.21-.69-.38-1-.57l-1.06-.54a6.53,6.53,0,0,1-2-1.46,4.14,4.14,0,0,1-.38-.55,1.77,1.77,0,0,1-.15-.31l-.12-.3a7.38,7.38,0,0,1-.31-1.23,11.68,11.68,0,0,1-.14-2.44c0-.23,0-.47,0-.71l.76-.5c0,.4,0,.8,0,1.21a15.78,15.78,0,0,0,.26,2.27,7.92,7.92,0,0,0,.29,1.06l.1.25c0,.07.07.15.11.22a3.87,3.87,0,0,0,.27.43,8.34,8.34,0,0,0,1.6,1.54c.62.47,1.29.9,1.95,1.34a14.15,14.15,0,0,1,2,1.4,5.56,5.56,0,0,1,.86.89A4.8,4.8,0,0,1,101,90l.16.27a3.05,3.05,0,0,1,.13.32,6.53,6.53,0,0,1,.28,1.22c.06.41.1.81.13,1.2.07.8.1,1.59.16,2.37s.11,1.56.18,2.32A14.07,14.07,0,0,0,102.36,99.75Z"/></g><path class="cls-10" d="M24,127.24c0,.05,51.73-2.36,52.07-2.68.15-.15.82-3.09,0-7.18-2.37-12.25-9.49-37.28-15.77-47.87C58.8,66.86,51.73,63,46.6,68,36.2,78.12,28,104,24.83,118.14,23.25,125.07,23.82,127,24,127.24Z"/><g class="cls-12"><path d="M75.9,116.21a3.54,3.54,0,0,0-.46,0,35.79,35.79,0,0,0-4.37.69c-3,.6-6,1.29-9,2-1.52.34-3.05.7-4.62,1-.79.13-1.58.25-2.41.31-.41,0-.82.06-1.27,0a9.91,9.91,0,0,1-1.24-.09,54,54,0,0,1-9.27-2.33,32.32,32.32,0,0,0-8.88-1.47c-.68,0-1.41.06-2.15.13s-1.48.18-2.23.29c-1.48.24-3,.53-4.49.86l-.54.12c.18-.79.38-1.63.6-2.49a38.55,38.55,0,0,1,4-1.07c.79-.17,1.59-.31,2.4-.41.41,0,.82-.09,1.23-.11a9.26,9.26,0,0,1,1.29,0,14,14,0,0,1,4.84,1.22c1.49.62,2.88,1.35,4.32,2A22.66,22.66,0,0,0,48,118.17a16.37,16.37,0,0,0,4.53.24c.37,0,.75-.09,1.1-.14s.69-.14,1-.22c.72-.19,1.45-.38,2.18-.61l4.46-1.33c1.49-.45,3-.89,4.52-1.3s3.06-.78,4.64-1.07a27.6,27.6,0,0,1,4.8-.48C75.5,114.29,75.71,115.28,75.9,116.21Z"/><path d="M73.65,106.6a27.52,27.52,0,0,0-3.22-.92,14.4,14.4,0,0,0-1.85-.24h-.45a3,3,0,0,0-.42,0,6.27,6.27,0,0,0-.85.14,13.7,13.7,0,0,0-3.45,1.49c-1.14.65-2.27,1.4-3.37,2.16a26.1,26.1,0,0,1-3.47,2.11,11.58,11.58,0,0,1-2,.76c-.35.09-.7.16-1,.22l-.55,0a2.71,2.71,0,0,1-.57,0,10,10,0,0,1-2.1-.38c-.67-.16-1.31-.38-2-.58-1.29-.43-2.54-.89-3.79-1.32s-2.5-.86-3.75-1.25a25.82,25.82,0,0,0-3.69-.91,7,7,0,0,0-1.77,0,12.68,12.68,0,0,0-1.84.34,32,32,0,0,0-3.69,1.24c-1.08.44-2.16.91-3.23,1.41.11-.43.24-.87.38-1.32.75-.46,1.52-.9,2.3-1.31a25.36,25.36,0,0,1,3.79-1.64,13.63,13.63,0,0,1,2.07-.52A8.26,8.26,0,0,1,37.4,106a29.2,29.2,0,0,1,7.91,2.3L49,109.83c.61.25,1.23.49,1.83.72a12.38,12.38,0,0,0,1.79.56,3,3,0,0,0,.43.06l.46,0H54a3.59,3.59,0,0,0,.46,0,8.44,8.44,0,0,0,1.86-.46,14.7,14.7,0,0,0,3.41-1.93c.54-.38,1-.82,1.56-1.24l1.55-1.31A11.06,11.06,0,0,1,66.44,104a6,6,0,0,1,1.11-.25,5.46,5.46,0,0,1,.58,0h.55a12.8,12.8,0,0,1,2.12.33,18.56,18.56,0,0,1,2.4.76Z"/></g><path class="cls-10" d="M41.17,69.19C24.3,76.35,11.2,82.58,13.1,89.06c.76,2.55,5.15,9.42,10.81,9.41,4.45,0,12.37-7.14,21.41-19.62C50,72.4,51.83,64.67,41.17,69.19Z"/><path class="cls-2" d="M44.17,82.28c-.72.59-1.44,1.2-2.14,1.82l.45-.52c1.21-1.43,2.4-2.87,3.59-4.32,0,0,0-.07,0,0-2.27,2.42-4.54,4.81-6.84,7.22s-8.3,8.51-9.76,9.71c0,0,0,.08,0,0,1.32-1,5-4.12,6.2-5.28,1.79-1.75,3.5-3.55,5.15-5.41a42.78,42.78,0,0,0,3.44-3.16S44.21,82.24,44.17,82.28Z"/><path class="cls-9" d="M19.13,94.54c-7.37-3-12.15-25.41-14-40.47-.35-2.87,22.32-5.63,22.34-2.54C27.6,69.15,27.22,97.85,19.13,94.54Z"/><path class="cls-9" d="M2.32,42.33c.13,4.81,4.25,16.84,6.14,18.8s16.29-4.92,17.08-7.57S27,35.15,23.85,31.4,2.18,37.35,2.32,42.33Z"/><path class="cls-9" d="M27.57,38.14c-1.26,2.21-3.15-.54-3.15-.54S26.19,42.22,24,44s-4.27-1.69-4.43-1.93c.09.24,1.61,4.54-.76,6.09S14.76,46,14.66,45.75c0,.27.14,3.68-1.94,4.46C9.16,51.55,8.6,42.82,6.2,40.88c0,0-3.75,1.74-3.88,1.82s-.7-6.34,2.09-9.43a2.66,2.66,0,0,1,3.28-.58S7.17,30,9,28.75c.94-.66,2.84.26,2.84.26a3.34,3.34,0,0,1,1.37-3.19,3.18,3.18,0,0,1,3,.21s.63-2.2,2.3-2.61C21.89,22.57,30.25,33.38,27.57,38.14Z"/><path class="cls-2" d="M16.54,26.14s0,0,0-.05a0,0,0,0,1,0,0,23.72,23.72,0,0,1,8,11.64c0,.15-.18.28-.26.12A48.88,48.88,0,0,0,16.54,26.14Z"/><path class="cls-2" d="M11.81,28.92s0-.1.07-.06a22.16,22.16,0,0,1,7.89,13.25c0,.19-.13.38-.18.17C18.77,38.76,14.8,32.17,11.81,28.92Z"/><path class="cls-2" d="M14.58,46.14c-1-5.09-3.51-9.35-6.73-13.35,0,0,0-.1.08-.07C10,34.24,11.82,37,13,39.28a13.75,13.75,0,0,1,1.74,6.81C14.77,46.2,14.6,46.25,14.58,46.14Z"/><path class="cls-2" d="M24.42,37.59a15.69,15.69,0,0,1,.52,2.8,5.3,5.3,0,0,1-.38,2.7,1.76,1.76,0,0,1-.9.84,2.43,2.43,0,0,1-1.25.15,3,3,0,0,1-2-1.48l-1.09-1.77.41,2.05a8.52,8.52,0,0,1,.13,2.76,3.11,3.11,0,0,1-1.16,2.22,1.75,1.75,0,0,1-2.2-.06A5.3,5.3,0,0,1,15,45.61l-.9-2.3.1,2.46a7.79,7.79,0,0,1-.18,2,3.25,3.25,0,0,1-.86,1.7,1.56,1.56,0,0,1-1.62.35,3.5,3.5,0,0,1-1.39-1.36,27.3,27.3,0,0,1-1.84-3.86c-.28-.67-.57-1.33-.89-2A5.25,5.25,0,0,0,6.2,40.87a5.65,5.65,0,0,1,1.06,1.86c.26.67.5,1.36.73,2a23.6,23.6,0,0,0,1.7,4,4.16,4.16,0,0,0,1.62,1.68,2.23,2.23,0,0,0,2.41-.42A4,4,0,0,0,14.85,48a8.67,8.67,0,0,0,.23-2.27l-.8.16A6.09,6.09,0,0,0,16,48.49a2.5,2.5,0,0,0,1.61.59,2.89,2.89,0,0,0,1.6-.53,3.85,3.85,0,0,0,1.47-2.81,9.1,9.1,0,0,0-.19-3l-.68.28a3.66,3.66,0,0,0,2.56,1.7,3.13,3.13,0,0,0,1.54-.27A2.24,2.24,0,0,0,25,43.29a5.45,5.45,0,0,0,.2-2.93A12.7,12.7,0,0,0,24.42,37.59Z"/><path class="cls-9" d="M26,54.57s11.69-21.39.76-21.68c-2.65-.07-13.19,4.21-12.43,6.34,1,2.76,5.68,1.91,8.58.91,0,0-3.46,6.09.06,9.76A14,14,0,0,1,26,54.57Z"/><path class="cls-2" d="M27.5,32.88a10.73,10.73,0,0,0-3.09.33,23.82,23.82,0,0,0-3,.91,36.15,36.15,0,0,0-5.69,2.62,6.1,6.1,0,0,0-1.3,1,2.15,2.15,0,0,0-.48.81,1.32,1.32,0,0,0-.08.52,1.52,1.52,0,0,0,.09.51A2.7,2.7,0,0,0,15.15,41a4.88,4.88,0,0,0,1.62.52A9.43,9.43,0,0,0,20,41.34a21.33,21.33,0,0,0,3-.86L22.59,40a12.49,12.49,0,0,0-.9,2.21,12.34,12.34,0,0,0-.47,2.33,8.58,8.58,0,0,0,.15,2.37,6.19,6.19,0,0,0,.9,2.15,6.73,6.73,0,0,1-.65-2.2,8.63,8.63,0,0,1,.06-2.27,10.38,10.38,0,0,1,.57-2.19,11.86,11.86,0,0,1,1-2l.48-.79-.91.27a23,23,0,0,1-2.94.73,9.07,9.07,0,0,1-2.94.12,2.56,2.56,0,0,1-2.13-1.33c-.29-.64.59-1.36,1.4-1.89a29.94,29.94,0,0,1,2.65-1.49c.92-.47,1.84-.92,2.78-1.33A20.51,20.51,0,0,1,27.5,32.88Z"/><path class="cls-10" d="M28.41,55.88,4.84,61a16.52,16.52,0,0,0-.19,9.11C7.26,78.94,15,97.84,21.28,97.41c6.78-.47,8.42-24.09,8.33-35.66A13,13,0,0,0,28.41,55.88Z"/><g class="cls-12"><path d="M29.58,65.07c0,.5,0,1,0,1.52-.57.28-1.14.55-1.75.78a12.84,12.84,0,0,1-1.36.47c-.23.07-.47.14-.71.19a4.83,4.83,0,0,1-.76.13A8.11,8.11,0,0,1,22,67.92c-.93-.21-1.81-.51-2.71-.71a13,13,0,0,0-2.7-.38,9.18,9.18,0,0,0-2.66.3c-.21.05-.42.12-.62.18s-.38.15-.6.23l-1.21.58-2.47,1.2c-.82.41-1.66.81-2.5,1.2-.52.24-1,.46-1.57.68-.12-.38-.23-.73-.33-1.08a7.44,7.44,0,0,1-.2-.78l3.91-1.57c.86-.34,1.71-.7,2.61-1,.44-.14.89-.3,1.36-.41a7.31,7.31,0,0,1,.76-.15,6.87,6.87,0,0,1,.73-.07,31.62,31.62,0,0,1,5.63.46,19,19,0,0,0,5.32,0c.38-.07.82-.17,1.24-.29s.84-.24,1.27-.37C28,65.67,28.81,65.38,29.58,65.07Z"/><path d="M29.45,69.19c0,.28,0,.55,0,.83-.31.26-.63.51-1,.75a15.85,15.85,0,0,1-2,1.33,9.61,9.61,0,0,1-1.14.5,4.71,4.71,0,0,1-1.29.27,17.43,17.43,0,0,1-4.83-.57l-2.3-.53-1.14-.25a10,10,0,0,0-1.1-.15h-.25l-.27,0-.27,0a1.34,1.34,0,0,0-.27.07A5.39,5.39,0,0,0,12.5,72a8.17,8.17,0,0,0-1.8,1.46c-.28.28-.53.58-.8.87l-.75.91a6.59,6.59,0,0,1-1.9,1.63A.88.88,0,0,1,7,77l-.34-.91L6.84,76a8,8,0,0,0,1.87-1.2c.61-.49,1.18-1,1.75-1.59a16.12,16.12,0,0,1,1.83-1.57A6.59,6.59,0,0,1,13.35,71a5.17,5.17,0,0,1,.59-.23l.3-.08a2.21,2.21,0,0,1,.34-.06,6.63,6.63,0,0,1,1.26,0c.4,0,.8.09,1.2.15l2.33.4c.78.13,1.54.26,2.31.36a14,14,0,0,0,2.24.17,3.68,3.68,0,0,0,1-.15,8,8,0,0,0,1-.38,17.14,17.14,0,0,0,2-1.08C28.5,69.83,29,69.53,29.45,69.19Z"/></g><path class="cls-2" d="M28.11,62.23a214.23,214.23,0,0,1-21.71,5,0,0,0,0,1,0,0s0,0,0,0c8.1-2.48,20.92-5.05,21.71-5.11,0,0,.06,0,.06.08A.09.09,0,0,1,28.11,62.23Z"/><path class="cls-2" d="M29.26,76.24c-.27,2.21-.9,5.71-1.41,7.88,0,.13-.07.27-.1.41A13.17,13.17,0,0,1,28,86.88a25.41,25.41,0,0,1-.18,2.76s-.06,0-.06,0a19.27,19.27,0,0,0,0-2.74c0-.54-.09-1.09-.13-1.63-.5,2.06-1,4.13-1.67,6.16,0,0-.06,0-.05,0,.48-2.2,1-4.39,1.41-6.61S28.6,77.38,29,75.18C29.29,73.43,29.35,75.55,29.26,76.24Z"/><path class="cls-9" d="M50.75,67c.28.81,4.74,5.79,8.5,5.24,1.23-.18.54-6.9.54-6.9l.07-.51.88-7.11-9.94-5S50.63,66.7,50.75,67Z"/><path class="cls-2" d="M60.73,57.76l-.89,7.11-.06.51S59.9,66.6,60,68c-5.22-.27-8-3.9-9.24-6.47,0-4,.08-8.81.08-8.81Z"/><path class="cls-9" d="M71.81,45.64c3.63,14.91-4.9,18.77-8.12,19.55-2.92.7-12.95,2.74-18.1-11.72s.64-20.87,7.23-22.84S68.17,30.72,71.81,45.64Z"/><path class="cls-2" d="M67.52,46.06a7.57,7.57,0,0,1-1.06,0,1.75,1.75,0,0,1-1.07-.24.55.55,0,0,1-.11-.66,1.35,1.35,0,0,1,1.26-.54,2,2,0,0,1,1.35.48.58.58,0,0,1-.37,1Z"/><path class="cls-2" d="M56.91,48.34c.34-.11.67-.24,1-.38a1.78,1.78,0,0,0,.93-.59.54.54,0,0,0-.12-.66,1.35,1.35,0,0,0-1.36-.09,2.06,2.06,0,0,0-1.12.91.58.58,0,0,0,.28.77A.62.62,0,0,0,56.91,48.34Z"/><path class="cls-2" d="M61.4,58.64c.28.21.56.52.94.51a2.62,2.62,0,0,0,1.09-.37,0,0,0,0,1,0,0s0,0,0,0a1.42,1.42,0,0,1-1.26.71,1.1,1.1,0,0,1-.91-.83C61.29,58.64,61.36,58.59,61.4,58.64Z"/><path class="cls-7" d="M65.17,56.16a4.37,4.37,0,0,1-1.29,1.75,1.9,1.9,0,0,1-1.1.38c-.88,0-1.11-.72-1.14-1.4a5,5,0,0,1,.09-1.09A5.57,5.57,0,0,0,65.17,56.16Z"/><path class="cls-3" d="M64.64,57.12a1.18,1.18,0,0,1-.13.18,3.84,3.84,0,0,1-.83,0Z"/><path class="cls-3" d="M62.8,57.23a2.7,2.7,0,0,1-.63-.07,2.58,2.58,0,0,1-.53-.19v-.19A8.18,8.18,0,0,0,62.8,57.23Z"/><path class="cls-2" d="M65.1,54.2s.46,1.51.58,2.23c0,.07-.16.13-.4.18h0a3.52,3.52,0,0,1-3.57-.73.08.08,0,0,1,0-.11.07.07,0,0,1,.1,0,5.32,5.32,0,0,0,3.31.38c0-.21-.89-2.58-.78-2.58.5,0,1.39.07,1.72.1-.29-1-1.23-3.74-1.74-5.54,0-.11.14-.17.18-.07a48.25,48.25,0,0,1,2.4,6.1C66.91,54.33,65.41,54.27,65.1,54.2Z"/><path class="cls-2" d="M57.74,51.13a1.46,1.46,0,0,1,.22-.76,1.06,1.06,0,0,1,.72-.44,1,1,0,0,1,.81.29,1.7,1.7,0,0,1,.37.67c0,.15.07.3.1.45a2.18,2.18,0,0,1-.09.95,2.64,2.64,0,0,0-.13-.68,4.14,4.14,0,0,0-.21-.59c-.19-.38-.47-.69-.79-.63a.89.89,0,0,0-.64.76A7.37,7.37,0,0,0,58,52.48,3.14,3.14,0,0,1,57.74,51.13Z"/><path class="cls-2" d="M68.06,49.12a1.62,1.62,0,0,0-.49-.61,1.06,1.06,0,0,0-.83-.14,1,1,0,0,0-.64.58,1.6,1.6,0,0,0-.09.75,2.34,2.34,0,0,0,.09.46,2,2,0,0,0,.43.85,3.16,3.16,0,0,1-.14-.68,3.31,3.31,0,0,1,0-.63c0-.43.17-.82.49-.88a.87.87,0,0,1,.88.47,7.48,7.48,0,0,1,.58,1.21A3,3,0,0,0,68.06,49.12Z"/><path class="cls-2" d="M44.11,54.8c4.57.05,6.62-5.51,5.31-9.8,0,0,12.18.88,12.18-8.85A9.52,9.52,0,0,0,69.69,40l1.56,3.5c1.22-.43,2.33-4-.86-6.62,0,0-.5-4.82-4.23-7.51A6.61,6.61,0,0,0,59,28.82a10,10,0,0,0-7.39-1.36,8.55,8.55,0,0,0-6,5S39.68,34,38.92,38.27a8.79,8.79,0,0,0,1.61,7.06s-1.41,1.76-.43,5.35C40.72,53,42.75,54.8,44.11,54.8Z"/><path class="cls-2" d="M61.27,35.31a11.08,11.08,0,0,1,.17,2.37,9.59,9.59,0,0,1-.3,2.32,6.13,6.13,0,0,1-2.59,3.64A9.81,9.81,0,0,1,54.16,45c-.79,0-1.57.11-2.37.08S50.21,45,49.41,45c.78.14,1.57.25,2.37.38a19.28,19.28,0,0,0,2.41.08,9.57,9.57,0,0,0,4.66-1.35,6.4,6.4,0,0,0,2.71-4A9.61,9.61,0,0,0,61.27,35.31Z"/><path class="cls-2" d="M45.6,32.46a11.15,11.15,0,0,0-4.4,1.23A6.73,6.73,0,0,0,38,37a7.26,7.26,0,0,0-.43,2.3,6.71,6.71,0,0,0,.25,2.32,6.17,6.17,0,0,0,2.7,3.68,6.86,6.86,0,0,1-2.28-3.75,7.63,7.63,0,0,1,.29-4.31,5.65,5.65,0,0,1,1.14-1.82,9.1,9.1,0,0,1,1.73-1.36A14.37,14.37,0,0,1,45.6,32.46Z"/><path class="cls-2" d="M59,28.84a11.21,11.21,0,0,1,3.51-.9,7,7,0,0,1,3.45.55,7.12,7.12,0,0,1,2.65,2.28A12.6,12.6,0,0,1,70.26,34,9.05,9.05,0,0,0,69,30.53a6.24,6.24,0,0,0-6.52-3A8.38,8.38,0,0,0,59,28.84Z"/><path class="cls-2" d="M67.84,40.55a12.71,12.71,0,0,1-3.79-1.76,7.65,7.65,0,0,1-1.51-1.39,9,9,0,0,1-1.14-1.78,4.91,4.91,0,0,0,.76,2,5.62,5.62,0,0,0,1.51,1.6,7.09,7.09,0,0,0,2,1A6.32,6.32,0,0,0,67.84,40.55Z"/><path class="cls-10" d="M58.24,56.8a5.36,5.36,0,1,1,4.71-7h0a5.37,5.37,0,0,1-3.41,6.77A5.26,5.26,0,0,1,58.24,56.8Zm-.7-10A4.89,4.89,0,0,0,56.4,47a4.67,4.67,0,1,0,1.14-.22Z"/><path class="cls-10" d="M69.85,54.48c-2,.15-4-1.82-4.57-4.57A6.41,6.41,0,0,1,65.69,46a3.35,3.35,0,0,1,4.3-2,3.27,3.27,0,0,1,1.32.91,6.36,6.36,0,0,1,1.81,3.47c.55,2.9-.76,5.6-2.92,6A2.09,2.09,0,0,1,69.85,54.48Zm-1.24-9.9a.83.83,0,0,0-.27,0,2.89,2.89,0,0,0-2,1.72A5.68,5.68,0,0,0,66,49.78c.48,2.52,2.3,4.3,4.08,4s2.83-2.65,2.36-5.17a5.74,5.74,0,0,0-1.6-3.09A2.93,2.93,0,0,0,68.61,44.58Z"/><path class="cls-10" d="M62.94,50.4,62.47,50c.57-.69,2-1.74,3.29-.79l-.38.49C64.23,48.86,63,50.34,62.94,50.4Z"/><path class="cls-10" d="M41.72,55.61l-.58-.18c.09-.27.83-2.65,2.11-3.12s9.3-1.19,9.65-1.22l.06.6c-2.33.22-8.57.85-9.5,1.19S41.92,55,41.72,55.61Z"/><path class="cls-9" d="M48.76,54.15s-4-4.23-6-2.72,1.57,8,4.24,8.55a2.59,2.59,0,0,0,3.2-1.79l0-.1Z"/><path class="cls-2" d="M43.81,53.26a0,0,0,0,0,0,.05l0,0c1.9.44,3.06,1.94,4,3.54a1.44,1.44,0,0,0-2.18-.06s0,.1.06.08a1.61,1.61,0,0,1,1.82.29,7.53,7.53,0,0,1,1,1.28c.11.14.38,0,.29-.16l0,0C48.51,56,46.27,53.12,43.81,53.26Z"/><path class="cls-8" d="M44.55,68.06c-.62-.76,3.37-3,4.41-2.18s6.29,14.18,4.59,28.64-29.69,30-30.73,27.87c-.43-.9.12-3.44.8-4.25,1-1.14,21.17-13.68,23.16-22.64C48.56,87.52,46.12,70,44.55,68.06Z"/><path class="cls-8" d="M60.3,67.76c-.84-1.6,3.49-.32,4,.54S70.52,83,71.52,92c.38,3.61,1.8,13.35,1.8,13.35s-4.23-13.06-7.71-24A114,114,0,0,0,60.3,67.76Z"/></g><g id="freepik--speech-bubble--inject-251"><path class="cls-7" d="M103,20.59A13.53,13.53,0,0,1,81.4,31.45l-6.63,1.69L77.53,27A13.53,13.53,0,1,1,103,20.59Z"/><path class="cls-2" d="M103,20.59a13.61,13.61,0,0,1-2,7.1,17.87,17.87,0,0,1-1.07,1.51,15.1,15.1,0,0,1-1.3,1.35,8,8,0,0,1-.7.61l-.76.57c-.25.18-.53.33-.79.5l-.4.25-.42.21-.84.41-.88.33a6.69,6.69,0,0,1-.9.27c-.3.07-.6.17-.91.22a14.32,14.32,0,0,1-1.86.23,11.93,11.93,0,0,1-1.89,0,13.71,13.71,0,0,1-7-2.6l.11,0-6.62,1.72-.33.09.14-.32,2.74-6.18V27a13.43,13.43,0,0,1-1.58-5.95,13.62,13.62,0,0,1,26.85-3.7,14.19,14.19,0,0,1,.39,3.18Zm0,0A13.46,13.46,0,0,0,80.83,10.34a13.86,13.86,0,0,0-3.6,4.84,13.39,13.39,0,0,0,.45,11.7l0,.08,0,.08-2.77,6.17-.2-.23,6.64-1.66h.06l.06,0A13.33,13.33,0,0,0,88.29,34a11.56,11.56,0,0,0,1.86,0A14.2,14.2,0,0,0,92,33.83a9.24,9.24,0,0,0,.91-.21,5.65,5.65,0,0,0,.89-.26l.88-.31.84-.4.42-.2.38-.24c.26-.16.54-.31.79-.49l.76-.56a8,8,0,0,0,.7-.61,14.85,14.85,0,0,0,1.3-1.33,16.09,16.09,0,0,0,1.08-1.52A13.73,13.73,0,0,0,103,20.59Z"/><polygon class="cls-6" points="87.26 28.64 81.2 22.5 83.24 20.48 86.78 24.07 94.14 12.53 96.55 14.07 87.26 28.64"/></g></g></svg>