<?xml version="1.0" standalone="no"?>
<!DOCTYPE svg PUBLIC "-//W3C//DTD SVG 20010904//EN"
 "http://www.w3.org/TR/2001/REC-SVG-20010904/DTD/svg10.dtd">
<svg version="1.0" xmlns="http://www.w3.org/2000/svg"
 width="1582.000000pt" height="894.000000pt" viewBox="0 0 1582.000000 894.000000"
 preserveAspectRatio="xMidYMid meet">

<g transform="translate(0.000000,894.000000) scale(0.100000,-0.100000)"
fill="#000000" stroke="none">
<path d="M0 4470 l0 -4470 7910 0 7910 0 0 4470 0 4470 -7910 0 -7910 0 0
-4470z m9027 3685 c63 -19 131 -82 164 -151 19 -42 23 -69 27 -193 4 -130 2
-146 -14 -158 -24 -17 -49 -16 -68 3 -13 12 -16 40 -16 135 0 99 -4 128 -21
167 -58 133 -222 146 -300 24 -28 -45 -29 -50 -29 -178 0 -143 -7 -164 -54
-164 -41 0 -46 17 -46 147 0 164 22 237 91 305 74 72 164 93 266 63z m-1972
-9 c92 -20 153 -54 226 -126 106 -105 157 -235 146 -375 -17 -206 -161 -374
-366 -426 -72 -18 -92 -19 -161 -10 -219 29 -379 182 -420 401 -13 70 -5 146
26 234 80 226 313 354 549 302z m1255 -216 c11 18 3 -84 -12 -152 -16 -76 -32
-78 -50 -5 -9 34 -19 61 -25 60 -25 -5 15 147 55 207 17 25 17 24 20 -50 2
-49 6 -70 12 -60z m-496 -216 c3 -8 2 -12 -4 -9 -6 3 -10 10 -10 16 0 14 7 11
14 -7z m436 -34 c-6 -11 -13 -20 -16 -20 -2 0 0 9 6 20 6 11 13 20 16 20 2 0
0 -9 -6 -20z m-389 -27 c13 -16 12 -17 -3 -4 -10 7 -18 15 -18 17 0 8 8 3 21
-13z m304 -43 c-3 -5 -12 -10 -18 -10 -7 0 -6 4 3 10 19 12 23 12 15 0z m-90
-140 c3 -5 19 -10 36 -10 22 0 29 -5 29 -19 0 -18 9 -19 181 -20 99 0 186 -4
192 -9 7 -5 54 -17 105 -27 85 -16 130 -35 83 -35 -10 0 -22 -6 -24 -12 -4
-10 -7 -10 -15 0 -5 8 -20 11 -35 8 -19 -3 -27 0 -27 10 0 8 -10 14 -25 14
-25 0 -26 -1 -23 -62 l3 -63 83 -1 82 -2 2 32 1 31 4 -32 c3 -25 9 -33 24 -33
10 0 19 5 19 12 0 9 3 9 12 0 15 -15 50 -16 65 -1 8 8 17 7 32 -3 19 -11 24
-11 35 5 12 15 15 16 26 2 9 -11 29 -15 65 -14 35 1 65 -4 91 -18 21 -11 82
-41 134 -67 52 -26 118 -60 145 -76 28 -16 61 -34 75 -41 14 -7 55 -35 92 -61
37 -26 71 -48 76 -48 5 0 52 -36 105 -80 53 -44 100 -80 103 -80 3 0 25 -20
48 -45 24 -25 47 -45 52 -45 12 0 184 -172 184 -184 0 -5 20 -29 45 -53 25
-23 45 -45 45 -48 0 -4 29 -41 65 -83 36 -42 65 -83 65 -89 0 -7 5 -13 10 -13
6 0 13 -8 17 -17 3 -10 21 -39 40 -64 18 -26 33 -51 33 -57 0 -6 6 -15 13 -19
7 -4 18 -19 25 -33 7 -14 28 -52 47 -85 45 -77 140 -273 169 -346 l14 -36 -57
-13 c-31 -6 -65 -18 -77 -25 -45 -29 -89 -29 -138 0 -62 36 -137 55 -221 55
-102 0 -175 -37 -276 -140 -43 -44 -80 -80 -83 -80 -3 0 -15 19 -27 43 -96
189 -385 322 -699 321 -182 -1 -272 -45 -391 -190 -33 -41 -62 -74 -63 -74 -2
0 -23 30 -47 67 -124 190 -263 260 -434 218 -104 -26 -158 -59 -272 -169 -120
-115 -187 -200 -281 -358 -54 -91 -67 -108 -69 -88 -2 14 -8 51 -14 82 -11 55
-11 58 15 89 89 105 120 278 66 367 -73 119 -409 155 -718 76 -134 -34 -206
-70 -275 -140 -87 -89 -101 -133 -102 -319 0 -82 -4 -156 -8 -162 -4 -7 -33
-20 -64 -29 -31 -9 -74 -25 -97 -35 -51 -23 -82 -24 -90 -3 -4 9 1 85 9 168
37 348 -31 451 -305 464 -156 7 -210 -10 -339 -103 -41 -30 -56 -31 -160 -5
-46 12 -98 19 -119 16 -20 -3 -77 -8 -127 -11 -49 -4 -98 -9 -107 -11 -10 -3
-18 -1 -18 4 0 6 -9 8 -20 5 -19 -5 -20 -3 -10 23 6 16 15 33 19 39 4 5 14 26
21 45 20 55 97 206 125 247 14 21 25 41 25 46 0 5 14 28 30 52 17 24 30 46 30
49 0 4 23 37 50 75 28 38 50 74 50 79 0 6 8 17 18 24 11 7 21 18 23 24 2 7 40
53 84 104 44 51 85 99 90 108 16 23 156 163 197 197 21 16 78 65 127 108 49
42 94 77 100 77 6 0 16 9 23 20 7 11 17 20 22 20 4 0 29 15 55 33 25 19 54 37
64 40 9 4 17 11 17 17 0 5 5 10 11 10 6 0 34 15 62 33 71 45 98 59 202 110
178 88 205 98 205 79 0 -5 31 -16 70 -26 52 -14 96 -17 177 -14 100 3 114 6
183 39 80 39 175 122 207 181 18 33 19 33 99 36 l81 4 7 -32 c3 -18 6 -77 6
-132 l0 -99 28 3 27 3 3 133 3 132 29 0 c16 0 32 5 35 10 4 6 80 10 195 10
115 0 191 -4 195 -10z m715 -134 c0 -11 -19 -15 -25 -6 -3 5 1 10 9 10 9 0 16
-2 16 -4z m-1390 -1596 c163 -20 218 -52 227 -132 8 -66 -13 -127 -58 -170
-48 -46 -82 -55 -233 -64 -100 -6 -122 -10 -143 -28 -17 -15 -22 -26 -17 -40
7 -17 14 -18 108 -11 179 14 207 8 233 -53 23 -56 10 -118 -37 -164 l-38 -38
-105 0 c-109 0 -134 -9 -121 -44 10 -25 52 -30 139 -17 44 7 109 15 145 17 78
6 108 -9 168 -85 l40 -50 6 39 c20 124 118 350 219 504 77 117 215 257 288
291 144 67 277 -1 398 -203 100 -167 195 -464 227 -709 6 -48 4 -54 -23 -81
-21 -22 -43 -31 -82 -37 -91 -12 -280 20 -326 57 l-27 21 7 106 c7 101 6 107
-15 126 -44 40 -191 14 -249 -44 -16 -16 -21 -34 -21 -78 -1 -97 -15 -144 -51
-176 -32 -29 -34 -29 -123 -24 -92 5 -192 34 -216 62 -9 11 -16 11 -43 -5 -88
-50 -269 -84 -447 -84 -148 0 -222 15 -289 60 -72 47 -77 66 -111 415 -36 355
-36 472 -4 517 29 38 86 67 179 91 142 37 265 47 395 31z m1888 -66 c266 -39
442 -136 514 -281 32 -66 33 -199 1 -258 -22 -41 -111 -133 -151 -154 -35 -19
-27 -36 41 -87 152 -115 183 -168 135 -229 -34 -43 -92 -65 -179 -65 -128 0
-190 44 -264 190 -30 58 -57 89 -87 99 -64 23 -76 -8 -38 -93 17 -37 30 -83
30 -105 0 -34 -5 -42 -36 -62 -26 -16 -57 -24 -109 -27 -81 -5 -135 8 -166 41
-25 27 -55 124 -75 241 -22 128 -30 432 -15 537 22 147 86 233 196 260 48 11
91 10 203 -7z m-3119 -57 c81 -40 87 -55 82 -235 -8 -362 -8 -378 13 -401 30
-33 72 -26 185 29 122 60 173 73 224 59 93 -25 150 -188 96 -275 -61 -99 -425
-244 -613 -244 -90 0 -149 27 -187 85 -90 137 -159 462 -159 746 0 112 2 131
23 170 13 24 38 52 55 62 69 40 202 42 281 4z m4228 -117 c67 -29 82 -76 108
-330 17 -175 22 -200 41 -200 21 0 34 67 45 223 11 175 30 224 94 245 73 25
209 -6 263 -59 41 -40 48 -93 33 -223 -34 -276 -166 -637 -264 -722 -45 -38
-62 -40 -133 -19 -103 30 -186 134 -243 300 -45 133 -57 148 -79 100 -7 -14
-12 -72 -12 -128 0 -111 -9 -138 -53 -171 -21 -15 -47 -22 -100 -24 -86 -5
-151 11 -183 43 -21 21 -24 33 -24 99 0 136 41 377 91 528 58 178 145 308 234
350 47 22 115 18 182 -12z m-4788 6 c74 -39 120 -140 107 -234 -12 -88 -75
-162 -138 -162 -13 0 -55 21 -93 46 -63 41 -75 45 -114 41 -56 -6 -120 -51
-146 -102 -38 -77 -18 -198 44 -269 27 -31 88 -56 136 -56 73 0 106 20 164 99
57 77 75 91 116 91 34 0 106 -67 152 -143 31 -51 36 -69 35 -114 -2 -62 -19
-100 -64 -138 -85 -72 -223 -107 -433 -109 -121 -1 -149 2 -205 22 -198 68
-314 266 -315 537 0 98 3 116 26 165 33 70 121 165 193 209 166 100 448 161
535 117z m-852 -618 c-3 -8 -6 -5 -6 6 -1 11 2 17 5 13 3 -3 4 -12 1 -19z
m3393 -331 c15 -30 40 -61 59 -74 89 -60 304 -90 430 -60 70 16 82 14 140 -28
98 -72 262 -71 393 3 l48 27 68 -36 c86 -47 161 -63 257 -54 l74 7 61 -46 c34
-25 85 -53 113 -61 78 -23 185 -19 273 10 41 14 83 25 93 25 10 0 49 -25 87
-55 94 -75 158 -100 254 -99 83 1 121 14 190 65 25 19 49 34 53 34 5 0 15 9
23 19 8 11 14 17 14 13 0 -11 51 45 71 77 15 25 19 27 19 11 1 -18 2 -17 16 5
14 23 15 18 9 -70 -9 -149 -25 -293 -34 -315 -5 -11 -17 -67 -26 -125 -9 -58
-20 -109 -24 -115 -4 -5 -13 -37 -20 -70 -7 -33 -19 -73 -26 -90 -8 -16 -21
-57 -31 -90 -9 -33 -20 -64 -23 -70 -4 -5 -13 -30 -21 -55 -7 -25 -23 -65 -36
-90 -12 -25 -41 -83 -63 -130 -23 -47 -57 -112 -76 -145 -19 -33 -42 -75 -50
-92 -9 -18 -20 -33 -25 -33 -6 0 -10 -5 -10 -11 0 -6 -16 -33 -35 -59 -19 -26
-35 -53 -35 -59 0 -6 -7 -14 -15 -17 -8 -4 -15 -11 -15 -18 0 -6 -29 -46 -65
-88 -36 -42 -65 -80 -65 -83 0 -4 -20 -26 -45 -49 -25 -24 -45 -47 -45 -52 0
-11 -172 -184 -182 -184 -5 0 -28 -20 -51 -45 -24 -25 -47 -45 -50 -45 -4 0
-51 -36 -104 -80 -53 -44 -100 -80 -105 -80 -5 0 -39 -22 -76 -48 -37 -26 -78
-54 -92 -61 -14 -7 -47 -25 -75 -41 -27 -16 -70 -40 -95 -52 -25 -13 -47 -25
-50 -28 -3 -3 -25 -14 -50 -24 -64 -27 -152 -66 -172 -77 -25 -13 -24 -13 -49
29 -84 137 -210 222 -435 293 -173 55 -293 70 -580 76 -230 5 -278 3 -406 -16
-216 -31 -418 -99 -549 -185 -68 -45 -174 -149 -189 -187 -12 -27 -13 -28 -39
-14 -14 8 -53 26 -86 41 -134 59 -264 126 -352 181 -28 18 -56 33 -62 33 -6 0
-11 5 -11 10 0 6 -8 13 -17 17 -10 3 -39 21 -64 40 -26 18 -49 33 -53 33 -3 0
-14 7 -23 15 -24 21 -200 168 -236 197 -36 29 -199 191 -212 210 -5 9 -46 57
-90 108 -44 51 -82 97 -84 104 -2 6 -12 17 -23 24 -10 7 -18 18 -18 24 0 5
-22 41 -50 79 -27 38 -50 71 -50 74 0 3 -16 29 -35 58 -19 28 -35 56 -35 60 0
5 -9 22 -20 37 -29 41 -99 178 -117 230 -8 25 -19 47 -23 50 -4 3 -17 37 -30
75 -12 39 -26 75 -30 80 -4 6 -15 39 -25 75 -9 36 -21 70 -25 75 -4 6 -16 48
-25 95 -10 47 -22 90 -26 95 -4 6 -15 62 -24 125 -9 63 -20 124 -25 135 -5 11
-10 43 -13 71 -3 46 -2 51 15 46 10 -2 18 0 18 6 0 7 14 9 38 5 72 -10 270 -4
363 12 186 31 261 57 410 140 l47 26 58 -21 c165 -59 380 -20 673 120 68 33
130 60 139 60 8 0 40 -16 70 -37 87 -58 156 -75 316 -81 149 -5 230 4 388 44
117 29 124 29 223 4 93 -24 206 -26 265 -5 56 20 111 65 166 136 25 32 48 59
52 58 4 0 18 -23 32 -52z m80 -2582 c201 -29 402 -96 513 -169 132 -88 197
-196 197 -329 0 -215 -119 -373 -335 -447 -247 -85 -865 -121 -1205 -71 -266
40 -381 83 -483 184 -114 112 -149 308 -79 450 107 217 416 356 892 401 86 8
396 -4 500 -19z"/>
<path d="M6981 8093 c0 -31 2 -34 9 -18 12 28 12 55 0 55 -5 0 -10 -17 -9 -37z"/>
<path d="M6871 8113 c0 -5 13 -18 30 -31 21 -18 29 -20 29 -9 0 8 -11 22 -25
31 -27 18 -35 20 -34 9z"/>
<path d="M7061 8088 c-5 -13 -6 -27 -3 -32 3 -5 9 1 14 15 5 13 14 27 21 31 8
5 6 8 -6 8 -10 0 -21 -10 -26 -22z"/>
<path d="M7105 8050 c-3 -5 -1 -10 4 -10 6 0 11 5 11 10 0 6 -2 10 -4 10 -3 0
-8 -4 -11 -10z"/>
<path d="M7160 8041 c-17 -32 -11 -48 7 -21 9 14 22 28 27 32 7 5 4 8 -6 8
-10 0 -22 -9 -28 -19z"/>
<path d="M6827 8018 c-71 -24 -151 -95 -192 -170 -28 -50 -30 -60 -30 -163 0
-94 3 -117 23 -156 34 -70 84 -122 152 -158 146 -78 323 -50 431 67 115 124
128 312 31 451 -92 131 -259 183 -415 129z m73 -90 c-24 -40 -25 -71 -3 -89
15 -13 15 -12 5 8 -10 18 -8 28 15 62 15 23 30 41 34 41 16 0 61 -72 56 -91
-3 -10 -1 -17 4 -13 16 10 9 61 -12 88 -23 30 -12 33 36 11 36 -18 58 -51 58
-89 0 -33 -18 -54 -57 -66 l-31 -10 35 5 c47 7 73 40 67 82 -8 46 8 41 43 -14
37 -58 38 -96 5 -129 -28 -28 -54 -26 -90 6 -40 35 -49 32 -12 -3 56 -54 108
-47 131 17 11 31 27 5 33 -55 4 -46 2 -58 -17 -82 -18 -23 -29 -28 -51 -25
-19 3 -29 0 -29 -8 0 -20 -32 -33 -57 -23 -27 10 -39 32 -46 89 -6 48 -34 80
-68 80 -26 0 -59 -35 -59 -62 0 -43 -21 -98 -41 -108 -25 -14 -56 -5 -63 18
-4 12 -16 17 -38 17 -27 0 -36 6 -52 36 -17 31 -18 44 -10 85 9 46 34 74 34
38 0 -46 71 -72 104 -38 23 22 20 24 -13 8 -36 -18 -57 -10 -77 27 -25 50 10
134 67 159 13 6 39 22 58 35 49 36 66 33 41 -7z m90 -276 c-6 -2 -10 -12 -10
-21 0 -13 -8 -18 -29 -18 -38 0 -50 42 -19 67 19 15 22 15 44 -4 13 -12 19
-22 14 -24z m-108 -175 c-5 -61 14 -62 29 -2 10 38 15 45 36 45 15 0 27 -8 32
-22 9 -23 9 -23 20 5 7 19 18 27 34 27 20 0 26 -9 41 -55 9 -30 14 -60 11 -65
-12 -19 -33 -10 -43 18 l-10 27 -7 -32 c-4 -18 -11 -34 -16 -34 -27 -5 -33 -1
-44 31 l-12 35 -14 -30 c-11 -22 -22 -31 -45 -33 -47 -5 -68 21 -60 76 7 54
13 64 34 60 14 -3 16 -13 14 -51z"/>
<path d="M6797 7873 c-11 -29 15 -79 45 -87 41 -11 44 -6 8 12 -29 14 -36 24
-40 57 -5 34 -7 37 -13 18z"/>
<path d="M6860 7750 c-9 -6 -10 -10 -3 -10 6 0 15 5 18 10 8 12 4 12 -15 0z"/>
<path d="M6900 7732 c-39 -19 -109 -124 -87 -131 6 -2 15 -8 18 -14 4 -5 14
15 23 46 25 87 83 123 140 88 33 -21 48 -47 60 -103 7 -30 13 -33 34 -19 19
11 -34 99 -78 129 -40 27 -64 28 -110 4z"/>
<path d="M7222 7990 c-14 -23 -16 -33 -3 -25 5 3 11 0 13 -7 2 -9 11 -5 28 11
25 24 25 24 3 18 -24 -5 -32 8 -10 16 8 4 7 6 -3 6 -8 1 -21 -8 -28 -19z"/>
<path d="M6650 7992 c0 -5 14 -12 30 -14 19 -3 29 -1 27 6 -4 14 -57 21 -57 8z"/>
<path d="M6592 7939 c2 -7 20 -15 39 -17 40 -4 30 12 -14 22 -21 5 -28 3 -25
-5z"/>
<path d="M7281 7920 c-13 -12 -18 -20 -10 -20 16 1 49 24 49 34 0 11 -14 6
-39 -14z"/>
<path d="M6540 7861 c0 -8 34 -21 55 -21 11 1 -35 29 -47 30 -5 0 -8 -4 -8 -9z"/>
<path d="M6530 7780 c20 -13 53 -13 45 0 -3 6 -18 10 -33 10 -21 0 -24 -2 -12
-10z"/>
<path d="M6530 7715 c-28 -30 -18 -33 16 -6 14 11 21 22 16 25 -5 3 -20 -6
-32 -19z"/>
<path d="M7350 7695 c-7 -9 -10 -19 -6 -22 4 -4 10 -3 14 3 4 6 16 16 27 22
20 11 20 11 -1 12 -12 0 -27 -7 -34 -15z"/>
<path d="M6556 7651 c-3 -5 -15 -7 -26 -4 -12 3 -20 0 -20 -6 0 -7 5 -9 10 -6
6 3 10 2 10 -4 0 -5 -6 -11 -12 -14 -22 -8 -1 -18 23 -12 17 4 24 14 25 30 2
26 -1 31 -10 16z"/>
<path d="M7345 7650 c-16 -7 -12 -9 18 -9 23 -1 36 3 32 9 -7 12 -23 12 -50 0z"/>
<path d="M7320 7560 c-11 -7 -5 -10 23 -10 20 0 37 5 37 10 0 13 -40 13 -60 0z"/>
<path d="M6565 7543 c-11 -3 -24 -9 -29 -14 -17 -15 29 -10 50 6 19 15 15 16
-21 8z"/>
<path d="M7310 7495 c33 -19 50 -18 26 0 -11 8 -27 15 -35 15 -10 -1 -7 -6 9
-15z"/>
<path d="M6595 7454 c-11 -17 -13 -25 -4 -22 16 5 44 48 31 48 -5 0 -17 -12
-27 -26z"/>
<path d="M6640 7405 c-13 -14 -19 -25 -13 -25 12 0 48 38 41 45 -2 3 -15 -6
-28 -20z"/>
<path d="M7230 7421 c0 -5 14 -14 30 -20 24 -8 30 -7 30 3 0 8 -10 16 -22 20
-31 8 -38 7 -38 -3z"/>
<path d="M6697 7383 c-4 -6 -1 -28 6 -49 8 -23 16 -32 19 -23 7 19 -16 86 -25
72z"/>
<path d="M7162 7348 c2 -6 20 -12 40 -14 27 -2 36 1 32 10 -6 14 -77 19 -72 4z"/>
<path d="M7108 7318 c7 -7 12 -21 12 -32 0 -14 3 -17 11 -9 13 13 -5 53 -23
53 -9 0 -9 -3 0 -12z"/>
<path d="M6821 7308 c0 -9 -4 -25 -7 -35 -5 -14 -4 -15 5 -7 7 7 11 22 8 35
-2 13 -5 16 -6 7z"/>
<path d="M7065 7300 c3 -5 8 -10 11 -10 2 0 4 5 4 10 0 6 -5 10 -11 10 -5 0
-7 -4 -4 -10z"/>
<path d="M7731 7323 c-1 -79 1 -81 72 -80 62 2 62 2 65 33 4 39 -19 64 -59 64
-19 0 -29 5 -29 15 0 9 -9 15 -24 15 -21 0 -24 -4 -25 -47z"/>
<path d="M7910 7305 l0 -65 63 4 c34 2 65 4 70 5 4 1 7 9 7 18 0 15 2 14 15
-4 12 -18 24 -21 68 -19 49 2 52 3 55 29 4 34 22 36 22 3 0 -32 20 -44 35 -22
10 13 14 14 18 3 4 -10 26 -14 85 -13 44 1 79 -1 76 -3 -10 -10 21 -31 47 -31
24 0 30 6 40 38 17 57 9 84 -26 94 -20 5 -34 3 -45 -7 -12 -11 -18 -11 -33 -1
-9 7 -28 11 -42 8 -18 -3 -25 0 -25 12 0 11 -9 16 -26 16 -20 0 -25 -4 -22
-17 4 -16 -5 -18 -101 -16 -85 2 -109 -1 -123 -14 -10 -9 -18 -11 -18 -5 0 17
-37 24 -60 12 -11 -6 -20 -20 -20 -30 0 -12 -7 -20 -16 -20 -13 0 -16 7 -12
33 6 39 1 57 -18 57 -11 0 -14 -16 -14 -65z m200 -15 c0 -5 -4 -10 -10 -10 -5
0 -10 5 -10 10 0 6 5 10 10 10 6 0 10 -4 10 -10z m370 0 c0 -5 -4 -10 -10 -10
-5 0 -10 5 -10 10 0 6 5 10 10 10 6 0 10 -4 10 -10z"/>
<path d="M8208 5310 c-30 -30 -39 -46 -36 -66 5 -42 49 -69 114 -69 45 0 58 4
80 27 33 33 27 67 -21 115 -47 47 -85 45 -137 -7z"/>
<path d="M9281 5324 c-31 -39 -29 -123 2 -160 21 -24 28 -26 62 -20 45 9 105
65 105 98 0 11 -20 40 -44 64 -53 53 -93 59 -125 18z"/>
<path d="M5733 3635 c-162 -44 -217 -146 -215 -399 0 -132 2 -141 29 -195 32
-63 71 -93 148 -116 66 -19 134 -19 300 1 253 29 374 34 584 24 150 -8 218 -7
260 1 41 9 90 9 185 1 146 -11 198 -3 265 41 23 15 49 27 60 27 10 0 53 -16
94 -36 99 -47 163 -53 255 -25 84 25 96 25 190 6 72 -15 99 -14 194 7 38 8 63
6 123 -8 63 -15 87 -16 155 -7 54 7 95 7 123 1 23 -5 80 -7 127 -4 110 8 100
8 210 6 52 -1 120 -9 151 -16 75 -18 130 -18 201 2 54 16 64 16 137 0 73 -16
82 -16 151 0 65 14 86 15 176 4 56 -7 111 -10 122 -8 11 3 57 -1 103 -8 46 -7
147 -14 224 -15 123 -2 146 0 186 18 25 12 55 33 66 47 12 14 26 26 33 26 6 0
8 5 4 12 -4 6 1 17 11 25 11 7 16 13 12 13 -3 0 1 19 9 43 35 97 34 298 -1
374 -8 17 -15 35 -15 40 0 23 -34 74 -61 94 -18 12 -54 24 -87 28 -72 8 -258
-3 -306 -19 -30 -9 -48 -9 -100 4 -66 17 -146 12 -239 -14 -33 -10 -42 -8 -72
10 -30 19 -47 21 -142 19 -59 -1 -153 1 -208 5 -81 6 -114 5 -175 -10 -41 -9
-91 -17 -110 -16 -19 0 -62 2 -95 4 -78 3 -159 -29 -228 -90 l-51 -45 -13 29
c-7 16 -12 34 -13 40 0 22 -69 73 -112 85 -34 9 -54 8 -103 -5 -77 -20 -181
-23 -220 -6 -55 23 -110 23 -182 2 -54 -17 -76 -19 -108 -12 -62 15 -114 12
-190 -10 l-69 -20 -64 26 c-97 39 -179 42 -279 10 -79 -26 -85 -26 -128 -11
-58 19 -74 19 -165 -8 l-75 -22 -44 23 c-51 25 -144 30 -233 11 -41 -9 -63 -9
-103 2 -48 12 -307 15 -326 3 -5 -2 -35 2 -68 11 -73 19 -218 19 -288 0z m302
-79 c26 -17 33 -53 15 -86 -12 -22 -60 -40 -106 -40 -55 0 -39 -19 19 -22 49
-3 52 -5 55 -31 5 -41 -22 -67 -70 -67 -21 0 -38 -5 -38 -11 0 -6 24 -9 66 -7
58 2 68 0 84 -20 18 -21 18 -21 25 51 15 164 49 237 110 237 43 0 51 -12 71
-97 10 -40 21 -73 26 -73 5 0 7 35 6 77 -3 77 -3 77 26 91 20 10 37 12 55 6
44 -16 52 -47 47 -174 -5 -134 -17 -184 -52 -207 -23 -15 -28 -15 -60 0 -21
10 -46 35 -62 62 -34 56 -46 57 -38 4 9 -56 -12 -79 -69 -79 -29 0 -45 5 -49
15 -5 14 -9 14 -38 -1 -37 -19 -148 -30 -203 -20 -70 14 -75 26 -75 204 0 177
1 180 70 201 48 14 154 7 185 -13z m1381 5 c22 -10 50 -31 62 -45 66 -84 13
-259 -79 -260 -19 0 -46 4 -61 8 -27 8 -28 7 -28 -30 0 -21 -7 -45 -17 -56
-22 -25 -78 -24 -96 2 -13 19 -16 19 -46 4 -23 -11 -45 -14 -76 -10 -51 8 -70
26 -61 60 9 35 -3 56 -31 56 -42 0 -63 -18 -63 -53 0 -18 -7 -43 -16 -56 -14
-20 -23 -23 -61 -18 -24 2 -52 12 -62 21 -17 15 -21 15 -57 0 -50 -21 -144
-14 -200 14 -90 46 -112 214 -39 300 43 51 169 85 226 62 41 -17 56 -68 34
-114 -24 -51 -63 -58 -86 -15 -5 11 -20 19 -33 19 -58 0 -85 -102 -37 -141 33
-27 55 -24 92 12 17 16 36 28 42 26 7 -2 22 -21 34 -42 15 -27 24 -35 27 -25
3 8 13 35 21 60 22 61 61 126 108 177 32 35 46 43 74 43 59 0 121 -85 158
-215 27 -93 35 -89 35 15 1 179 26 220 133 220 39 0 77 -7 103 -19z m624 9
c10 -5 23 -24 29 -41 l11 -31 22 27 c18 20 32 26 66 27 52 0 79 -21 88 -71 l7
-36 12 52 c7 29 18 59 25 68 16 19 63 19 102 -1 30 -15 30 -16 25 -77 -4 -34
-9 -86 -13 -114 -8 -63 4 -72 61 -49 57 24 83 21 104 -14 l18 -31 18 48 c26
71 73 150 115 194 29 31 44 39 73 39 29 0 42 -7 71 -41 58 -68 131 -275 113
-321 -7 -20 -70 -30 -117 -20 -34 8 -35 9 -38 60 -3 52 -3 52 -37 52 -44 0
-65 -22 -65 -69 0 -45 -14 -61 -56 -61 -54 0 -84 16 -84 46 0 14 -3 24 -7 22
-80 -41 -116 -52 -183 -56 -64 -4 -77 -2 -91 14 -24 28 -39 80 -40 138 l0 51
-24 -63 c-39 -106 -88 -142 -193 -142 -107 0 -156 55 -168 188 l-7 73 -27 -26
c-14 -14 -34 -25 -43 -25 -23 0 -22 -4 13 -38 103 -104 -74 -238 -217 -165
-43 22 -83 75 -83 108 0 28 36 75 57 75 12 0 9 7 -11 25 -39 36 -35 78 12 125
52 53 106 66 178 45 29 -8 69 -29 88 -45 l34 -30 7 27 c12 48 43 73 92 73 25
0 53 -4 63 -10z m1276 -16 c52 -25 63 -58 40 -118 -19 -50 -39 -58 -86 -31
-59 34 -68 8 -33 -94 17 -51 24 -87 19 -104 -7 -31 -51 -57 -95 -57 -80 0
-108 42 -84 125 8 28 17 72 20 99 l6 49 -61 -7 c-60 -7 -61 -7 -77 23 -50 98
20 144 211 138 74 -3 111 -9 140 -23z m172 9 c14 -12 25 -43 36 -98 25 -134
38 -236 32 -259 -10 -41 -101 -62 -140 -33 -21 15 -35 120 -34 252 0 100 7
127 38 142 33 17 44 16 68 -4z m796 -5 c34 -15 40 -52 34 -192 -6 -130 -23
-180 -63 -190 -38 -10 -89 25 -115 79 -27 55 -39 51 -32 -10 6 -56 -12 -74
-75 -75 -38 0 -43 3 -49 26 -11 43 3 236 20 284 22 60 43 80 81 80 41 0 48 -9
75 -97 12 -40 24 -73 27 -73 3 0 2 28 -1 63 -8 72 -2 95 28 107 29 12 41 12
70 -2z m-426 -12 c66 -34 102 -101 102 -189 0 -50 -5 -72 -23 -98 -47 -71
-166 -100 -245 -60 -153 78 -147 288 9 350 36 15 127 13 157 -3z"/>
<path d="M7327 3433 c-12 -11 -8 -40 7 -52 18 -15 56 2 56 24 0 23 -48 44 -63
28z"/>
<path d="M6944 3405 c-11 -27 4 -47 33 -43 32 4 39 20 18 42 -21 20 -44 21
-51 1z"/>
<path d="M8062 3433 c-14 -47 -16 -119 -3 -127 4 -3 16 1 27 8 23 17 24 75 3
125 l-15 34 -12 -40z"/>
<path d="M7720 3417 c0 -13 48 -42 56 -34 6 5 -35 47 -46 47 -6 0 -10 -6 -10
-13z"/>
<path d="M8760 3405 c-16 -19 3 -45 32 -45 24 0 34 26 18 45 -16 19 -34 19
-50 0z"/>
<path d="M7647 3319 c12 -13 26 -18 33 -14 9 6 6 12 -11 21 -36 20 -46 17 -22
-7z"/>
<path d="M9742 3408 c-29 -29 -2 -72 40 -66 42 6 32 78 -11 78 -9 0 -22 -5
-29 -12z"/>
</g>
</svg>
