<?xml version="1.0" standalone="no"?>
<!DOCTYPE svg PUBLIC "-//W3C//DTD SVG 20010904//EN"
 "http://www.w3.org/TR/2001/REC-SVG-20010904/DTD/svg10.dtd">
<svg version="1.0" xmlns="http://www.w3.org/2000/svg"
 width="1586.000000pt" height="887.000000pt" viewBox="0 0 1586.000000 887.000000"
 preserveAspectRatio="xMidYMid meet">

<g transform="translate(0.000000,887.000000) scale(0.100000,-0.100000)"
fill="#000000" stroke="none">
<path d="M0 4435 l0 -4435 7930 0 7930 0 0 4435 0 4435 -7930 0 -7930 0 0
-4435z m9037 3700 c63 -19 131 -82 164 -151 19 -42 23 -69 27 -193 4 -130 2
-146 -14 -158 -24 -17 -49 -16 -68 3 -13 12 -16 40 -16 135 0 99 -4 128 -21
167 -58 133 -222 146 -300 24 -28 -45 -29 -50 -29 -178 0 -143 -7 -164 -54
-164 -41 0 -46 17 -46 147 0 164 22 237 91 305 74 72 164 93 266 63z m-1972
-9 c92 -20 153 -54 226 -126 106 -105 157 -235 146 -375 -17 -206 -161 -374
-366 -426 -72 -18 -92 -19 -161 -10 -219 29 -379 182 -420 401 -13 70 -5 146
26 234 80 226 313 354 549 302z m1255 -216 c11 18 3 -84 -12 -152 -16 -76 -32
-78 -50 -5 -9 34 -19 61 -25 60 -25 -5 15 147 55 207 17 25 17 24 20 -50 2
-49 6 -70 12 -60z m-496 -216 c3 -8 2 -12 -4 -9 -6 3 -10 10 -10 16 0 14 7 11
14 -7z m436 -34 c-6 -11 -13 -20 -16 -20 -2 0 0 9 6 20 6 11 13 20 16 20 2 0
0 -9 -6 -20z m-389 -27 c13 -16 12 -17 -3 -4 -10 7 -18 15 -18 17 0 8 8 3 21
-13z m304 -43 c-3 -5 -12 -10 -18 -10 -7 0 -6 4 3 10 19 12 23 12 15 0z m-90
-140 c3 -5 19 -10 36 -10 22 0 29 -5 29 -19 0 -18 9 -19 181 -20 99 0 186 -4
192 -9 7 -5 54 -17 105 -27 85 -16 130 -35 83 -35 -10 0 -22 -6 -24 -12 -4
-10 -7 -10 -15 0 -5 8 -20 11 -35 8 -19 -3 -27 0 -27 10 0 8 -10 14 -25 14
-25 0 -26 -1 -23 -62 l3 -63 83 -1 82 -2 2 32 1 31 4 -32 c3 -25 9 -33 24 -33
10 0 19 5 19 12 0 9 3 9 12 0 15 -15 50 -16 65 -1 8 8 17 7 32 -3 19 -11 24
-11 35 5 12 15 15 16 26 2 9 -11 29 -15 65 -14 35 1 65 -4 91 -18 21 -11 82
-41 134 -67 52 -26 118 -60 145 -76 28 -16 61 -34 75 -41 14 -7 55 -35 92 -61
37 -26 71 -48 76 -48 5 0 52 -36 105 -80 53 -44 100 -80 103 -80 3 0 25 -20
48 -45 24 -25 47 -45 52 -45 12 0 184 -172 184 -184 0 -5 20 -29 45 -53 25
-23 45 -45 45 -48 0 -4 29 -41 65 -83 36 -42 65 -83 65 -89 0 -7 5 -13 10 -13
6 0 13 -8 17 -17 3 -10 21 -39 40 -64 18 -26 33 -51 33 -57 0 -6 6 -15 13 -19
6 -4 21 -24 31 -43 11 -19 30 -55 44 -80 85 -150 102 -197 68 -184 -22 8 -107
-35 -171 -87 -58 -47 -95 -90 -159 -186 -16 -24 -32 -43 -36 -43 -4 0 -13 21
-19 48 -16 63 -59 146 -83 161 -16 10 -15 6 6 -21 54 -72 69 -223 31 -314 -17
-42 -78 -108 -142 -156 -29 -21 -53 -45 -53 -52 0 -8 41 -44 91 -81 99 -74
149 -133 149 -177 0 -44 -65 -103 -129 -117 -96 -20 -216 -6 -252 30 -10 10
-23 19 -27 19 -9 0 -50 62 -102 153 -17 32 -44 69 -58 83 -31 28 -86 33 -96 8
-3 -9 10 -56 29 -105 42 -105 40 -129 -17 -167 -36 -23 -49 -26 -136 -26 -70
0 -105 4 -127 16 -37 20 -69 81 -85 163 -6 33 -15 74 -21 91 -16 54 -28 224
-29 404 0 272 17 341 102 429 56 59 96 73 205 73 145 -1 296 -33 441 -96 45
-19 82 -33 82 -31 0 6 -140 75 -153 75 -7 0 -25 7 -40 15 -95 49 -415 80 -508
50 -53 -18 -184 -116 -213 -160 -23 -34 -42 -119 -56 -251 -11 -97 -10 -118 3
-160 29 -88 65 -247 83 -361 20 -128 15 -146 -52 -178 -55 -26 -242 -16 -340
18 -83 28 -98 49 -89 122 19 164 20 151 -10 181 -26 26 -30 27 -103 21 -80 -5
-163 -40 -181 -75 -4 -10 -11 -56 -14 -103 -11 -161 -36 -189 -172 -189 -103
0 -149 10 -220 46 l-50 26 -58 -26 c-32 -15 -93 -34 -135 -43 -42 -8 -97 -19
-122 -25 -25 -5 -113 -10 -196 -10 -141 -1 -157 1 -230 27 -82 28 -121 57
-155 112 -16 26 -23 62 -30 170 -5 76 -14 152 -19 168 -13 41 -35 327 -35 450
0 161 31 198 205 250 174 52 472 57 605 9 14 -5 17 -4 10 4 -5 6 -48 21 -95
33 -71 19 -111 23 -240 23 -134 -1 -171 -4 -275 -29 -157 -36 -232 -72 -310
-149 -94 -92 -106 -133 -108 -360 l-2 -178 -70 -19 c-38 -10 -113 -41 -167
-68 -53 -28 -104 -51 -112 -51 -23 0 -29 72 -14 180 6 52 12 154 12 225 0 128
-11 197 -35 219 -9 8 -10 7 -4 -9 17 -39 17 -230 1 -339 -9 -59 -16 -127 -16
-151 0 -51 25 -123 49 -143 26 -21 83 -6 203 54 174 87 242 85 308 -11 41 -59
58 -139 42 -193 -23 -77 -165 -170 -365 -238 -164 -56 -330 -78 -417 -54 -50
13 -125 82 -136 125 -3 14 -10 25 -14 25 -5 0 -16 26 -25 58 -9 31 -22 71 -30
87 -7 17 -20 68 -29 115 -8 47 -19 105 -25 130 -5 25 -14 122 -20 215 -18 262
0 337 93 394 41 26 170 38 231 23 84 -22 88 -21 35 5 -49 23 -67 27 -160 27
-130 1 -166 -12 -265 -100 -98 -86 -105 -89 -152 -62 -33 20 -52 23 -148 23
-110 0 -305 -30 -305 -47 0 -4 -4 -8 -10 -8 -6 0 -6 10 1 28 16 43 87 181 114
221 14 19 25 39 25 44 0 5 14 28 30 52 17 24 30 46 30 49 0 4 23 37 50 75 28
38 50 74 50 79 0 6 8 17 18 24 11 7 21 18 23 24 2 7 40 53 84 104 44 51 85 99
90 108 16 23 156 163 197 197 21 16 78 65 127 108 49 42 94 77 100 77 6 0 16
9 23 20 7 11 17 20 22 20 4 0 29 15 55 33 25 19 54 37 64 40 9 4 17 11 17 17
0 5 5 10 11 10 6 0 34 15 62 33 71 45 98 59 202 110 178 88 205 98 205 79 0
-5 31 -16 70 -26 52 -14 96 -17 177 -14 100 3 114 6 183 39 80 39 175 122 207
181 18 33 19 33 99 36 l81 4 7 -32 c3 -18 6 -77 6 -132 l0 -99 28 3 27 3 3
133 3 132 29 0 c16 0 32 5 35 10 4 6 80 10 195 10 115 0 191 -4 195 -10z m715
-134 c0 -11 -19 -15 -25 -6 -3 5 1 10 9 10 9 0 16 -2 16 -4z m1880 -1586 c0
-5 -4 -10 -9 -10 -6 0 -13 5 -16 10 -3 6 1 10 9 10 9 0 16 -4 16 -10z m67 -16
c-3 -3 -12 -4 -19 -1 -8 3 -5 6 6 6 11 1 17 -2 13 -5z m-5145 -38 c129 -54
160 -290 51 -386 -58 -51 -78 -55 -140 -24 -29 15 -53 31 -53 36 0 4 -17 15
-37 24 -84 35 -197 -8 -237 -91 -23 -47 -27 -151 -8 -207 7 -20 27 -51 43 -70
l31 -33 -26 42 c-26 43 -35 93 -16 93 6 0 42 -17 80 -37 73 -40 84 -59 56 -98
-10 -14 -21 -17 -50 -12 -20 3 -36 4 -36 2 0 -13 79 -35 124 -35 73 0 113 24
173 104 28 39 59 76 69 83 41 30 117 6 163 -53 89 -115 95 -127 99 -189 4 -78
-24 -136 -92 -186 -70 -53 -156 -78 -331 -95 -133 -13 -162 -13 -249 0 -114
16 -194 53 -263 119 -46 44 -107 142 -119 192 -4 17 -11 35 -16 41 -14 19 -38
174 -38 252 0 136 34 215 134 317 101 102 232 163 451 211 116 25 177 25 237
0z m5163 8 c33 -9 65 -16 72 -17 7 0 10 -4 7 -9 -3 -4 -1 -8 4 -8 25 0 51
-125 77 -378 21 -196 25 -208 59 -157 12 18 19 66 26 177 15 224 17 234 60
279 36 39 38 39 111 39 104 0 224 -43 249 -90 58 -108 -40 -578 -182 -868 -44
-90 -111 -168 -150 -174 -41 -6 -132 23 -180 58 -80 59 -136 151 -193 319 -33
99 -40 107 -65 75 -17 -22 -19 -41 -18 -140 1 -146 -12 -174 -97 -207 -73 -28
-221 -6 -274 41 -23 21 -23 23 -19 164 3 88 10 148 17 155 6 6 11 24 11 41 0
38 30 198 39 211 4 6 14 37 21 70 42 181 160 369 260 414 55 25 88 26 165 5z
m-2339 -861 c-1 -118 14 -156 76 -194 52 -32 162 -58 280 -66 92 -6 151 4 220
38 l37 19 53 -54 c65 -64 121 -82 234 -73 59 4 85 12 137 41 35 20 72 45 82
56 24 27 47 25 75 -5 13 -14 46 -40 74 -57 46 -30 58 -33 148 -36 72 -3 111 0
147 12 63 20 58 21 76 -14 25 -49 67 -79 136 -100 134 -40 266 -18 361 62 l51
43 21 -30 c41 -59 128 -137 174 -157 26 -11 59 -25 74 -31 24 -10 27 -16 23
-52 -3 -22 -10 -94 -16 -159 -6 -66 -14 -126 -19 -135 -5 -9 -16 -63 -25 -121
-10 -58 -20 -109 -24 -115 -4 -5 -13 -37 -20 -70 -7 -33 -19 -73 -26 -90 -8
-16 -21 -57 -31 -90 -9 -33 -20 -64 -23 -70 -4 -5 -13 -30 -21 -55 -7 -25 -23
-65 -36 -90 -12 -25 -41 -83 -63 -130 -23 -47 -57 -112 -76 -145 -19 -33 -42
-75 -50 -92 -9 -18 -20 -33 -25 -33 -6 0 -10 -5 -10 -11 0 -6 -16 -33 -35 -59
-19 -26 -35 -53 -35 -59 0 -6 -7 -14 -15 -17 -8 -4 -15 -11 -15 -18 0 -6 -29
-46 -65 -88 -36 -42 -65 -80 -65 -83 0 -4 -20 -26 -45 -49 -25 -24 -45 -47
-45 -52 0 -11 -172 -184 -182 -184 -5 0 -28 -20 -51 -45 -24 -25 -47 -45 -50
-45 -4 0 -51 -36 -104 -80 -53 -44 -100 -80 -105 -80 -5 0 -39 -22 -76 -48
-37 -26 -78 -54 -92 -61 -14 -7 -47 -25 -75 -41 -27 -16 -70 -40 -95 -52 -25
-13 -47 -25 -50 -28 -3 -3 -25 -14 -50 -24 -25 -11 -67 -30 -94 -43 -62 -29
-72 -29 -80 0 -20 81 -155 221 -250 261 -59 25 -56 19 13 -21 75 -45 149 -122
185 -195 20 -41 26 -67 26 -120 l0 -69 -42 -19 c-38 -17 -67 -20 -269 -20
-248 0 -239 2 -239 -60 0 -49 -9 -60 -51 -60 -42 0 -59 18 -59 64 0 42 -10 56
-42 56 -25 0 -29 -3 -23 -17 15 -35 17 -79 3 -90 -7 -6 -25 -14 -40 -18 -23
-6 -30 -2 -52 34 l-26 41 -68 0 -67 0 -20 -38 c-17 -30 -26 -37 -49 -35 -16 1
-36 9 -46 18 -16 14 -18 14 -23 0 -5 -12 -28 -15 -136 -15 -143 0 -151 3 -151
67 0 59 -15 62 -157 32 -58 -13 -63 -16 -63 -40 0 -48 -9 -59 -49 -59 -49 0
-61 14 -61 72 l0 48 -239 0 -240 0 -3 -47 c-2 -34 -7 -48 -18 -48 -23 0 -45
127 -33 198 l9 58 -55 26 c-150 68 -263 127 -348 180 -28 18 -56 33 -62 33 -6
0 -11 5 -11 10 0 6 -8 13 -17 17 -10 3 -39 21 -64 40 -26 18 -49 33 -53 33 -3
0 -14 7 -24 15 -23 21 -199 168 -235 197 -36 29 -199 191 -212 210 -5 9 -46
57 -90 108 -44 51 -82 97 -84 104 -2 6 -12 17 -23 24 -10 7 -18 18 -18 24 0 5
-22 41 -50 79 -27 38 -50 71 -50 74 0 3 -16 29 -35 58 -19 28 -35 56 -35 60 0
5 -9 22 -20 37 -29 41 -99 178 -117 230 -8 25 -19 47 -23 50 -4 3 -17 37 -30
75 -12 39 -26 75 -30 80 -4 6 -15 39 -25 75 -9 36 -21 70 -25 75 -4 6 -16 48
-25 95 -10 47 -22 90 -26 95 -4 6 -15 62 -24 125 -9 63 -21 124 -25 135 -9 21
-30 254 -30 336 0 37 4 49 15 49 8 0 15 -4 15 -9 0 -8 23 -15 148 -46 159 -38
473 4 608 81 23 13 67 44 98 69 31 26 60 45 64 43 4 -2 32 -20 62 -40 71 -48
154 -63 267 -47 168 22 396 111 571 222 l64 40 40 -47 c83 -97 160 -124 382
-133 164 -7 277 7 436 54 103 31 114 31 215 -2 61 -20 102 -26 172 -26 81 -1
96 2 137 26 25 14 69 53 99 85 50 54 56 65 76 151 23 96 31 109 67 109 20 0
21 -4 20 -97z"/>
<path d="M6991 8073 c0 -31 2 -34 9 -18 12 28 12 55 0 55 -5 0 -10 -17 -9 -37z"/>
<path d="M6881 8093 c0 -5 13 -18 30 -31 21 -18 29 -20 29 -9 0 8 -11 22 -25
31 -27 18 -35 20 -34 9z"/>
<path d="M7071 8068 c-5 -13 -6 -27 -3 -32 3 -5 9 1 14 15 5 13 14 27 21 31 8
5 6 8 -6 8 -10 0 -21 -10 -26 -22z"/>
<path d="M7115 8030 c-3 -5 -1 -10 4 -10 6 0 11 5 11 10 0 6 -2 10 -4 10 -3 0
-8 -4 -11 -10z"/>
<path d="M7170 8021 c-17 -32 -11 -48 7 -21 9 14 22 28 27 32 7 5 4 8 -6 8
-10 0 -22 -9 -28 -19z"/>
<path d="M6837 7998 c-71 -24 -151 -95 -192 -170 -28 -50 -30 -60 -30 -163 0
-94 3 -117 23 -156 34 -70 84 -122 152 -158 146 -78 323 -50 431 67 115 124
128 312 31 451 -92 131 -259 183 -415 129z m73 -90 c-24 -40 -25 -71 -3 -89
15 -13 15 -12 5 8 -10 18 -8 28 15 62 15 23 30 41 34 41 16 0 61 -72 56 -91
-3 -10 -1 -17 4 -13 16 10 9 61 -12 88 -23 30 -12 33 36 11 36 -18 58 -51 58
-89 0 -33 -18 -54 -57 -66 l-31 -10 35 5 c47 7 73 40 67 82 -8 46 8 41 43 -14
37 -58 38 -96 5 -129 -28 -28 -54 -26 -90 6 -40 35 -49 32 -12 -3 56 -54 108
-47 131 17 11 31 27 5 33 -55 4 -46 2 -58 -17 -82 -18 -23 -29 -28 -51 -25
-19 3 -29 0 -29 -8 0 -20 -32 -33 -57 -23 -27 10 -39 32 -46 89 -6 48 -34 80
-68 80 -26 0 -59 -35 -59 -62 0 -43 -21 -98 -41 -108 -25 -14 -56 -5 -63 18
-4 12 -16 17 -38 17 -27 0 -36 6 -52 36 -17 31 -18 44 -10 85 9 46 34 74 34
38 0 -46 71 -72 104 -38 23 22 20 24 -13 8 -36 -18 -57 -10 -77 27 -25 50 10
134 67 159 13 6 39 22 58 35 49 36 66 33 41 -7z m90 -276 c-6 -2 -10 -12 -10
-21 0 -13 -8 -18 -29 -18 -38 0 -50 42 -19 67 19 15 22 15 44 -4 13 -12 19
-22 14 -24z m-108 -175 c-5 -61 14 -62 29 -2 10 38 15 45 36 45 15 0 27 -8 32
-22 9 -23 9 -23 20 5 7 19 18 27 34 27 20 0 26 -9 41 -55 9 -30 14 -60 11 -65
-12 -19 -33 -10 -43 18 l-10 27 -7 -32 c-4 -18 -11 -34 -16 -34 -27 -5 -33 -1
-44 31 l-12 35 -14 -30 c-11 -22 -22 -31 -45 -33 -47 -5 -68 21 -60 76 7 54
13 64 34 60 14 -3 16 -13 14 -51z"/>
<path d="M6807 7853 c-11 -29 15 -79 45 -87 41 -11 44 -6 8 12 -29 14 -36 24
-40 57 -5 34 -7 37 -13 18z"/>
<path d="M6870 7730 c-9 -6 -10 -10 -3 -10 6 0 15 5 18 10 8 12 4 12 -15 0z"/>
<path d="M6910 7712 c-39 -19 -109 -124 -87 -131 6 -2 15 -8 18 -14 4 -5 14
15 23 46 25 87 83 123 140 88 33 -21 48 -47 60 -103 7 -30 13 -33 34 -19 19
11 -34 99 -78 129 -40 27 -64 28 -110 4z"/>
<path d="M7232 7970 c-14 -23 -16 -33 -3 -25 5 3 11 0 13 -7 2 -9 11 -5 28 11
25 24 25 24 3 18 -24 -5 -32 8 -10 16 8 4 7 6 -3 6 -8 1 -21 -8 -28 -19z"/>
<path d="M6660 7972 c0 -5 14 -12 30 -14 19 -3 29 -1 27 6 -4 14 -57 21 -57 8z"/>
<path d="M6602 7919 c2 -7 20 -15 39 -17 40 -4 30 12 -14 22 -21 5 -28 3 -25
-5z"/>
<path d="M7291 7900 c-13 -12 -18 -20 -10 -20 16 1 49 24 49 34 0 11 -14 6
-39 -14z"/>
<path d="M6550 7841 c0 -8 34 -21 55 -21 11 1 -35 29 -47 30 -5 0 -8 -4 -8 -9z"/>
<path d="M6540 7760 c20 -13 53 -13 45 0 -3 6 -18 10 -33 10 -21 0 -24 -2 -12
-10z"/>
<path d="M6540 7695 c-28 -30 -18 -33 16 -6 14 11 21 22 16 25 -5 3 -20 -6
-32 -19z"/>
<path d="M7360 7675 c-7 -9 -10 -19 -6 -22 4 -4 10 -3 14 3 4 6 16 16 27 22
20 11 20 11 -1 12 -12 0 -27 -7 -34 -15z"/>
<path d="M6566 7631 c-3 -5 -15 -7 -26 -4 -12 3 -20 0 -20 -6 0 -7 5 -9 10 -6
6 3 10 2 10 -4 0 -5 -6 -11 -12 -14 -22 -8 -1 -18 23 -12 17 4 24 14 25 30 2
26 -1 31 -10 16z"/>
<path d="M7355 7630 c-16 -7 -12 -9 18 -9 23 -1 36 3 32 9 -7 12 -23 12 -50 0z"/>
<path d="M7330 7540 c-11 -7 -5 -10 23 -10 20 0 37 5 37 10 0 13 -40 13 -60 0z"/>
<path d="M6575 7523 c-11 -3 -24 -9 -29 -14 -17 -15 29 -10 50 6 19 15 15 16
-21 8z"/>
<path d="M7320 7475 c33 -19 50 -18 26 0 -11 8 -27 15 -35 15 -10 -1 -7 -6 9
-15z"/>
<path d="M6605 7434 c-11 -17 -13 -25 -4 -22 16 5 44 48 31 48 -5 0 -17 -12
-27 -26z"/>
<path d="M6650 7385 c-13 -14 -19 -25 -13 -25 12 0 48 38 41 45 -2 3 -15 -6
-28 -20z"/>
<path d="M7240 7401 c0 -5 14 -14 30 -20 24 -8 30 -7 30 3 0 8 -10 16 -22 20
-31 8 -38 7 -38 -3z"/>
<path d="M6707 7363 c-4 -6 -1 -28 6 -49 8 -23 16 -32 19 -23 7 19 -16 86 -25
72z"/>
<path d="M7172 7328 c2 -6 20 -12 40 -14 27 -2 36 1 32 10 -6 14 -77 19 -72 4z"/>
<path d="M7118 7298 c7 -7 12 -21 12 -32 0 -14 3 -17 11 -9 13 13 -5 53 -23
53 -9 0 -9 -3 0 -12z"/>
<path d="M6831 7288 c0 -9 -4 -25 -7 -35 -5 -14 -4 -15 5 -7 7 7 11 22 8 35
-2 13 -5 16 -6 7z"/>
<path d="M7075 7280 c3 -5 8 -10 11 -10 2 0 4 5 4 10 0 6 -5 10 -11 10 -5 0
-7 -4 -4 -10z"/>
<path d="M7741 7303 c-1 -79 1 -81 72 -80 62 2 62 2 65 33 4 39 -19 64 -59 64
-19 0 -29 5 -29 15 0 9 -9 15 -24 15 -21 0 -24 -4 -25 -47z"/>
<path d="M7920 7285 l0 -65 63 4 c34 2 65 4 70 5 4 1 7 9 7 18 0 15 2 14 15
-4 12 -18 24 -21 68 -19 49 2 52 3 55 29 4 34 22 36 22 3 0 -32 20 -44 35 -22
10 13 14 14 18 3 4 -10 26 -14 85 -13 44 1 79 -1 76 -3 -10 -10 21 -31 47 -31
24 0 30 6 40 38 17 57 9 84 -26 94 -20 5 -34 3 -45 -7 -12 -11 -18 -11 -33 -1
-9 7 -28 11 -42 8 -18 -3 -25 0 -25 12 0 11 -9 16 -26 16 -20 0 -25 -4 -22
-17 4 -16 -5 -18 -101 -16 -85 2 -109 -1 -123 -14 -10 -9 -18 -11 -18 -5 0 17
-37 24 -60 12 -11 -6 -20 -20 -20 -30 0 -12 -7 -20 -16 -20 -13 0 -16 7 -12
33 6 39 1 57 -18 57 -11 0 -14 -16 -14 -65z m200 -15 c0 -5 -4 -10 -10 -10 -5
0 -10 5 -10 10 0 6 5 10 10 10 6 0 10 -4 10 -10z m370 0 c0 -5 -4 -10 -10 -10
-5 0 -10 5 -10 10 0 6 5 10 10 10 6 0 10 -4 10 -10z"/>
<path d="M8443 5930 c-124 -26 -310 -185 -435 -372 -114 -173 -188 -310 -198
-370 -5 -29 -12 -62 -15 -73 -5 -15 6 -36 36 -74 48 -60 45 -62 78 54 38 131
93 261 171 401 81 144 260 338 356 385 58 29 71 31 132 27 39 -3 81 -13 98
-23 l29 -17 -25 21 c-43 36 -153 56 -227 41z"/>
<path d="M7790 5767 c0 -95 -21 -143 -82 -185 -59 -40 -71 -43 -229 -51 -147
-8 -179 -19 -179 -62 0 -28 38 -32 154 -19 57 7 120 10 139 6 114 -21 129
-192 23 -264 -30 -20 -43 -22 -140 -20 -95 2 -110 0 -122 -16 -10 -14 -10 -24
-3 -39 12 -21 -2 -21 292 -1 81 6 112 19 68 31 -16 4 -17 10 -10 41 15 67 9
164 -15 222 -4 9 16 43 53 89 47 59 61 86 71 132 14 63 9 165 -9 196 -8 14
-10 0 -11 -60z"/>
<path d="M10000 5726 c0 -2 7 -7 16 -10 8 -3 12 -2 9 4 -6 10 -25 14 -25 6z"/>
<path d="M8442 5480 c-18 -11 -40 -37 -48 -56 -14 -32 -13 -38 1 -60 21 -33
58 -46 124 -45 86 1 120 45 86 111 -35 67 -101 88 -163 50z"/>
<path d="M9592 5477 c-18 -19 -22 -35 -22 -84 0 -70 25 -113 66 -113 40 0 100
37 124 75 20 33 21 37 6 58 -60 86 -130 111 -174 64z"/>
<path d="M6351 3784 c-81 -18 -117 -39 -157 -91 -46 -60 -58 -141 -51 -344 7
-237 38 -312 147 -362 39 -19 61 -21 173 -19 70 2 151 7 179 12 28 6 87 10
131 10 44 0 106 7 137 16 57 16 58 16 147 -15 111 -38 136 -38 242 -1 l85 29
95 -25 c83 -22 107 -25 176 -18 143 13 484 21 645 14 36 -1 102 -2 148 -2 205
0 258 0 437 1 259 2 439 -6 572 -26 95 -14 124 -15 190 -5 123 20 198 65 231
142 8 19 17 73 20 120 4 75 1 92 -21 145 -24 57 -25 64 -15 152 14 122 5 174
-35 217 -50 53 -125 71 -251 61 -56 -5 -148 -8 -206 -7 -116 2 -228 -16 -327
-53 l-61 -23 -40 29 c-52 38 -109 45 -190 25 -62 -16 -65 -16 -120 5 -78 30
-229 30 -322 0 -81 -26 -93 -26 -182 -1 -81 22 -178 26 -227 9 -26 -9 -49 -8
-114 6 -87 19 -175 16 -257 -9 -38 -11 -54 -11 -125 5 -99 23 -232 24 -332 3
-60 -12 -85 -13 -122 -4 -34 8 -60 8 -95 0 -26 -6 -70 -7 -98 -4 -29 4 -79 1
-119 -6 -62 -12 -74 -12 -105 4 -51 24 -109 27 -183 10z m126 -81 c20 -25 73
-306 73 -390 0 -43 -35 -66 -102 -67 -69 -1 -84 19 -93 126 -12 130 -9 316 4
332 23 28 95 27 118 -1z m916 2 c74 -27 98 -95 57 -162 -22 -36 -49 -42 -90
-18 -14 8 -35 14 -47 15 -31 0 -30 -40 2 -126 30 -80 32 -127 6 -153 -40 -40
-135 -39 -178 1 -30 28 -31 88 -2 159 11 29 19 68 17 88 l-3 36 -70 0 c-64 0
-70 2 -82 25 -7 14 -13 44 -13 67 0 50 20 68 91 83 68 14 256 5 312 -15z m347
14 c78 -17 103 -71 58 -124 -19 -21 -36 -27 -88 -33 -75 -8 -82 -26 -13 -30
58 -4 73 -15 73 -56 0 -44 -16 -56 -73 -56 -35 0 -47 -4 -44 -12 3 -9 23 -12
66 -9 71 3 93 -10 118 -68 13 -31 13 -36 -4 -52 -21 -22 -102 -39 -181 -39
-70 0 -135 30 -152 69 -16 38 -10 365 7 382 16 16 98 37 145 38 20 1 60 -4 88
-10z m1972 -10 c31 -16 38 -28 38 -66 0 -56 -35 -78 -140 -85 -55 -4 -41 -23
20 -26 58 -3 80 -18 80 -56 0 -36 -29 -56 -82 -56 -35 0 -48 -4 -45 -12 2 -9
27 -13 77 -13 73 0 74 -1 97 -34 51 -75 17 -107 -127 -118 -90 -7 -160 12
-184 50 -13 20 -23 235 -18 354 2 37 32 62 90 74 49 11 165 3 194 -12z m-2778
-6 c52 -32 44 -364 -11 -425 -37 -42 -115 -8 -159 69 -26 45 -44 66 -51 59 -2
-1 1 -27 7 -56 9 -49 8 -56 -9 -74 -14 -14 -34 -20 -68 -20 -69 -1 -75 16 -69
174 7 191 42 280 111 280 54 0 73 -26 100 -137 9 -40 21 -73 26 -73 5 0 8 44
7 97 -3 95 -2 97 22 110 23 12 70 9 94 -4z m1157 0 c64 -21 114 -69 129 -123
14 -50 5 -84 -31 -120 -16 -15 -29 -31 -29 -34 0 -3 18 -17 40 -31 54 -34 70
-68 45 -95 -23 -25 -78 -36 -113 -21 -15 7 -42 32 -60 57 -19 26 -41 44 -52
44 -20 0 -20 -1 -4 -37 9 -21 18 -43 21 -49 7 -19 -38 -44 -79 -44 -29 0 -41
6 -54 24 -27 42 -44 126 -51 243 -6 121 2 162 41 188 28 20 131 19 197 -2z
m489 2 c16 -8 31 -24 35 -35 10 -31 -4 -78 -31 -105 -20 -21 -24 -31 -18 -59
4 -25 1 -44 -12 -65 -20 -34 -45 -39 -89 -19 -43 19 -53 -1 -31 -66 28 -83 12
-106 -76 -106 -28 0 -42 6 -57 26 -19 25 -21 40 -21 188 0 178 10 232 43 246
38 15 224 12 257 -5z m771 -11 c11 -10 24 -34 30 -55 10 -32 9 -42 -8 -71 -25
-43 -57 -48 -93 -13 -36 35 -68 30 -98 -15 -18 -27 -22 -43 -17 -70 14 -76 75
-94 131 -39 41 40 63 33 92 -26 30 -62 28 -88 -9 -119 -28 -24 -38 -26 -117
-26 -141 1 -209 46 -233 159 -23 109 11 212 84 255 76 45 199 55 238 20z
m-473 -24 c49 -49 93 -139 126 -254 31 -106 32 -132 7 -146 -29 -15 -108 -12
-142 6 -26 13 -30 20 -29 52 3 56 2 60 -19 67 -21 6 -72 -11 -83 -28 -4 -7 -8
-27 -8 -45 0 -45 -14 -68 -45 -76 -34 -9 -97 9 -119 32 -15 18 -15 24 9 108
33 112 87 216 146 277 38 39 51 47 82 47 30 0 44 -8 75 -40z m-2591 -307 c-3
-10 -5 -2 -5 17 0 19 2 27 5 18 2 -10 2 -26 0 -35z"/>
<path d="M8012 3568 c-21 -21 -11 -78 13 -78 19 0 48 38 42 54 -9 23 -42 37
-55 24z"/>
<path d="M8417 3563 c-3 -5 -2 -15 3 -23 7 -11 15 -12 36 -5 15 6 28 15 28 20
1 12 -60 19 -67 8z"/>
<path d="M8761 3526 c-6 -7 -8 -21 -5 -30 9 -24 68 -18 72 8 7 32 -44 49 -67
22z"/>
<path d="M7710 1465 c0 -12 15 -15 73 -15 74 0 91 -5 98 -29 3 -7 10 3 16 23
l11 36 -99 0 c-81 0 -99 -3 -99 -15z"/>
</g>
</svg>
