<?xml version="1.0" standalone="no"?>
<!DOCTYPE svg PUBLIC "-//W3C//DTD SVG 20010904//EN"
 "http://www.w3.org/TR/2001/REC-SVG-20010904/DTD/svg10.dtd">
<svg version="1.0" xmlns="http://www.w3.org/2000/svg"
 width="1586.000000pt" height="889.000000pt" viewBox="0 0 1586.000000 889.000000"
 preserveAspectRatio="xMidYMid meet">

<g transform="translate(0.000000,889.000000) scale(0.100000,-0.100000)"
fill="#000000" stroke="none">
<path d="M0 4445 l0 -4445 7930 0 7930 0 0 4445 0 4445 -7930 0 -7930 0 0
-4445z m9137 3700 c63 -19 131 -82 164 -151 19 -42 23 -69 27 -193 4 -130 2
-146 -14 -158 -24 -17 -49 -16 -68 3 -13 12 -16 40 -16 135 0 99 -4 128 -21
167 -58 133 -222 146 -300 24 -28 -45 -29 -50 -29 -178 0 -143 -7 -164 -54
-164 -41 0 -46 17 -46 147 0 164 22 237 91 305 74 72 164 93 266 63z m-1972
-9 c92 -20 153 -54 226 -126 106 -105 157 -235 146 -375 -17 -206 -161 -374
-366 -426 -72 -18 -92 -19 -161 -10 -219 29 -379 182 -420 401 -13 70 -5 146
26 234 80 226 313 354 549 302z m1255 -216 c11 18 3 -84 -12 -152 -16 -76 -32
-78 -50 -5 -9 34 -19 61 -25 60 -25 -5 15 147 55 207 17 25 17 24 20 -50 2
-49 6 -70 12 -60z m-496 -216 c3 -8 2 -12 -4 -9 -6 3 -10 10 -10 16 0 14 7 11
14 -7z m436 -34 c-6 -11 -13 -20 -16 -20 -2 0 0 9 6 20 6 11 13 20 16 20 2 0
0 -9 -6 -20z m-389 -27 c13 -16 12 -17 -3 -4 -10 7 -18 15 -18 17 0 8 8 3 21
-13z m304 -43 c-3 -5 -12 -10 -18 -10 -7 0 -6 4 3 10 19 12 23 12 15 0z m-90
-140 c3 -5 19 -10 36 -10 22 0 29 -5 29 -19 0 -18 9 -19 181 -20 99 0 186 -4
192 -9 7 -5 54 -17 105 -27 85 -16 130 -35 83 -35 -10 0 -22 -6 -24 -12 -4
-10 -7 -10 -15 0 -5 8 -20 11 -35 8 -19 -3 -27 0 -27 10 0 8 -10 14 -25 14
-25 0 -26 -1 -23 -62 l3 -63 83 -1 82 -2 2 32 1 31 4 -32 c3 -25 9 -33 24 -33
10 0 19 5 19 12 0 9 3 9 12 0 15 -15 50 -16 65 -1 8 8 17 7 32 -3 19 -11 24
-11 35 5 12 15 15 16 26 2 9 -11 29 -15 65 -14 35 1 65 -4 91 -18 21 -11 82
-41 134 -67 52 -26 118 -60 145 -76 28 -16 61 -34 75 -41 14 -7 55 -35 92 -61
37 -26 71 -48 76 -48 5 0 52 -36 105 -80 53 -44 100 -80 103 -80 3 0 25 -20
48 -45 24 -25 47 -45 52 -45 12 0 184 -172 184 -184 0 -5 18 -27 40 -49 40
-40 41 -40 22 -61 -11 -12 -39 -51 -62 -88 -45 -71 -56 -79 -63 -50 -3 9 -10
38 -17 65 -7 26 -17 47 -21 47 -5 0 -9 7 -9 15 0 8 -14 29 -31 47 -29 31 -30
31 -15 6 9 -16 22 -38 30 -50 39 -61 40 -223 2 -295 -16 -32 -114 -128 -164
-162 -40 -28 -37 -35 53 -102 182 -136 203 -195 98 -275 -76 -58 -216 -58
-306 -2 -44 28 -94 88 -110 131 -4 9 -25 44 -47 77 -42 63 -86 87 -122 68 -24
-12 -23 -22 13 -106 17 -41 31 -87 31 -103 2 -53 -51 -92 -140 -103 -106 -14
-191 17 -221 79 -16 33 -35 105 -57 210 -18 91 -29 514 -16 618 21 161 114
262 252 274 112 11 397 -46 488 -97 35 -19 127 -62 122 -57 -14 15 -79 54
-110 67 -19 7 -42 19 -50 25 -8 7 -37 18 -65 24 -27 7 -57 16 -65 19 -8 3 -19
7 -25 7 -5 1 -17 5 -25 8 -16 6 -125 22 -225 32 -84 9 -191 -10 -240 -42 -22
-14 -66 -48 -97 -75 -47 -41 -60 -59 -77 -111 -22 -67 -47 -269 -38 -314 3
-16 21 -89 40 -163 44 -167 71 -343 58 -369 -33 -61 -144 -87 -268 -61 -26 5
-74 15 -106 21 -35 6 -69 20 -88 37 -34 28 -34 31 -13 193 5 39 2 50 -19 75
-22 25 -31 28 -79 28 -76 -1 -164 -31 -192 -64 -18 -23 -24 -45 -30 -114 -7
-101 -23 -144 -61 -174 -41 -33 -169 -31 -267 3 -39 14 -80 32 -90 42 -17 15
-21 15 -61 -5 -113 -58 -274 -86 -482 -86 -153 1 -227 13 -292 51 -80 46 -113
115 -113 235 0 36 -7 101 -15 144 -19 99 -40 368 -40 499 1 143 26 181 143
226 158 59 423 79 587 44 44 -9 88 -21 98 -27 10 -5 21 -8 23 -6 12 12 -96 50
-182 64 -156 25 -200 27 -277 15 -40 -6 -106 -16 -147 -22 -174 -26 -318 -102
-395 -207 -54 -75 -60 -106 -57 -304 3 -201 9 -187 -87 -207 -29 -6 -96 -34
-148 -61 -52 -28 -103 -50 -113 -50 -25 0 -32 64 -18 175 6 50 13 145 15 211
3 100 1 132 -15 180 -10 32 -24 60 -30 62 -8 2 -7 -8 3 -32 20 -47 19 -199 -1
-324 -19 -117 -14 -224 12 -269 30 -52 78 -46 213 22 187 95 258 91 327 -17
31 -48 48 -119 39 -164 -13 -74 -152 -181 -290 -224 -22 -7 -45 -16 -50 -21
-6 -4 -44 -16 -85 -27 -41 -11 -86 -25 -100 -30 -39 -15 -172 -25 -230 -17
-143 20 -221 168 -290 550 -5 28 -14 127 -20 220 -18 274 3 348 110 394 67 29
206 29 269 1 24 -11 46 -18 49 -16 9 10 -64 46 -105 52 -24 3 -46 10 -49 15
-3 5 -21 9 -41 9 l-36 0 19 21 c33 37 192 169 203 169 6 0 16 9 23 20 7 11 17
20 22 20 4 0 29 15 55 33 25 19 54 37 64 40 9 4 17 11 17 17 0 5 5 10 11 10 6
0 34 15 62 33 71 45 98 59 202 110 178 88 205 98 205 79 0 -5 31 -16 70 -26
52 -14 96 -17 177 -14 100 3 114 6 183 39 80 39 175 122 207 181 18 33 19 33
99 36 l81 4 7 -32 c3 -18 6 -77 6 -132 l0 -99 28 3 27 3 3 133 3 132 29 0 c16
0 32 5 35 10 4 6 80 10 195 10 115 0 191 -4 195 -10z m715 -134 c0 -11 -19
-15 -25 -6 -3 5 1 10 9 10 9 0 16 -2 16 -4z m-3033 -672 c-3 -3 -12 -4 -19 -1
-8 3 -5 6 6 6 11 1 17 -2 13 -5z m-322 -162 c-2 -2 17 -22 41 -44 124 -114 82
-365 -65 -394 -30 -6 -75 14 -146 66 -48 35 -86 38 -146 10 -85 -38 -117 -83
-126 -176 -15 -140 90 -274 215 -274 78 0 119 27 195 132 84 115 151 100 263
-60 78 -111 70 -207 -22 -292 -53 -49 -91 -66 -199 -92 -102 -24 -358 -35
-434 -19 -114 24 -230 100 -290 188 -62 92 -113 279 -112 416 1 139 38 223
148 328 96 94 236 157 448 205 50 11 240 16 230 6z m5170 -3 c51 -14 92 -53
105 -98 11 -42 24 -134 45 -331 9 -80 20 -149 25 -154 31 -31 53 60 68 279 10
141 23 182 69 212 36 24 148 23 225 0 127 -38 152 -100 124 -302 -41 -297
-165 -646 -271 -763 -42 -46 -44 -47 -102 -46 -69 1 -133 33 -195 97 -56 58
-113 173 -164 332 -10 32 -44 48 -44 21 0 -9 -4 -16 -10 -16 -6 0 -10 -48 -10
-122 0 -106 -3 -128 -20 -156 -28 -45 -73 -62 -168 -62 -85 0 -131 12 -174 44
-28 20 -28 21 -27 130 0 110 7 165 47 361 21 101 60 234 87 292 8 17 15 35 15
41 0 17 96 156 131 189 19 17 48 39 64 47 35 18 122 21 180 5z m-3988 -41 c-3
-7 -5 -2 -5 12 0 14 2 19 5 13 2 -7 2 -19 0 -25z m0 -145 c-3 -10 -5 -2 -5 17
0 19 2 27 5 18 2 -10 2 -26 0 -35z m-1489 -481 c68 -37 79 -63 43 -96 -45 -41
-141 37 -141 113 0 35 3 35 98 -17z m3116 -98 c13 -5 15 -17 10 -74 -19 -202
78 -274 372 -275 128 0 145 2 192 24 l52 24 40 -46 c32 -36 54 -50 107 -68
114 -38 229 -13 340 73 l53 40 47 -42 c75 -66 116 -83 213 -88 66 -3 98 0 143
16 l58 19 30 -43 c41 -60 98 -91 192 -105 130 -19 187 -2 326 98 24 17 24 17
50 -17 87 -117 248 -205 341 -187 28 6 28 6 35 -56 4 -34 11 -66 15 -72 18
-23 35 -263 35 -500 0 -236 -16 -467 -35 -504 -5 -9 -16 -63 -25 -121 -10 -58
-20 -109 -24 -115 -4 -5 -13 -37 -20 -70 -7 -33 -19 -73 -26 -90 -8 -16 -21
-57 -31 -90 -9 -33 -20 -64 -23 -70 -4 -5 -13 -30 -21 -55 -7 -25 -23 -65 -36
-90 -12 -25 -41 -83 -63 -130 -23 -47 -57 -112 -76 -145 -19 -33 -42 -75 -50
-93 -9 -17 -20 -32 -25 -32 -6 0 -10 -5 -10 -11 0 -6 -16 -33 -35 -59 -19 -26
-35 -53 -35 -59 0 -6 -7 -14 -15 -17 -8 -4 -15 -11 -15 -18 0 -6 -29 -46 -65
-88 -36 -42 -65 -80 -65 -83 0 -4 -20 -26 -45 -49 -25 -24 -45 -47 -45 -52 0
-11 -172 -184 -182 -184 -5 0 -28 -20 -51 -45 -24 -25 -47 -45 -50 -45 -4 0
-51 -36 -104 -80 -53 -44 -100 -80 -105 -80 -5 0 -39 -22 -76 -48 -37 -26 -78
-54 -92 -61 -14 -7 -47 -25 -75 -41 -27 -16 -70 -40 -95 -52 -25 -13 -47 -25
-50 -28 -3 -3 -25 -14 -50 -24 -25 -10 -61 -26 -80 -36 -60 -31 -80 -34 -80
-13 0 29 -59 133 -106 189 -45 54 -133 118 -174 128 -16 4 -11 -1 15 -15 55
-30 157 -135 185 -189 15 -30 25 -69 28 -115 4 -63 2 -72 -18 -90 -21 -19 -36
-20 -271 -20 l-249 0 0 -52 c0 -45 -4 -55 -25 -69 -18 -12 -31 -14 -52 -7 -26
9 -28 15 -33 69 l-5 59 -38 0 c-20 0 -37 -2 -37 -5 0 -3 10 -23 21 -45 l21
-39 -27 -24 c-37 -31 -66 -25 -90 20 l-20 38 -67 0 -68 0 -25 -40 c-28 -45
-54 -51 -85 -20 -25 25 -25 27 0 86 15 34 16 44 6 35 -10 -8 -46 -11 -110 -9
-94 3 -96 2 -96 -19 0 -22 4 -23 86 -23 l85 0 -3 -37 -3 -38 -135 0 -135 0 -3
59 -3 58 -52 -7 c-29 -3 -77 -10 -107 -13 -49 -6 -55 -10 -58 -32 -7 -66 -10
-70 -52 -70 -46 0 -60 18 -60 79 l0 41 -241 0 -242 0 7 -50 c5 -40 4 -50 -7
-50 -23 0 -41 58 -41 135 -1 45 -5 72 -12 72 -27 0 -295 134 -401 200 -28 18
-56 33 -61 33 -5 0 -12 7 -16 15 -3 8 -11 15 -17 15 -6 0 -33 16 -59 35 -26
19 -50 35 -54 35 -3 0 -14 7 -23 15 -24 21 -200 168 -236 197 -36 29 -199 191
-212 210 -5 9 -46 57 -90 108 -44 51 -82 97 -84 104 -2 6 -12 17 -23 24 -10 7
-18 18 -18 24 0 5 -22 41 -50 79 -27 38 -50 71 -50 74 0 3 -16 29 -35 58 -19
28 -35 56 -35 60 0 5 -9 22 -20 37 -29 41 -99 178 -117 230 -8 25 -19 47 -23
50 -4 3 -17 37 -30 75 -12 39 -26 75 -30 80 -4 6 -15 39 -25 75 -9 36 -21 70
-25 75 -4 6 -16 48 -25 95 -10 47 -22 90 -26 95 -4 6 -15 62 -24 125 -9 63
-21 124 -25 135 -13 30 -30 270 -30 430 0 160 17 400 30 430 5 11 16 73 25
138 l17 117 63 -6 c123 -13 369 33 479 88 22 11 68 42 102 69 35 27 65 49 68
49 2 0 27 -16 56 -35 65 -44 113 -57 209 -56 159 1 479 116 648 232 23 16 45
29 50 29 4 0 28 -23 52 -51 70 -81 164 -115 351 -125 141 -8 259 6 417 48 65
17 132 31 148 31 17 -1 73 -13 125 -27 197 -53 298 -28 405 102 37 45 47 67
62 135 9 45 25 89 35 99 20 20 20 20 42 12z"/>
<path d="M7091 8083 c0 -31 2 -34 9 -18 12 28 12 55 0 55 -5 0 -10 -17 -9 -37z"/>
<path d="M6981 8103 c0 -5 13 -18 30 -31 21 -18 29 -20 29 -9 0 8 -11 22 -25
31 -27 18 -35 20 -34 9z"/>
<path d="M7171 8078 c-5 -13 -6 -27 -3 -32 3 -5 9 1 14 15 5 13 14 27 21 31 8
5 6 8 -6 8 -10 0 -21 -10 -26 -22z"/>
<path d="M7215 8040 c-3 -5 -1 -10 4 -10 6 0 11 5 11 10 0 6 -2 10 -4 10 -3 0
-8 -4 -11 -10z"/>
<path d="M7270 8031 c-17 -32 -11 -48 7 -21 9 14 22 28 27 32 7 5 4 8 -6 8
-10 0 -22 -9 -28 -19z"/>
<path d="M6937 8008 c-71 -24 -151 -95 -192 -170 -28 -50 -30 -60 -30 -163 0
-94 3 -117 23 -156 34 -70 84 -122 152 -158 146 -78 323 -50 431 67 115 124
128 312 31 451 -92 131 -259 183 -415 129z m73 -90 c-24 -40 -25 -71 -3 -89
15 -13 15 -12 5 8 -10 18 -8 28 15 62 15 23 30 41 34 41 16 0 61 -72 56 -91
-3 -10 -1 -17 4 -13 16 10 9 61 -12 88 -23 30 -12 33 36 11 36 -18 58 -51 58
-89 0 -33 -18 -54 -57 -66 l-31 -10 35 5 c47 7 73 40 67 82 -8 46 8 41 43 -14
37 -58 38 -96 5 -129 -28 -28 -54 -26 -90 6 -40 35 -49 32 -12 -3 56 -54 108
-47 131 17 11 31 27 5 33 -55 4 -46 2 -58 -17 -82 -18 -23 -29 -28 -51 -25
-19 3 -29 0 -29 -8 0 -20 -32 -33 -57 -23 -27 10 -39 32 -46 89 -6 48 -34 80
-68 80 -26 0 -59 -35 -59 -62 0 -43 -21 -98 -41 -108 -25 -14 -56 -5 -63 18
-4 12 -16 17 -38 17 -27 0 -36 6 -52 36 -17 31 -18 44 -10 85 9 46 34 74 34
38 0 -46 71 -72 104 -38 23 22 20 24 -13 8 -36 -18 -57 -10 -77 27 -25 50 10
134 67 159 13 6 39 22 58 35 49 36 66 33 41 -7z m90 -276 c-6 -2 -10 -12 -10
-21 0 -13 -8 -18 -29 -18 -38 0 -50 42 -19 67 19 15 22 15 44 -4 13 -12 19
-22 14 -24z m-108 -175 c-5 -61 14 -62 29 -2 10 38 15 45 36 45 15 0 27 -8 32
-22 9 -23 9 -23 20 5 7 19 18 27 34 27 20 0 26 -9 41 -55 9 -30 14 -60 11 -65
-12 -19 -33 -10 -43 18 l-10 27 -7 -32 c-4 -18 -11 -34 -16 -34 -27 -5 -33 -1
-44 31 l-12 35 -14 -30 c-11 -22 -22 -31 -45 -33 -47 -5 -68 21 -60 76 7 54
13 64 34 60 14 -3 16 -13 14 -51z"/>
<path d="M6907 7863 c-11 -29 15 -79 45 -87 41 -11 44 -6 8 12 -29 14 -36 24
-40 57 -5 34 -7 37 -13 18z"/>
<path d="M6970 7740 c-9 -6 -10 -10 -3 -10 6 0 15 5 18 10 8 12 4 12 -15 0z"/>
<path d="M7010 7722 c-39 -19 -109 -124 -87 -131 6 -2 15 -8 18 -14 4 -5 14
15 23 46 25 87 83 123 140 88 33 -21 48 -47 60 -103 7 -30 13 -33 34 -19 19
11 -34 99 -78 129 -40 27 -64 28 -110 4z"/>
<path d="M7332 7980 c-14 -23 -16 -33 -3 -25 5 3 11 0 13 -7 2 -9 11 -5 28 11
25 24 25 24 3 18 -24 -5 -32 8 -10 16 8 4 7 6 -3 6 -8 1 -21 -8 -28 -19z"/>
<path d="M6760 7982 c0 -5 14 -12 30 -14 19 -3 29 -1 27 6 -4 14 -57 21 -57 8z"/>
<path d="M6702 7929 c2 -7 20 -15 39 -17 40 -4 30 12 -14 22 -21 5 -28 3 -25
-5z"/>
<path d="M7391 7910 c-13 -12 -18 -20 -10 -20 16 1 49 24 49 34 0 11 -14 6
-39 -14z"/>
<path d="M6650 7851 c0 -8 34 -21 55 -21 11 1 -35 29 -47 30 -5 0 -8 -4 -8 -9z"/>
<path d="M6640 7770 c20 -13 53 -13 45 0 -3 6 -18 10 -33 10 -21 0 -24 -2 -12
-10z"/>
<path d="M6640 7705 c-28 -30 -18 -33 16 -6 14 11 21 22 16 25 -5 3 -20 -6
-32 -19z"/>
<path d="M7460 7685 c-7 -9 -10 -19 -6 -22 4 -4 10 -3 14 3 4 6 16 16 27 22
20 11 20 11 -1 12 -12 0 -27 -7 -34 -15z"/>
<path d="M6666 7641 c-3 -5 -15 -7 -26 -4 -12 3 -20 0 -20 -6 0 -7 5 -9 10 -6
6 3 10 2 10 -4 0 -5 -6 -11 -12 -14 -22 -8 -1 -18 23 -12 17 4 24 14 25 30 2
26 -1 31 -10 16z"/>
<path d="M7455 7640 c-16 -7 -12 -9 18 -9 23 -1 36 3 32 9 -7 12 -23 12 -50 0z"/>
<path d="M7430 7550 c-11 -7 -5 -10 23 -10 20 0 37 5 37 10 0 13 -40 13 -60 0z"/>
<path d="M6675 7533 c-11 -3 -24 -9 -29 -14 -17 -15 29 -10 50 6 19 15 15 16
-21 8z"/>
<path d="M7420 7485 c33 -19 50 -18 26 0 -11 8 -27 15 -35 15 -10 -1 -7 -6 9
-15z"/>
<path d="M6705 7444 c-11 -17 -13 -25 -4 -22 16 5 44 48 31 48 -5 0 -17 -12
-27 -26z"/>
<path d="M6750 7395 c-13 -14 -19 -25 -13 -25 12 0 48 38 41 45 -2 3 -15 -6
-28 -20z"/>
<path d="M7340 7411 c0 -5 14 -14 30 -20 24 -8 30 -7 30 3 0 8 -10 16 -22 20
-31 8 -38 7 -38 -3z"/>
<path d="M6807 7373 c-4 -6 -1 -28 6 -49 8 -23 16 -32 19 -23 7 19 -16 86 -25
72z"/>
<path d="M7272 7338 c2 -6 20 -12 40 -14 27 -2 36 1 32 10 -6 14 -77 19 -72 4z"/>
<path d="M7218 7308 c7 -7 12 -21 12 -32 0 -14 3 -17 11 -9 13 13 -5 53 -23
53 -9 0 -9 -3 0 -12z"/>
<path d="M6931 7298 c0 -9 -4 -25 -7 -35 -5 -14 -4 -15 5 -7 7 7 11 22 8 35
-2 13 -5 16 -6 7z"/>
<path d="M7175 7290 c3 -5 8 -10 11 -10 2 0 4 5 4 10 0 6 -5 10 -11 10 -5 0
-7 -4 -4 -10z"/>
<path d="M7841 7313 c-1 -79 1 -81 72 -80 62 2 62 2 65 33 4 39 -19 64 -59 64
-19 0 -29 5 -29 15 0 9 -9 15 -24 15 -21 0 -24 -4 -25 -47z"/>
<path d="M8020 7295 l0 -65 63 4 c34 2 65 4 70 5 4 1 7 9 7 18 0 15 2 14 15
-4 12 -18 24 -21 68 -19 49 2 52 3 55 29 4 34 22 36 22 3 0 -32 20 -44 35 -22
10 13 14 14 18 3 4 -10 26 -14 85 -13 44 1 79 -1 76 -3 -10 -10 21 -31 47 -31
24 0 30 6 40 38 17 57 9 84 -26 94 -20 5 -34 3 -45 -7 -12 -11 -18 -11 -33 -1
-9 7 -28 11 -42 8 -18 -3 -25 0 -25 12 0 11 -9 16 -26 16 -20 0 -25 -4 -22
-17 4 -16 -5 -18 -101 -16 -85 2 -109 -1 -123 -14 -10 -9 -18 -11 -18 -5 0 17
-37 24 -60 12 -11 -6 -20 -20 -20 -30 0 -12 -7 -20 -16 -20 -13 0 -16 7 -12
33 6 39 1 57 -18 57 -11 0 -14 -16 -14 -65z m200 -15 c0 -5 -4 -10 -10 -10 -5
0 -10 5 -10 10 0 6 5 10 10 10 6 0 10 -4 10 -10z m370 0 c0 -5 -4 -10 -10 -10
-5 0 -10 5 -10 10 0 6 5 10 10 10 6 0 10 -4 10 -10z"/>
<path d="M8391 6739 c-94 -18 -164 -65 -306 -205 -135 -132 -313 -423 -341
-558 l-15 -75 42 -58 c41 -55 43 -56 50 -33 56 188 80 253 130 357 79 164 161
284 272 396 121 124 174 151 284 145 43 -3 85 -7 93 -9 8 -3 5 -1 -7 5 -13 5
-23 13 -23 17 0 6 -25 12 -110 24 -14 1 -45 -1 -69 -6z"/>
<path d="M8650 6666 c0 -2 8 -10 18 -17 15 -13 16 -12 3 4 -13 16 -21 21 -21
13z"/>
<path d="M7728 6601 c8 -90 -5 -137 -51 -186 -54 -55 -115 -74 -272 -84 -133
-9 -151 -14 -161 -43 -13 -43 8 -47 186 -33 89 7 111 5 138 -9 42 -22 52 -43
52 -113 0 -68 -21 -110 -72 -141 -31 -19 -48 -21 -142 -19 -86 2 -109 -1 -116
-13 -13 -21 -12 -26 6 -44 20 -21 105 -21 199 -1 39 8 97 15 130 15 l60 0 -25
18 c-22 14 -25 22 -19 47 12 53 9 149 -6 190 -8 22 -15 41 -15 41 0 1 27 36
59 78 47 60 62 90 72 134 16 77 3 212 -21 212 -4 0 -5 -22 -2 -49z"/>
<path d="M8710 6606 c0 -2 8 -10 18 -17 15 -13 16 -12 3 4 -13 16 -21 21 -21
13z"/>
<path d="M10025 6470 c10 -11 20 -20 23 -20 3 0 -3 9 -13 20 -10 11 -20 20
-23 20 -3 0 3 -9 13 -20z"/>
<path d="M8378 6285 c-47 -31 -67 -85 -44 -120 38 -58 185 -58 216 0 17 31 0
75 -44 116 -38 36 -77 37 -128 4z"/>
<path d="M9532 6283 c-28 -34 -31 -130 -6 -168 31 -48 117 -28 168 40 l27 35
-20 33 c-29 46 -85 87 -119 87 -19 0 -36 -9 -50 -27z"/>
<path d="M6427 3905 c-42 -8 -93 -22 -113 -30 -142 -59 -205 -216 -204 -515 0
-160 14 -240 55 -302 77 -117 226 -143 407 -72 47 18 50 18 115 0 124 -34 171
-38 253 -22 115 23 595 24 870 1 63 -6 105 -3 164 9 98 20 126 20 253 0 93
-16 109 -16 185 -2 95 18 414 16 533 -2 52 -8 100 -8 185 1 106 11 122 10 212
-10 213 -46 411 -17 502 73 58 59 70 95 70 226 1 106 -1 119 -26 166 l-27 52
13 92 c14 94 8 199 -14 240 -19 35 -75 69 -141 86 -81 21 -261 14 -364 -14
-62 -16 -77 -17 -135 -6 -36 7 -83 13 -106 13 -50 1 -177 -30 -265 -65 l-66
-26 -47 36 c-89 68 -156 70 -314 12 l-93 -34 -48 33 c-55 37 -109 48 -165 35
-27 -6 -50 -4 -78 6 -48 17 -119 18 -168 4 -25 -8 -57 -7 -110 1 -93 15 -166
4 -332 -48 l-118 -36 -42 30 c-89 62 -136 66 -292 23 l-108 -31 -43 26 c-92
54 -263 75 -398 50z m287 -104 c126 -62 153 -251 51 -358 -37 -38 -47 -43 -86
-43 -24 0 -59 4 -77 9 -53 16 -65 6 -59 -49 8 -69 -6 -84 -78 -85 -83 0 -94
17 -101 165 -10 190 17 349 64 375 45 25 223 16 286 -14z m2951 18 c51 -13 72
-33 81 -76 5 -25 0 -37 -24 -64 -28 -32 -35 -34 -109 -39 -60 -4 -78 -8 -78
-20 0 -12 14 -15 63 -15 70 0 92 -15 92 -65 0 -47 -22 -64 -84 -66 -60 -1 -72
-6 -61 -24 5 -8 31 -9 86 -4 l79 7 29 -32 c30 -32 48 -82 36 -101 -3 -6 -21
-18 -38 -28 -26 -14 -58 -17 -167 -17 -211 0 -218 9 -220 277 -1 235 4 246
115 271 40 9 157 7 200 -4z m-1915 -28 c14 -10 31 -34 38 -53 12 -32 12 -41
-6 -82 -28 -62 -58 -69 -109 -27 -46 38 -72 39 -112 5 -27 -23 -31 -32 -31
-79 0 -70 26 -105 79 -105 30 0 47 8 77 35 21 19 43 35 49 35 35 0 85 -79 85
-133 0 -80 -94 -119 -234 -98 -137 20 -192 65 -222 181 -27 108 -1 216 68 276
41 36 78 50 163 63 74 11 122 6 155 -18z m245 5 c25 -25 25 -36 3 -83 -12 -24
-5 -53 12 -53 6 0 23 21 38 46 49 83 72 106 101 99 35 -8 81 -63 81 -96 0 -26
-44 -75 -114 -125 -36 -26 -30 -37 37 -70 58 -29 107 -71 107 -91 0 -25 18 -4
25 30 11 51 80 189 125 248 98 131 177 142 263 37 58 -72 112 -196 151 -351
12 -50 12 -59 -1 -72 -21 -22 -56 -28 -123 -23 -82 6 -102 25 -94 89 6 41 4
48 -15 58 -27 15 -85 5 -104 -17 -8 -10 -17 -39 -20 -65 -7 -72 -29 -90 -98
-84 -62 5 -92 20 -110 53 l-11 22 -36 -24 c-19 -13 -42 -24 -52 -24 -22 0 -63
45 -89 98 -21 41 -63 73 -78 59 -3 -4 6 -37 21 -74 l27 -66 -20 -20 c-29 -30
-129 -36 -153 -10 -47 52 -49 439 -2 510 21 34 95 33 129 -1z m-843 -4 c67
-44 148 -188 193 -346 31 -108 31 -121 3 -140 -29 -20 -127 -21 -173 -2 -34
15 -35 16 -35 75 0 67 -12 78 -73 66 -52 -12 -67 -31 -67 -91 0 -43 -4 -56
-22 -68 -42 -30 -143 -14 -177 28 -12 14 -12 25 3 79 39 139 108 278 175 351
59 65 121 82 173 48z m2056 -14 c54 -33 69 -84 33 -115 -19 -16 -18 -17 19
-44 47 -34 64 -80 58 -165 -3 -56 -8 -68 -38 -99 -43 -44 -124 -75 -197 -75
-152 0 -233 79 -250 244 -13 130 73 252 197 277 53 11 141 0 178 -23z m-2921
-205 c-3 -10 -5 -4 -5 12 0 17 2 24 5 18 2 -7 2 -21 0 -30z m0 -225 c-2 -13
-4 -5 -4 17 -1 22 1 32 4 23 2 -10 2 -28 0 -40z m20 -100 c-3 -8 -6 -5 -6 6
-1 11 2 17 5 13 3 -3 4 -12 1 -19z"/>
<path d="M6564 3626 c-3 -9 -3 -27 0 -41 12 -49 101 -24 94 26 -3 21 -9 24
-46 27 -31 2 -44 -1 -48 -12z"/>
<path d="M8510 3606 c-6 -8 -10 -25 -8 -38 3 -20 9 -23 43 -23 35 0 40 3 43
24 6 42 -51 68 -78 37z"/>
<path d="M7046 3601 c-12 -13 -15 -27 -11 -41 5 -17 13 -21 42 -18 50 4 66 32
34 59 -29 24 -43 24 -65 0z"/>
<path d="M9034 3627 c-21 -18 -28 -35 -32 -75 -8 -92 32 -121 118 -86 30 12
31 13 7 9 -44 -9 -65 3 -77 41 -15 44 5 79 58 101 33 14 35 17 17 24 -35 14
-63 10 -91 -14z"/>
</g>
</svg>
