<?xml version="1.0" standalone="no"?>
<!DOCTYPE svg PUBLIC "-//W3C//DTD SVG 20010904//EN"
 "http://www.w3.org/TR/2001/REC-SVG-20010904/DTD/svg10.dtd">
<svg version="1.0" xmlns="http://www.w3.org/2000/svg"
 width="1566.000000pt" height="882.000000pt" viewBox="0 0 1566.000000 882.000000"
 preserveAspectRatio="xMidYMid meet">

<g transform="translate(0.000000,882.000000) scale(0.100000,-0.100000)"
fill="#000000" stroke="none">
<path d="M0 4410 l0 -4410 7830 0 7830 0 0 4410 0 4410 -7830 0 -7830 0 0
-4410z m8977 3695 c63 -19 131 -82 164 -151 19 -42 23 -69 27 -193 4 -130 2
-146 -14 -158 -24 -17 -49 -16 -68 3 -13 12 -16 40 -16 135 0 99 -4 128 -21
167 -58 133 -222 146 -300 24 -28 -45 -29 -50 -29 -178 0 -143 -7 -164 -54
-164 -41 0 -46 17 -46 147 0 164 22 237 91 305 74 72 164 93 266 63z m-1972
-9 c92 -20 153 -54 226 -126 106 -105 157 -235 146 -375 -17 -206 -161 -374
-366 -426 -72 -18 -92 -19 -161 -10 -219 29 -379 182 -420 401 -13 70 -5 146
26 234 80 226 313 354 549 302z m1255 -216 c11 18 3 -84 -12 -152 -16 -76 -32
-78 -50 -5 -9 34 -19 61 -25 60 -25 -5 15 147 55 207 17 25 17 24 20 -50 2
-49 6 -70 12 -60z m-496 -216 c3 -8 2 -12 -4 -9 -6 3 -10 10 -10 16 0 14 7 11
14 -7z m436 -34 c-6 -11 -13 -20 -16 -20 -2 0 0 9 6 20 6 11 13 20 16 20 2 0
0 -9 -6 -20z m-389 -27 c13 -16 12 -17 -3 -4 -17 13 -22 21 -14 21 2 0 10 -8
17 -17z m304 -43 c-3 -5 -12 -10 -18 -10 -7 0 -6 4 3 10 19 12 23 12 15 0z
m-90 -140 c3 -5 19 -10 36 -10 22 0 29 -5 29 -19 0 -18 9 -19 181 -20 99 0
186 -4 192 -9 7 -5 54 -17 105 -27 85 -16 130 -35 83 -35 -10 0 -22 -6 -24
-12 -4 -10 -7 -10 -15 0 -5 8 -20 11 -35 8 -19 -3 -27 0 -27 10 0 8 -10 14
-25 14 -25 0 -26 -1 -23 -62 l3 -63 83 -1 82 -2 2 32 1 31 4 -32 c3 -25 9 -33
24 -33 10 0 19 5 19 12 0 9 3 9 12 0 15 -15 50 -16 65 -1 8 8 17 7 32 -3 19
-11 24 -11 35 5 12 15 15 16 26 2 9 -11 29 -15 65 -14 35 1 65 -4 91 -18 21
-11 82 -41 134 -67 52 -26 118 -60 145 -76 28 -16 61 -34 75 -41 14 -7 55 -35
92 -61 37 -26 71 -48 76 -48 5 0 52 -36 105 -80 53 -44 100 -80 103 -80 3 0
25 -20 48 -45 24 -25 47 -45 52 -45 12 0 184 -172 184 -184 0 -5 20 -29 45
-53 25 -23 45 -45 45 -48 0 -4 29 -41 65 -83 36 -42 65 -83 65 -89 0 -7 5 -13
10 -13 6 0 13 -8 17 -17 3 -10 21 -39 40 -64 18 -26 33 -51 33 -57 0 -6 6 -15
13 -19 11 -7 37 -55 37 -68 0 -3 -7 -5 -16 -5 -8 0 -12 -5 -8 -11 3 -6 -8 -24
-25 -40 -18 -16 -29 -29 -24 -29 4 0 0 -5 -9 -11 -10 -5 -18 -16 -18 -22 0
-22 -107 -127 -123 -121 -9 3 -26 22 -40 42 -64 95 -161 169 -299 228 -199 83
-523 128 -663 90 -27 -7 -74 -25 -104 -40 -57 -29 -170 -137 -221 -211 -17
-25 -33 -45 -35 -45 -2 0 -25 33 -52 73 -101 153 -223 247 -344 266 -64 10
-171 -3 -244 -30 -176 -66 -403 -309 -584 -626 -48 -83 -61 -95 -61 -56 0 16
-6 53 -14 83 l-14 54 39 51 c102 135 129 337 58 436 -56 78 -209 120 -449 120
-173 1 -308 -16 -443 -56 -125 -36 -183 -68 -256 -143 -108 -110 -137 -208
-125 -430 8 -149 12 -141 -98 -177 -40 -13 -94 -31 -119 -41 -84 -32 -92 -8
-63 209 24 185 7 330 -49 411 -29 42 -99 82 -196 114 -74 23 -103 27 -206 27
-66 0 -133 -3 -150 -7 -16 -4 -41 -9 -54 -12 -13 -3 -34 -12 -47 -21 -13 -8
-24 -13 -24 -9 0 3 -19 -9 -42 -28 l-43 -33 28 37 c22 29 24 36 10 31 -10 -3
-29 -15 -42 -27 l-25 -21 22 32 c12 17 22 34 22 37 0 4 23 37 50 75 28 38 50
74 50 79 0 6 8 17 18 24 11 7 21 18 23 24 2 7 40 53 84 104 44 51 85 99 90
108 16 23 156 163 197 197 21 16 78 65 127 108 49 42 94 77 100 77 6 0 16 9
23 20 7 11 17 20 22 20 4 0 29 15 55 33 25 19 54 37 64 40 9 4 17 11 17 17 0
5 5 10 11 10 6 0 34 15 62 33 71 45 98 59 202 110 178 88 205 98 205 79 0 -5
31 -16 70 -26 52 -14 96 -17 177 -14 100 3 114 6 183 39 80 39 175 122 207
181 18 33 19 33 99 36 l81 4 7 -32 c3 -18 6 -77 6 -132 l0 -99 28 3 27 3 3
133 3 132 29 0 c16 0 32 5 35 10 4 6 80 10 195 10 115 0 191 -4 195 -10z m715
-134 c0 -11 -19 -15 -25 -6 -3 5 1 10 9 10 9 0 16 -2 16 -4z m-1263 -1210 c96
-23 134 -50 152 -106 20 -63 3 -159 -37 -209 -53 -65 -102 -82 -275 -95 -168
-12 -211 -27 -205 -69 3 -21 8 -22 83 -21 44 0 116 2 160 4 91 4 116 -5 145
-53 41 -67 14 -185 -52 -225 -31 -19 -50 -22 -156 -22 -111 0 -122 -2 -132
-20 -15 -28 2 -56 40 -63 32 -7 140 4 229 24 72 15 143 7 183 -21 18 -12 52
-47 75 -77 l42 -55 7 29 c50 222 130 408 263 613 70 109 245 287 321 326 71
37 170 40 240 8 187 -86 371 -440 459 -881 46 -228 46 -234 21 -266 -38 -47
-75 -60 -175 -60 -103 1 -285 41 -317 70 -19 17 -19 26 -13 144 7 119 6 128
-13 147 -30 30 -88 36 -168 17 -77 -18 -127 -47 -144 -85 -7 -14 -15 -70 -19
-125 -8 -110 -19 -135 -69 -167 -30 -19 -44 -20 -130 -15 -99 5 -202 36 -243
73 -16 14 -21 14 -56 -4 -127 -64 -295 -95 -518 -96 -214 -1 -306 24 -382 103
-42 44 -51 80 -68 277 -18 211 -29 316 -46 449 -6 49 -9 133 -7 185 7 145 38
184 182 231 185 59 456 74 623 35z m2099 -61 c209 -36 380 -101 474 -180 105
-88 157 -204 147 -330 -3 -39 -12 -88 -20 -108 -21 -48 -96 -128 -164 -173
-30 -20 -52 -41 -50 -47 3 -12 43 -45 156 -132 106 -82 126 -147 67 -213 -61
-67 -203 -92 -311 -55 -66 24 -119 78 -179 186 -55 100 -102 147 -146 147 -46
0 -49 -36 -12 -119 46 -103 49 -131 17 -169 -64 -76 -276 -82 -343 -9 -26 29
-67 160 -88 278 -21 126 -31 528 -15 640 7 47 23 107 37 136 30 62 99 126 157
147 55 19 163 20 273 1z m-3633 -65 c63 -30 85 -63 99 -154 9 -62 8 -103 -7
-245 -40 -383 -5 -427 246 -303 151 75 198 84 264 52 57 -28 89 -73 112 -161
16 -63 16 -68 -1 -113 -33 -85 -140 -155 -364 -237 -280 -103 -477 -107 -564
-13 -56 61 -86 134 -153 369 -38 133 -69 546 -51 669 10 63 69 130 135 151 70
22 222 15 284 -15z m-642 -141 c27 -15 54 -42 74 -73 26 -43 30 -60 33 -135 3
-79 1 -91 -25 -141 -62 -117 -141 -129 -254 -38 -63 51 -142 50 -221 -2 -97
-64 -121 -202 -57 -329 29 -55 43 -71 89 -99 50 -31 61 -33 122 -30 81 4 102
18 176 114 69 91 86 104 135 104 37 0 47 -6 97 -58 30 -32 71 -84 90 -117 30
-51 35 -67 34 -120 -1 -33 -8 -74 -17 -91 -19 -36 -83 -96 -128 -119 -88 -46
-269 -78 -444 -79 -123 -1 -149 2 -210 23 -108 37 -142 57 -210 126 -116 118
-181 317 -173 530 4 103 7 119 38 181 40 82 136 182 223 233 135 79 403 154
524 147 40 -2 76 -12 104 -27z m5561 3 c76 -33 97 -97 123 -385 18 -191 25
-229 42 -234 32 -11 63 120 63 270 0 227 52 297 209 284 123 -10 214 -59 240
-130 37 -96 -25 -439 -129 -725 -57 -156 -119 -269 -174 -319 -37 -34 -41 -35
-100 -31 -164 14 -279 145 -361 411 -20 63 -32 87 -44 87 -28 0 -39 -50 -43
-187 -3 -130 -3 -132 -32 -162 -37 -39 -80 -51 -176 -51 -95 0 -146 14 -182
50 -25 26 -28 35 -28 100 0 157 39 395 99 600 59 203 166 377 261 427 38 20
56 23 115 20 42 -2 89 -12 117 -25z m-5435 -544 c-3 -8 -6 -5 -6 6 -1 11 2 17
5 13 3 -3 4 -12 1 -19z m2807 -545 c47 -93 110 -131 267 -163 115 -24 239 -24
340 0 l56 14 63 -42 c76 -51 143 -72 230 -72 80 0 161 20 240 60 64 32 68 32
142 -12 79 -46 150 -61 274 -60 l111 2 56 -44 c72 -55 111 -74 200 -92 83 -18
199 -13 267 11 24 8 61 16 83 17 36 1 45 -4 101 -62 33 -35 78 -74 98 -87 20
-14 39 -31 42 -39 3 -8 12 -14 21 -14 8 0 15 -5 15 -10 0 -38 -22 -209 -29
-225 -5 -11 -17 -67 -26 -125 -9 -58 -20 -109 -24 -115 -4 -5 -13 -37 -20 -70
-7 -33 -19 -73 -26 -90 -8 -16 -21 -57 -31 -90 -9 -33 -20 -64 -23 -70 -4 -5
-13 -30 -21 -55 -7 -25 -23 -65 -36 -90 -12 -25 -41 -83 -63 -130 -23 -47 -57
-112 -76 -145 -19 -33 -42 -75 -50 -92 -9 -18 -20 -33 -25 -33 -6 0 -10 -5
-10 -11 0 -6 -16 -33 -35 -59 -19 -26 -35 -53 -35 -59 0 -6 -7 -14 -15 -17 -8
-4 -15 -11 -15 -18 0 -6 -29 -46 -65 -88 -36 -42 -65 -80 -65 -83 0 -4 -20
-26 -45 -49 -25 -24 -45 -47 -45 -52 0 -11 -172 -184 -183 -184 -4 0 -27 -20
-50 -45 -24 -25 -47 -45 -50 -45 -4 0 -51 -36 -104 -80 -53 -44 -100 -80 -105
-80 -5 0 -39 -22 -76 -48 -37 -26 -78 -54 -92 -61 -14 -7 -47 -25 -75 -41 -27
-16 -70 -40 -95 -52 -25 -13 -47 -25 -50 -28 -3 -3 -25 -14 -50 -24 -25 -10
-62 -27 -82 -38 l-38 -19 0 44 c0 24 -9 69 -19 100 -72 207 -297 340 -700 415
-134 24 -167 26 -406 27 -288 0 -405 -15 -613 -76 -320 -94 -532 -274 -557
-474 l-7 -54 -49 19 c-27 11 -56 24 -66 29 -10 5 -61 30 -113 56 -108 52 -134
67 -207 112 -28 18 -56 33 -62 33 -6 0 -11 5 -11 10 0 6 -8 13 -17 17 -10 3
-39 21 -64 40 -26 18 -49 33 -53 33 -3 0 -14 7 -23 15 -24 21 -200 168 -236
197 -36 29 -199 191 -212 210 -5 9 -46 57 -90 108 -44 51 -82 97 -84 104 -2 6
-12 17 -23 24 -10 7 -18 18 -18 24 0 5 -22 41 -50 79 -27 38 -50 71 -50 74 0
3 -16 29 -35 58 -19 28 -35 56 -35 60 0 5 -9 22 -20 37 -29 41 -99 178 -117
230 -8 25 -19 47 -23 50 -4 3 -17 37 -30 75 -12 39 -26 75 -30 80 -4 6 -15 39
-25 75 -9 36 -21 70 -25 75 -4 6 -16 48 -25 95 -10 47 -22 90 -26 95 -4 6 -15
62 -24 125 -9 63 -20 122 -25 131 -4 9 -11 60 -15 115 l-7 99 144 39 c78 22
147 43 152 48 6 4 17 8 27 8 29 0 161 59 235 105 81 51 101 53 192 25 175 -55
454 4 771 162 162 81 130 81 256 4 107 -65 254 -93 442 -83 108 6 307 41 408
72 66 20 91 19 178 -6 39 -11 115 -23 168 -26 139 -8 191 10 286 100 40 38 82
85 94 103 11 19 25 34 30 34 5 0 20 -21 33 -47z m-108 -2584 c390 -38 691
-170 787 -347 83 -153 38 -386 -99 -511 -109 -99 -244 -147 -511 -181 -373
-46 -648 -49 -923 -9 -276 39 -401 89 -503 198 -45 49 -60 75 -82 142 -68 202
2 379 202 510 248 162 696 241 1129 198z"/>
<path d="M6931 8043 c0 -31 2 -34 9 -18 12 28 12 55 0 55 -5 0 -10 -17 -9 -37z"/>
<path d="M6821 8063 c0 -5 13 -18 30 -31 21 -18 29 -20 29 -9 0 8 -11 22 -25
31 -27 18 -35 20 -34 9z"/>
<path d="M7011 8038 c-5 -13 -6 -27 -3 -32 3 -5 9 1 14 15 5 13 14 27 21 31 8
5 6 8 -6 8 -10 0 -21 -10 -26 -22z"/>
<path d="M7055 8000 c-3 -5 -1 -10 4 -10 6 0 11 5 11 10 0 6 -2 10 -4 10 -3 0
-8 -4 -11 -10z"/>
<path d="M7110 7991 c-17 -32 -11 -48 7 -21 9 14 22 28 27 32 7 5 4 8 -6 8
-10 0 -22 -9 -28 -19z"/>
<path d="M6777 7968 c-71 -24 -151 -95 -192 -170 -28 -50 -30 -60 -30 -163 0
-94 3 -117 23 -156 34 -70 84 -122 152 -158 146 -78 323 -50 431 67 115 124
128 312 31 451 -92 131 -259 183 -415 129z m73 -90 c-24 -40 -25 -71 -3 -89
15 -13 15 -12 5 8 -10 18 -8 28 15 62 15 23 30 41 34 41 16 0 61 -72 56 -91
-3 -10 -1 -17 4 -13 16 10 9 61 -12 88 -23 30 -12 33 36 11 36 -18 58 -51 58
-89 0 -33 -18 -54 -57 -66 l-31 -10 35 5 c47 7 73 40 67 82 -8 46 8 41 43 -14
37 -58 38 -96 5 -129 -28 -28 -54 -26 -90 6 -40 35 -49 32 -12 -3 56 -54 108
-47 131 17 11 31 27 5 33 -55 4 -46 2 -58 -17 -82 -18 -23 -29 -28 -51 -25
-19 3 -29 0 -29 -8 0 -20 -32 -33 -57 -23 -27 10 -39 32 -46 89 -6 48 -34 80
-68 80 -26 0 -59 -35 -59 -62 0 -43 -21 -98 -41 -108 -25 -14 -56 -5 -63 18
-4 12 -16 17 -38 17 -27 0 -36 6 -52 36 -17 31 -18 44 -10 85 9 46 34 74 34
38 0 -46 71 -72 104 -38 23 22 20 24 -13 8 -36 -18 -57 -10 -77 27 -25 50 10
134 67 159 13 6 39 22 58 35 49 36 66 33 41 -7z m90 -276 c-6 -2 -10 -12 -10
-21 0 -13 -8 -18 -29 -18 -38 0 -50 42 -19 67 19 15 22 15 44 -4 13 -12 19
-22 14 -24z m-108 -175 c-5 -61 14 -62 29 -2 10 38 15 45 36 45 15 0 27 -8 32
-22 9 -23 9 -23 20 5 7 19 18 27 34 27 20 0 26 -9 41 -55 9 -30 14 -60 11 -65
-12 -19 -33 -10 -43 18 l-10 27 -7 -32 c-4 -18 -11 -34 -16 -34 -27 -5 -33 -1
-44 31 l-12 35 -14 -30 c-11 -22 -22 -31 -45 -33 -47 -5 -68 21 -60 76 7 54
13 64 34 60 14 -3 16 -13 14 -51z"/>
<path d="M6747 7823 c-11 -29 15 -79 45 -87 41 -11 44 -6 8 12 -29 14 -36 24
-40 57 -5 34 -7 37 -13 18z"/>
<path d="M6810 7700 c-9 -6 -10 -10 -3 -10 6 0 15 5 18 10 8 12 4 12 -15 0z"/>
<path d="M6850 7682 c-39 -19 -109 -124 -87 -131 6 -2 15 -8 18 -14 4 -5 14
15 23 46 25 87 83 123 140 88 33 -21 48 -47 60 -103 7 -30 13 -33 34 -19 19
11 -34 99 -78 129 -40 27 -64 28 -110 4z"/>
<path d="M7172 7940 c-14 -23 -16 -33 -3 -25 5 3 11 0 13 -7 2 -9 11 -5 28 11
25 24 25 24 3 18 -24 -5 -32 8 -10 16 8 4 7 6 -3 6 -8 1 -21 -8 -28 -19z"/>
<path d="M6600 7942 c0 -5 14 -12 30 -14 19 -3 29 -1 27 6 -4 14 -57 21 -57 8z"/>
<path d="M6542 7889 c2 -7 20 -15 39 -17 40 -4 30 12 -14 22 -21 5 -28 3 -25
-5z"/>
<path d="M7231 7870 c-13 -12 -18 -20 -10 -20 16 1 49 24 49 34 0 11 -14 6
-39 -14z"/>
<path d="M6490 7811 c0 -8 34 -21 55 -21 11 1 -35 29 -47 30 -5 0 -8 -4 -8 -9z"/>
<path d="M6480 7730 c20 -13 53 -13 45 0 -3 6 -18 10 -33 10 -21 0 -24 -2 -12
-10z"/>
<path d="M6480 7665 c-28 -30 -18 -33 16 -6 14 11 21 22 16 25 -5 3 -20 -6
-32 -19z"/>
<path d="M7300 7645 c-7 -9 -10 -19 -6 -22 4 -4 10 -3 14 3 4 6 16 16 27 22
20 11 20 11 -1 12 -12 0 -27 -7 -34 -15z"/>
<path d="M6506 7601 c-3 -5 -15 -7 -26 -4 -12 3 -20 0 -20 -6 0 -7 5 -9 10 -6
6 3 10 2 10 -4 0 -5 -6 -11 -12 -14 -22 -8 -1 -18 23 -12 17 4 24 14 25 30 2
26 -1 31 -10 16z"/>
<path d="M7295 7600 c-16 -7 -12 -9 18 -9 23 -1 36 3 32 9 -7 12 -23 12 -50 0z"/>
<path d="M7270 7510 c-11 -7 -5 -10 23 -10 20 0 37 5 37 10 0 13 -40 13 -60 0z"/>
<path d="M6515 7493 c-11 -3 -24 -9 -29 -14 -17 -15 29 -10 50 6 19 15 15 16
-21 8z"/>
<path d="M7260 7445 c33 -19 50 -18 26 0 -11 8 -27 15 -35 15 -10 -1 -7 -6 9
-15z"/>
<path d="M6545 7404 c-11 -17 -13 -25 -4 -22 16 5 44 48 31 48 -5 0 -17 -12
-27 -26z"/>
<path d="M6590 7355 c-13 -14 -19 -25 -13 -25 12 0 48 38 41 45 -2 3 -15 -6
-28 -20z"/>
<path d="M7180 7371 c0 -5 14 -14 30 -20 24 -8 30 -7 30 3 0 8 -10 16 -22 20
-31 8 -38 7 -38 -3z"/>
<path d="M6647 7333 c-4 -6 -1 -28 6 -49 8 -23 16 -32 19 -23 7 19 -16 86 -25
72z"/>
<path d="M7112 7298 c2 -6 20 -12 40 -14 27 -2 36 1 32 10 -6 14 -77 19 -72 4z"/>
<path d="M7058 7268 c7 -7 12 -21 12 -32 0 -14 3 -17 11 -9 13 13 -5 53 -23
53 -9 0 -9 -3 0 -12z"/>
<path d="M6771 7258 c0 -9 -4 -25 -7 -35 -5 -14 -4 -15 5 -7 7 7 11 22 8 35
-2 13 -5 16 -6 7z"/>
<path d="M7015 7250 c3 -5 8 -10 11 -10 2 0 4 5 4 10 0 6 -5 10 -11 10 -5 0
-7 -4 -4 -10z"/>
<path d="M7681 7273 c-1 -79 1 -81 72 -80 62 2 62 2 65 33 4 39 -19 64 -59 64
-19 0 -29 5 -29 15 0 9 -9 15 -24 15 -21 0 -24 -4 -25 -47z"/>
<path d="M7860 7255 l0 -65 63 4 c34 2 65 4 70 5 4 1 7 9 7 18 0 15 2 14 15
-4 12 -18 24 -21 68 -19 49 2 52 3 55 29 4 34 22 36 22 3 0 -32 20 -44 35 -22
10 13 14 14 18 3 4 -10 26 -14 85 -13 44 1 79 -1 76 -3 -10 -10 21 -31 47 -31
24 0 30 6 40 38 17 57 9 84 -26 94 -20 5 -34 3 -45 -7 -12 -11 -18 -11 -33 -1
-9 7 -28 11 -42 8 -18 -3 -25 0 -25 12 0 11 -9 16 -26 16 -20 0 -25 -4 -22
-17 4 -16 -5 -18 -101 -16 -85 2 -109 -1 -123 -14 -10 -9 -18 -11 -18 -5 0 17
-37 24 -60 12 -11 -6 -20 -20 -20 -30 0 -12 -7 -20 -16 -20 -13 0 -16 7 -12
33 6 39 1 57 -18 57 -11 0 -14 -16 -14 -65z m200 -15 c0 -5 -4 -10 -10 -10 -5
0 -10 5 -10 10 0 6 5 10 10 10 6 0 10 -4 10 -10z m370 0 c0 -5 -4 -10 -10 -10
-5 0 -10 5 -10 10 0 6 5 10 10 10 6 0 10 -4 10 -10z"/>
<path d="M8335 5612 c-41 -26 -55 -44 -62 -85 -4 -30 -1 -40 22 -61 51 -47
157 -47 207 1 34 33 35 43 4 91 -45 71 -109 91 -171 54z"/>
<path d="M9561 5604 c-16 -20 -21 -41 -21 -86 0 -114 42 -145 140 -102 35 15
80 68 80 95 0 29 -40 79 -79 99 -56 28 -95 26 -120 -6z"/>
<path d="M6355 3286 c-58 -16 -108 -65 -125 -123 -6 -21 -14 -75 -17 -119 -11
-164 35 -244 141 -244 40 0 62 6 90 25 54 36 76 39 131 14 41 -18 73 -22 180
-25 176 -5 157 -5 370 -1 148 3 199 8 231 21 34 14 45 15 70 4 19 -8 100 -13
229 -15 110 -2 263 -6 340 -8 77 -3 154 -5 171 -6 18 0 50 9 72 20 51 26 62
26 112 0 39 -21 54 -21 388 -22 298 0 353 2 391 16 39 15 48 16 88 2 80 -27
144 -14 194 41 35 38 49 84 49 157 0 111 -41 221 -92 248 -31 17 -214 19 -273
3 -43 -11 -59 -10 -111 3 -55 15 -67 15 -121 1 -50 -12 -64 -13 -85 -2 -18 10
-69 12 -204 8 -98 -2 -183 -4 -189 -5 -5 0 -38 5 -72 12 -51 10 -72 10 -110
-1 -27 -7 -67 -12 -90 -11 -47 1 -177 2 -248 0 -25 0 -66 1 -92 2 -27 1 -71
-5 -100 -15 -49 -16 -53 -16 -78 0 -16 10 -42 16 -68 15 -23 -2 -55 -2 -72 -1
-36 2 -58 2 -190 -3 -55 -2 -109 0 -121 4 -11 4 -42 2 -68 -4 -34 -8 -53 -8
-65 0 -33 21 -79 24 -135 10 -42 -11 -65 -13 -90 -5 -25 8 -53 6 -111 -5 -70
-15 -80 -15 -107 -1 -42 22 -153 27 -213 10z m191 -51 c23 -10 39 -26 49 -49
20 -47 19 -69 -5 -116 -21 -41 -43 -52 -95 -48 -25 3 -30 -1 -30 -19 -1 -31
-18 -45 -51 -41 -37 4 -47 39 -39 146 5 81 16 119 39 134 19 13 95 9 132 -7z
m449 -2 c13 -13 15 -25 9 -62 -4 -25 -8 -59 -8 -76 -1 -32 2 -33 71 -19 28 5
34 3 45 -21 16 -36 3 -56 -53 -77 -65 -25 -124 -23 -143 4 -9 12 -16 32 -16
44 0 34 -11 35 -34 1 -27 -39 -60 -57 -109 -57 -82 0 -137 56 -137 138 0 43 5
56 33 85 72 77 196 48 229 -53 3 -8 8 5 13 30 4 25 11 53 17 63 11 22 61 22
83 0z m1350 3 c19 -8 40 -26 47 -40 14 -33 28 -33 28 -2 0 32 22 48 62 44 33
-3 33 -3 33 -58 0 -48 2 -55 20 -55 17 0 21 8 23 45 4 54 17 72 51 68 33 -4
49 -54 50 -155 1 -113 -21 -144 -80 -113 -16 9 -18 17 -13 51 7 39 6 41 -17
37 -20 -2 -24 -9 -24 -38 0 -44 -10 -60 -39 -60 -32 0 -45 17 -58 82 -11 53
-28 79 -28 43 0 -9 -12 -27 -26 -42 -22 -21 -31 -24 -64 -19 -38 6 -39 5 -42
-26 -3 -31 -5 -33 -43 -33 l-40 0 -6 59 c-9 79 5 183 27 207 21 23 89 26 139
5z m403 2 c25 -31 56 -230 40 -260 -6 -13 -21 -18 -53 -18 -54 0 -55 3 -58
154 -2 96 0 109 17 122 24 17 40 18 54 2z m-1601 -6 c6 -4 17 -21 23 -37 l11
-29 19 32 c22 35 49 41 74 16 22 -22 20 -35 -14 -85 -34 -51 -36 -61 -14 -94
30 -46 -26 -92 -83 -66 -23 11 -24 15 -19 59 6 43 4 51 -29 91 -40 50 -44 83
-13 105 25 18 28 19 45 8z m295 -9 c10 -9 18 -24 18 -35 0 -24 17 -23 25 2 9
29 50 53 76 45 30 -10 59 -83 66 -165 7 -81 -3 -100 -52 -100 -36 0 -52 24
-57 90 l-4 35 -19 -37 c-11 -24 -26 -38 -37 -38 -12 0 -25 13 -35 38 l-16 37
-12 -58 c-7 -32 -15 -60 -19 -64 -8 -8 -63 -6 -77 3 -13 8 -6 104 13 166 24
80 88 120 130 81z m388 6 c21 -8 42 -28 61 -57 l29 -46 0 35 c0 57 23 79 81
79 54 0 106 -18 127 -43 21 -25 19 -83 -3 -107 -18 -20 -18 -21 16 -50 l34
-30 -24 -20 c-34 -29 -57 -25 -97 18 l-36 37 7 -34 c8 -38 -4 -51 -47 -51 -20
0 -28 7 -37 31 -6 18 -11 42 -11 54 0 36 -14 38 -26 3 -24 -72 -126 -101 -195
-55 -92 61 -84 190 15 233 39 16 64 17 106 3z m1177 -8 c23 -11 44 -29 48 -41
8 -26 -18 -70 -42 -70 -14 0 -13 -4 5 -23 45 -48 12 -119 -61 -132 -96 -18
-187 75 -127 130 19 17 19 19 3 37 -23 26 -8 66 36 95 41 28 82 29 138 4z
m223 -18 c8 -18 17 -32 20 -32 3 0 14 14 25 32 51 80 115 19 130 -124 9 -84
-2 -109 -50 -109 -41 0 -55 20 -55 79 0 49 -10 52 -30 8 -20 -43 -50 -43 -71
2 -13 27 -17 30 -22 17 -4 -10 -7 -33 -7 -51 0 -55 -63 -80 -96 -39 -14 17 7
147 30 193 35 67 100 80 126 24z"/>
<path d="M6475 3140 c-9 -15 4 -30 26 -30 12 0 19 7 19 20 0 21 -33 29 -45 10z"/>
<path d="M6733 3133 c-21 -8 -15 -41 8 -48 28 -9 47 10 33 32 -12 19 -23 24
-41 16z"/>
<path d="M8277 3144 c-11 -11 5 -34 24 -34 12 0 19 7 19 20 0 19 -28 28 -43
14z"/>
<path d="M8012 3133 c5 -26 38 -29 38 -4 0 15 -6 21 -21 21 -14 0 -19 -5 -17
-17z"/>
<path d="M7754 3125 c-8 -21 2 -45 19 -45 8 0 20 7 27 15 10 12 10 18 0 30 -7
8 -19 15 -27 15 -7 0 -16 -7 -19 -15z"/>
<path d="M8960 3125 c7 -8 17 -15 22 -15 6 0 5 7 -2 15 -7 8 -17 15 -22 15 -6
0 -5 -7 2 -15z"/>
<path d="M8900 3065 c7 -9 15 -13 17 -11 7 7 -7 26 -19 26 -6 0 -6 -6 2 -15z"/>
</g>
</svg>
